<svg width="600" height="568" viewBox="0 0 600 568" fill="none" xmlns="http://www.w3.org/2000/svg">
<path d="M373.983 155.905C374.168 155.905 374.3 156.659 374.273 157.572C374.247 158.484 374.075 159.212 373.877 159.212C373.678 159.212 373.559 158.471 373.586 157.545C373.612 156.62 373.784 155.892 373.983 155.905Z" fill="#E0E0E0"/>
<path d="M376.508 143.064C376.693 143.131 376.323 144.546 375.86 146.278C375.384 148.01 374.974 149.425 374.789 149.386C374.604 149.359 374.71 147.865 375.199 146.093C375.675 144.321 376.336 142.985 376.522 143.051L376.508 143.064Z" fill="#E0E0E0"/>
<path d="M382.935 131.705C383.081 131.824 382.261 133.04 381.243 134.522C380.224 136.003 379.391 137.206 379.219 137.114C379.061 137.021 379.629 135.646 380.674 134.138C381.706 132.63 382.79 131.586 382.922 131.705H382.935Z" fill="#E0E0E0"/>
<path d="M392.708 123.016C392.814 123.175 391.663 124.101 390.235 125.185C388.807 126.27 387.617 127.129 387.485 126.984C387.352 126.852 388.357 125.741 389.812 124.63C391.267 123.519 392.602 122.845 392.695 123.003L392.708 123.016Z" fill="#E0E0E0"/>
<path d="M404.398 117.079C404.465 117.25 403.182 117.991 401.542 118.718C399.889 119.446 398.487 119.909 398.408 119.737C398.315 119.565 399.598 118.837 401.264 118.097C402.931 117.356 404.332 116.907 404.398 117.079Z" fill="#E0E0E0"/>
<path d="M416.935 113.244C416.975 113.429 415.6 113.958 413.854 114.421C412.108 114.883 410.654 115.121 410.601 114.936C410.548 114.751 411.923 114.222 413.682 113.759C415.441 113.283 416.896 113.058 416.935 113.244Z" fill="#E0E0E0"/>
<path d="M429.829 110.81C429.855 110.996 428.44 111.392 426.655 111.696C424.87 112.001 423.402 112.08 423.362 111.895C423.323 111.71 424.751 111.313 426.536 111.009C428.321 110.705 429.803 110.612 429.829 110.81Z" fill="#E0E0E0"/>
<path d="M442.881 109.514C442.881 109.699 441.427 109.951 439.628 110.07C437.83 110.189 436.349 110.123 436.335 109.937C436.309 109.752 437.764 109.501 439.588 109.382C441.4 109.263 442.881 109.329 442.881 109.514Z" fill="#E0E0E0"/>
<path d="M455.96 110.374C455.934 110.559 454.453 110.559 452.667 110.361C450.882 110.162 449.427 109.845 449.441 109.66C449.441 109.475 450.922 109.475 452.733 109.673C454.545 109.872 455.987 110.189 455.96 110.374Z" fill="#E0E0E0"/>
<path d="M468.682 113.522C468.616 113.707 467.161 113.429 465.442 112.926C463.71 112.411 462.348 111.855 462.387 111.67C462.427 111.485 463.882 111.749 465.627 112.265C467.373 112.781 468.735 113.35 468.669 113.522H468.682Z" fill="#E0E0E0"/>
<path d="M480.584 118.983C480.491 119.142 479.116 118.613 477.516 117.78C475.916 116.946 474.686 116.14 474.765 115.968C474.845 115.796 476.22 116.338 477.833 117.171C479.447 118.004 480.677 118.824 480.584 118.983Z" fill="#E0E0E0"/>
<path d="M491.124 126.759C490.991 126.904 489.828 126.018 488.439 124.868C487.051 123.717 485.953 122.739 486.072 122.58C486.178 122.421 487.474 123.175 488.876 124.326C490.277 125.489 491.256 126.614 491.124 126.746V126.759Z" fill="#E0E0E0"/>
<path d="M499.627 136.704C499.468 136.809 498.543 135.672 497.445 134.244C496.361 132.802 495.514 131.599 495.66 131.48C495.805 131.361 496.89 132.366 497.987 133.834C499.085 135.289 499.772 136.611 499.614 136.717L499.627 136.704Z" fill="#E0E0E0"/>
<path d="M505.644 148.341C505.459 148.407 504.811 147.098 504.07 145.445C503.343 143.805 502.788 142.443 502.96 142.35C503.131 142.258 503.951 143.501 504.692 145.167C505.432 146.833 505.803 148.275 505.631 148.341H505.644Z" fill="#E0E0E0"/>
<path d="M508.858 161.023C508.672 161.05 508.342 159.621 507.998 157.849C507.654 156.077 507.429 154.636 507.615 154.583C507.8 154.53 508.329 155.932 508.672 157.717C509.016 159.502 509.043 160.997 508.858 161.023Z" fill="#E0E0E0"/>
<path d="M508.91 174.115C508.725 174.089 508.765 172.621 508.871 170.836C508.977 169.037 509.109 167.583 509.307 167.583C509.492 167.583 509.677 169.064 509.558 170.889C509.453 172.714 509.096 174.155 508.91 174.129V174.115Z" fill="#E0E0E0"/>
<path d="M505.419 186.718C505.247 186.639 505.644 185.224 506.305 183.558C506.887 181.865 507.429 180.49 507.628 180.542C507.8 180.582 507.548 182.05 506.953 183.782C506.279 185.488 505.591 186.798 505.419 186.718Z" fill="#E0E0E0"/>
<path d="M498.291 197.668C498.146 197.536 499.019 196.359 500.116 194.93C501.214 193.502 502.126 192.365 502.285 192.457C502.444 192.563 501.783 193.899 500.659 195.34C499.548 196.795 498.424 197.774 498.291 197.655V197.668Z" fill="#E0E0E0"/>
<path d="M488.043 205.774C487.95 205.602 489.18 204.796 490.674 203.804C492.168 202.812 493.398 202.005 493.517 202.164C493.636 202.31 492.578 203.367 491.058 204.386C489.524 205.404 488.135 205.946 488.056 205.774H488.043Z" fill="#E0E0E0"/>
<path d="M475.532 209.358C475.532 209.16 476.974 208.961 478.733 208.657C480.491 208.353 481.933 208.075 481.986 208.261C482.039 208.432 480.663 209.028 478.852 209.332C477.04 209.649 475.545 209.543 475.532 209.358Z" fill="#E0E0E0"/>
<path d="M462.877 206.568C462.969 206.396 464.318 206.965 465.998 207.586C467.664 208.208 469.066 208.657 469.026 208.843C468.986 209.028 467.492 208.869 465.76 208.221C464.027 207.586 462.797 206.727 462.89 206.568H462.877Z" fill="#E0E0E0"/>
<path d="M453.064 198.012C453.223 197.906 454.175 199.017 455.378 200.339C456.582 201.662 457.587 202.72 457.468 202.865C457.349 203.011 456.106 202.164 454.876 200.802C453.633 199.44 452.919 198.118 453.077 198.012H453.064Z" fill="#E0E0E0"/>
<path d="M448.713 185.819C448.912 185.819 449.084 187.261 449.441 189.006C449.798 190.752 450.181 192.154 449.996 192.233C449.824 192.299 449.123 190.963 448.766 189.152C448.396 187.34 448.528 185.832 448.713 185.832V185.819Z" fill="#E0E0E0"/>
<path d="M452.615 173.56C452.773 173.679 452.006 174.922 451.2 176.509C450.38 178.083 449.811 179.432 449.626 179.365C449.454 179.313 449.732 177.831 450.591 176.192C451.438 174.552 452.482 173.454 452.628 173.56H452.615Z" fill="#E0E0E0"/>
<path d="M462.731 165.387C462.81 165.559 461.567 166.326 460.047 167.265C458.526 168.204 457.309 169.011 457.177 168.852C457.058 168.706 458.116 167.648 459.676 166.683C461.237 165.718 462.652 165.215 462.731 165.387Z" fill="#E0E0E0"/>
<path d="M475.241 161.605C475.268 161.79 473.84 162.147 472.094 162.531C470.335 162.914 468.907 163.205 468.841 163.02C468.788 162.848 470.15 162.253 471.948 161.856C473.734 161.46 475.228 161.42 475.255 161.605H475.241Z" fill="#E0E0E0"/>
<path d="M488.333 161.314C488.32 161.5 486.839 161.605 485.041 161.539C483.242 161.473 481.774 161.262 481.774 161.076C481.774 160.891 483.242 160.785 485.067 160.852C486.892 160.918 488.347 161.129 488.333 161.314Z" fill="#E0E0E0"/>
<path d="M501.174 163.906C501.108 164.091 499.68 163.774 497.934 163.324C496.189 162.875 494.787 162.451 494.827 162.253C494.866 162.068 496.347 162.2 498.106 162.65C499.878 163.113 501.227 163.721 501.174 163.893V163.906Z" fill="#E0E0E0"/>
<path d="M513.05 169.394C512.944 169.553 511.635 168.905 510.048 168.045C508.461 167.186 507.205 166.458 507.284 166.273C507.363 166.101 508.778 166.564 510.378 167.437C511.992 168.297 513.156 169.236 513.05 169.394Z" fill="#E0E0E0"/>
<path d="M523.074 177.792C522.928 177.911 521.791 176.985 520.522 175.716C519.278 174.406 518.234 173.401 518.366 173.229C518.472 173.097 519.741 173.891 520.998 175.213C522.294 176.509 523.219 177.66 523.074 177.779V177.792Z" fill="#E0E0E0"/>
<path d="M530.4 188.622C530.228 188.702 529.448 187.459 528.549 185.911C527.649 184.351 526.948 183.068 527.107 182.962C527.266 182.857 528.231 183.981 529.144 185.568C530.056 187.141 530.572 188.543 530.4 188.622Z" fill="#E0E0E0"/>
<path d="M534.777 200.961C534.592 201.001 534.116 199.612 533.627 197.88C533.124 196.147 532.78 194.732 532.952 194.666C533.124 194.6 533.785 195.936 534.288 197.695C534.804 199.44 534.962 200.921 534.777 200.961Z" fill="#E0E0E0"/>
<path d="M536.417 213.96C536.232 213.96 535.954 212.505 535.822 210.72C535.69 208.922 535.729 207.454 535.915 207.427C536.1 207.401 536.364 208.856 536.51 210.667C536.655 212.479 536.602 213.96 536.417 213.96Z" fill="#E0E0E0"/>
<path d="M535.65 227.039C535.465 227.013 535.465 225.532 535.65 223.746C535.835 221.948 536.139 220.506 536.325 220.52C536.51 220.52 536.523 222.001 536.325 223.812C536.139 225.624 535.835 227.066 535.65 227.039Z" fill="#E0E0E0"/>
<path d="M532.688 239.814C532.503 239.748 532.754 238.293 533.23 236.561C533.706 234.828 534.248 233.453 534.434 233.493C534.619 233.532 534.381 234.987 533.891 236.746C533.402 238.505 532.86 239.88 532.688 239.814Z" fill="#E0E0E0"/>
<path d="M527.636 251.901C527.464 251.808 527.967 250.42 528.747 248.806C529.527 247.18 530.215 245.884 530.4 245.963C530.559 246.029 530.162 247.458 529.369 249.097C528.575 250.737 527.795 251.993 527.636 251.901Z" fill="#E0E0E0"/>
<path d="M520.971 263.195C520.812 263.089 521.474 261.766 522.439 260.246C523.404 258.725 524.317 257.561 524.489 257.654C524.661 257.746 523.999 259.069 523.021 260.616C522.055 262.15 521.13 263.314 520.971 263.208V263.195Z" fill="#E0E0E0"/>
<path d="M513.103 273.682C512.957 273.563 513.751 272.306 514.861 270.891C515.986 269.476 517.004 268.418 517.162 268.524C517.321 268.643 516.528 269.886 515.404 271.314C514.28 272.743 513.248 273.801 513.103 273.682Z" fill="#E0E0E0"/>
<path d="M504.374 283.467C504.242 283.335 505.128 282.158 506.345 280.823C507.575 279.5 508.686 278.522 508.831 278.654C508.977 278.786 508.091 279.963 506.861 281.299C505.631 282.634 504.52 283.6 504.374 283.467Z" fill="#E0E0E0"/>
<path d="M495.051 292.711C494.919 292.579 495.871 291.442 497.167 290.185C498.463 288.929 499.627 288.016 499.772 288.149C499.905 288.281 498.953 289.418 497.657 290.675C496.347 291.931 495.184 292.843 495.051 292.711Z" fill="#E0E0E0"/>
<path d="M485.371 301.558C485.239 301.413 486.231 300.315 487.58 299.112C488.928 297.895 490.119 297.036 490.251 297.168C490.383 297.313 489.391 298.411 488.042 299.614C486.694 300.831 485.503 301.704 485.371 301.558Z" fill="#E0E0E0"/>
<path d="M477.979 308.091C477.86 307.946 478.309 307.338 478.997 306.742C479.685 306.134 480.346 305.764 480.465 305.909C480.584 306.055 480.134 306.663 479.447 307.258C478.759 307.866 478.098 308.237 477.979 308.091Z" fill="#E0E0E0"/>
<path d="M96.7209 280.452C96.8796 280.346 97.4086 280.889 97.8979 281.656C98.3872 282.423 98.6517 283.123 98.493 283.229C98.3343 283.335 97.8053 282.793 97.316 282.026C96.8267 281.259 96.549 280.545 96.7077 280.452H96.7209Z" fill="#E0E0E0"/>
<path d="M90.2807 268.868C90.4527 268.788 91.2726 270.031 92.1189 271.645C92.9653 273.258 93.5207 274.647 93.3488 274.739C93.1769 274.832 92.357 273.589 91.5106 271.962C90.6642 270.336 90.1088 268.947 90.2807 268.868Z" fill="#E0E0E0"/>
<path d="M85.0042 256.715C85.1761 256.648 85.877 257.971 86.5647 259.65C87.2524 261.343 87.6623 262.771 87.4904 262.851C87.3185 262.93 86.6176 261.608 85.9299 259.915C85.2423 258.209 84.8323 256.781 85.0042 256.715Z" fill="#E0E0E0"/>
<path d="M80.9576 244.098C81.1427 244.045 81.7113 245.434 82.2139 247.18C82.7296 248.925 82.9941 250.393 82.809 250.459C82.6238 250.512 82.0684 249.137 81.5526 247.378C81.0369 245.619 80.7724 244.151 80.9576 244.098Z" fill="#E0E0E0"/>
<path d="M78.2201 231.139C78.4052 231.112 78.8284 232.541 79.159 234.339C79.4896 236.138 79.6086 237.619 79.4235 237.658C79.2383 237.698 78.8152 236.27 78.4845 234.458C78.1539 232.66 78.0349 231.165 78.2201 231.139Z" fill="#E0E0E0"/>
<path d="M76.858 217.954C77.0431 217.954 77.3208 219.409 77.4531 221.234C77.5853 223.058 77.5456 224.54 77.3605 224.566C77.1754 224.592 76.9109 223.125 76.7654 221.286C76.6199 219.461 76.6728 217.967 76.858 217.954Z" fill="#E0E0E0"/>
<path d="M76.9505 204.703C77.1357 204.703 77.2415 206.211 77.1754 208.023C77.1092 209.847 76.9109 211.329 76.7125 211.315C76.5274 211.315 76.4216 209.821 76.4877 207.996C76.5538 206.158 76.7522 204.69 76.9505 204.703Z" fill="#E0E0E0"/>
<path d="M78.5638 191.558C78.749 191.598 78.6829 193.079 78.4052 194.891C78.1274 196.689 77.7572 198.131 77.5588 198.117C77.3737 198.091 77.4398 196.61 77.7175 194.785C77.9952 192.973 78.3655 191.532 78.5638 191.558Z" fill="#E0E0E0"/>
<path d="M81.7642 178.704C81.9494 178.757 81.6981 180.238 81.1956 181.984C80.7063 183.743 80.1509 185.131 79.9657 185.078C79.7806 185.039 80.0318 183.558 80.5344 181.799C81.0369 180.027 81.5791 178.638 81.7642 178.704Z" fill="#E0E0E0"/>
<path d="M86.4986 166.326C86.6705 166.406 86.2473 167.834 85.5332 169.513C84.8323 171.193 84.1182 172.502 83.933 172.436C83.7611 172.37 84.1843 170.941 84.8984 169.249C85.6125 167.556 86.3267 166.247 86.4986 166.326Z" fill="#E0E0E0"/>
<path d="M92.7007 154.609C92.8594 154.715 92.2643 156.077 91.3651 157.664C90.4658 159.251 89.593 160.468 89.4343 160.375C89.2624 160.283 89.8575 158.921 90.77 157.32C91.6825 155.72 92.542 154.504 92.7007 154.609Z" fill="#E0E0E0"/>
<path d="M100.252 143.739C100.397 143.858 99.6435 145.141 98.5591 146.609C97.4747 148.077 96.4697 149.174 96.311 149.068C96.1523 148.963 96.9061 147.68 98.0037 146.199C99.1013 144.731 100.106 143.62 100.252 143.739Z" fill="#E0E0E0"/>
<path d="M109.086 133.874C109.218 134.006 108.306 135.196 107.049 136.505C105.793 137.828 104.656 138.793 104.51 138.661C104.365 138.529 105.277 137.352 106.547 136.029C107.816 134.694 108.954 133.728 109.086 133.874Z" fill="#E0E0E0"/>
<path d="M119.11 125.212C119.229 125.37 118.171 126.415 116.756 127.565C115.341 128.716 114.085 129.523 113.966 129.377C113.847 129.232 114.891 128.187 116.319 127.023C117.748 125.873 118.991 125.053 119.11 125.212Z" fill="#E0E0E0"/>
<path d="M130.178 117.952C130.271 118.123 129.081 119.023 127.534 119.962C125.973 120.914 124.637 121.549 124.532 121.39C124.426 121.231 125.616 120.332 127.177 119.38C128.75 118.428 130.086 117.793 130.178 117.952Z" fill="#E0E0E0"/>
<path d="M142.147 112.278C142.213 112.45 140.917 113.191 139.237 113.905C137.558 114.632 136.143 115.069 136.063 114.897C135.984 114.725 137.28 113.997 138.973 113.27C140.665 112.543 142.08 112.093 142.147 112.278Z" fill="#E0E0E0"/>
<path d="M154.789 108.311C154.829 108.496 153.44 109.038 151.681 109.528C149.922 110.017 148.454 110.255 148.402 110.083C148.349 109.911 149.737 109.356 151.509 108.866C153.281 108.377 154.749 108.126 154.789 108.311Z" fill="#E0E0E0"/>
<path d="M167.828 106.076C167.841 106.261 166.4 106.618 164.602 106.869C162.803 107.121 161.309 107.174 161.269 106.989C161.229 106.803 162.684 106.446 164.496 106.195C166.307 105.944 167.802 105.891 167.815 106.076H167.828Z" fill="#E0E0E0"/>
<path d="M181.066 105.547C181.066 105.732 179.571 105.904 177.76 105.917C175.935 105.917 174.454 105.785 174.44 105.6C174.44 105.415 175.908 105.243 177.746 105.229C179.585 105.229 181.066 105.362 181.066 105.547Z" fill="#E0E0E0"/>
<path d="M194.25 106.764C194.224 106.949 192.73 106.922 190.918 106.698C189.106 106.473 187.665 106.129 187.678 105.944C187.691 105.759 189.185 105.785 191.01 106.023C192.835 106.248 194.29 106.592 194.25 106.777V106.764Z" fill="#E0E0E0"/>
<path d="M207.157 109.752C207.105 109.938 205.623 109.7 203.865 109.223C202.106 108.747 200.717 108.218 200.757 108.033C200.797 107.848 202.264 108.086 204.05 108.562C205.822 109.038 207.224 109.567 207.157 109.752Z" fill="#E0E0E0"/>
<path d="M219.496 114.54C219.416 114.712 217.988 114.262 216.322 113.548C214.642 112.834 213.346 112.106 213.413 111.921C213.479 111.749 214.907 112.186 216.586 112.913C218.279 113.64 219.575 114.368 219.496 114.54Z" fill="#E0E0E0"/>
<path d="M231.014 121.086C230.908 121.244 229.573 120.596 228.012 119.631C226.465 118.666 225.288 117.753 225.367 117.594C225.473 117.409 226.809 118.07 228.369 119.036C229.93 120.001 231.107 120.914 231.001 121.072L231.014 121.086Z" fill="#E0E0E0"/>
<path d="M241.501 129.166C241.369 129.311 240.126 128.478 238.724 127.327C237.322 126.164 236.278 125.106 236.383 124.96C236.489 124.815 237.745 125.635 239.16 126.799C240.575 127.962 241.62 129.033 241.501 129.166Z" fill="#E0E0E0"/>
<path d="M250.917 138.489C250.771 138.621 249.634 137.643 248.378 136.333C247.121 135.011 246.209 133.834 246.341 133.702C246.473 133.57 247.611 134.535 248.88 135.857C250.15 137.193 251.062 138.37 250.917 138.489Z" fill="#E0E0E0"/>
<path d="M259.275 148.777C259.116 148.883 258.098 147.812 256.974 146.371C255.863 144.929 255.069 143.66 255.228 143.541C255.373 143.422 256.405 144.506 257.529 145.961C258.653 147.415 259.433 148.685 259.275 148.791V148.777Z" fill="#E0E0E0"/>
<path d="M266.627 159.793C266.469 159.886 265.543 158.722 264.551 157.188C263.572 155.654 262.898 154.319 263.057 154.213C263.215 154.107 264.141 155.271 265.133 156.818C266.125 158.365 266.786 159.701 266.627 159.793Z" fill="#E0E0E0"/>
<path d="M273.094 171.352C272.922 171.444 272.089 170.201 271.229 168.588C270.37 166.974 269.801 165.599 269.973 165.506C270.145 165.414 270.978 166.644 271.838 168.27C272.697 169.884 273.266 171.272 273.094 171.352Z" fill="#E0E0E0"/>
<path d="M277.418 180.317C277.246 180.397 276.797 179.788 276.413 178.969C276.03 178.135 275.858 177.408 276.03 177.329C276.202 177.249 276.651 177.858 277.035 178.691C277.418 179.524 277.59 180.251 277.418 180.331V180.317Z" fill="#E0E0E0"/>
<path d="M115.328 340.359C115.248 340.187 115.857 339.737 116.69 339.367C117.523 338.983 118.263 338.825 118.343 338.997C118.409 339.168 117.801 339.618 116.981 339.988C116.161 340.359 115.42 340.531 115.328 340.359Z" fill="#E0E0E0"/>
<path d="M104.537 347.513C104.418 347.367 105.409 346.296 106.851 345.212C108.292 344.127 109.602 343.453 109.707 343.612C109.813 343.77 108.689 344.683 107.274 345.767C105.859 346.838 104.669 347.672 104.537 347.526V347.513Z" fill="#E0E0E0"/>
<path d="M95.7424 356.995C95.5837 356.889 96.3904 355.672 97.5409 354.284C98.6914 352.895 99.7361 351.877 99.8684 352.009C100.001 352.141 99.2072 353.358 98.0699 354.72C96.9326 356.095 95.8878 357.114 95.7424 356.995Z" fill="#E0E0E0"/>
<path d="M89.1964 368.156C89.0245 368.077 89.5535 366.715 90.3866 365.128C91.2197 363.528 92.0264 362.311 92.1851 362.404C92.3438 362.496 91.8148 363.858 90.9949 365.445C90.175 367.019 89.3683 368.236 89.1964 368.156Z" fill="#E0E0E0"/>
<path d="M85.0704 380.428C84.8852 380.389 85.1233 378.947 85.6126 377.215C86.1019 375.482 86.6441 374.12 86.816 374.186C87.0011 374.253 86.7499 375.681 86.2738 377.4C85.7977 379.106 85.2555 380.468 85.0704 380.428Z" fill="#E0E0E0"/>
<path d="M83.5496 393.282C83.3645 393.282 83.2983 391.828 83.4174 390.029C83.5364 388.231 83.7744 386.789 83.9728 386.816C84.1579 386.842 84.224 388.297 84.105 390.069C83.986 391.841 83.748 393.282 83.5496 393.282Z" fill="#E0E0E0"/>
<path d="M84.8853 406.15C84.7001 406.189 84.2241 404.801 83.9331 403.029C83.6422 401.243 83.6554 399.776 83.8405 399.762C84.0389 399.749 84.3166 401.164 84.6076 402.923C84.8853 404.682 85.0704 406.123 84.8853 406.163V406.15Z" fill="#E0E0E0"/>
<path d="M89.2229 418.343C89.051 418.422 88.2575 417.192 87.5566 415.539C86.8558 413.886 86.5119 412.444 86.6971 412.392C86.8822 412.325 87.4905 413.635 88.1914 415.274C88.8791 416.914 89.3948 418.263 89.2229 418.356V418.343Z" fill="#E0E0E0"/>
<path d="M96.2185 429.226C96.073 429.345 95.0944 428.261 94.0497 426.806C92.9917 425.338 92.2776 424.082 92.4363 423.976C92.595 423.87 93.5736 424.955 94.6183 426.409C95.6631 427.851 96.3772 429.12 96.2317 429.239L96.2185 429.226Z" fill="#E0E0E0"/>
<path d="M105.317 438.43C105.198 438.576 104.021 437.716 102.698 436.5C101.363 435.283 100.397 434.185 100.543 434.053C100.675 433.921 101.852 434.781 103.161 435.984C104.471 437.187 105.436 438.272 105.317 438.43Z" fill="#E0E0E0"/>
<path d="M116.042 445.704C115.949 445.876 114.627 445.241 113.093 444.315C111.559 443.376 110.395 442.49 110.501 442.332C110.607 442.173 111.929 442.794 113.45 443.72C114.971 444.646 116.121 445.532 116.042 445.704Z" fill="#E0E0E0"/>
<path d="M127.931 450.821C127.878 451.006 126.463 450.636 124.77 450.001C123.09 449.367 121.781 448.719 121.861 448.534C121.94 448.362 123.355 448.719 125.021 449.353C126.687 449.975 127.997 450.636 127.931 450.821Z" fill="#E0E0E0"/>
<path d="M140.586 453.572C140.56 453.757 139.105 453.678 137.333 453.387C135.561 453.096 134.146 452.699 134.199 452.514C134.238 452.329 135.693 452.408 137.452 452.699C139.211 452.99 140.613 453.374 140.586 453.572Z" fill="#E0E0E0"/>
<path d="M153.533 453.691C153.559 453.876 152.118 454.101 150.319 454.18C148.521 454.26 147.066 454.18 147.066 453.982C147.066 453.797 148.508 453.572 150.293 453.493C152.065 453.413 153.52 453.493 153.546 453.691H153.533Z" fill="#E0E0E0"/>
<path d="M166.202 451.073C166.255 451.258 164.892 451.774 163.147 452.223C161.401 452.673 159.96 452.898 159.92 452.713C159.88 452.527 161.243 452.012 162.975 451.562C164.694 451.112 166.136 450.901 166.202 451.073Z" fill="#E0E0E0"/>
<path d="M178.117 445.995C178.21 446.167 176.966 446.934 175.353 447.714C173.726 448.494 172.364 448.997 172.285 448.811C172.206 448.626 173.449 447.859 175.049 447.092C176.649 446.312 178.024 445.823 178.117 445.995Z" fill="#E0E0E0"/>
<path d="M188.895 438.814C189.014 438.959 187.929 439.938 186.488 441.009C185.033 442.067 183.777 442.807 183.671 442.649C183.565 442.49 184.65 441.511 186.078 440.453C187.519 439.396 188.776 438.668 188.895 438.814Z" fill="#E0E0E0"/>
<path d="M198.258 429.874C198.403 429.993 197.504 431.157 196.261 432.453C195.018 433.749 193.894 434.688 193.775 434.555C193.642 434.423 194.542 433.259 195.771 431.977C197.001 430.694 198.125 429.755 198.258 429.874Z" fill="#E0E0E0"/>
<path d="M205.941 419.44C206.1 419.533 205.425 420.829 204.42 422.323C203.415 423.817 202.476 424.942 202.331 424.822C202.185 424.703 202.86 423.421 203.851 421.94C204.843 420.458 205.782 419.348 205.941 419.44Z" fill="#E0E0E0"/>
<path d="M211.68 407.829C211.852 407.895 211.416 409.284 210.688 410.937C209.961 412.59 209.234 413.846 209.075 413.767C208.903 413.687 209.353 412.285 210.067 410.659C210.781 409.032 211.508 407.763 211.68 407.829Z" fill="#E0E0E0"/>
<path d="M214.537 398.479C214.722 398.519 214.695 399.273 214.457 400.172C214.233 401.058 213.902 401.746 213.717 401.693C213.532 401.64 213.571 400.886 213.796 400C214.021 399.127 214.352 398.44 214.537 398.479Z" fill="#E0E0E0"/>
<path d="M349.424 15.7041L290.29 31.5822C287.998 32.1978 286.638 34.5552 287.254 36.8477L298.235 77.7434C298.85 80.0359 301.208 81.3953 303.5 80.7797L362.634 64.9016C364.927 64.2861 366.286 61.9287 365.671 59.6362L354.69 18.7404C354.074 16.448 351.717 15.0885 349.424 15.7041Z" fill="#F5F5F5"/>
<path d="M352.083 20.8982C352.083 20.8982 351.951 21.1495 351.647 21.5859L350.311 23.4637C349.068 25.1564 347.362 27.4707 345.273 30.3139C343.117 33.2101 340.565 36.6352 337.735 40.4173C336.307 42.3216 334.812 44.3053 333.265 46.3683C332.485 47.3998 331.691 48.4445 330.898 49.5157C330.051 50.6397 328.822 51.4993 327.42 51.8828C326.031 52.2796 324.537 52.2002 323.228 51.6845C321.998 51.1555 320.781 50.6397 319.591 50.1372C317.224 49.1189 314.936 48.1403 312.754 47.2014C308.416 45.3236 304.502 43.6308 301.183 42.1894C297.956 40.7612 295.324 39.5974 293.407 38.7511C292.547 38.3543 291.859 38.0369 291.304 37.7857C290.828 37.5609 290.577 37.4286 290.59 37.4022C290.59 37.3757 290.868 37.4683 291.357 37.6534C291.912 37.8782 292.626 38.156 293.513 38.4998C295.457 39.2933 298.115 40.3909 301.368 41.7398C304.7 43.1415 308.641 44.7946 312.992 46.6195C315.174 47.5452 317.475 48.5106 319.842 49.5157C321.032 50.0182 322.236 50.5207 323.466 51.0497C324.643 51.5125 325.978 51.5787 327.221 51.2216C328.464 50.8646 329.575 50.1108 330.329 49.1057C331.136 48.0478 331.929 47.003 332.709 45.9715C334.27 43.9218 335.778 41.9381 337.206 40.047C340.075 36.2913 342.667 32.9059 344.863 30.0362C347.018 27.2591 348.79 24.9713 350.073 23.3182C350.668 22.5777 351.144 21.9826 351.514 21.5065C351.845 21.0966 352.03 20.885 352.057 20.9114L352.083 20.8982Z" fill="#E0E0E0"/>
<path d="M317.581 48.9203C317.74 49.0129 314.434 54.739 310.202 61.695C305.957 68.6511 302.386 74.2053 302.227 74.1127C302.069 74.0201 305.375 68.294 309.607 61.338C313.852 54.382 317.422 48.8278 317.581 48.9203Z" fill="#E0E0E0"/>
<path d="M334.27 44.4376C334.363 44.2789 340.089 47.585 347.045 51.8168C354.001 56.0618 359.555 59.6324 359.462 59.7911C359.37 59.9498 353.644 56.6437 346.688 52.4119C339.732 48.1669 334.177 44.5963 334.27 44.4376Z" fill="#E0E0E0"/>
<path d="M562.39 181.481C544.325 181.481 529.686 166.842 529.686 148.778C529.686 130.713 544.325 116.074 562.39 116.074C580.454 116.074 595.094 130.713 595.094 148.778C595.094 166.842 580.454 181.481 562.39 181.481Z" fill="#EBEBEB"/>
<path d="M557.404 168.548H565.365V148.619H570.919L571.515 141.94H565.365V138.145C565.365 136.571 565.683 135.95 567.203 135.95H571.515V129.02H566C560.075 129.02 557.404 131.625 557.404 136.624V141.94H553.265V148.698H557.404V168.548Z" fill="#F1F8F0"/>
<path d="M154.406 532.878C155.305 536.806 152.858 540.707 148.931 541.607C145.003 542.506 141.102 540.059 140.203 536.132C139.303 532.204 141.75 528.303 145.677 527.404C149.605 526.504 153.506 528.951 154.406 532.878Z" fill="#EBEBEB"/>
<path d="M120.022 540.893L174.639 528.343L169.878 524.878C166.929 522.736 164.853 519.588 164.046 516.044L160.647 501.233C158.122 490.243 147.172 483.38 136.169 485.906C125.18 488.432 118.316 499.381 120.842 510.384L124.109 524.627C124.862 527.933 124.492 531.384 123.051 534.452L120.022 540.906V540.893Z" fill="#EBEBEB"/>
<path d="M134.438 479.547L133.742 479.707C132.454 480.003 131.649 481.287 131.945 482.576L133.487 489.291C133.783 490.579 135.067 491.384 136.355 491.088L137.051 490.928C138.34 490.633 139.144 489.348 138.849 488.06L137.307 481.345C137.011 480.056 135.727 479.251 134.438 479.547Z" fill="#EBEBEB"/>
<path d="M174.678 528.462C174.705 528.581 162.578 531.45 147.608 534.889C132.625 538.327 120.459 541.025 120.432 540.906C120.406 540.787 132.532 537.917 147.516 534.479C162.499 531.04 174.665 528.356 174.678 528.462Z" fill="#E0E0E0"/>
<path d="M140.269 536.357C140.269 536.357 143.786 538.129 147.701 537.23C152.356 536.158 154.459 533.09 154.459 533.09L140.256 536.344L140.269 536.357Z" fill="#E0E0E0"/>
<path d="M157.328 499.275C157.156 498.654 156.958 498.006 156.508 497.53C156.059 497.054 155.292 496.829 154.749 497.186C154.088 497.49 153.731 498.204 153.89 498.918C154.419 501.259 155.583 506.443 156.164 509.551C156.64 512.103 156.892 514.893 155.715 517.208C154.802 518.993 153.07 520.249 151.219 521.029C149.367 521.81 147.37 522.167 145.4 522.59C142.914 523.119 140.427 523.78 138.153 524.904C137.545 525.208 136.923 525.565 136.553 526.134C136.182 526.703 136.169 527.549 136.685 527.999C137.161 528.409 137.862 528.342 138.47 528.263C144.818 527.39 151.205 526.398 157.236 524.23C158.492 523.78 159.801 523.225 160.555 522.127C161.414 520.884 161.348 519.244 161.203 517.737C160.581 511.468 159.061 505.332 157.328 499.275Z" fill="#E0E0E0"/>
<g opacity="0.2">
<path d="M130.999 490.653C130.999 490.653 131.025 490.653 131.038 490.64C131.065 490.64 131.078 490.614 131.104 490.6L130.999 490.653Z" fill="#F1F8F0"/>
</g>
<path d="M148.56 486.818C148.534 486.898 147.331 486.382 145.281 485.972C144.262 485.76 143.019 485.615 141.644 485.575C140.269 485.562 138.748 485.641 137.187 485.919C135.627 486.21 134.172 486.646 132.89 487.149C131.62 487.665 130.496 488.233 129.623 488.789C127.838 489.886 126.886 490.786 126.833 490.719C126.82 490.693 127.044 490.468 127.481 490.071C127.692 489.86 127.97 489.622 128.301 489.384C128.631 489.133 129.002 488.828 129.464 488.551C130.337 487.956 131.461 487.36 132.744 486.805C134.04 486.276 135.521 485.813 137.121 485.522C138.721 485.245 140.269 485.165 141.67 485.205C143.072 485.284 144.329 485.443 145.36 485.707C145.876 485.813 146.339 485.972 146.735 486.091C147.145 486.21 147.476 486.342 147.754 486.461C148.296 486.686 148.6 486.831 148.587 486.858L148.56 486.818Z" fill="#E0E0E0"/>
<path d="M124.32 533.328C124.201 533.275 124.902 531.57 125.153 529.335C125.431 527.1 125.153 525.275 125.272 525.262C125.365 525.235 125.854 527.086 125.563 529.387C125.299 531.702 124.399 533.381 124.307 533.328H124.32Z" fill="#F1F8F0"/>
<path d="M149.433 540.02C149.433 540.02 149.063 540.337 148.336 540.549C147.608 540.761 146.524 540.866 145.387 540.549C144.249 540.245 143.363 539.597 142.848 539.055C142.319 538.499 142.12 538.076 142.173 538.05C142.226 538.01 142.504 538.38 143.059 538.843C143.601 539.306 144.448 539.861 145.506 540.152C146.564 540.443 147.569 540.39 148.283 540.271C148.997 540.152 149.42 539.98 149.446 540.033L149.433 540.02Z" fill="#F1F8F0"/>
<path d="M133.458 480.484C133.564 480.55 133.009 481.343 132.956 482.468C132.863 483.592 133.299 484.438 133.194 484.491C133.114 484.57 132.44 483.711 132.532 482.441C132.612 481.172 133.392 480.405 133.458 480.484Z" fill="#F1F8F0"/>
<path d="M21.5671 178.255C23.0747 177.342 24.6748 176.654 26.3278 176.178L27.3064 171.457L35.2807 171.312L36.4312 175.993C38.0975 176.403 39.7241 177.038 41.2713 177.897L45.3048 175.253L51.0441 180.794L48.5447 184.906C49.4572 186.414 50.1449 188.014 50.621 189.68L55.342 190.659L55.4875 198.633L50.8061 199.784C50.3961 201.45 49.7614 203.077 48.9018 204.624L51.5467 208.657L46.0057 214.397L41.8797 211.897C40.3721 212.81 38.7719 213.497 37.1057 213.973L36.1271 218.695L28.1528 218.84L27.0023 214.159C25.336 213.749 23.7094 213.114 22.1622 212.254L18.1287 214.899L12.3894 209.358L14.8888 205.245C13.9763 203.738 13.2886 202.138 12.8126 200.471L8.09147 199.493L7.946 191.519L12.6274 190.368C13.0374 188.702 13.6721 187.075 14.5317 185.528L11.8869 181.495L17.4279 175.755L21.5538 178.255H21.5671ZM25.8121 188.874C22.5325 192.272 22.625 197.694 26.0237 200.974C29.4223 204.254 34.8443 204.161 38.124 200.762C41.4036 197.364 41.311 191.942 37.9124 188.662C34.5137 185.382 29.1049 185.475 25.8121 188.874Z" fill="#EBEBEB"/>
<path d="M560.591 369.294C562.059 368.408 563.606 367.733 565.22 367.284L566.172 362.708L573.908 362.576L575.019 367.125C576.646 367.522 578.219 368.143 579.714 368.976L583.628 366.411L589.196 371.793L586.776 375.787C587.662 377.255 588.336 378.815 588.786 380.415L593.361 381.367L593.493 389.104L588.944 390.215C588.548 391.841 587.926 393.415 587.093 394.909L589.658 398.824L584.276 404.391L580.282 401.971C578.814 402.857 577.254 403.531 575.654 403.981L574.702 408.557L566.965 408.689L565.855 404.14C564.228 403.743 562.654 403.122 561.16 402.288L557.246 404.854L551.678 399.472L554.098 395.478C553.212 394.01 552.538 392.463 552.088 390.849L547.512 389.897L547.38 382.161L551.929 381.05C552.326 379.424 552.948 377.85 553.781 376.355L551.215 372.441L556.598 366.874L560.591 369.294ZM564.717 379.609C561.53 382.915 561.623 388.165 564.929 391.352C568.235 394.539 573.485 394.446 576.672 391.14C579.859 387.834 579.767 382.584 576.461 379.397C573.154 376.21 567.904 376.303 564.717 379.609Z" fill="#EBEBEB"/>
<path d="M592.489 567.302C592.489 567.487 461.925 567.645 300.918 567.645C139.912 567.645 9.32146 567.487 9.32146 567.302C9.32146 567.116 139.846 566.958 300.918 566.958C461.991 566.958 592.489 567.116 592.489 567.302Z" fill="#263238"/>
<path d="M372.885 157.069L151.126 177.064C121.57 179.736 99.9214 207.507 102.778 239.113L114.468 368.698C117.311 400.305 143.588 423.751 173.145 421.093L259.222 413.331C261.827 413.092 264.393 414.243 266.072 416.399L290.418 447.383C294.015 451.959 300.746 451.364 303.47 446.206L321.879 411.36C323.162 408.94 325.476 407.353 328.081 407.115L394.904 401.085C424.46 398.414 446.108 370.642 443.252 339.036L431.561 209.451C428.718 177.845 402.441 154.398 372.885 157.056V157.069Z" fill="#F1F8F0"/>
<path d="M372.885 157.069C372.885 157.069 373.837 157.016 375.715 156.937C376.178 156.924 376.707 156.897 377.289 156.871C377.871 156.844 378.505 156.805 379.193 156.871C380.582 156.976 382.182 157.056 384.007 157.228C384.906 157.386 385.858 157.558 386.863 157.73C387.868 157.929 388.939 158.034 390.011 158.391C391.095 158.709 392.232 159.026 393.409 159.37C394.599 159.687 395.763 160.269 397.006 160.732C401.926 162.769 407.374 165.863 412.545 170.518C417.716 175.147 422.595 181.349 426.166 189.019C426.602 189.984 427.039 190.963 427.475 191.942C427.938 192.92 428.202 193.991 428.586 195.023C428.93 196.068 429.327 197.112 429.631 198.197C429.895 199.294 430.146 200.392 430.411 201.516C431.469 205.986 431.826 210.76 432.276 215.653C434.061 235.265 436.084 257.6 438.332 282.277C439.456 294.615 440.62 307.549 441.85 321.024C442.154 324.397 442.458 327.795 442.776 331.234C442.934 332.953 443.093 334.672 443.252 336.418L443.49 339.023L443.609 341.668C443.953 348.716 443.106 355.963 440.885 362.946C438.676 369.915 435.106 376.62 430.265 382.425C425.425 388.244 419.302 393.163 412.254 396.535C408.749 398.268 404.981 399.471 401.132 400.371C400.18 400.675 399.175 400.714 398.21 400.886L395.261 401.309C393.29 401.521 391.307 401.68 389.323 401.865C381.375 402.579 373.308 403.32 365.149 404.047C356.989 404.787 348.724 405.528 340.366 406.282C336.187 406.665 331.995 407.049 327.777 407.432C325.753 407.684 323.889 408.874 322.712 410.54C322.13 411.36 321.694 412.365 321.178 413.291L319.684 416.134C315.677 423.725 311.63 431.382 307.544 439.118C306.525 441.049 305.494 442.993 304.476 444.937C303.96 445.889 303.497 446.933 302.73 447.806C302.003 448.679 301.09 449.42 300.045 449.935C297.969 450.954 295.443 450.98 293.327 450.041C292.256 449.578 291.331 448.851 290.55 447.991C289.77 447.132 289.148 446.246 288.448 445.373C282.933 438.364 277.379 431.289 271.785 424.161C270.383 422.376 268.981 420.591 267.58 418.805C266.879 417.919 266.178 416.993 265.464 416.147C264.736 415.327 263.837 414.666 262.845 414.216C261.84 413.767 260.756 413.555 259.658 413.582C258.561 413.648 257.384 413.78 256.26 413.873C253.972 414.084 251.684 414.283 249.396 414.494C231.054 416.147 212.447 417.827 193.616 419.533C188.908 419.956 184.213 420.379 179.532 420.802C174.864 421.212 170.156 421.768 165.461 421.424C164.284 421.331 163.107 421.278 161.957 421.146L158.492 420.524C157.923 420.419 157.341 420.339 156.773 420.194L155.093 419.704L151.734 418.713L148.494 417.39L146.881 416.729L145.334 415.909L142.252 414.283L139.343 412.365C131.594 407.234 125.497 399.987 121.146 392C120.869 391.497 120.565 391.021 120.327 390.505L119.626 388.945L118.237 385.824C117.827 384.766 117.497 383.681 117.126 382.61C116.796 381.526 116.333 380.481 116.108 379.37C114.944 375.006 114.296 370.51 113.926 366.08C110.726 330.546 107.644 296.282 104.709 263.631C103.981 255.471 103.254 247.405 102.54 239.457C101.799 231.469 102.54 223.429 104.841 215.97C109.337 201.014 119.824 188.437 132.982 181.944L135.442 180.727L137.994 179.775C138.841 179.458 139.687 179.127 140.547 178.836L143.165 178.162C144.038 177.95 144.911 177.699 145.783 177.501L148.441 177.117L151.086 176.734L153.718 176.496C160.727 175.874 167.59 175.253 174.335 174.644C187.81 173.441 200.744 172.277 213.095 171.166C262.475 166.762 302.426 163.192 330.051 160.732C343.858 159.516 354.569 158.577 361.856 157.929C365.479 157.611 368.257 157.373 370.121 157.215C371.986 157.056 372.938 156.99 372.938 156.99C372.938 156.99 371.986 157.095 370.121 157.281C368.257 157.453 365.479 157.717 361.856 158.061C354.583 158.735 343.871 159.714 330.065 160.997C302.452 163.509 262.501 167.159 213.135 171.655C200.797 172.78 187.863 173.943 174.388 175.173C167.656 175.781 160.78 176.403 153.771 177.038L151.139 177.276L148.521 177.659L145.889 178.043C145.03 178.241 144.17 178.479 143.31 178.691L140.718 179.352C139.872 179.63 139.039 179.974 138.193 180.278L135.667 181.23L133.233 182.433C120.221 188.86 109.853 201.304 105.409 216.129C103.135 223.521 102.408 231.469 103.148 239.391C103.862 247.338 104.603 255.405 105.33 263.565C108.279 296.216 111.374 330.48 114.587 366C114.957 370.444 115.605 374.848 116.756 379.185C116.968 380.283 117.43 381.314 117.761 382.385C118.131 383.443 118.449 384.515 118.859 385.559L120.234 388.641L120.922 390.188C121.16 390.69 121.464 391.18 121.742 391.669C126.053 399.564 132.07 406.718 139.727 411.783L142.596 413.674L145.638 415.288L147.159 416.094L148.759 416.742L151.959 418.038L155.278 419.017L156.945 419.506C157.5 419.638 158.082 419.718 158.651 419.837L162.063 420.458C163.213 420.604 164.377 420.643 165.527 420.736C170.156 421.093 174.811 420.538 179.492 420.128C184.174 419.704 188.868 419.281 193.576 418.858C212.408 417.165 231.014 415.486 249.356 413.833C251.644 413.621 253.932 413.423 256.22 413.211C257.37 413.119 258.481 412.987 259.658 412.92C260.862 412.881 262.052 413.132 263.149 413.608C264.234 414.097 265.212 414.825 266.006 415.711C266.76 416.623 267.434 417.509 268.148 418.409C269.55 420.194 270.952 421.979 272.354 423.764C277.961 430.892 283.515 437.967 289.016 444.976C289.704 445.836 290.378 446.775 291.092 447.555C291.807 448.335 292.666 449.023 293.645 449.433C295.589 450.306 297.89 450.279 299.794 449.34C300.746 448.864 301.579 448.19 302.254 447.383C302.941 446.59 303.391 445.598 303.92 444.619C304.952 442.675 305.97 440.731 306.988 438.8C311.074 431.064 315.134 423.394 319.141 415.817L320.649 412.973C321.165 412.034 321.588 411.069 322.236 410.143C323.519 408.332 325.542 407.049 327.75 406.771C331.982 406.388 336.187 406.004 340.366 405.621C348.724 404.867 356.989 404.126 365.149 403.386C373.308 402.658 381.362 401.931 389.323 401.217C391.307 401.032 393.29 400.873 395.261 400.661L398.183 400.238C399.149 400.066 400.14 400.027 401.079 399.736C404.888 398.85 408.604 397.66 412.069 395.954C419.038 392.621 425.095 387.754 429.882 382.015C434.682 376.263 438.213 369.637 440.409 362.734C442.617 355.818 443.463 348.637 443.12 341.654L443.014 339.036L442.776 336.431C442.617 334.698 442.472 332.966 442.313 331.247C442.009 327.809 441.704 324.41 441.4 321.038C440.197 307.562 439.033 294.629 437.922 282.29C435.714 257.601 433.717 235.265 431.958 215.653C431.522 210.747 431.165 205.999 430.12 201.556C429.855 200.445 429.604 199.347 429.34 198.263C429.022 197.192 428.639 196.147 428.295 195.102C427.925 194.071 427.66 193.013 427.197 192.034C426.761 191.056 426.325 190.077 425.901 189.125C422.357 181.494 417.517 175.319 412.399 170.69C407.268 166.035 401.86 162.941 396.953 160.891C395.71 160.415 394.56 159.833 393.37 159.516C392.193 159.172 391.055 158.841 389.984 158.524C388.913 158.153 387.842 158.048 386.85 157.849C385.845 157.664 384.893 157.492 384.007 157.334C382.195 157.148 380.595 157.069 379.206 156.95C378.519 156.871 377.884 156.897 377.302 156.924C376.72 156.937 376.204 156.963 375.728 156.976C373.864 157.029 372.898 157.043 372.898 157.043L372.885 157.069Z" fill="#263238"/>
<path d="M488.106 110.801C492.511 86.1693 476.115 62.6305 451.483 58.2253C426.852 53.82 403.313 70.2165 398.908 94.8478C394.503 119.479 410.899 143.018 435.53 147.423C460.162 151.828 483.701 135.432 488.106 110.801Z" fill="#1F8B5D"/>
<g opacity="0.3">
<path d="M488.106 110.801C492.511 86.1693 476.115 62.6305 451.483 58.2253C426.852 53.82 403.313 70.2165 398.908 94.8478C394.503 119.479 410.899 143.018 435.53 147.423C460.162 151.828 483.701 135.432 488.106 110.801Z" fill="black"/>
</g>
<path d="M467.62 136.271C488.849 123.026 495.322 95.0794 482.077 73.8502C468.832 52.6209 440.885 46.1483 419.656 59.3932C398.427 72.6381 391.954 100.585 405.199 121.814C418.444 143.043 446.391 149.516 467.62 136.271Z" fill="#1F8B5D"/>
<path d="M473.798 101.159C475.634 84.4983 463.617 69.5033 446.956 67.6669C430.295 65.8304 415.3 77.848 413.464 94.5089C411.627 111.17 423.645 126.165 440.306 128.001C456.966 129.838 471.962 117.82 473.798 101.159Z" fill="#F1F8F0"/>
<path d="M458.486 98.1942C458.288 106.393 451.464 112.873 443.265 112.675C435.066 112.476 428.586 105.653 428.785 97.4536C428.983 89.2545 435.807 82.7746 444.006 82.9729C452.205 83.1713 458.685 89.9951 458.486 98.1942Z" fill="#1F8B5D"/>
<path d="M476.035 65.4639L475.043 55.7705L485.134 45.4819L485.583 55.9292L476.035 65.4639Z" fill="#455A64"/>
<path d="M497.34 58.2962L487.382 57.2383L477.133 66.6143L487.117 67.9236L497.34 58.2962Z" fill="#455A64"/>
<g opacity="0.3">
<path d="M445.619 97.6653L480.915 72.0894C479.778 70.3041 478.336 68.5056 476.71 66.6938L445.685 95.3113L445.632 97.6653H445.619Z" fill="black"/>
</g>
<path d="M486.033 54.4879C481.219 59.0768 476.392 63.6524 471.579 68.2412C463.935 75.5146 456.291 82.788 448.648 90.0614C446.889 91.7277 445.13 93.4072 443.371 95.0734C441.705 96.6603 444.178 99.2391 445.857 97.6522C450.671 93.0633 455.498 88.4877 460.311 83.8989C467.955 76.6255 475.599 69.3521 483.242 62.0787C485.001 60.4124 486.76 58.7329 488.519 57.0667C490.185 55.4797 487.712 52.901 486.033 54.4879Z" fill="#263238"/>
<g opacity="0.2">
<path d="M400.868 266.567C400.299 253.528 397.932 240.502 395.036 227.529C394.362 224.659 393.687 221.789 393.013 218.933C392.312 216.09 391.505 213.286 390.751 210.469C389.297 204.836 387.63 199.308 385.938 193.846C382.684 182.857 377.712 169.566 373.877 159.212C367.146 156.805 358.55 156.448 348.367 157.836L273.98 168.574C258.706 183.544 244.636 195.116 233.011 203.672C232.853 202.64 232.694 201.622 232.549 200.591L168.728 229.658C156.733 237.143 150.558 252.695 157.752 270.627L164.813 290.172L169.706 300.223C175.393 311.887 186.753 317.772 197.372 315.418L196.711 315.682C196.975 315.59 197.24 315.484 197.504 315.391C199.369 314.968 201.207 314.307 202.992 313.355C204.288 312.865 205.571 312.389 206.84 311.9L259.288 379.371C263.123 384.303 270.225 384.145 273.875 379.066L290.762 355.54C293.936 351.11 293.116 344.776 288.937 341.43C277.987 332.702 258.468 315.947 251.34 302.378C251.076 301.81 249.013 297.181 248.788 295.012C252.121 293.637 255.546 292.235 259.063 290.794C262.938 289.987 266.905 289.22 270.978 288.48C279.389 286.998 288.236 285.676 297.467 285.068C306.684 284.433 316.285 285.068 326.137 286.324C345.908 288.771 366.498 293.915 388.252 298.887L389.31 299.072L390.527 299.019C391.346 299.006 392.047 298.53 392.788 298.266C393.409 297.776 394.071 297.313 394.653 296.771L396.16 294.907C397.8 292.169 399.03 289.128 399.598 285.954C400.908 279.646 401.225 273.086 400.855 266.58L400.868 266.567Z" fill="black"/>
</g>
<path d="M183.552 221.829C183.552 221.829 210.252 211.672 251.711 176.588C282.021 150.933 305.084 121.258 315.293 107.16C320.199 100.39 329.377 98.7762 335.95 103.815C346.093 111.591 360.732 131.85 378.717 184.629C410.429 277.662 393.409 296.89 385.673 295.978C377.937 295.052 326.494 281.1 293.314 281.828C260.135 282.568 210.385 296.189 210.385 296.189L183.552 221.842V221.829Z" fill="#E0E0E0"/>
<path d="M183.552 221.829C183.552 221.829 183.724 222.265 184.042 223.111C184.359 223.971 184.822 225.227 185.43 226.88C186.647 230.213 188.432 235.106 190.76 241.467C195.388 254.189 202.119 272.742 210.609 296.097L210.345 295.964C224.878 292.103 241.462 288.241 259.896 285.12C269.114 283.6 278.807 282.251 288.937 281.722C299.08 281.166 309.62 281.92 320.385 283.242C331.149 284.591 342.165 286.549 353.406 288.81C359.026 289.934 364.713 291.164 370.439 292.433C373.308 293.068 376.191 293.703 379.087 294.338C380.542 294.655 381.997 294.959 383.451 295.25C384.179 295.396 384.906 295.501 385.633 295.62C386.334 295.673 387.035 295.634 387.71 295.396C389.072 294.972 390.236 294.007 391.201 292.909C392.153 291.785 392.907 290.489 393.555 289.154C394.798 286.43 395.538 283.481 396.041 280.479C397.02 274.462 396.98 268.259 396.61 262.057C395.763 249.639 393.317 237.156 390.275 224.698C387.538 213.511 384.258 202.6 380.78 191.928C377.289 181.256 373.586 170.836 369.579 160.745C365.559 150.655 361.287 140.869 356.368 131.652C353.921 127.05 351.277 122.593 348.433 118.361C345.577 114.143 342.443 110.149 338.846 106.737C337.96 105.864 337.008 105.071 336.055 104.304C335.593 103.894 335.064 103.603 334.574 103.246C334.045 102.955 333.53 102.638 332.974 102.4C330.779 101.434 328.346 100.971 325.965 101.236C323.598 101.474 321.297 102.281 319.366 103.616L318.639 104.119L317.964 104.687C317.502 105.044 317.105 105.481 316.695 105.904C315.915 106.764 315.227 107.716 314.526 108.681C308.932 116.325 303.233 123.545 297.52 130.356C286.107 143.99 274.655 155.998 263.599 166.3C241.303 186.731 221.176 200.868 206.774 209.689C199.554 214.079 193.735 217.147 189.728 219.078C187.731 220.057 186.171 220.731 185.126 221.181C184.068 221.63 183.526 221.815 183.526 221.815C183.724 221.723 184.147 221.538 185.099 221.115C186.144 220.652 187.678 219.951 189.675 218.946C193.656 216.975 199.448 213.868 206.642 209.451C213.823 205.02 222.405 199.241 231.993 192.034C234.373 190.222 236.873 188.371 239.359 186.348C241.872 184.364 244.464 182.314 247.069 180.119C252.345 175.821 257.741 171.074 263.269 165.943C274.298 155.628 285.697 143.62 297.083 129.986C302.783 123.175 308.456 115.955 314.037 108.324C314.724 107.372 315.425 106.393 316.245 105.494C316.668 105.058 317.078 104.608 317.555 104.225L318.255 103.629L319.009 103.114C321.033 101.725 323.426 100.879 325.899 100.628C328.372 100.35 330.924 100.826 333.225 101.831C333.807 102.082 334.349 102.413 334.892 102.717C335.407 103.087 335.963 103.405 336.426 103.815C337.404 104.595 338.37 105.402 339.269 106.288C342.919 109.752 346.079 113.773 348.949 118.004C351.819 122.263 354.464 126.719 356.923 131.348C361.856 140.591 366.141 150.404 370.174 160.507C374.194 170.624 377.91 181.045 381.402 191.73C384.88 202.415 388.173 213.339 390.91 224.553C393.952 237.037 396.411 249.547 397.258 262.031C397.641 268.259 397.668 274.514 396.676 280.598C396.16 283.639 395.406 286.641 394.123 289.445C393.449 290.82 392.669 292.169 391.664 293.346C390.645 294.51 389.402 295.541 387.882 296.03C387.141 296.295 386.308 296.361 385.528 296.282C384.787 296.149 384.033 296.044 383.293 295.898C381.825 295.607 380.357 295.303 378.915 294.986C376.019 294.351 373.136 293.703 370.267 293.081C364.527 291.812 358.867 290.582 353.247 289.445C342.02 287.183 331.017 285.213 320.279 283.851C309.541 282.515 299.04 281.748 288.937 282.29C278.834 282.806 269.167 284.142 259.949 285.636C241.541 288.717 224.944 292.552 210.424 296.374L210.226 296.427L210.16 296.242C201.749 272.795 195.071 254.175 190.495 241.414C188.22 235.053 186.475 230.16 185.285 226.827C184.703 225.188 184.253 223.931 183.962 223.085C183.671 222.239 183.526 221.829 183.526 221.829H183.552Z" fill="#263238"/>
<g opacity="0.3">
<path d="M373.11 190.117C389.667 239.748 394.613 283.071 384.139 286.879C373.665 290.701 351.753 253.554 335.183 203.923C318.626 154.292 313.68 110.969 324.154 107.16C334.627 103.339 356.54 140.486 373.11 190.117Z" fill="black"/>
</g>
<path d="M326.455 174.71C326.455 174.71 351.369 161.565 361.592 196.504C371.814 231.443 346.463 234.55 346.463 234.55C337.629 216.909 330.898 197.033 326.455 174.71Z" fill="#F1F8F0"/>
<path d="M158.386 260.047L168.635 295.806C169.958 300.408 174.348 303.423 179.109 303.013C182.375 302.735 185.562 304.058 187.652 306.583L246.434 377.228C250.534 382.161 258.151 382.002 262.052 376.924L280.13 353.398C283.528 348.967 282.656 342.633 278.172 339.287C264.895 329.382 239.809 309.175 235.63 294.986C232.972 285.953 233.316 281.523 234.426 279.368C235.894 276.538 236.278 273.271 235.021 270.349L225.95 249.15C224.257 245.183 220.197 242.75 215.899 243.12L167.128 247.325C160.859 247.867 156.641 253.99 158.373 260.047H158.386Z" fill="#1F8B5D"/>
<path opacity="0.3" d="M187.837 306.795L198.747 319.914L237.97 300.289C237.97 300.289 234.942 294.126 235.193 292.275L187.837 306.795Z" fill="black"/>
<path d="M137.756 268.498L145.321 288.043L150.558 298.094C157.738 311.873 173.422 317.626 186.224 311.199L253.655 285.808C233.487 260.656 222.617 231.02 217.803 198.461L149.5 227.529C136.659 235.014 130.047 250.565 137.756 268.498Z" fill="#1F8B5D"/>
<path d="M211.654 229.406C211.852 229.882 199.435 235.754 183.923 242.525C168.397 249.296 155.649 254.387 155.451 253.911C155.252 253.435 167.657 247.563 183.182 240.792C198.694 234.022 211.443 228.93 211.654 229.406Z" fill="#263238"/>
<path d="M215.873 239.549C216.071 240.025 203.653 245.897 188.141 252.668C172.616 259.439 159.867 264.53 159.669 264.054C159.471 263.578 171.875 257.706 187.401 250.936C202.913 244.165 215.661 239.073 215.873 239.549Z" fill="#263238"/>
<path d="M220.091 249.692C220.29 250.169 207.872 256.04 192.36 262.811C176.834 269.582 164.099 274.673 163.888 274.197C163.689 273.721 176.094 267.849 191.619 261.079C207.131 254.308 219.88 249.216 220.091 249.692Z" fill="#263238"/>
<path d="M224.31 259.836C224.508 260.312 212.09 266.183 196.578 272.954C181.053 279.725 168.318 284.816 168.106 284.34C167.908 283.864 180.326 277.993 195.838 271.222C211.35 264.451 224.098 259.359 224.31 259.836Z" fill="#263238"/>
<path d="M253.668 285.795C253.668 285.795 253.43 285.94 252.94 286.152C252.385 286.377 251.671 286.668 250.811 287.038C248.867 287.805 246.196 288.876 242.916 290.172C236.251 292.791 227.034 296.414 216.812 300.315C206.589 304.23 197.279 307.615 190.508 309.956C187.123 311.133 184.372 312.045 182.455 312.654C181.555 312.931 180.828 313.169 180.246 313.341C179.744 313.487 179.466 313.566 179.466 313.54C179.466 313.513 179.717 313.407 180.207 313.209C180.775 312.997 181.489 312.733 182.362 312.402C184.333 311.688 187.03 310.696 190.336 309.493C197.068 307.046 206.351 303.582 216.56 299.667C226.743 295.793 235.96 292.288 242.731 289.709C246.037 288.493 248.735 287.501 250.706 286.787C251.592 286.483 252.319 286.218 252.888 286.033C253.39 285.861 253.655 285.795 253.668 285.808V285.795Z" fill="#263238"/>
<path d="M372.039 280.757C372.039 280.757 371.946 280.651 371.788 280.426C371.616 280.175 371.404 279.844 371.126 279.421C370.531 278.495 369.698 277.199 368.64 275.546C366.524 272.148 363.522 267.202 360.018 260.96C353.036 248.489 344.162 230.742 336.743 210.191C333.014 199.929 329.999 189.945 327.658 180.781C327.037 178.493 326.521 176.245 326.018 174.063C325.516 171.881 325.04 169.765 324.564 167.715C323.651 163.615 322.778 159.794 322.038 156.289C320.543 149.293 319.618 143.567 319.168 139.587C318.93 137.603 318.798 136.056 318.718 134.998C318.692 134.509 318.666 134.112 318.639 133.808C318.639 133.543 318.626 133.398 318.639 133.398C318.639 133.398 318.679 133.53 318.705 133.794L318.851 134.985C318.97 136.029 319.142 137.577 319.419 139.547C319.948 143.501 320.953 149.201 322.501 156.17C323.294 159.661 324.167 163.47 325.106 167.569C325.582 169.619 326.084 171.735 326.587 173.904C327.103 176.086 327.632 178.321 328.253 180.595C330.634 189.733 333.649 199.678 337.365 209.927C344.77 230.438 353.551 248.185 360.415 260.695C363.853 266.95 366.789 271.936 368.839 275.374C369.844 277.054 370.65 278.376 371.206 279.315C371.457 279.738 371.655 280.082 371.814 280.347C371.946 280.585 372.013 280.704 371.999 280.717L372.039 280.757Z" fill="#263238"/>
<path d="M231.305 125.555C212.328 125.555 196.948 110.176 196.948 91.1986C196.948 72.2217 212.328 56.8418 231.305 56.8418C250.282 56.8418 265.662 72.2217 265.662 91.1986C265.662 110.176 250.282 125.555 231.305 125.555Z" fill="#455A64"/>
<path d="M231.305 75.7524C236.331 75.7524 236.926 75.7656 238.923 75.8582C240.761 75.9376 241.753 76.255 242.427 76.5062C243.3 76.85 243.935 77.26 244.596 77.9212C245.257 78.5824 245.667 79.204 246.011 80.09C246.275 80.7512 246.579 81.7563 246.659 83.5945C246.751 85.5781 246.765 86.1732 246.765 91.2117C246.765 96.2502 246.751 96.832 246.659 98.8289C246.579 100.667 246.262 101.659 246.011 102.333C245.667 103.219 245.257 103.841 244.596 104.502C243.935 105.163 243.313 105.573 242.427 105.917C241.766 106.182 240.761 106.486 238.923 106.565C236.939 106.658 236.344 106.671 231.305 106.671C226.267 106.671 225.685 106.658 223.688 106.565C221.85 106.486 220.858 106.168 220.184 105.917C219.311 105.573 218.676 105.163 218.015 104.502C217.354 103.841 216.944 103.219 216.6 102.333C216.349 101.672 216.031 100.667 215.952 98.8289C215.859 96.8453 215.846 96.2502 215.846 91.2117C215.846 86.1732 215.859 85.5913 215.952 83.5945C216.031 81.7563 216.349 80.7645 216.6 80.09C216.944 79.2172 217.354 78.5824 218.015 77.9212C218.676 77.26 219.298 76.85 220.184 76.5062C220.845 76.2417 221.85 75.9376 223.688 75.8582C225.672 75.7656 226.267 75.7524 231.305 75.7524ZM231.305 72.3538C226.187 72.3538 225.553 72.3802 223.543 72.4728C221.532 72.5654 220.17 72.8827 218.967 73.3456C217.724 73.8217 216.679 74.4697 215.634 75.5144C214.59 76.5591 213.942 77.6171 213.466 78.8469C213.003 80.0503 212.685 81.4124 212.593 83.4225C212.5 85.4326 212.474 86.0674 212.474 91.1852C212.474 96.3031 212.5 96.9378 212.593 98.9479C212.685 100.958 213.003 102.32 213.466 103.524C213.942 104.767 214.59 105.811 215.634 106.856C216.679 107.901 217.737 108.549 218.967 109.025C220.17 109.488 221.532 109.805 223.543 109.898C225.553 109.99 226.187 110.017 231.305 110.017C236.423 110.017 237.058 109.99 239.068 109.898C241.078 109.805 242.44 109.488 243.644 109.025C244.887 108.549 245.931 107.901 246.976 106.856C248.021 105.811 248.669 104.753 249.145 103.524C249.608 102.32 249.925 100.958 250.018 98.9479C250.11 96.9378 250.137 96.3031 250.137 91.1852C250.137 86.0674 250.11 85.4326 250.018 83.4225C249.925 81.4124 249.608 80.0503 249.145 78.8469C248.669 77.6038 248.021 76.5591 246.976 75.5144C245.931 74.4697 244.873 73.8217 243.644 73.3456C242.44 72.8827 241.078 72.5654 239.068 72.4728C237.058 72.3802 236.423 72.3538 231.305 72.3538Z" fill="#F1F8F0"/>
<path d="M231.305 81.5186C225.963 81.5186 221.625 85.8561 221.625 91.1988C221.625 96.5414 225.963 100.879 231.305 100.879C236.648 100.879 240.985 96.5414 240.985 91.1988C240.985 85.8561 236.648 81.5186 231.305 81.5186ZM231.305 97.4671C227.84 97.4671 225.024 94.6503 225.024 91.1856C225.024 87.7208 227.84 84.904 231.305 84.904C234.77 84.904 237.587 87.7208 237.587 91.1856C237.587 94.6503 234.77 97.4671 231.305 97.4671Z" fill="#F1F8F0"/>
<path d="M243.63 81.1352C243.63 82.3782 242.612 83.3965 241.369 83.3965C240.126 83.3965 239.108 82.3782 239.108 81.1352C239.108 79.8921 240.126 78.8738 241.369 78.8738C242.612 78.8738 243.63 79.8921 243.63 81.1352Z" fill="#F1F8F0"/>
<path opacity="0.1" d="M352.427 364.956L344.122 347.01C342.601 343.731 345.206 340.028 348.817 340.359L368.508 342.144L388.199 343.929C391.809 344.26 393.7 348.359 391.611 351.322L380.211 367.482L368.812 383.642C366.722 386.604 362.226 386.194 360.705 382.901L352.4 364.956H352.427Z" fill="black"/>
<path d="M342.072 354.601L333.767 336.656C332.247 333.376 334.852 329.673 338.462 330.004L358.153 331.789L377.844 333.575C381.454 333.905 383.346 338.005 381.256 340.967L369.857 357.127L358.457 373.287C356.368 376.25 351.872 375.84 350.351 372.547L342.046 354.601H342.072Z" fill="#455A64"/>
<path d="M97.3076 280.272L20.1331 260.514C17.8336 259.925 15.4922 261.312 14.9035 263.612L1.06597 317.662C0.477265 319.962 1.86415 322.303 4.16366 322.892L81.3381 342.649C83.6377 343.238 85.979 341.851 86.5677 339.552L100.405 285.501C100.994 283.202 99.6071 280.861 97.3076 280.272Z" fill="#1F8B5D"/>
<path d="M95.8748 287.395C95.8748 287.395 95.5706 287.58 94.9623 287.871C94.3011 288.175 93.415 288.585 92.3042 289.101C89.9238 290.172 86.5913 291.667 82.505 293.492C78.3393 295.33 73.4066 297.512 67.9317 299.932C65.1811 301.135 62.2982 302.405 59.3095 303.714C57.8151 304.362 56.2943 305.036 54.7471 305.711C53.1337 306.412 51.2691 306.584 49.5102 306.16C47.7514 305.737 46.1645 304.732 45.0668 303.37C44.0353 302.034 43.0171 300.712 42.0252 299.416C40.0416 296.824 38.1373 294.325 36.3123 291.944C32.6889 287.184 29.4224 282.886 26.6718 279.262C23.974 275.678 21.792 272.756 20.2183 270.68C19.5042 269.701 18.9223 268.921 18.4859 268.326C18.1024 267.783 17.904 267.492 17.9173 267.479C17.9305 267.466 18.1685 267.73 18.5917 268.246C19.0546 268.815 19.6629 269.582 20.4167 270.521C22.03 272.571 24.2782 275.453 27.0421 278.971C29.8324 282.581 33.1385 286.84 36.8016 291.574C38.6398 293.954 40.5573 296.441 42.541 299.032C43.5328 300.315 44.5511 301.638 45.5826 302.96C46.6009 304.203 48.0555 305.129 49.6689 305.512C53.0014 306.465 56.0166 304.256 59.0317 303.119C62.0205 301.823 64.9166 300.567 67.6672 299.376C73.1553 297.009 78.1145 294.88 82.3066 293.082C86.4326 291.336 89.7916 289.908 92.1984 288.889C93.3225 288.427 94.2217 288.056 94.8962 287.779C95.5177 287.527 95.8483 287.408 95.8615 287.435L95.8748 287.395Z" fill="#263238"/>
<path d="M40.4913 296.837C40.5838 297.009 33.3766 301.214 24.3972 306.24C15.4047 311.265 8.05195 315.206 7.95938 315.047C7.86681 314.875 15.0741 310.67 24.0666 305.645C33.046 300.619 40.4119 296.678 40.5045 296.837H40.4913Z" fill="#263238"/>
<path d="M61.6502 302.259C61.8221 302.166 66.0275 309.374 71.0527 318.353C76.078 327.346 80.0188 334.698 79.8601 334.791C79.6882 334.884 75.4829 327.676 70.4576 318.684C65.4324 309.704 61.4915 302.338 61.6502 302.246V302.259Z" fill="#263238"/>
<path d="M549.232 330.229L599.352 255.551L507.112 258.156L521.632 282.687L517.665 300.143L534.063 304.679L549.232 330.229Z" fill="#F1F8F0"/>
<path opacity="0.3" d="M521.632 282.687L599.352 255.551L534.063 304.679L517.665 300.143L521.632 282.687Z" fill="black"/>
<path d="M517.665 300.143C517.573 299.971 535.783 289.855 558.343 277.543C580.904 265.231 599.259 255.379 599.352 255.551C599.445 255.723 581.235 265.839 558.674 278.151C536.113 290.463 517.758 300.315 517.665 300.143Z" fill="#263238"/>
<path d="M534.063 304.679C534.063 304.679 534.156 304.574 534.381 304.402C534.632 304.203 534.949 303.952 535.346 303.635C536.232 302.947 537.488 301.968 539.075 300.739C542.368 298.213 547.089 294.616 552.895 290.172C564.638 281.272 580.785 269.027 598.651 255.498L598.968 256.093L598.691 256.186C577.452 263.552 558.224 270.217 544.259 275.057C537.317 277.424 531.683 279.355 527.742 280.704C525.825 281.338 524.317 281.854 523.233 282.211L522.056 282.582C521.791 282.661 521.646 282.701 521.646 282.687C521.646 282.687 521.778 282.621 522.029 282.515L523.18 282.079C524.238 281.695 525.732 281.153 527.636 280.452C531.564 279.051 537.171 277.054 544.087 274.594C558.039 269.701 577.241 262.97 598.453 255.525L598.73 255.432C598.916 255.366 599.101 255.458 599.167 255.644C599.22 255.789 599.167 255.948 599.048 256.027C581.142 269.503 564.942 281.682 553.173 290.543C547.314 294.907 542.553 298.451 539.234 300.937C537.607 302.127 536.325 303.066 535.425 303.74C535.015 304.031 534.685 304.269 534.42 304.455C534.196 304.613 534.077 304.693 534.063 304.679Z" fill="#263238"/>
<path d="M549.232 330.229C549.232 330.229 549.139 330.096 548.967 329.819C548.782 329.515 548.531 329.091 548.2 328.562C547.499 327.412 546.494 325.746 545.198 323.603C542.553 319.2 538.705 312.825 533.878 304.798L534.01 304.891C529.144 303.555 523.629 302.048 517.599 300.395L517.361 300.328L517.414 300.09C518.617 294.748 519.94 288.863 521.355 282.621L521.394 282.833C516.951 275.348 512.032 267.069 506.848 258.315L506.57 257.839H507.125C520.905 257.429 535.968 256.992 551.638 256.543C568.486 256.08 584.633 255.63 599.365 255.22H600L599.643 255.723C584.898 277.556 572.295 296.216 563.368 309.453C558.925 315.999 555.394 321.21 552.961 324.793C551.771 326.552 550.845 327.901 550.197 328.853C549.893 329.29 549.655 329.634 549.483 329.885C549.324 330.11 549.245 330.229 549.245 330.215C549.245 330.215 549.324 330.07 549.483 329.832C549.655 329.567 549.893 329.21 550.197 328.748C550.832 327.782 551.757 326.38 552.948 324.582C555.368 320.945 558.859 315.682 563.263 309.057C572.083 295.832 584.541 277.173 599.101 255.352L599.378 255.855C584.646 256.278 568.513 256.741 551.652 257.217C535.981 257.653 520.918 258.077 507.139 258.46L507.403 257.971C512.574 266.739 517.467 275.03 521.897 282.528L521.95 282.634L521.923 282.753C520.495 288.982 519.146 294.88 517.916 300.209L517.731 299.905C523.735 301.585 529.263 303.132 534.116 304.481L534.196 304.507L534.235 304.587C538.943 312.614 542.672 318.988 545.251 323.392C546.521 325.587 547.512 327.28 548.2 328.457C548.531 329.025 548.782 329.462 548.967 329.779C549.139 330.083 549.232 330.242 549.232 330.242V330.229Z" fill="#263238"/>
<path d="M113.291 228.282L36.4047 113.746L177.892 117.727L155.622 155.363L161.705 182.156L136.566 189.098L113.291 228.282Z" fill="#F1F8F0"/>
<path opacity="0.3" d="M155.622 155.363L36.4047 113.746L136.566 189.098L161.705 182.156L155.622 155.363Z" fill="black"/>
<path d="M161.706 182.156C161.613 182.328 133.485 167.146 98.8899 148.262C64.2818 129.364 36.3123 113.918 36.4049 113.759C36.4974 113.601 64.6124 128.769 99.2205 147.667C133.815 166.551 161.798 182.01 161.706 182.169V182.156Z" fill="#263238"/>
<path d="M136.566 189.098C136.566 189.098 136.381 188.979 136.037 188.741C135.667 188.477 135.164 188.107 134.516 187.631C133.154 186.625 131.197 185.171 128.684 183.306C123.619 179.511 116.333 174.062 107.327 167.318C89.3154 153.75 64.4536 135.024 36.9866 114.328C36.8412 114.209 36.8015 113.997 36.9205 113.852C37.0131 113.733 37.1718 113.68 37.304 113.733C37.4362 113.786 37.5817 113.825 37.7272 113.878C70.2987 125.278 99.7758 135.593 121.146 143.065C131.792 146.82 140.401 149.875 146.392 151.991C149.341 153.049 151.655 153.882 153.242 154.451C153.996 154.728 154.591 154.953 155.014 155.112C155.411 155.257 155.609 155.363 155.609 155.363C155.609 155.363 155.397 155.31 154.987 155.178C154.551 155.033 153.956 154.834 153.189 154.583C151.589 154.041 149.261 153.247 146.299 152.242C140.295 150.179 131.646 147.204 120.974 143.527C99.5907 136.095 70.0872 125.846 37.4891 114.526L37.066 114.381L37.3834 113.786C64.8106 134.535 89.6195 153.313 107.605 166.934C116.544 173.745 123.791 179.26 128.83 183.095C131.303 184.999 133.233 186.48 134.582 187.512C135.217 188.014 135.706 188.398 136.063 188.675C136.394 188.94 136.553 189.085 136.553 189.085L136.566 189.098Z" fill="#263238"/>
<path d="M113.291 228.282C113.291 228.282 113.423 228.031 113.688 227.581C113.966 227.119 114.349 226.444 114.865 225.571C115.91 223.799 117.43 221.207 119.401 217.835C123.355 211.104 129.121 201.318 136.381 188.993L136.42 188.913L136.5 188.887C143.945 186.811 152.409 184.457 161.639 181.891L161.454 182.195C159.59 174.023 157.527 164.991 155.331 155.416L155.305 155.297L155.358 155.191C162.142 143.699 169.666 130.978 177.601 117.542L177.866 118.031C156.72 117.436 133.617 116.801 109.575 116.127C83.7215 115.386 58.9655 114.685 36.3783 114.037L36.656 113.535C59.0448 147.019 78.1937 175.649 91.7486 195.922C98.5195 206.079 103.902 214.145 107.591 219.686C109.43 222.45 110.845 224.579 111.823 226.034C112.299 226.748 112.656 227.304 112.908 227.687C113.159 228.057 113.278 228.269 113.278 228.269C113.278 228.269 113.159 228.097 112.908 227.74C112.656 227.37 112.286 226.841 111.823 226.14C110.845 224.699 109.43 222.609 107.591 219.885C103.875 214.384 98.4666 206.383 91.6561 196.306C77.9953 176.033 58.701 147.389 36.127 113.892L35.77 113.376H36.3915C58.9787 114.024 83.7479 114.712 109.588 115.439C133.63 116.127 156.733 116.788 177.879 117.383H178.434L178.156 117.872C170.195 131.295 162.658 144.004 155.86 155.496L155.9 155.284C158.069 164.858 160.105 173.891 161.957 182.076L162.01 182.314L161.772 182.381C152.541 184.92 144.064 187.247 136.619 189.297L136.751 189.204C129.359 201.543 123.5 211.329 119.467 218.06C117.47 221.379 115.936 223.945 114.878 225.69C114.362 226.537 113.979 227.185 113.701 227.648C113.437 228.084 113.304 228.282 113.304 228.282H113.291Z" fill="#263238"/>
<path d="M74.9141 381.711L9.87679 468.529L121.133 471.161L105.185 440.692L111.056 419.916L91.59 413.423L74.9141 381.711Z" fill="#F1F8F0"/>
<path opacity="0.3" d="M105.185 440.692L9.8768 468.529L91.59 413.423L111.056 419.916L105.185 440.692Z" fill="black"/>
<path d="M111.056 419.916C111.136 420.088 88.5485 431.104 60.6187 444.527C32.6756 457.949 9.95619 468.688 9.87684 468.529C9.7975 468.357 32.3714 457.341 60.3145 443.918C88.2443 430.496 110.964 419.758 111.056 419.929V419.916Z" fill="#263238"/>
<path d="M91.5901 413.423C91.5901 413.423 91.4579 413.542 91.1934 413.741C90.8892 413.952 90.4925 414.243 89.99 414.6C88.8924 415.367 87.3187 416.451 85.3086 417.853C81.1958 420.67 75.2845 424.717 67.9979 429.702C53.3189 439.673 33.0724 453.4 10.71 468.595L10.4191 467.974L10.7497 467.881C36.8017 460.33 60.3807 453.493 77.493 448.534C86.0094 446.1 92.9258 444.117 97.7394 442.741C100.107 442.08 101.958 441.565 103.254 441.207C103.862 441.049 104.338 440.917 104.695 440.824C105.026 440.745 105.185 440.705 105.198 440.718C105.198 440.718 105.039 440.784 104.722 440.89C104.365 440.996 103.902 441.155 103.307 441.34C102.011 441.736 100.173 442.292 97.832 443.006C93.0316 444.434 86.1417 446.484 77.6517 449.01C60.5526 454.022 37 460.925 10.9613 468.555L10.6307 468.648C10.4456 468.701 10.2604 468.595 10.2075 468.41C10.1678 468.264 10.2207 468.106 10.3398 468.026C32.755 452.911 53.0279 439.224 67.7466 429.306C75.0861 424.399 81.0371 420.419 85.1763 417.642C87.2129 416.293 88.813 415.235 89.9371 414.494C90.4661 414.15 90.876 413.886 91.1802 413.688C91.4579 413.516 91.6166 413.423 91.6166 413.436L91.5901 413.423Z" fill="#263238"/>
<path d="M74.9141 381.711C74.9141 381.711 75.0067 381.87 75.205 382.227C75.4034 382.597 75.6811 383.126 76.0514 383.801C76.8184 385.229 77.916 387.292 79.3443 389.963C82.2404 395.412 86.459 403.346 91.7751 413.317L91.6561 413.212C97.4219 415.116 103.981 417.285 111.136 419.652L111.374 419.731L111.307 419.969C109.522 426.317 107.552 433.326 105.462 440.758L105.436 440.546C110.316 449.843 115.711 460.132 121.424 470.989L121.675 471.478H121.12C104.497 471.081 86.3267 470.658 67.4159 470.209C47.0901 469.719 27.6106 469.256 9.85033 468.82H9.21556L9.59907 468.304C28.7082 442.927 45.0403 421.226 56.6116 405.859C62.3642 398.228 66.9398 392.172 70.0872 388.006C71.6345 385.956 72.8379 384.369 73.671 383.285C74.0677 382.769 74.3719 382.373 74.5967 382.082C74.8083 381.817 74.9009 381.698 74.9009 381.698C74.9009 381.698 74.7951 381.857 74.5835 382.148C74.3587 382.452 74.0545 382.862 73.6578 383.404C72.8247 384.515 71.6345 386.141 70.0872 388.231C66.953 392.436 62.4039 398.559 56.6777 406.256C45.2122 421.622 29.0389 443.324 10.1148 468.701L9.86355 468.185C27.6238 468.595 47.1033 469.058 67.4291 469.521C86.3267 469.971 104.497 470.407 121.133 470.804L120.842 471.28C115.156 460.409 109.773 450.108 104.92 440.798L104.867 440.692L104.894 440.586C107.01 433.167 108.993 426.158 110.792 419.811L110.964 420.128C103.823 417.734 97.2765 415.539 91.5107 413.595L91.4313 413.569L91.3916 413.489C86.2077 403.518 82.0949 395.597 79.2649 390.148C77.8631 387.424 76.7655 385.322 76.0249 383.88C75.6679 383.179 75.3902 382.637 75.1918 382.253C75.0067 381.883 74.9141 381.685 74.9141 381.685V381.711Z" fill="#263238"/>
<path d="M385.541 431.249L377.355 431.606L347.904 495.533L301.328 518.755L303.55 542.73C303.55 542.73 360.891 532.151 375.186 524.15C389.482 516.15 407.705 464.165 407.705 464.165C407.798 464.535 388.331 431.276 388.331 431.276" fill="#FFBF9D"/>
<path d="M304.053 489.675L298.088 483.393C296.938 482.653 295.589 482.282 294.227 482.322L275.316 482.891C271.745 483.248 268.532 485.192 266.561 488.194L259.685 499.897C259.685 499.897 255.056 507.911 255.651 509.855C256.537 512.791 259.645 512.196 259.645 512.196C259.645 512.196 260.306 515.899 261.536 516.652C263.599 517.909 266.125 516.943 266.125 516.943C266.813 518.358 268.281 519.31 269.854 519.191C270.172 519.165 270.502 519.112 270.833 519.006C273.081 518.332 274.086 513.981 274.086 513.981L283.674 512.209C283.674 512.209 297.44 521.413 302.307 527.457C307.16 533.487 319.882 528.885 319.882 528.885L324.643 506.139L304.066 489.675H304.053Z" fill="#FFBF9D"/>
<path d="M290.114 492.399C290.127 492.531 288.593 492.822 285.975 493.086C283.37 493.377 279.68 493.483 275.528 494.025L275.977 493.695C275.303 495.176 274.47 496.71 273.518 498.217C270.582 502.912 267.117 506.575 264.419 508.982C261.708 511.376 259.751 512.487 259.672 512.368C259.566 512.222 261.325 510.873 263.837 508.361C266.337 505.848 269.63 502.172 272.499 497.583C273.425 496.102 274.245 494.62 274.919 493.205L275.065 492.915L275.369 492.875C279.64 492.399 283.317 492.438 285.922 492.359C288.527 492.306 290.088 492.253 290.101 492.399H290.114Z" fill="#FF9A6C"/>
<path d="M290.55 501.418C290.577 501.537 289.281 502.026 286.993 502.37C284.705 502.7 281.412 502.806 277.736 502.052L278.411 501.669C278.027 502.793 277.577 503.944 277.035 505.094C275.038 509.286 272.222 512.486 269.921 514.43C267.619 516.388 265.927 517.208 265.861 517.089C265.755 516.93 267.262 515.872 269.352 513.809C271.441 511.759 274.033 508.598 275.964 504.578C276.493 503.467 276.929 502.357 277.326 501.285L277.498 500.796L278.001 500.902C285.076 502.476 290.537 501.061 290.577 501.418H290.55Z" fill="#FF9A6C"/>
<path d="M314.553 506.086C308.932 503.467 303.312 500.862 297.678 498.244C295.338 497.159 292.904 496.049 290.339 496.062C287.562 496.062 284.983 497.384 282.523 498.654C279.495 500.214 276.467 501.788 273.451 503.348C272.962 503.6 272.42 503.904 272.248 504.433C272.023 505.121 272.526 505.835 273.028 506.35C277.564 510.939 285.71 511.27 290.603 507.065C292.058 511.032 293.566 515.078 296.29 518.292C299.014 521.519 303.259 523.793 307.411 523.026" fill="#FFBF9D"/>
<path d="M307.412 523.04C307.412 523.04 307.266 523.119 306.962 523.185C306.658 523.264 306.195 523.317 305.587 523.344C304.383 523.37 302.545 523.145 300.508 522.114C298.485 521.109 296.277 519.284 294.531 516.665C292.746 514.06 291.423 510.781 290.114 507.25L290.961 507.475C288.474 509.67 284.851 510.834 281.135 510.543C279.283 510.41 277.392 509.908 275.66 509.009C274.814 508.532 273.967 508.004 273.227 507.329C272.856 506.985 272.473 506.681 272.142 506.218C271.825 505.782 271.481 505.147 271.666 504.38C271.812 503.758 272.301 503.362 272.671 503.124C273.068 502.872 273.412 502.714 273.769 502.529C274.47 502.158 275.171 501.801 275.872 501.444C277.26 500.73 278.635 500.016 279.984 499.328C282.682 497.993 285.234 496.419 288.117 495.784C291.027 495.083 293.883 495.983 296.118 497.001C298.406 498.046 300.456 499.051 302.36 499.963C306.01 501.748 309.025 503.216 311.339 504.34C313.442 505.398 314.592 506.02 314.566 506.099C314.526 506.179 313.31 505.689 311.141 504.764C308.787 503.719 305.719 502.37 302.003 500.73C300.059 499.857 297.969 498.918 295.721 497.913C293.486 496.961 290.947 496.207 288.342 496.869C285.737 497.464 283.224 499.011 280.513 500.373C279.164 501.074 277.802 501.788 276.401 502.515C275.7 502.872 274.999 503.243 274.298 503.6C273.584 503.97 272.83 504.327 272.803 504.684C272.658 505.121 273.306 505.901 274.007 506.456C274.668 507.065 275.435 507.554 276.202 507.99C277.776 508.81 279.508 509.273 281.214 509.419C284.626 509.709 287.972 508.651 290.26 506.694L290.841 506.192L291.093 506.919C292.349 510.463 293.592 513.677 295.245 516.216C296.859 518.768 298.882 520.54 300.786 521.598C304.674 523.727 307.438 522.868 307.398 523.079L307.412 523.04Z" fill="#FF9A6C"/>
<path d="M540.583 292.447C541.615 279.619 544.497 266.95 544.881 254.083C545.265 241.216 542.792 227.621 534.46 217.809C526.129 207.996 510.815 203.421 499.839 210.139L496.943 220.916C497.71 270.719 493.729 320.998 494.496 370.801C494.602 377.347 499.482 383.589 502.034 389.606C504.6 395.623 510.207 400.834 516.753 400.873C525.309 400.926 531.498 392.661 534.698 384.726C546.309 355.95 538.11 323.365 540.583 292.434V292.447Z" fill="#263238"/>
<path d="M514.214 223.76C512.561 220.453 510.868 217.108 508.289 214.463C505.711 211.818 502.074 209.953 498.411 210.403C496.692 210.615 494.893 211.461 494.205 213.061C493.518 214.661 494.602 216.923 496.334 216.896L496.678 217.24C500.289 220.903 503.978 224.5 507.734 228.005C508.673 228.891 509.665 229.79 510.868 230.253C512.085 230.716 513.592 230.636 514.505 229.737C516.026 228.229 515.166 225.677 514.201 223.76H514.214Z" fill="#1F8B5D"/>
<path d="M520.614 236.851C508.871 220.334 492.301 210.165 472.107 208.459C460.721 207.493 455.841 209.543 447.484 211.209C439.126 212.862 431.416 216.764 426.047 223.389C419.673 231.258 414.158 240.171 412.373 250.129C410.548 260.364 410.641 270.507 412.042 278.958C413.735 289.22 419.62 305.129 425.148 313.936L442.498 317.255C457.005 318.737 471.711 320.218 486.099 317.864C500.487 315.51 514.769 308.818 523.193 296.916C534.897 280.386 532.344 253.355 520.601 236.851H520.614Z" fill="#263238"/>
<path d="M497.194 235.093L463.049 218.76L453.805 219.21C433.175 217.888 417.398 239.668 416.129 256.371C414.714 274.924 413.735 297.63 415.745 311.516C419.805 339.433 443.133 343.321 443.133 343.321C443.133 343.321 441.652 357.947 440.858 367.177L494.853 366.939L505.829 245.156C506.001 240.065 502.246 235.701 497.194 235.106V235.093Z" fill="#FFBF9D"/>
<path d="M457.455 307.866C457.362 306.398 456.648 305.063 455.67 304.111C453.739 302.206 450.737 301.836 448.436 303.198C446.135 304.573 444.667 307.602 444.879 310.524C446.003 312.31 447.814 313.579 449.891 313.91C450.208 313.963 450.539 313.989 450.869 314.002C452.456 314.068 454.109 313.645 455.392 312.561C456.688 311.476 457.561 309.678 457.442 307.866H457.455Z" fill="#FF9A6C"/>
<path d="M421.934 281.735C421.842 283.626 423.363 285.253 425.333 285.385C427.29 285.517 428.97 284.102 429.062 282.211C429.155 280.32 427.634 278.693 425.664 278.561C423.693 278.429 422.027 279.857 421.934 281.735Z" fill="#263238"/>
<path d="M421.789 266.077C422.225 266.553 424.963 264.583 428.798 264.636C432.633 264.636 435.436 266.659 435.86 266.183C436.071 265.972 435.622 265.125 434.405 264.226C433.202 263.314 431.152 262.427 428.758 262.401C426.365 262.388 424.341 263.234 423.164 264.12C421.974 265.006 421.564 265.853 421.776 266.064L421.789 266.077Z" fill="#263238"/>
<path d="M444.363 297.789C444.389 297.578 441.996 297.128 438.134 296.586C437.156 296.467 436.23 296.269 436.071 295.594C435.846 294.88 436.27 293.835 436.759 292.698C437.711 290.331 438.716 287.858 439.761 285.253C443.926 274.66 446.968 265.945 446.532 265.786C446.108 265.628 442.379 274.078 438.2 284.671C437.195 287.289 436.23 289.775 435.317 292.156C434.934 293.267 434.273 294.523 434.762 296.004C435.013 296.745 435.727 297.287 436.362 297.459C436.984 297.657 437.539 297.67 438.028 297.71C441.916 297.974 444.336 298.014 444.363 297.803V297.789Z" fill="#263238"/>
<path d="M443.093 343.281C443.093 343.281 461.819 344.736 480.531 333.812C480.531 333.812 470.336 353.001 442.485 350.025L443.08 343.281H443.093Z" fill="#FF9A6C"/>
<path d="M455.643 300.593C455.022 300.553 454.956 304.719 451.345 307.641C447.748 310.564 443.305 310.035 443.265 310.617C443.199 310.881 444.244 311.437 446.122 311.516C447.96 311.609 450.658 311.04 452.866 309.268C455.075 307.483 456.04 305.063 456.199 303.357C456.384 301.611 455.934 300.58 455.643 300.593Z" fill="#263238"/>
<path d="M423.997 252.747C424.632 253.699 427.581 253.104 431.019 253.435C434.471 253.66 437.288 254.704 438.055 253.871C438.399 253.461 438.028 252.549 436.851 251.583C435.688 250.631 433.664 249.732 431.297 249.547C428.93 249.362 426.801 249.917 425.518 250.684C424.209 251.451 423.706 252.297 423.984 252.76L423.997 252.747Z" fill="#263238"/>
<path d="M461.171 282.766C461.145 284.657 459.518 286.191 457.548 286.191C455.577 286.191 454.003 284.684 454.03 282.793C454.056 280.902 455.683 279.368 457.653 279.368C459.624 279.368 461.197 280.888 461.171 282.766Z" fill="#263238"/>
<path d="M473.721 268.114C473.258 268.55 470.653 266.421 466.805 266.236C462.97 265.998 460.047 267.836 459.663 267.334C459.465 267.109 459.968 266.302 461.237 265.469C462.493 264.636 464.596 263.882 466.99 264.014C469.383 264.147 471.354 265.125 472.465 266.091C473.602 267.056 473.959 267.916 473.734 268.114H473.721Z" fill="#263238"/>
<path d="M472.253 255.683C471.46 256.516 468.537 255.458 464.98 255.247C461.422 254.916 458.367 255.498 457.719 254.559C457.442 254.096 457.958 253.25 459.32 252.496C460.655 251.742 462.864 251.174 465.31 251.359C467.757 251.557 469.833 252.443 471.023 253.408C472.24 254.374 472.61 255.286 472.253 255.696V255.683Z" fill="#263238"/>
<path d="M497.895 291.468C497.921 289.392 500.394 284.538 502.444 284.234C507.932 283.454 517.784 284.023 517.692 297.921C517.573 316.912 498.53 312.878 498.49 312.336C498.464 311.913 497.776 298.636 497.895 291.468Z" fill="#FFBF9D"/>
<path d="M503.78 305.42C503.859 305.354 504.11 305.658 504.666 305.909C505.208 306.16 506.147 306.346 507.139 305.975C509.149 305.248 510.855 302.074 510.974 298.649C511.04 296.917 510.683 295.277 510.075 293.901C509.506 292.513 508.607 291.534 507.602 291.349C506.596 291.111 505.882 291.706 505.644 292.248C505.38 292.777 505.499 293.161 505.406 293.187C505.353 293.24 504.996 292.87 505.155 292.09C505.234 291.706 505.459 291.27 505.909 290.899C506.372 290.529 507.033 290.344 507.747 290.423C509.215 290.529 510.524 291.891 511.185 293.386C511.926 294.893 512.362 296.745 512.296 298.689C512.151 302.51 510.167 306.081 507.416 306.861C506.081 307.205 504.97 306.795 504.388 306.332C503.806 305.856 503.7 305.433 503.766 305.407L503.78 305.42Z" fill="#FF9A6C"/>
<path d="M503.211 284.34L498.067 288.995C478.653 267.717 441.467 215.217 443.53 218.338C443.53 218.338 458.143 213.458 473.403 217.134C488.664 220.811 517.414 230.517 515.721 248.701C514.042 266.871 503.211 284.34 503.211 284.34Z" fill="#263238"/>
<path d="M530.982 282.039C530.982 282.039 530.943 281.655 530.771 280.928C530.599 280.201 530.255 279.156 529.686 277.86C528.536 275.281 526.248 271.737 522.386 268.431C518.578 265.046 513.196 262.123 506.993 259.69C500.804 257.204 493.782 255.114 486.985 251.636C480.135 248.264 474.104 244.112 469 239.893C463.922 235.648 459.782 231.324 456.595 227.462C453.395 223.601 451.12 220.242 449.586 217.888C448.886 216.777 448.317 215.864 447.867 215.15C447.471 214.529 447.246 214.211 447.219 214.225C447.193 214.238 447.352 214.595 447.695 215.243C448.052 215.891 448.542 216.869 449.269 218.086C450.711 220.506 452.919 223.944 456.066 227.885C459.214 231.826 463.34 236.243 468.431 240.567C473.549 244.852 479.632 249.084 486.548 252.483C493.438 256.013 500.513 258.076 506.663 260.51C512.838 262.877 518.155 265.68 521.95 268.934C525.798 272.121 528.126 275.519 529.356 278.006C530.586 280.518 530.903 282.052 530.995 282.026L530.982 282.039Z" fill="#455A64"/>
<path d="M525.283 284.644C525.283 284.644 525.573 283.11 524.833 280.466C524.119 277.834 522.122 274.197 518.326 271.076C514.571 267.863 509.056 265.654 502.96 263.816C496.824 262.018 490.198 259.809 483.771 256.265C477.344 252.747 471.658 248.621 467.016 244.284C462.348 239.973 458.645 235.582 455.828 231.681C452.972 227.806 451.107 224.368 449.771 222.04C449.19 220.916 448.727 220.004 448.343 219.276C448.013 218.655 447.814 218.324 447.788 218.338C447.761 218.351 447.894 218.708 448.171 219.356C448.502 220.11 448.925 221.049 449.441 222.199C450.684 224.593 452.469 228.11 455.273 232.064C458.05 236.045 461.726 240.528 466.408 244.918C471.063 249.335 476.815 253.541 483.308 257.098C489.802 260.682 496.586 262.917 502.709 264.662C508.805 266.448 514.214 268.537 517.903 271.592C521.646 274.567 523.682 278.032 524.476 280.558C525.322 283.097 525.163 284.644 525.296 284.631L525.283 284.644Z" fill="#455A64"/>
<path d="M500.421 316.33C500.421 316.198 502.047 316.105 504.891 315.563C507.721 314.981 511.78 313.539 515.88 310.366C520.019 307.245 523.841 302.206 526.737 295.991C529.62 289.762 531.59 282.343 532.318 274.448C532.662 270.494 532.622 266.62 532.186 262.917C531.696 259.214 530.837 255.709 529.739 252.456C527.465 245.963 524.211 240.594 520.971 236.534C514.452 228.348 508.792 224.857 509.03 224.606C509.056 224.566 509.4 224.778 510.035 225.227C510.656 225.677 511.635 226.299 512.772 227.237C515.087 229.049 518.3 231.919 521.659 235.992C525.031 240.052 528.43 245.474 530.823 252.086C531.974 255.405 532.873 258.989 533.389 262.784C533.852 266.58 533.905 270.56 533.561 274.594C532.82 282.634 530.771 290.172 527.769 296.52C524.767 302.854 520.747 307.985 516.409 311.106C512.111 314.293 507.892 315.629 504.97 316.079C503.515 316.383 502.351 316.303 501.584 316.383C500.804 316.422 500.407 316.409 500.407 316.37L500.421 316.33Z" fill="#455A64"/>
<path d="M441.282 360.631L494.88 354.839L504.692 363.766L466.434 386.26L449.547 395.001L432.884 389.937L427.594 380.005L441.282 360.631Z" fill="#FFBF9D"/>
<path d="M369.05 425.881C369.05 425.881 385.845 393.64 390.011 386.591C397.099 374.583 410.324 367.786 410.324 367.786L441.282 360.618C441.282 360.618 438.068 376.131 457.336 377.202C481.841 378.564 497.062 355.064 497.062 355.064C497.062 355.064 525.018 357.947 532.741 361.187C540.464 364.427 562.298 373.565 565.511 402.606L572.996 450.015L513.923 454.511L514.743 517.631L543.81 567.355H401.238C403.473 567.95 411.329 534.743 406.171 508.506L396.438 484.888C392.55 475.432 390.13 465.408 389.548 455.199C389.165 448.481 389.35 443.39 389.35 443.39C389.35 443.39 374.195 438.179 369.037 425.867L369.05 425.881Z" fill="#1F8B5D"/>
<path d="M415.587 539.835L514.624 510.106L513.923 454.524L564.361 450.676C564.361 450.676 560.341 479.479 559.745 494.237C558.899 515.475 548.677 545.164 541.853 551.459C535.016 557.767 412.968 564.604 412.968 564.604L415.6 539.808L415.587 539.835Z" fill="#FFBF9D"/>
<path d="M359.423 557.317C360.243 558.666 361.79 559.473 363.338 559.208C363.642 559.155 363.972 559.063 364.303 558.93C366.472 558.044 365.916 553.522 365.916 553.522L376.456 550.956C376.456 550.956 391.029 558.838 396.425 564.379C401.82 569.933 414.053 564.154 414.053 564.154L416.658 541.064L395.631 524.812C395.631 524.812 396.914 525.777 395.314 522.563C393.701 519.35 387.631 521.082 387.631 521.082C386.546 519.509 382.46 519.231 382.46 519.231L365.374 522.55C361.856 523.238 358.828 525.473 357.162 528.647L350.761 540.747C350.761 540.747 347.561 549.356 348.328 551.234C349.492 554.077 352.52 553.191 352.52 553.191C352.52 553.191 353.79 558.587 355.244 558.666C356.699 558.745 359.436 557.317 359.436 557.317H359.423Z" fill="#FFBF9D"/>
<path d="M394.838 538.129C394.838 538.314 392.524 538.274 388.86 538.724C385.197 539.186 380.172 540.231 375.001 542.44C372.423 543.537 370.055 544.807 367.992 546.103C365.996 547.438 363.906 548.563 363.351 550.136C363.073 550.903 363.285 551.644 363.695 552.173C364.104 552.702 364.62 553.032 365.083 553.178C366.022 553.482 366.577 553.178 366.617 553.284C366.657 553.31 366.115 553.799 364.977 553.588C364.422 553.482 363.774 553.178 363.218 552.569C362.663 552.001 362.28 550.93 362.597 549.898C362.888 548.867 363.695 548.02 364.554 547.306C365.44 546.619 366.379 545.918 367.424 545.243C369.5 543.868 371.907 542.545 374.552 541.421C379.841 539.147 385.039 538.208 388.768 537.943C392.524 537.692 394.838 538.01 394.825 538.129H394.838Z" fill="#FF9A6C"/>
<path d="M396.901 549.025C396.901 549.356 389.865 549.607 381.296 550.771C372.714 551.908 365.863 553.535 365.784 553.217C365.744 553.072 367.424 552.49 370.188 551.776C372.952 551.062 376.826 550.255 381.151 549.673C385.475 549.091 389.429 548.84 392.286 548.8C395.142 548.748 396.914 548.88 396.914 549.025H396.901Z" fill="#FF9A6C"/>
<path d="M359.489 556.868C359.489 556.868 359.304 556.233 359.132 555.043C358.973 553.866 358.762 552.146 358.735 549.991C358.735 548.92 358.749 547.73 358.947 546.46C359.119 545.177 359.621 543.802 360.349 542.572C361.724 540.099 363.695 537.494 366.3 535.457C368.892 533.434 371.51 531.702 374.221 530.657C376.906 529.612 379.458 529.202 381.574 528.951C383.703 528.713 385.422 528.62 386.612 528.581C387.802 528.541 388.464 528.554 388.464 528.62C388.49 528.792 385.858 529.083 381.68 529.718C379.603 530.075 377.13 530.551 374.591 531.596C372.066 532.627 369.5 534.36 366.987 536.317C364.475 538.301 362.637 540.681 361.222 543.088C359.727 545.389 359.608 547.915 359.516 550.004C359.423 554.209 359.74 556.854 359.502 556.868H359.489Z" fill="#FF9A6C"/>
<path d="M381.957 523.674C381.971 523.833 379.392 524.111 375.319 524.904C371.404 525.817 365.07 526.597 361.883 532.35C358.352 537.626 355.39 542.572 354.226 546.539C352.983 550.48 353.327 553.125 353.089 553.112C353.036 553.112 352.877 552.477 352.851 551.287C352.811 550.11 352.93 548.364 353.472 546.314C354.477 542.149 357.413 537.018 360.957 531.715C361.87 530.379 362.861 529.11 364.052 528.065C365.229 527.007 366.644 526.333 367.953 525.843C370.611 524.865 373.097 524.441 375.173 524.111C379.339 523.502 381.944 523.516 381.944 523.648L381.957 523.674Z" fill="#FF9A6C"/>
<path d="M392.378 561.007C392.378 561.007 391.981 560.795 391.294 560.306C390.514 559.764 389.495 559.076 388.226 558.216C385.528 556.444 381.521 553.932 376.297 551.287L376.549 551.313C373.401 552.107 369.857 552.993 366.022 553.958L366.353 553.482C366.445 554.355 366.458 555.201 366.353 556.1C366.247 556.987 366.035 557.939 365.348 558.759C364.991 559.155 364.435 559.42 363.986 559.512C363.523 559.671 363.007 559.764 362.491 559.711C361.46 559.645 360.468 559.182 359.727 558.441C359.542 558.256 359.37 558.058 359.212 557.846L359.106 557.687L359.053 557.608L359.026 557.568C358.881 557.515 360.256 557.899 359.674 557.74H359.648L359.317 557.925C358.881 558.137 358.431 558.335 357.982 558.521C357.519 558.706 357.056 558.864 356.553 558.997C356.302 559.063 356.051 559.116 355.773 559.142C355.509 559.169 355.205 559.208 354.768 559.023C354.133 558.64 353.882 558.15 353.618 557.687C353.366 557.225 353.155 556.748 352.97 556.259C352.599 555.294 352.308 554.315 352.044 553.297L352.705 553.68C351.343 554.037 349.677 553.826 348.619 552.636C348.143 552.08 347.733 551.379 347.72 550.546C347.693 549.792 347.812 549.131 347.931 548.457C348.473 545.785 349.333 543.193 350.285 540.549V540.522L350.312 540.483C351.396 538.42 352.546 536.238 353.723 534.029C354.451 532.654 355.165 531.292 355.892 529.943C356.62 528.634 357.241 527.166 358.299 525.949C359.317 524.746 360.587 523.767 361.962 523.079C363.338 522.352 364.911 522.074 366.287 521.823C371.947 520.739 377.342 519.707 382.394 518.742H382.526C383.544 518.821 384.483 518.993 385.435 519.257C386.361 519.548 387.34 519.879 388.041 520.791L387.432 520.646C389.204 519.76 391.307 519.588 392.987 520.527C394.679 521.453 395.539 523.106 396.068 524.679L395.922 524.468C401.953 529.11 406.885 532.892 410.403 535.603C412.03 536.885 413.326 537.904 414.317 538.684C415.203 539.398 415.653 539.795 415.64 539.821C415.613 539.848 415.111 539.53 414.185 538.869C413.167 538.142 411.831 537.176 410.152 535.96C406.581 533.328 401.582 529.639 395.446 525.116L395.354 525.036L395.301 524.891C394.825 523.502 393.978 522.008 392.59 521.294C391.241 520.527 389.389 520.699 387.908 521.453L387.538 521.638L387.287 521.307C386.877 520.765 386.017 520.395 385.171 520.157C384.311 519.919 383.386 519.76 382.46 519.681H382.592C377.554 520.672 372.158 521.73 366.498 522.841C365.057 523.119 363.708 523.357 362.452 524.018C361.195 524.64 360.058 525.526 359.132 526.623C358.193 527.681 357.598 529.057 356.858 530.419C356.143 531.768 355.416 533.143 354.702 534.505C353.538 536.714 352.375 538.896 351.29 540.959L351.317 540.892C350.391 543.471 349.518 546.063 349.002 548.615C348.883 549.25 348.778 549.898 348.791 550.467C348.778 550.956 349.055 551.472 349.412 551.895C350.1 552.728 351.37 552.9 352.401 552.649L352.93 552.517L353.062 553.032C353.3 553.998 353.578 554.963 353.922 555.876C354.252 556.735 354.715 557.78 355.218 558.097C355.244 558.097 355.429 558.15 355.654 558.111C355.866 558.097 356.077 558.044 356.302 557.992C356.739 557.886 357.175 557.727 357.611 557.568C358.048 557.396 358.471 557.211 358.881 557.013L359.185 556.867H359.212C358.63 556.696 360.005 557.066 359.86 557.039L359.886 557.079L359.926 557.145L360.005 557.277C360.124 557.449 360.256 557.608 360.402 557.754C360.984 558.335 361.764 558.706 362.544 558.759C362.941 558.798 363.324 558.732 363.708 558.6C364.131 558.507 364.409 558.362 364.647 558.111C365.586 556.973 365.586 555.069 365.467 553.561L365.44 553.165L365.797 553.085C369.646 552.173 373.203 551.34 376.35 550.586L376.483 550.559L376.602 550.626C381.838 553.389 385.792 555.995 388.437 557.873C389.76 558.825 390.752 559.592 391.4 560.134C392.048 560.676 392.378 560.967 392.365 560.993L392.378 561.007Z" fill="#FF9A6C"/>
<path d="M235.326 563.731L197.887 465.421C196.472 461.719 199.21 457.751 203.164 457.751H323.373C325.569 457.751 327.565 459.021 328.491 461.004L364.488 554.778L439.999 556.061C443.12 556.061 445.646 558.587 445.646 561.708C445.646 564.829 443.12 567.355 439.999 567.355H240.602C238.261 567.355 236.159 565.9 235.326 563.718V563.731Z" fill="#455A64"/>
<path d="M286.2 512.566C286.2 516.917 282.669 520.448 278.318 520.448C273.967 520.448 270.436 516.917 270.436 512.566C270.436 508.215 273.967 504.684 278.318 504.684C282.669 504.684 286.2 508.215 286.2 512.566Z" fill="#F1F8F0"/>
<path d="M404.65 390.267C404.822 390.36 403.222 393.362 400.96 398.374C398.699 403.373 395.909 410.434 393.647 418.488C391.412 426.555 390.143 434.04 389.482 439.488C388.82 444.937 388.635 448.335 388.437 448.335C388.358 448.335 388.318 447.476 388.318 445.942C388.318 444.395 388.411 442.16 388.635 439.409C389.085 433.908 390.222 426.317 392.484 418.184C394.758 410.051 397.707 402.976 400.18 398.03C401.41 395.557 402.481 393.6 403.288 392.277C404.081 390.955 404.557 390.241 404.637 390.281L404.65 390.267Z" fill="#263238"/>
<path d="M572.996 450.028C572.996 450.028 572.573 450.134 571.779 450.213C570.867 450.306 569.69 450.425 568.235 450.557C565.009 450.821 560.539 451.205 554.998 451.668C543.585 452.527 527.808 453.717 509.718 455.08L509.136 455.119L509.096 454.537C508.712 448.52 508.316 442.173 507.906 435.653C507.258 424.28 506.716 413.449 506.544 403.584C506.028 393.652 508.461 384.594 512.349 378.154C516.197 371.608 521.315 367.812 525.045 365.961C526.949 365.061 528.47 364.466 529.541 364.215C530.599 363.911 531.167 363.779 531.167 363.818C531.22 363.977 528.919 364.44 525.256 366.371C521.646 368.328 516.753 372.136 513.077 378.577C509.36 384.951 507.073 393.745 507.641 403.558C507.879 413.396 508.461 424.227 509.096 435.587C509.493 442.106 509.889 448.454 510.26 454.458L509.638 453.916C527.729 452.726 543.519 451.681 554.945 450.914C560.499 450.597 564.969 450.332 568.209 450.147C569.677 450.081 570.854 450.028 571.766 449.988C572.573 449.962 572.996 449.975 573.009 450.001L572.996 450.028Z" fill="#263238"/>
<path d="M461.938 488.643C461.898 488.722 461.211 488.458 459.954 487.916C459.32 487.651 458.566 487.307 457.746 486.805C456.913 486.315 455.921 485.813 454.942 485.086C452.906 483.75 450.671 481.872 448.423 479.558C446.227 477.191 444.045 474.374 442.181 471.147C440.356 467.894 439.047 464.575 438.147 461.467C437.314 458.346 436.838 455.463 436.732 453.03C436.6 451.813 436.679 450.715 436.693 449.75C436.693 448.785 436.772 447.952 436.878 447.277C437.05 445.928 437.182 445.201 437.261 445.201C437.499 445.227 437.116 448.203 437.579 452.95C437.79 455.331 438.346 458.121 439.219 461.149C440.157 464.151 441.467 467.365 443.239 470.539C445.05 473.686 447.153 476.45 449.256 478.791C451.411 481.092 453.527 482.983 455.458 484.385C459.306 487.215 462.057 488.405 461.964 488.63L461.938 488.643Z" fill="#263238"/>
</svg>
