<svg width="250" height="141" viewBox="0 0 250 141" fill="none" xmlns="http://www.w3.org/2000/svg">
<path d="M9.15252 140.12V140.891H1.07568V129.182H8.90193V129.953H1.92771V134.58H8.16557V135.351H1.92771V140.15L9.15252 140.12Z" fill="white"/>
<path d="M26.8133 129.182V140.887H26.1116L18.135 130.72V140.887H17.283V129.182H18.0001L25.9459 139.349V129.182H26.8133Z" fill="white"/>
<path d="M43.9891 140.12V140.891H35.9123V129.182H43.7385V129.953H36.7643V134.58H43.006V135.351H36.7643V140.15L43.9891 140.12Z" fill="white"/>
<path d="M60.2584 140.887L57.4672 136.974C57.0841 137.029 56.6976 137.057 56.3106 137.058H52.9719V140.887H52.1199V129.182H56.3183C57.7871 129.182 58.9437 129.529 59.7881 130.227C60.2048 130.582 60.5345 131.028 60.7518 131.531C60.969 132.033 61.068 132.579 61.041 133.126C61.0868 133.962 60.8368 134.788 60.3349 135.458C59.833 136.129 59.1112 136.601 58.296 136.792L61.2261 140.887H60.2584ZM56.3183 136.291C57.5635 136.291 58.5197 136.014 59.1751 135.462C59.4873 135.156 59.7354 134.79 59.9047 134.387C60.0741 133.983 60.1613 133.55 60.1613 133.113C60.1613 132.675 60.0741 132.242 59.9047 131.838C59.7354 131.435 59.4873 131.069 59.1751 130.763C58.5197 130.211 57.5635 129.934 56.3183 129.934H52.9719V136.291H56.3183Z" fill="white"/>
<path d="M77.5413 135.085H78.3779V139.469C77.8442 139.972 77.2075 140.354 76.512 140.587C75.7687 140.847 74.9862 140.977 74.1988 140.972C73.104 140.988 72.0235 140.723 71.0606 140.201C70.15 139.707 69.3925 138.972 68.8708 138.077C68.3501 137.147 68.0767 136.099 68.0767 135.033C68.0767 133.968 68.3501 132.92 68.8708 131.99C69.3914 131.094 70.1492 130.358 71.0606 129.865C72.0286 129.343 73.1144 129.077 74.2142 129.094C75.0215 129.087 75.8234 129.225 76.5814 129.503C77.2762 129.763 77.9062 130.171 78.4281 130.698L77.8729 131.28C77.411 130.807 76.8483 130.445 76.2267 130.22C75.5787 129.994 74.8964 129.883 74.2104 129.892C73.2624 129.88 72.3268 130.109 71.4924 130.559C70.7018 130.99 70.0454 131.63 69.5956 132.41C69.1335 133.21 68.8964 134.119 68.9093 135.043C68.8986 135.962 69.1385 136.867 69.6033 137.661C70.0575 138.438 70.7127 139.079 71.5001 139.515C72.3249 139.973 73.2554 140.207 74.1988 140.194C75.4 140.239 76.5789 139.861 77.5298 139.126L77.5413 135.085Z" fill="white"/>
<path d="M90.715 136.858V140.887H89.8668V136.858L85.1479 129.182H86.0886L90.3295 136.072L94.5703 129.182H95.457L90.715 136.858Z" fill="white"/>
<path d="M112.517 140.533C111.832 140.292 111.212 139.896 110.705 139.376L111.091 138.74C111.559 139.213 112.127 139.576 112.752 139.804C113.454 140.076 114.201 140.215 114.954 140.213C116.067 140.213 116.908 140.001 117.479 139.577C117.746 139.392 117.963 139.145 118.111 138.856C118.26 138.568 118.335 138.247 118.331 137.923C118.342 137.694 118.308 137.465 118.231 137.249C118.153 137.034 118.034 136.835 117.88 136.666C117.565 136.345 117.182 136.099 116.758 135.949C116.167 135.739 115.565 135.565 114.954 135.428C114.253 135.265 113.563 135.059 112.887 134.812C112.376 134.616 111.922 134.297 111.565 133.882C111.184 133.408 110.99 132.81 111.021 132.202C111.017 131.647 111.173 131.103 111.472 130.636C111.812 130.133 112.292 129.741 112.852 129.507C113.586 129.208 114.374 129.066 115.166 129.09C115.819 129.089 116.469 129.185 117.093 129.376C117.671 129.544 118.217 129.805 118.713 130.147L118.396 130.833C117.924 130.508 117.404 130.26 116.854 130.097C116.314 129.933 115.753 129.849 115.189 129.846C114.109 129.846 113.288 130.066 112.729 130.497C112.465 130.692 112.25 130.947 112.105 131.242C111.959 131.536 111.887 131.861 111.893 132.19C111.882 132.418 111.916 132.647 111.995 132.862C112.073 133.077 112.193 133.274 112.347 133.443C112.661 133.763 113.043 134.008 113.465 134.16C114.063 134.373 114.671 134.552 115.289 134.696C115.988 134.859 116.675 135.067 117.348 135.317C117.851 135.511 118.3 135.823 118.659 136.226C119.04 136.689 119.234 137.278 119.202 137.876C119.203 138.424 119.044 138.961 118.743 139.419C118.39 139.922 117.899 140.311 117.328 140.541C116.585 140.838 115.789 140.98 114.988 140.957C114.145 140.97 113.307 140.826 112.517 140.533Z" fill="white"/>
<path d="M128.952 140.194C128.045 139.693 127.289 138.956 126.766 138.062C126.246 137.138 125.973 136.096 125.973 135.035C125.973 133.975 126.246 132.933 126.766 132.009C127.289 131.114 128.045 130.378 128.952 129.877C129.904 129.353 130.977 129.087 132.063 129.106C133.148 129.091 134.218 129.357 135.171 129.877C136.079 130.371 136.834 131.106 137.353 132.001C137.876 132.93 138.151 133.979 138.151 135.045C138.151 136.111 137.876 137.16 137.353 138.089C136.833 138.983 136.078 139.717 135.171 140.213C134.218 140.733 133.148 140.999 132.063 140.984C130.975 140.997 129.902 140.724 128.952 140.194ZM134.735 139.519C135.516 139.083 136.163 138.444 136.609 137.668C137.058 136.864 137.295 135.957 137.295 135.035C137.295 134.113 137.058 133.207 136.609 132.402C136.163 131.627 135.516 130.987 134.735 130.552C133.916 130.114 133.002 129.885 132.073 129.885C131.144 129.885 130.23 130.114 129.411 130.552C128.626 130.985 127.976 131.625 127.529 132.402C127.08 133.207 126.844 134.113 126.844 135.035C126.844 135.957 127.08 136.864 127.529 137.668C127.976 138.446 128.626 139.086 129.411 139.519C130.23 139.957 131.144 140.186 132.073 140.186C133.002 140.186 133.916 139.957 134.735 139.519Z" fill="white"/>
<path d="M146.108 129.182H146.964V140.12H153.703V140.891H146.108V129.182Z" fill="white"/>
<path d="M161.807 139.684C160.984 138.825 160.574 137.571 160.577 135.921V129.182H161.429V135.906C161.429 137.342 161.758 138.419 162.416 139.136C163.074 139.854 164.028 140.21 165.277 140.204C166.515 140.204 167.463 139.848 168.118 139.136C168.773 138.425 169.102 137.348 169.105 135.906V129.182H169.961V135.906C169.961 137.556 169.547 138.81 168.719 139.669C167.892 140.527 166.735 140.956 165.25 140.956C163.774 140.966 162.627 140.542 161.807 139.684Z" fill="white"/>
<path d="M180.963 129.95H176.75V129.179H186.029V129.95H181.815V140.887H180.963V129.95Z" fill="white"/>
<path d="M193.154 129.182H194.01V140.887H193.154V129.182Z" fill="white"/>
<path d="M204.963 140.194C204.055 139.694 203.301 138.957 202.78 138.062C202.26 137.138 201.987 136.096 201.987 135.035C201.987 133.975 202.26 132.933 202.78 132.009C203.301 131.114 204.055 130.377 204.963 129.877C205.915 129.353 206.987 129.087 208.074 129.106C209.16 129.091 210.232 129.356 211.185 129.877C212.093 130.373 212.847 131.107 213.367 132.001C213.888 132.931 214.161 133.979 214.161 135.045C214.161 136.111 213.888 137.159 213.367 138.089C212.846 138.982 212.092 139.716 211.185 140.213C210.232 140.734 209.16 140.999 208.074 140.984C206.986 140.997 205.913 140.724 204.963 140.194ZM210.746 139.519C211.525 139.082 212.173 138.443 212.619 137.668C213.067 136.863 213.302 135.957 213.302 135.035C213.302 134.114 213.067 133.208 212.619 132.402C212.173 131.628 211.525 130.988 210.746 130.552C209.926 130.114 209.011 129.885 208.082 129.885C207.152 129.885 206.237 130.114 205.418 130.552C204.633 130.985 203.982 131.625 203.536 132.402C203.086 133.207 202.85 134.113 202.85 135.035C202.85 135.957 203.086 136.864 203.536 137.668C203.982 138.446 204.633 139.086 205.418 139.519C206.237 139.957 207.152 140.186 208.082 140.186C209.011 140.186 209.926 139.957 210.746 139.519Z" fill="white"/>
<path d="M231.657 129.182V140.887H230.951L222.975 130.72V140.887H222.123V129.182H222.84L230.801 139.349V129.182H231.657Z" fill="white"/>
<path d="M241.364 140.533C240.678 140.292 240.057 139.896 239.549 139.376L239.934 138.74C240.404 139.213 240.973 139.576 241.6 139.804C242.3 140.077 243.046 140.215 243.797 140.213C244.911 140.213 245.756 140.001 246.322 139.577C246.59 139.393 246.808 139.145 246.956 138.857C247.105 138.568 247.18 138.247 247.174 137.923C247.186 137.694 247.152 137.465 247.074 137.249C246.997 137.034 246.878 136.835 246.723 136.666C246.409 136.345 246.025 136.099 245.601 135.949C245.011 135.738 244.409 135.564 243.797 135.428C243.096 135.265 242.406 135.059 241.731 134.811C241.221 134.616 240.768 134.297 240.412 133.882C240.031 133.408 239.838 132.809 239.869 132.201C239.864 131.647 240.021 131.103 240.32 130.636C240.658 130.132 241.139 129.739 241.7 129.507C242.433 129.207 243.221 129.065 244.013 129.09C244.666 129.089 245.316 129.185 245.941 129.376C246.519 129.545 247.067 129.805 247.564 130.147L247.244 130.833C246.772 130.508 246.251 130.259 245.702 130.096C245.161 129.933 244.6 129.849 244.036 129.846C242.957 129.846 242.135 130.066 241.58 130.497C241.315 130.692 241.101 130.947 240.955 131.241C240.81 131.536 240.737 131.861 240.744 132.19C240.732 132.418 240.766 132.647 240.844 132.862C240.921 133.077 241.04 133.274 241.195 133.443C241.509 133.764 241.893 134.009 242.317 134.16C242.912 134.374 243.52 134.553 244.136 134.696C244.835 134.859 245.523 135.067 246.195 135.317C246.699 135.511 247.15 135.823 247.51 136.226C247.89 136.689 248.083 137.278 248.049 137.876C248.053 138.425 247.893 138.961 247.591 139.419C247.239 139.922 246.749 140.311 246.18 140.54C245.435 140.838 244.637 140.98 243.836 140.957C242.993 140.97 242.155 140.826 241.364 140.533Z" fill="white"/>
<path d="M22.7308 83.0347C24.8333 83.9327 26.6275 85.4255 27.893 87.3295C29.0789 89.3248 29.7047 91.6029 29.7047 93.924C29.7047 96.2451 29.0789 98.5232 27.893 100.518C26.638 102.434 24.8408 103.932 22.7308 104.821C20.4947 105.821 17.8603 106.319 14.8274 106.317H7.93032V115.758H0V81.5157H14.8274C17.54 81.4536 20.2346 81.9714 22.7308 83.0347ZM19.82 98.3248C21.0563 97.2967 21.6757 95.8369 21.6783 93.9452C21.6809 92.0535 21.0614 90.5782 19.82 89.5193C18.5786 88.4912 16.7679 87.9772 14.3879 87.9772H7.93032V99.8669H14.3802C16.7679 99.8669 18.5812 99.3529 19.82 98.3248Z" fill="white"/>
<path d="M56.1756 108.429H40.2726L37.2384 115.754H29.1192L44.3861 81.4998H52.2124L67.5294 115.754H59.2098L56.1756 108.429ZM53.6813 102.411L48.2492 89.3029L42.817 102.411H53.6813Z" fill="white"/>
<path d="M71.103 81.5161H79.0295V109.305H96.2048V115.763H71.103V81.5161Z" fill="white"/>
<path d="M131.828 115.77L131.778 95.2178L121.7 112.15H118.126L108.103 95.6612V115.77H100.658V81.5161H107.212L120.031 102.805L132.657 81.5161H139.165L139.261 115.77H131.828Z" fill="white"/>
<path d="M163.831 103.633V115.769H155.9V103.521L142.642 81.4998H151.058L160.207 96.7204L169.363 81.5152H177.143L163.831 103.633Z" fill="white"/>
<path d="M201.948 115.77L195.344 106.22H188.05V115.762H180.123V81.5157H194.951C197.663 81.4536 200.358 81.9714 202.854 83.0347C204.408 83.7746 205.788 84.8338 206.904 86.1432C208.021 87.4527 208.849 88.9829 209.333 90.6339C209.818 92.2849 209.95 94.0197 209.719 95.7249C209.488 97.4301 208.9 99.0675 207.993 100.53C206.711 102.426 204.898 103.901 202.781 104.771L210.464 115.782L201.948 115.77ZM199.943 89.5193C198.702 88.4912 196.891 87.9772 194.511 87.9772H188.05V99.9286H194.511C196.889 99.9286 198.699 99.4069 199.943 98.3634C201.187 97.3199 201.807 95.851 201.802 93.9568C201.802 92.0265 201.182 90.5474 199.943 89.5193Z" fill="white"/>
<path d="M238.646 108.429H222.743L219.709 115.754H211.586L226.853 81.4998H234.683L250 115.754H241.68L238.646 108.429ZM236.152 102.411L230.72 89.3029L225.288 102.411H236.152Z" fill="white"/>
<path d="M136.896 35.9328L124.945 24.3206L112.993 35.9328C113.09 29.3017 118.391 24.5404 122.685 23.8233H107.711C112.835 20.3343 117.284 19.1237 121.425 20.6118L112.492 11.1934C120.025 11.3746 124.941 17.8245 124.941 21.8841C124.941 17.8245 129.86 11.3746 137.389 11.1934L128.457 20.6118C132.601 19.1237 137.05 20.3343 142.17 23.8233H127.196C131.487 24.5404 136.796 29.3017 136.892 35.9328" fill="white"/>
<path fill-rule="evenodd" clip-rule="evenodd" d="M124.994 0.101744C130.636 0.100529 136.097 2.08751 140.418 5.71353C144.74 9.33954 147.645 14.3726 148.624 19.9283C149.602 25.4839 148.591 31.2067 145.769 36.0911C142.946 40.9754 138.493 44.7088 133.191 46.6351C133.402 46.7484 133.582 46.9134 133.712 47.1147C133.843 47.316 133.92 47.547 133.938 47.7863C133.955 48.0256 133.912 48.2654 133.811 48.4834C133.711 48.7014 133.557 48.8905 133.364 49.0331L132.273 48.1734C131.306 47.4149 130.38 46.6041 129.501 45.7445C134.792 44.6457 139.496 41.6478 142.727 37.3169C145.958 32.9861 147.491 27.6221 147.037 22.2381C146.583 16.8541 144.173 11.8227 140.262 8.09422C136.351 4.36575 131.211 2.19826 125.811 2.00113C120.412 1.80399 115.127 3.59084 110.955 7.02423C106.783 10.4576 104.013 15.2999 103.167 20.6364C102.322 25.973 103.459 31.4345 106.366 35.9894C109.272 40.5443 113.746 43.8773 118.942 45.359C119.914 46.7414 120.972 48.0612 122.111 49.3107H117.484C117.161 49.3175 116.845 49.2144 116.588 49.0181C116.331 48.8219 116.149 48.5441 116.07 48.2305C115.992 47.9168 116.022 47.5859 116.157 47.2918C116.291 46.9977 116.521 46.758 116.81 46.612C111.508 44.6857 107.055 40.9527 104.232 36.0688C101.41 31.1849 100.398 25.4624 101.377 19.907C102.355 14.3516 105.259 9.31858 109.58 5.69226C113.901 2.06593 119.361 0.078305 125.002 0.0786133" fill="white"/>
<path d="M117.477 55.0737H132.512C132.89 55.0737 133.253 55.224 133.521 55.4915C133.788 55.759 133.939 56.1219 133.939 56.5002C133.939 56.8785 133.788 57.2413 133.521 57.5088C133.253 57.7764 132.89 57.9266 132.512 57.9266H117.477C117.098 57.9266 116.735 57.7764 116.468 57.5088C116.2 57.2413 116.05 56.8785 116.05 56.5002C116.05 56.1219 116.2 55.759 116.468 55.4915C116.735 55.224 117.098 55.0737 117.477 55.0737Z" fill="white"/>
<path d="M121.625 59.3762H128.352C128.731 59.3762 129.094 59.5265 129.361 59.794C129.629 60.0615 129.779 60.4244 129.779 60.8027C129.779 61.181 129.629 61.5438 129.361 61.8113C129.094 62.0788 128.731 62.2291 128.352 62.2291H121.625C121.247 62.2291 120.884 62.0788 120.616 61.8113C120.349 61.5438 120.198 61.181 120.198 60.8027C120.198 60.4244 120.349 60.0615 120.616 59.794C120.884 59.5265 121.247 59.3762 121.625 59.3762Z" fill="white"/>
<path d="M117.477 50.7681H132.512C132.89 50.7681 133.253 50.9183 133.521 51.1859C133.788 51.4534 133.939 51.8162 133.939 52.1945C133.939 52.5728 133.788 52.9357 133.521 53.2032C133.253 53.4707 132.89 53.621 132.512 53.621H117.477C117.289 53.621 117.104 53.5841 116.931 53.5124C116.758 53.4407 116.6 53.3356 116.468 53.2032C116.335 53.0707 116.23 52.9135 116.159 52.7404C116.087 52.5673 116.05 52.3818 116.05 52.1945C116.05 52.0072 116.087 51.8217 116.159 51.6486C116.23 51.4756 116.335 51.3183 116.468 51.1859C116.6 51.0534 116.758 50.9483 116.931 50.8766C117.104 50.805 117.289 50.7681 117.477 50.7681Z" fill="white"/>
</svg>
