<svg width="647" height="625" viewBox="0 0 647 625" fill="none" xmlns="http://www.w3.org/2000/svg">
<g filter="url(#filter0_d_69_1772)">
<circle cx="320.004" cy="123.847" r="110" transform="rotate(-1.46414 320.004 123.847)" fill="#034C45"/>
<circle cx="320.004" cy="123.847" r="112" transform="rotate(-1.46414 320.004 123.847)" stroke="white" stroke-width="4"/>
</g>
<g filter="url(#filter1_d_69_1772)">
<circle cx="523.644" cy="263.69" r="110" transform="rotate(-1.46414 523.644 263.69)" fill="#1F8B5D"/>
<circle cx="523.644" cy="263.69" r="112" transform="rotate(-1.46414 523.644 263.69)" stroke="white" stroke-width="4"/>
</g>
<g filter="url(#filter2_d_69_1772)">
<circle cx="454.699" cy="501.529" r="110" transform="rotate(-1.46414 454.699 501.529)" fill="#1B3333"/>
<circle cx="454.699" cy="501.529" r="112" transform="rotate(-1.46414 454.699 501.529)" stroke="white" stroke-width="4"/>
</g>
<g filter="url(#filter3_d_69_1772)">
<circle cx="207.626" cy="501.842" r="110" transform="rotate(-1.46414 207.626 501.842)" fill="#36534A"/>
<circle cx="207.626" cy="501.842" r="112" transform="rotate(-1.46414 207.626 501.842)" stroke="white" stroke-width="4"/>
</g>
<g filter="url(#filter4_d_69_1772)">
<circle cx="123.775" cy="273.91" r="110" transform="rotate(-1.46414 123.775 273.91)" fill="#52704C"/>
<circle cx="123.775" cy="273.91" r="112" transform="rotate(-1.46414 123.775 273.91)" stroke="white" stroke-width="4"/>
</g>
<g filter="url(#filter5_d_69_1772)">
<circle cx="319.729" cy="303" r="159" stroke="white" stroke-width="8" shape-rendering="crispEdges"/>
</g>
<path d="M271.894 102.451H273.694V113.485H280.516V115.051H271.894V102.451ZM290.829 110.335C290.829 110.467 290.817 110.641 290.793 110.857H283.053C283.161 111.697 283.527 112.375 284.151 112.891C284.787 113.395 285.573 113.647 286.509 113.647C287.649 113.647 288.567 113.263 289.263 112.495L290.217 113.611C289.785 114.115 289.245 114.499 288.597 114.763C287.961 115.027 287.247 115.159 286.455 115.159C285.447 115.159 284.553 114.955 283.773 114.547C282.993 114.127 282.387 113.545 281.955 112.801C281.535 112.057 281.325 111.217 281.325 110.281C281.325 109.357 281.529 108.523 281.937 107.779C282.357 107.035 282.927 106.459 283.647 106.051C284.379 105.631 285.201 105.421 286.113 105.421C287.025 105.421 287.835 105.631 288.543 106.051C289.263 106.459 289.821 107.035 290.217 107.779C290.625 108.523 290.829 109.375 290.829 110.335ZM286.113 106.879C285.285 106.879 284.589 107.131 284.025 107.635C283.473 108.139 283.149 108.799 283.053 109.615H289.173C289.077 108.811 288.747 108.157 288.183 107.653C287.631 107.137 286.941 106.879 286.113 106.879ZM296.439 105.421C297.759 105.421 298.767 105.745 299.463 106.393C300.171 107.041 300.525 108.007 300.525 109.291V115.051H298.887V113.791C298.599 114.235 298.185 114.577 297.645 114.817C297.117 115.045 296.487 115.159 295.755 115.159C294.687 115.159 293.829 114.901 293.181 114.385C292.545 113.869 292.227 113.191 292.227 112.351C292.227 111.511 292.533 110.839 293.145 110.335C293.757 109.819 294.729 109.561 296.061 109.561H298.797V109.219C298.797 108.475 298.581 107.905 298.149 107.509C297.717 107.113 297.081 106.915 296.241 106.915C295.677 106.915 295.125 107.011 294.585 107.203C294.045 107.383 293.589 107.629 293.217 107.941L292.497 106.645C292.989 106.249 293.577 105.949 294.261 105.745C294.945 105.529 295.671 105.421 296.439 105.421ZM296.043 113.827C296.703 113.827 297.273 113.683 297.753 113.395C298.233 113.095 298.581 112.675 298.797 112.135V110.803H296.133C294.669 110.803 293.937 111.295 293.937 112.279C293.937 112.759 294.123 113.137 294.495 113.413C294.867 113.689 295.383 113.827 296.043 113.827ZM306.458 115.159C305.678 115.159 304.928 115.057 304.208 114.853C303.488 114.637 302.924 114.367 302.516 114.043L303.236 112.675C303.656 112.975 304.166 113.215 304.766 113.395C305.366 113.575 305.972 113.665 306.584 113.665C308.096 113.665 308.852 113.233 308.852 112.369C308.852 112.081 308.75 111.853 308.546 111.685C308.342 111.517 308.084 111.397 307.772 111.325C307.472 111.241 307.04 111.151 306.476 111.055C305.708 110.935 305.078 110.797 304.586 110.641C304.106 110.485 303.692 110.221 303.344 109.849C302.996 109.477 302.822 108.955 302.822 108.283C302.822 107.419 303.182 106.729 303.902 106.213C304.622 105.685 305.588 105.421 306.8 105.421C307.436 105.421 308.072 105.499 308.708 105.655C309.344 105.811 309.866 106.021 310.274 106.285L309.536 107.653C308.756 107.149 307.838 106.897 306.782 106.897C306.05 106.897 305.492 107.017 305.108 107.257C304.724 107.497 304.532 107.815 304.532 108.211C304.532 108.523 304.64 108.769 304.856 108.949C305.072 109.129 305.336 109.261 305.648 109.345C305.972 109.429 306.422 109.525 306.998 109.633C307.766 109.765 308.384 109.909 308.852 110.065C309.332 110.209 309.74 110.461 310.076 110.821C310.412 111.181 310.58 111.685 310.58 112.333C310.58 113.197 310.208 113.887 309.464 114.403C308.732 114.907 307.73 115.159 306.458 115.159ZM318.104 114.493C317.852 114.709 317.54 114.877 317.168 114.997C316.796 115.105 316.412 115.159 316.016 115.159C315.056 115.159 314.312 114.901 313.784 114.385C313.256 113.869 312.992 113.131 312.992 112.171V106.933H311.372V105.511H312.992V103.423H314.72V105.511H317.456V106.933H314.72V112.099C314.72 112.615 314.846 113.011 315.098 113.287C315.362 113.563 315.734 113.701 316.214 113.701C316.742 113.701 317.192 113.551 317.564 113.251L318.104 114.493ZM330.193 102.451C331.825 102.451 333.109 102.841 334.045 103.621C334.981 104.401 335.449 105.475 335.449 106.843C335.449 108.211 334.981 109.285 334.045 110.065C333.109 110.845 331.825 111.235 330.193 111.235H327.079V115.051H325.279V102.451H330.193ZM330.139 109.669C331.279 109.669 332.149 109.429 332.749 108.949C333.349 108.457 333.649 107.755 333.649 106.843C333.649 105.931 333.349 105.235 332.749 104.755C332.149 104.263 331.279 104.017 330.139 104.017H327.079V109.669H330.139ZM339.339 107.113C339.639 106.561 340.083 106.141 340.671 105.853C341.259 105.565 341.973 105.421 342.813 105.421V107.095C342.717 107.083 342.585 107.077 342.417 107.077C341.481 107.077 340.743 107.359 340.203 107.923C339.675 108.475 339.411 109.267 339.411 110.299V115.051H337.683V105.511H339.339V107.113ZM344.943 105.511H346.671V115.051H344.943V105.511ZM345.807 103.675C345.471 103.675 345.189 103.567 344.961 103.351C344.745 103.135 344.637 102.871 344.637 102.559C344.637 102.247 344.745 101.983 344.961 101.767C345.189 101.539 345.471 101.425 345.807 101.425C346.143 101.425 346.419 101.533 346.635 101.749C346.863 101.953 346.977 102.211 346.977 102.523C346.977 102.847 346.863 103.123 346.635 103.351C346.419 103.567 346.143 103.675 345.807 103.675ZM354.129 115.159C353.157 115.159 352.287 114.949 351.519 114.529C350.763 114.109 350.169 113.533 349.737 112.801C349.305 112.057 349.089 111.217 349.089 110.281C349.089 109.345 349.305 108.511 349.737 107.779C350.169 107.035 350.763 106.459 351.519 106.051C352.287 105.631 353.157 105.421 354.129 105.421C354.993 105.421 355.761 105.595 356.433 105.943C357.117 106.291 357.645 106.795 358.017 107.455L356.703 108.301C356.403 107.845 356.031 107.503 355.587 107.275C355.143 107.047 354.651 106.933 354.111 106.933C353.487 106.933 352.923 107.071 352.419 107.347C351.927 107.623 351.537 108.019 351.249 108.535C350.973 109.039 350.835 109.621 350.835 110.281C350.835 110.953 350.973 111.547 351.249 112.063C351.537 112.567 351.927 112.957 352.419 113.233C352.923 113.509 353.487 113.647 354.111 113.647C354.651 113.647 355.143 113.533 355.587 113.305C356.031 113.077 356.403 112.735 356.703 112.279L358.017 113.107C357.645 113.767 357.117 114.277 356.433 114.637C355.761 114.985 354.993 115.159 354.129 115.159ZM368.735 110.335C368.735 110.467 368.723 110.641 368.699 110.857H360.959C361.067 111.697 361.433 112.375 362.057 112.891C362.693 113.395 363.479 113.647 364.415 113.647C365.555 113.647 366.473 113.263 367.169 112.495L368.123 113.611C367.691 114.115 367.151 114.499 366.503 114.763C365.867 115.027 365.153 115.159 364.361 115.159C363.353 115.159 362.459 114.955 361.679 114.547C360.899 114.127 360.293 113.545 359.861 112.801C359.441 112.057 359.231 111.217 359.231 110.281C359.231 109.357 359.435 108.523 359.843 107.779C360.263 107.035 360.833 106.459 361.553 106.051C362.285 105.631 363.107 105.421 364.019 105.421C364.931 105.421 365.741 105.631 366.449 106.051C367.169 106.459 367.727 107.035 368.123 107.779C368.531 108.523 368.735 109.375 368.735 110.335ZM364.019 106.879C363.191 106.879 362.495 107.131 361.931 107.635C361.379 108.139 361.055 108.799 360.959 109.615H367.079C366.983 108.811 366.653 108.157 366.089 107.653C365.537 107.137 364.847 106.879 364.019 106.879Z" fill="white"/>
<path d="M320.725 61.6434L320.404 61.9305L308.708 73.7562L308.004 74.4616L308.709 75.1999L318.45 84.941L319.188 85.6454L319.896 84.941L331.718 73.2445L332.004 72.9225V61.6434H320.725ZM321.591 63.6941H329.954V72.0571L319.187 82.76L310.888 74.4606L321.591 63.6941ZM326.878 65.7449C326.606 65.7449 326.345 65.8529 326.152 66.0452C325.96 66.2375 325.852 66.4983 325.852 66.7703C325.852 67.0422 325.96 67.303 326.152 67.4953C326.345 67.6876 326.606 67.7956 326.878 67.7956C327.149 67.7956 327.41 67.6876 327.603 67.4953C327.795 67.303 327.903 67.0422 327.903 66.7703C327.903 66.4983 327.795 66.2375 327.603 66.0452C327.41 65.8529 327.149 65.7449 326.878 65.7449Z" fill="white"/>
<path d="M513.038 274.808C512.09 274.808 511.172 274.664 510.284 274.376C509.408 274.076 508.718 273.692 508.214 273.224L508.88 271.82C509.36 272.252 509.972 272.606 510.716 272.882C511.472 273.146 512.246 273.278 513.038 273.278C514.082 273.278 514.862 273.104 515.378 272.756C515.894 272.396 516.152 271.922 516.152 271.334C516.152 270.902 516.008 270.554 515.72 270.29C515.444 270.014 515.096 269.804 514.676 269.66C514.268 269.516 513.686 269.354 512.93 269.174C511.982 268.946 511.214 268.718 510.626 268.49C510.05 268.262 509.552 267.914 509.132 267.446C508.724 266.966 508.52 266.324 508.52 265.52C508.52 264.848 508.694 264.242 509.042 263.702C509.402 263.162 509.942 262.73 510.662 262.406C511.382 262.082 512.276 261.92 513.344 261.92C514.088 261.92 514.82 262.016 515.54 262.208C516.26 262.4 516.878 262.676 517.394 263.036L516.8 264.476C516.272 264.14 515.708 263.888 515.108 263.72C514.508 263.54 513.92 263.45 513.344 263.45C512.324 263.45 511.556 263.636 511.04 264.008C510.536 264.38 510.284 264.86 510.284 265.448C510.284 265.88 510.428 266.234 510.716 266.51C511.004 266.774 511.358 266.984 511.778 267.14C512.21 267.284 512.792 267.44 513.524 267.608C514.472 267.836 515.234 268.064 515.81 268.292C516.386 268.52 516.878 268.868 517.286 269.336C517.706 269.804 517.916 270.434 517.916 271.226C517.916 271.886 517.736 272.492 517.376 273.044C517.016 273.584 516.47 274.016 515.738 274.34C515.006 274.652 514.106 274.808 513.038 274.808ZM525.657 274.106C525.405 274.322 525.093 274.49 524.721 274.61C524.349 274.718 523.965 274.772 523.569 274.772C522.609 274.772 521.865 274.514 521.337 273.998C520.809 273.482 520.545 272.744 520.545 271.784V266.546H518.925V265.124H520.545V263.036H522.273V265.124H525.009V266.546H522.273V271.712C522.273 272.228 522.399 272.624 522.651 272.9C522.915 273.176 523.287 273.314 523.767 273.314C524.295 273.314 524.745 273.164 525.117 272.864L525.657 274.106ZM531.22 265.034C532.54 265.034 533.548 265.358 534.244 266.006C534.952 266.654 535.306 267.62 535.306 268.904V274.664H533.668V273.404C533.38 273.848 532.966 274.19 532.426 274.43C531.898 274.658 531.268 274.772 530.536 274.772C529.468 274.772 528.61 274.514 527.962 273.998C527.326 273.482 527.008 272.804 527.008 271.964C527.008 271.124 527.314 270.452 527.926 269.948C528.538 269.432 529.51 269.174 530.842 269.174H533.578V268.832C533.578 268.088 533.362 267.518 532.93 267.122C532.498 266.726 531.862 266.528 531.022 266.528C530.458 266.528 529.906 266.624 529.366 266.816C528.826 266.996 528.37 267.242 527.998 267.554L527.278 266.258C527.77 265.862 528.358 265.562 529.042 265.358C529.726 265.142 530.452 265.034 531.22 265.034ZM530.824 273.44C531.484 273.44 532.054 273.296 532.534 273.008C533.014 272.708 533.362 272.288 533.578 271.748V270.416H530.914C529.45 270.416 528.718 270.908 528.718 271.892C528.718 272.372 528.904 272.75 529.276 273.026C529.648 273.302 530.164 273.44 530.824 273.44ZM543.598 265.034C544.81 265.034 545.77 265.388 546.478 266.096C547.198 266.792 547.558 267.818 547.558 269.174V274.664H545.83V269.372C545.83 268.448 545.608 267.752 545.164 267.284C544.72 266.816 544.084 266.582 543.256 266.582C542.32 266.582 541.582 266.858 541.042 267.41C540.502 267.95 540.232 268.73 540.232 269.75V274.664H538.504V265.124H540.16V266.564C540.508 266.072 540.976 265.694 541.564 265.43C542.164 265.166 542.842 265.034 543.598 265.034ZM559.809 261.308V274.664H558.153V273.152C557.769 273.68 557.283 274.082 556.695 274.358C556.107 274.634 555.459 274.772 554.751 274.772C553.827 274.772 552.999 274.568 552.267 274.16C551.535 273.752 550.959 273.182 550.539 272.45C550.131 271.706 549.927 270.854 549.927 269.894C549.927 268.934 550.131 268.088 550.539 267.356C550.959 266.624 551.535 266.054 552.267 265.646C552.999 265.238 553.827 265.034 554.751 265.034C555.435 265.034 556.065 265.166 556.641 265.43C557.217 265.682 557.697 266.06 558.081 266.564V261.308H559.809ZM554.895 273.26C555.495 273.26 556.041 273.122 556.533 272.846C557.025 272.558 557.409 272.162 557.685 271.658C557.961 271.142 558.099 270.554 558.099 269.894C558.099 269.234 557.961 268.652 557.685 268.148C557.409 267.632 557.025 267.236 556.533 266.96C556.041 266.684 555.495 266.546 554.895 266.546C554.283 266.546 553.731 266.684 553.239 266.96C552.759 267.236 552.375 267.632 552.087 268.148C551.811 268.652 551.673 269.234 551.673 269.894C551.673 270.554 551.811 271.142 552.087 271.658C552.375 272.162 552.759 272.558 553.239 272.846C553.731 273.122 554.283 273.26 554.895 273.26ZM566.552 265.034C567.872 265.034 568.88 265.358 569.576 266.006C570.284 266.654 570.638 267.62 570.638 268.904V274.664H569V273.404C568.712 273.848 568.298 274.19 567.758 274.43C567.23 274.658 566.6 274.772 565.868 274.772C564.8 274.772 563.942 274.514 563.294 273.998C562.658 273.482 562.34 272.804 562.34 271.964C562.34 271.124 562.646 270.452 563.258 269.948C563.87 269.432 564.842 269.174 566.174 269.174H568.91V268.832C568.91 268.088 568.694 267.518 568.262 267.122C567.83 266.726 567.194 266.528 566.354 266.528C565.79 266.528 565.238 266.624 564.698 266.816C564.158 266.996 563.702 267.242 563.33 267.554L562.61 266.258C563.102 265.862 563.69 265.562 564.374 265.358C565.058 265.142 565.784 265.034 566.552 265.034ZM566.156 273.44C566.816 273.44 567.386 273.296 567.866 273.008C568.346 272.708 568.694 272.288 568.91 271.748V270.416H566.246C564.782 270.416 564.05 270.908 564.05 271.892C564.05 272.372 564.236 272.75 564.608 273.026C564.98 273.302 565.496 273.44 566.156 273.44ZM575.492 266.726C575.792 266.174 576.236 265.754 576.824 265.466C577.412 265.178 578.126 265.034 578.966 265.034V266.708C578.87 266.696 578.738 266.69 578.57 266.69C577.634 266.69 576.896 266.972 576.356 267.536C575.828 268.088 575.564 268.88 575.564 269.912V274.664H573.836V265.124H575.492V266.726ZM590.008 261.308V274.664H588.352V273.152C587.968 273.68 587.482 274.082 586.894 274.358C586.306 274.634 585.658 274.772 584.95 274.772C584.026 274.772 583.198 274.568 582.466 274.16C581.734 273.752 581.158 273.182 580.738 272.45C580.33 271.706 580.126 270.854 580.126 269.894C580.126 268.934 580.33 268.088 580.738 267.356C581.158 266.624 581.734 266.054 582.466 265.646C583.198 265.238 584.026 265.034 584.95 265.034C585.634 265.034 586.264 265.166 586.84 265.43C587.416 265.682 587.896 266.06 588.28 266.564V261.308H590.008ZM585.094 273.26C585.694 273.26 586.24 273.122 586.732 272.846C587.224 272.558 587.608 272.162 587.884 271.658C588.16 271.142 588.298 270.554 588.298 269.894C588.298 269.234 588.16 268.652 587.884 268.148C587.608 267.632 587.224 267.236 586.732 266.96C586.24 266.684 585.694 266.546 585.094 266.546C584.482 266.546 583.93 266.684 583.438 266.96C582.958 267.236 582.574 267.632 582.286 268.148C582.01 268.652 581.872 269.234 581.872 269.894C581.872 270.554 582.01 271.142 582.286 271.658C582.574 272.162 582.958 272.558 583.438 272.846C583.93 273.122 584.482 273.26 585.094 273.26ZM531.032 296.664L531.014 287.484L526.46 295.134H525.632L521.078 287.538V296.664H519.35V284.064H520.826L526.082 292.92L531.266 284.064H532.742L532.76 296.664H531.032ZM539.763 287.034C541.083 287.034 542.091 287.358 542.787 288.006C543.495 288.654 543.849 289.62 543.849 290.904V296.664H542.211V295.404C541.923 295.848 541.509 296.19 540.969 296.43C540.441 296.658 539.811 296.772 539.079 296.772C538.011 296.772 537.153 296.514 536.505 295.998C535.869 295.482 535.551 294.804 535.551 293.964C535.551 293.124 535.857 292.452 536.469 291.948C537.081 291.432 538.053 291.174 539.385 291.174H542.121V290.832C542.121 290.088 541.905 289.518 541.473 289.122C541.041 288.726 540.405 288.528 539.565 288.528C539.001 288.528 538.449 288.624 537.909 288.816C537.369 288.996 536.913 289.242 536.541 289.554L535.821 288.258C536.313 287.862 536.901 287.562 537.585 287.358C538.269 287.142 538.995 287.034 539.763 287.034ZM539.367 295.44C540.027 295.44 540.597 295.296 541.077 295.008C541.557 294.708 541.905 294.288 542.121 293.748V292.416H539.457C537.993 292.416 537.261 292.908 537.261 293.892C537.261 294.372 537.447 294.75 537.819 295.026C538.191 295.302 538.707 295.44 539.367 295.44ZM552.411 296.106C552.159 296.322 551.847 296.49 551.475 296.61C551.103 296.718 550.719 296.772 550.323 296.772C549.363 296.772 548.619 296.514 548.091 295.998C547.563 295.482 547.299 294.744 547.299 293.784V288.546H545.679V287.124H547.299V285.036H549.027V287.124H551.763V288.546H549.027V293.712C549.027 294.228 549.153 294.624 549.405 294.9C549.669 295.176 550.041 295.314 550.521 295.314C551.049 295.314 551.499 295.164 551.871 294.864L552.411 296.106ZM562.806 291.948C562.806 292.08 562.794 292.254 562.77 292.47H555.03C555.138 293.31 555.504 293.988 556.128 294.504C556.764 295.008 557.55 295.26 558.486 295.26C559.626 295.26 560.544 294.876 561.24 294.108L562.194 295.224C561.762 295.728 561.222 296.112 560.574 296.376C559.938 296.64 559.224 296.772 558.432 296.772C557.424 296.772 556.53 296.568 555.75 296.16C554.97 295.74 554.364 295.158 553.932 294.414C553.512 293.67 553.302 292.83 553.302 291.894C553.302 290.97 553.506 290.136 553.914 289.392C554.334 288.648 554.904 288.072 555.624 287.664C556.356 287.244 557.178 287.034 558.09 287.034C559.002 287.034 559.812 287.244 560.52 287.664C561.24 288.072 561.798 288.648 562.194 289.392C562.602 290.136 562.806 290.988 562.806 291.948ZM558.09 288.492C557.262 288.492 556.566 288.744 556.002 289.248C555.45 289.752 555.126 290.412 555.03 291.228H561.15C561.054 290.424 560.724 289.77 560.16 289.266C559.608 288.75 558.918 288.492 558.09 288.492ZM566.861 288.726C567.161 288.174 567.605 287.754 568.193 287.466C568.781 287.178 569.495 287.034 570.335 287.034V288.708C570.239 288.696 570.107 288.69 569.939 288.69C569.003 288.69 568.265 288.972 567.725 289.536C567.197 290.088 566.933 290.88 566.933 291.912V296.664H565.205V287.124H566.861V288.726ZM572.465 287.124H574.193V296.664H572.465V287.124ZM573.329 285.288C572.993 285.288 572.711 285.18 572.483 284.964C572.267 284.748 572.159 284.484 572.159 284.172C572.159 283.86 572.267 283.596 572.483 283.38C572.711 283.152 572.993 283.038 573.329 283.038C573.665 283.038 573.941 283.146 574.157 283.362C574.385 283.566 574.499 283.824 574.499 284.136C574.499 284.46 574.385 284.736 574.157 284.964C573.941 285.18 573.665 285.288 573.329 285.288ZM580.966 287.034C582.286 287.034 583.294 287.358 583.99 288.006C584.698 288.654 585.052 289.62 585.052 290.904V296.664H583.414V295.404C583.126 295.848 582.712 296.19 582.172 296.43C581.644 296.658 581.014 296.772 580.282 296.772C579.214 296.772 578.356 296.514 577.708 295.998C577.072 295.482 576.754 294.804 576.754 293.964C576.754 293.124 577.06 292.452 577.672 291.948C578.284 291.432 579.256 291.174 580.588 291.174H583.324V290.832C583.324 290.088 583.108 289.518 582.676 289.122C582.244 288.726 581.608 288.528 580.768 288.528C580.204 288.528 579.652 288.624 579.112 288.816C578.572 288.996 578.116 289.242 577.744 289.554L577.024 288.258C577.516 287.862 578.104 287.562 578.788 287.358C579.472 287.142 580.198 287.034 580.966 287.034ZM580.57 295.44C581.23 295.44 581.8 295.296 582.28 295.008C582.76 294.708 583.108 294.288 583.324 293.748V292.416H580.66C579.196 292.416 578.464 292.908 578.464 293.892C578.464 294.372 578.65 294.75 579.022 295.026C579.394 295.302 579.91 295.44 580.57 295.44ZM588.25 283.308H589.978V296.664H588.25V283.308Z" fill="white"/>
<path d="M565.14 231.049L574.473 225.716L589.14 231.049M565.14 231.049V237.716L579.806 243.049L589.14 237.716V231.049M565.14 231.049L579.806 236.382L589.14 231.049" stroke="white" stroke-linejoin="round"/>
<path d="M565.14 237.716V244.382L579.806 249.716L589.14 244.382V237.716" stroke="white" stroke-linejoin="round"/>
<path d="M366.7 512.889V517.281H373.018V518.829H366.7V523.923H364.9V511.323H373.792V512.889H366.7ZM375.898 514.383H377.626V523.923H375.898V514.383ZM376.762 512.547C376.426 512.547 376.144 512.439 375.916 512.223C375.7 512.007 375.592 511.743 375.592 511.431C375.592 511.119 375.7 510.855 375.916 510.639C376.144 510.411 376.426 510.297 376.762 510.297C377.098 510.297 377.374 510.405 377.59 510.621C377.818 510.825 377.932 511.083 377.932 511.395C377.932 511.719 377.818 511.995 377.59 512.223C377.374 512.439 377.098 512.547 376.762 512.547ZM386.02 514.293C387.232 514.293 388.192 514.647 388.9 515.355C389.62 516.051 389.98 517.077 389.98 518.433V523.923H388.252V518.631C388.252 517.707 388.03 517.011 387.586 516.543C387.142 516.075 386.506 515.841 385.678 515.841C384.742 515.841 384.004 516.117 383.464 516.669C382.924 517.209 382.654 517.989 382.654 519.009V523.923H380.926V514.383H382.582V515.823C382.93 515.331 383.398 514.953 383.986 514.689C384.586 514.425 385.264 514.293 386.02 514.293ZM396.652 514.293C397.972 514.293 398.98 514.617 399.676 515.265C400.384 515.913 400.738 516.879 400.738 518.163V523.923H399.1V522.663C398.812 523.107 398.398 523.449 397.858 523.689C397.33 523.917 396.7 524.031 395.968 524.031C394.9 524.031 394.042 523.773 393.394 523.257C392.758 522.741 392.44 522.063 392.44 521.223C392.44 520.383 392.746 519.711 393.358 519.207C393.97 518.691 394.942 518.433 396.274 518.433H399.01V518.091C399.01 517.347 398.794 516.777 398.362 516.381C397.93 515.985 397.294 515.787 396.454 515.787C395.89 515.787 395.338 515.883 394.798 516.075C394.258 516.255 393.802 516.501 393.43 516.813L392.71 515.517C393.202 515.121 393.79 514.821 394.474 514.617C395.158 514.401 395.884 514.293 396.652 514.293ZM396.256 522.699C396.916 522.699 397.486 522.555 397.966 522.267C398.446 521.967 398.794 521.547 399.01 521.007V519.675H396.346C394.882 519.675 394.15 520.167 394.15 521.151C394.15 521.631 394.336 522.009 394.708 522.285C395.08 522.561 395.596 522.699 396.256 522.699ZM409.029 514.293C410.241 514.293 411.201 514.647 411.909 515.355C412.629 516.051 412.989 517.077 412.989 518.433V523.923H411.261V518.631C411.261 517.707 411.039 517.011 410.595 516.543C410.151 516.075 409.515 515.841 408.687 515.841C407.751 515.841 407.013 516.117 406.473 516.669C405.933 517.209 405.663 517.989 405.663 519.009V523.923H403.935V514.383H405.591V515.823C405.939 515.331 406.407 514.953 406.995 514.689C407.595 514.425 408.273 514.293 409.029 514.293ZM420.398 524.031C419.426 524.031 418.556 523.821 417.788 523.401C417.032 522.981 416.438 522.405 416.006 521.673C415.574 520.929 415.358 520.089 415.358 519.153C415.358 518.217 415.574 517.383 416.006 516.651C416.438 515.907 417.032 515.331 417.788 514.923C418.556 514.503 419.426 514.293 420.398 514.293C421.262 514.293 422.03 514.467 422.702 514.815C423.386 515.163 423.914 515.667 424.286 516.327L422.972 517.173C422.672 516.717 422.3 516.375 421.856 516.147C421.412 515.919 420.92 515.805 420.38 515.805C419.756 515.805 419.192 515.943 418.688 516.219C418.196 516.495 417.806 516.891 417.518 517.407C417.242 517.911 417.104 518.493 417.104 519.153C417.104 519.825 417.242 520.419 417.518 520.935C417.806 521.439 418.196 521.829 418.688 522.105C419.192 522.381 419.756 522.519 420.38 522.519C420.92 522.519 421.412 522.405 421.856 522.177C422.3 521.949 422.672 521.607 422.972 521.151L424.286 521.979C423.914 522.639 423.386 523.149 422.702 523.509C422.03 523.857 421.262 524.031 420.398 524.031ZM426.523 514.383H428.251V523.923H426.523V514.383ZM427.387 512.547C427.051 512.547 426.769 512.439 426.541 512.223C426.325 512.007 426.217 511.743 426.217 511.431C426.217 511.119 426.325 510.855 426.541 510.639C426.769 510.411 427.051 510.297 427.387 510.297C427.723 510.297 427.999 510.405 428.215 510.621C428.443 510.825 428.557 511.083 428.557 511.395C428.557 511.719 428.443 511.995 428.215 512.223C427.999 512.439 427.723 512.547 427.387 512.547ZM435.025 514.293C436.345 514.293 437.353 514.617 438.049 515.265C438.757 515.913 439.111 516.879 439.111 518.163V523.923H437.473V522.663C437.185 523.107 436.771 523.449 436.231 523.689C435.703 523.917 435.073 524.031 434.341 524.031C433.273 524.031 432.415 523.773 431.767 523.257C431.131 522.741 430.813 522.063 430.813 521.223C430.813 520.383 431.119 519.711 431.731 519.207C432.343 518.691 433.315 518.433 434.647 518.433H437.383V518.091C437.383 517.347 437.167 516.777 436.735 516.381C436.303 515.985 435.667 515.787 434.827 515.787C434.263 515.787 433.711 515.883 433.171 516.075C432.631 516.255 432.175 516.501 431.803 516.813L431.083 515.517C431.575 515.121 432.163 514.821 432.847 514.617C433.531 514.401 434.257 514.293 435.025 514.293ZM434.629 522.699C435.289 522.699 435.859 522.555 436.339 522.267C436.819 521.967 437.167 521.547 437.383 521.007V519.675H434.719C433.255 519.675 432.523 520.167 432.523 521.151C432.523 521.631 432.709 522.009 433.081 522.285C433.453 522.561 433.969 522.699 434.629 522.699ZM442.308 510.567H444.036V523.923H442.308V510.567ZM460.45 520.773H453.754L452.368 523.923H450.514L456.22 511.323H458.002L463.726 523.923H461.836L460.45 520.773ZM459.82 519.333L457.102 513.159L454.384 519.333H459.82ZM468.001 524.031C467.221 524.031 466.471 523.929 465.751 523.725C465.031 523.509 464.467 523.239 464.059 522.915L464.779 521.547C465.199 521.847 465.709 522.087 466.309 522.267C466.909 522.447 467.515 522.537 468.127 522.537C469.639 522.537 470.395 522.105 470.395 521.241C470.395 520.953 470.293 520.725 470.089 520.557C469.885 520.389 469.627 520.269 469.315 520.197C469.015 520.113 468.583 520.023 468.019 519.927C467.251 519.807 466.621 519.669 466.129 519.513C465.649 519.357 465.235 519.093 464.887 518.721C464.539 518.349 464.365 517.827 464.365 517.155C464.365 516.291 464.725 515.601 465.445 515.085C466.165 514.557 467.131 514.293 468.343 514.293C468.979 514.293 469.615 514.371 470.251 514.527C470.887 514.683 471.409 514.893 471.817 515.157L471.079 516.525C470.299 516.021 469.381 515.769 468.325 515.769C467.593 515.769 467.035 515.889 466.651 516.129C466.267 516.369 466.075 516.687 466.075 517.083C466.075 517.395 466.183 517.641 466.399 517.821C466.615 518.001 466.879 518.133 467.191 518.217C467.515 518.301 467.965 518.397 468.541 518.505C469.309 518.637 469.927 518.781 470.395 518.937C470.875 519.081 471.283 519.333 471.619 519.693C471.955 520.053 472.123 520.557 472.123 521.205C472.123 522.069 471.751 522.759 471.007 523.275C470.275 523.779 469.273 524.031 468.001 524.031ZM477.019 524.031C476.239 524.031 475.489 523.929 474.769 523.725C474.049 523.509 473.485 523.239 473.077 522.915L473.797 521.547C474.217 521.847 474.727 522.087 475.327 522.267C475.927 522.447 476.533 522.537 477.145 522.537C478.657 522.537 479.413 522.105 479.413 521.241C479.413 520.953 479.311 520.725 479.107 520.557C478.903 520.389 478.645 520.269 478.333 520.197C478.033 520.113 477.601 520.023 477.037 519.927C476.269 519.807 475.639 519.669 475.147 519.513C474.667 519.357 474.253 519.093 473.905 518.721C473.557 518.349 473.383 517.827 473.383 517.155C473.383 516.291 473.743 515.601 474.463 515.085C475.183 514.557 476.149 514.293 477.361 514.293C477.997 514.293 478.633 514.371 479.269 514.527C479.905 514.683 480.427 514.893 480.835 515.157L480.097 516.525C479.317 516.021 478.399 515.769 477.343 515.769C476.611 515.769 476.053 515.889 475.669 516.129C475.285 516.369 475.093 516.687 475.093 517.083C475.093 517.395 475.201 517.641 475.417 517.821C475.633 518.001 475.897 518.133 476.209 518.217C476.533 518.301 476.983 518.397 477.559 518.505C478.327 518.637 478.945 518.781 479.413 518.937C479.893 519.081 480.301 519.333 480.637 519.693C480.973 520.053 481.141 520.557 481.141 521.205C481.141 522.069 480.769 522.759 480.025 523.275C479.293 523.779 478.291 524.031 477.019 524.031ZM483.301 514.383H485.029V523.923H483.301V514.383ZM484.165 512.547C483.829 512.547 483.547 512.439 483.319 512.223C483.103 512.007 482.995 511.743 482.995 511.431C482.995 511.119 483.103 510.855 483.319 510.639C483.547 510.411 483.829 510.297 484.165 510.297C484.501 510.297 484.777 510.405 484.993 510.621C485.221 510.825 485.335 511.083 485.335 511.395C485.335 511.719 485.221 511.995 484.993 512.223C484.777 512.439 484.501 512.547 484.165 512.547ZM491.064 524.031C490.284 524.031 489.534 523.929 488.814 523.725C488.094 523.509 487.53 523.239 487.122 522.915L487.842 521.547C488.262 521.847 488.772 522.087 489.372 522.267C489.972 522.447 490.578 522.537 491.19 522.537C492.702 522.537 493.458 522.105 493.458 521.241C493.458 520.953 493.356 520.725 493.152 520.557C492.948 520.389 492.69 520.269 492.378 520.197C492.078 520.113 491.646 520.023 491.082 519.927C490.314 519.807 489.684 519.669 489.192 519.513C488.712 519.357 488.298 519.093 487.95 518.721C487.602 518.349 487.428 517.827 487.428 517.155C487.428 516.291 487.788 515.601 488.508 515.085C489.228 514.557 490.194 514.293 491.406 514.293C492.042 514.293 492.678 514.371 493.314 514.527C493.95 514.683 494.472 514.893 494.88 515.157L494.142 516.525C493.362 516.021 492.444 515.769 491.388 515.769C490.656 515.769 490.098 515.889 489.714 516.129C489.33 516.369 489.138 516.687 489.138 517.083C489.138 517.395 489.246 517.641 489.462 517.821C489.678 518.001 489.942 518.133 490.254 518.217C490.578 518.301 491.028 518.397 491.604 518.505C492.372 518.637 492.99 518.781 493.458 518.937C493.938 519.081 494.346 519.333 494.682 519.693C495.018 520.053 495.186 520.557 495.186 521.205C495.186 522.069 494.814 522.759 494.07 523.275C493.338 523.779 492.336 524.031 491.064 524.031ZM502.71 523.365C502.458 523.581 502.146 523.749 501.774 523.869C501.402 523.977 501.018 524.031 500.622 524.031C499.662 524.031 498.918 523.773 498.39 523.257C497.862 522.741 497.598 522.003 497.598 521.043V515.805H495.978V514.383H497.598V512.295H499.326V514.383H502.062V515.805H499.326V520.971C499.326 521.487 499.452 521.883 499.704 522.159C499.968 522.435 500.34 522.573 500.82 522.573C501.348 522.573 501.798 522.423 502.17 522.123L502.71 523.365ZM508.273 514.293C509.593 514.293 510.601 514.617 511.297 515.265C512.005 515.913 512.359 516.879 512.359 518.163V523.923H510.721V522.663C510.433 523.107 510.019 523.449 509.479 523.689C508.951 523.917 508.321 524.031 507.589 524.031C506.521 524.031 505.663 523.773 505.015 523.257C504.379 522.741 504.061 522.063 504.061 521.223C504.061 520.383 504.367 519.711 504.979 519.207C505.591 518.691 506.563 518.433 507.895 518.433H510.631V518.091C510.631 517.347 510.415 516.777 509.983 516.381C509.551 515.985 508.915 515.787 508.075 515.787C507.511 515.787 506.959 515.883 506.419 516.075C505.879 516.255 505.423 516.501 505.051 516.813L504.331 515.517C504.823 515.121 505.411 514.821 506.095 514.617C506.779 514.401 507.505 514.293 508.273 514.293ZM507.877 522.699C508.537 522.699 509.107 522.555 509.587 522.267C510.067 521.967 510.415 521.547 510.631 521.007V519.675H507.967C506.503 519.675 505.771 520.167 505.771 521.151C505.771 521.631 505.957 522.009 506.329 522.285C506.701 522.561 507.217 522.699 507.877 522.699ZM520.65 514.293C521.862 514.293 522.822 514.647 523.53 515.355C524.25 516.051 524.61 517.077 524.61 518.433V523.923H522.882V518.631C522.882 517.707 522.66 517.011 522.216 516.543C521.772 516.075 521.136 515.841 520.308 515.841C519.372 515.841 518.634 516.117 518.094 516.669C517.554 517.209 517.284 517.989 517.284 519.009V523.923H515.556V514.383H517.212V515.823C517.56 515.331 518.028 514.953 518.616 514.689C519.216 514.425 519.894 514.293 520.65 514.293ZM532.019 524.031C531.047 524.031 530.177 523.821 529.409 523.401C528.653 522.981 528.059 522.405 527.627 521.673C527.195 520.929 526.979 520.089 526.979 519.153C526.979 518.217 527.195 517.383 527.627 516.651C528.059 515.907 528.653 515.331 529.409 514.923C530.177 514.503 531.047 514.293 532.019 514.293C532.883 514.293 533.651 514.467 534.323 514.815C535.007 515.163 535.535 515.667 535.907 516.327L534.593 517.173C534.293 516.717 533.921 516.375 533.477 516.147C533.033 515.919 532.541 515.805 532.001 515.805C531.377 515.805 530.813 515.943 530.309 516.219C529.817 516.495 529.427 516.891 529.139 517.407C528.863 517.911 528.725 518.493 528.725 519.153C528.725 519.825 528.863 520.419 529.139 520.935C529.427 521.439 529.817 521.829 530.309 522.105C530.813 522.381 531.377 522.519 532.001 522.519C532.541 522.519 533.033 522.405 533.477 522.177C533.921 521.949 534.293 521.607 534.593 521.151L535.907 521.979C535.535 522.639 535.007 523.149 534.323 523.509C533.651 523.857 532.883 524.031 532.019 524.031ZM546.626 519.207C546.626 519.339 546.614 519.513 546.59 519.729H538.85C538.958 520.569 539.324 521.247 539.948 521.763C540.584 522.267 541.37 522.519 542.306 522.519C543.446 522.519 544.364 522.135 545.06 521.367L546.014 522.483C545.582 522.987 545.042 523.371 544.394 523.635C543.758 523.899 543.044 524.031 542.252 524.031C541.244 524.031 540.35 523.827 539.57 523.419C538.79 522.999 538.184 522.417 537.752 521.673C537.332 520.929 537.122 520.089 537.122 519.153C537.122 518.229 537.326 517.395 537.734 516.651C538.154 515.907 538.724 515.331 539.444 514.923C540.176 514.503 540.998 514.293 541.91 514.293C542.822 514.293 543.632 514.503 544.34 514.923C545.06 515.331 545.618 515.907 546.014 516.651C546.422 517.395 546.626 518.247 546.626 519.207ZM541.91 515.751C541.082 515.751 540.386 516.003 539.822 516.507C539.27 517.011 538.946 517.671 538.85 518.487H544.97C544.874 517.683 544.544 517.029 543.98 516.525C543.428 516.009 542.738 515.751 541.91 515.751Z" fill="white"/>
<path d="M463.699 481.635H465.199V495.135H463.699V481.635ZM448.699 486.885L450.199 485.385V495.135H448.699V486.885ZM445.699 489.885L447.199 488.385V495.135H445.699V489.885ZM451.699 483.885L453.199 482.385V495.135H451.699V483.885ZM454.699 482.385L456.199 483.885V495.124H454.699V482.385ZM458.449 486.135L459.199 485.385V495.135H457.699V485.385L458.449 486.135ZM460.699 483.885L462.199 482.385V495.135H460.699V483.885ZM442.699 492.885L444.199 491.385V495.135H442.699V492.885ZM466.699 474.135V480.135H465.199V476.702L458.449 483.44L453.949 478.94L442.699 490.202V488.069L453.949 476.831L458.449 481.331L464.132 475.635H460.699V474.135H466.699Z" fill="white"/>
<path d="M144.159 525.287C143.211 525.287 142.293 525.143 141.405 524.855C140.529 524.555 139.839 524.171 139.335 523.703L140.001 522.299C140.481 522.731 141.093 523.085 141.837 523.361C142.593 523.625 143.367 523.757 144.159 523.757C145.203 523.757 145.983 523.583 146.499 523.235C147.015 522.875 147.273 522.401 147.273 521.813C147.273 521.381 147.129 521.033 146.841 520.769C146.565 520.493 146.217 520.283 145.797 520.139C145.389 519.995 144.807 519.833 144.051 519.653C143.103 519.425 142.335 519.197 141.747 518.969C141.171 518.741 140.673 518.393 140.253 517.925C139.845 517.445 139.641 516.803 139.641 515.999C139.641 515.327 139.815 514.721 140.163 514.181C140.523 513.641 141.063 513.209 141.783 512.885C142.503 512.561 143.397 512.399 144.465 512.399C145.209 512.399 145.941 512.495 146.661 512.687C147.381 512.879 147.999 513.155 148.515 513.515L147.921 514.955C147.393 514.619 146.829 514.367 146.229 514.199C145.629 514.019 145.041 513.929 144.465 513.929C143.445 513.929 142.677 514.115 142.161 514.487C141.657 514.859 141.405 515.339 141.405 515.927C141.405 516.359 141.549 516.713 141.837 516.989C142.125 517.253 142.479 517.463 142.899 517.619C143.331 517.763 143.913 517.919 144.645 518.087C145.593 518.315 146.355 518.543 146.931 518.771C147.507 518.999 147.999 519.347 148.407 519.815C148.827 520.283 149.037 520.913 149.037 521.705C149.037 522.365 148.857 522.971 148.497 523.523C148.137 524.063 147.591 524.495 146.859 524.819C146.127 525.131 145.227 525.287 144.159 525.287ZM156.778 524.585C156.526 524.801 156.214 524.969 155.842 525.089C155.47 525.197 155.086 525.251 154.69 525.251C153.73 525.251 152.986 524.993 152.458 524.477C151.93 523.961 151.666 523.223 151.666 522.263V517.025H150.046V515.603H151.666V513.515H153.394V515.603H156.13V517.025H153.394V522.191C153.394 522.707 153.52 523.103 153.772 523.379C154.036 523.655 154.408 523.793 154.888 523.793C155.416 523.793 155.866 523.643 156.238 523.343L156.778 524.585ZM162.341 515.513C163.661 515.513 164.669 515.837 165.365 516.485C166.073 517.133 166.427 518.099 166.427 519.383V525.143H164.789V523.883C164.501 524.327 164.087 524.669 163.547 524.909C163.019 525.137 162.389 525.251 161.657 525.251C160.589 525.251 159.731 524.993 159.083 524.477C158.447 523.961 158.129 523.283 158.129 522.443C158.129 521.603 158.435 520.931 159.047 520.427C159.659 519.911 160.631 519.653 161.963 519.653H164.699V519.311C164.699 518.567 164.483 517.997 164.051 517.601C163.619 517.205 162.983 517.007 162.143 517.007C161.579 517.007 161.027 517.103 160.487 517.295C159.947 517.475 159.491 517.721 159.119 518.033L158.399 516.737C158.891 516.341 159.479 516.041 160.163 515.837C160.847 515.621 161.573 515.513 162.341 515.513ZM161.945 523.919C162.605 523.919 163.175 523.775 163.655 523.487C164.135 523.187 164.483 522.767 164.699 522.227V520.895H162.035C160.571 520.895 159.839 521.387 159.839 522.371C159.839 522.851 160.025 523.229 160.397 523.505C160.769 523.781 161.285 523.919 161.945 523.919ZM174.719 515.513C175.931 515.513 176.891 515.867 177.599 516.575C178.319 517.271 178.679 518.297 178.679 519.653V525.143H176.951V519.851C176.951 518.927 176.729 518.231 176.285 517.763C175.841 517.295 175.205 517.061 174.377 517.061C173.441 517.061 172.703 517.337 172.163 517.889C171.623 518.429 171.353 519.209 171.353 520.229V525.143H169.625V515.603H171.281V517.043C171.629 516.551 172.097 516.173 172.685 515.909C173.285 515.645 173.963 515.513 174.719 515.513ZM190.93 511.787V525.143H189.274V523.631C188.89 524.159 188.404 524.561 187.816 524.837C187.228 525.113 186.58 525.251 185.872 525.251C184.948 525.251 184.12 525.047 183.388 524.639C182.656 524.231 182.08 523.661 181.66 522.929C181.252 522.185 181.048 521.333 181.048 520.373C181.048 519.413 181.252 518.567 181.66 517.835C182.08 517.103 182.656 516.533 183.388 516.125C184.12 515.717 184.948 515.513 185.872 515.513C186.556 515.513 187.186 515.645 187.762 515.909C188.338 516.161 188.818 516.539 189.202 517.043V511.787H190.93ZM186.016 523.739C186.616 523.739 187.162 523.601 187.654 523.325C188.146 523.037 188.53 522.641 188.806 522.137C189.082 521.621 189.22 521.033 189.22 520.373C189.22 519.713 189.082 519.131 188.806 518.627C188.53 518.111 188.146 517.715 187.654 517.439C187.162 517.163 186.616 517.025 186.016 517.025C185.404 517.025 184.852 517.163 184.36 517.439C183.88 517.715 183.496 518.111 183.208 518.627C182.932 519.131 182.794 519.713 182.794 520.373C182.794 521.033 182.932 521.621 183.208 522.137C183.496 522.641 183.88 523.037 184.36 523.325C184.852 523.601 185.404 523.739 186.016 523.739ZM197.674 515.513C198.994 515.513 200.002 515.837 200.698 516.485C201.406 517.133 201.76 518.099 201.76 519.383V525.143H200.122V523.883C199.834 524.327 199.42 524.669 198.88 524.909C198.352 525.137 197.722 525.251 196.99 525.251C195.922 525.251 195.064 524.993 194.416 524.477C193.78 523.961 193.462 523.283 193.462 522.443C193.462 521.603 193.768 520.931 194.38 520.427C194.992 519.911 195.964 519.653 197.296 519.653H200.032V519.311C200.032 518.567 199.816 517.997 199.384 517.601C198.952 517.205 198.316 517.007 197.476 517.007C196.912 517.007 196.36 517.103 195.82 517.295C195.28 517.475 194.824 517.721 194.452 518.033L193.732 516.737C194.224 516.341 194.812 516.041 195.496 515.837C196.18 515.621 196.906 515.513 197.674 515.513ZM197.278 523.919C197.938 523.919 198.508 523.775 198.988 523.487C199.468 523.187 199.816 522.767 200.032 522.227V520.895H197.368C195.904 520.895 195.172 521.387 195.172 522.371C195.172 522.851 195.358 523.229 195.73 523.505C196.102 523.781 196.618 523.919 197.278 523.919ZM206.613 517.205C206.913 516.653 207.357 516.233 207.945 515.945C208.533 515.657 209.247 515.513 210.087 515.513V517.187C209.991 517.175 209.859 517.169 209.691 517.169C208.755 517.169 208.017 517.451 207.477 518.015C206.949 518.567 206.685 519.359 206.685 520.391V525.143H204.957V515.603H206.613V517.205ZM221.129 511.787V525.143H219.473V523.631C219.089 524.159 218.603 524.561 218.015 524.837C217.427 525.113 216.779 525.251 216.071 525.251C215.147 525.251 214.319 525.047 213.587 524.639C212.855 524.231 212.279 523.661 211.859 522.929C211.451 522.185 211.247 521.333 211.247 520.373C211.247 519.413 211.451 518.567 211.859 517.835C212.279 517.103 212.855 516.533 213.587 516.125C214.319 515.717 215.147 515.513 216.071 515.513C216.755 515.513 217.385 515.645 217.961 515.909C218.537 516.161 219.017 516.539 219.401 517.043V511.787H221.129ZM216.215 523.739C216.815 523.739 217.361 523.601 217.853 523.325C218.345 523.037 218.729 522.641 219.005 522.137C219.281 521.621 219.419 521.033 219.419 520.373C219.419 519.713 219.281 519.131 219.005 518.627C218.729 518.111 218.345 517.715 217.853 517.439C217.361 517.163 216.815 517.025 216.215 517.025C215.603 517.025 215.051 517.163 214.559 517.439C214.079 517.715 213.695 518.111 213.407 518.627C213.131 519.131 212.993 519.713 212.993 520.373C212.993 521.033 213.131 521.621 213.407 522.137C213.695 522.641 214.079 523.037 214.559 523.325C215.051 523.601 215.603 523.739 216.215 523.739ZM247.287 512.543L243.075 525.143H241.185L237.747 515.081L234.309 525.143H232.383L228.171 512.543H230.025L233.427 522.785L236.973 512.543H238.629L242.103 522.839L245.577 512.543H247.287ZM252.602 525.251C251.654 525.251 250.802 525.041 250.046 524.621C249.29 524.201 248.696 523.625 248.264 522.893C247.844 522.149 247.634 521.309 247.634 520.373C247.634 519.437 247.844 518.603 248.264 517.871C248.696 517.127 249.29 516.551 250.046 516.143C250.802 515.723 251.654 515.513 252.602 515.513C253.55 515.513 254.396 515.723 255.14 516.143C255.896 516.551 256.484 517.127 256.904 517.871C257.336 518.603 257.552 519.437 257.552 520.373C257.552 521.309 257.336 522.149 256.904 522.893C256.484 523.625 255.896 524.201 255.14 524.621C254.396 525.041 253.55 525.251 252.602 525.251ZM252.602 523.739C253.214 523.739 253.76 523.601 254.24 523.325C254.732 523.037 255.116 522.641 255.392 522.137C255.668 521.621 255.806 521.033 255.806 520.373C255.806 519.713 255.668 519.131 255.392 518.627C255.116 518.111 254.732 517.715 254.24 517.439C253.76 517.163 253.214 517.025 252.602 517.025C251.99 517.025 251.438 517.163 250.946 517.439C250.466 517.715 250.082 518.111 249.794 518.627C249.518 519.131 249.38 519.713 249.38 520.373C249.38 521.033 249.518 521.621 249.794 522.137C250.082 522.641 250.466 523.037 250.946 523.325C251.438 523.601 251.99 523.739 252.602 523.739ZM261.598 517.205C261.898 516.653 262.342 516.233 262.93 515.945C263.518 515.657 264.232 515.513 265.072 515.513V517.187C264.976 517.175 264.844 517.169 264.676 517.169C263.74 517.169 263.002 517.451 262.462 518.015C261.934 518.567 261.67 519.359 261.67 520.391V525.143H259.942V515.603H261.598V517.205ZM270.909 520.697L268.929 522.533V525.143H267.201V511.787H268.929V520.355L274.131 515.603H276.219L272.205 519.545L276.615 525.143H274.491L270.909 520.697Z" fill="white"/>
<path fill-rule="evenodd" clip-rule="evenodd" d="M214.293 477.542C214.293 476.481 213.871 475.463 213.121 474.713C212.371 473.963 211.354 473.542 210.293 473.542H204.959C203.898 473.542 202.881 473.963 202.131 474.713C201.381 475.463 200.959 476.481 200.959 477.542H199.626C198.565 477.542 197.548 477.963 196.798 478.713C196.047 479.463 195.626 480.481 195.626 481.542V492.208C195.626 493.269 196.047 494.286 196.798 495.037C197.548 495.787 198.565 496.208 199.626 496.208H215.626C216.687 496.208 217.704 495.787 218.454 495.037C219.205 494.286 219.626 493.269 219.626 492.208V481.542C219.626 480.481 219.205 479.463 218.454 478.713C217.704 477.963 216.687 477.542 215.626 477.542H214.293ZM210.293 476.208H204.959C204.606 476.208 204.267 476.349 204.017 476.599C203.766 476.849 203.626 477.188 203.626 477.542H211.626C211.626 477.188 211.486 476.849 211.235 476.599C210.985 476.349 210.646 476.208 210.293 476.208ZM199.626 480.208H215.626C215.98 480.208 216.319 480.349 216.569 480.599C216.819 480.849 216.959 481.188 216.959 481.542V492.208C216.959 492.562 216.819 492.901 216.569 493.151C216.319 493.401 215.98 493.542 215.626 493.542H199.626C199.272 493.542 198.933 493.401 198.683 493.151C198.433 492.901 198.293 492.562 198.293 492.208V481.542C198.293 481.188 198.433 480.849 198.683 480.599C198.933 480.349 199.272 480.208 199.626 480.208Z" fill="white"/>
<path d="M52.0789 261.895C53.7109 261.895 54.9949 262.285 55.9309 263.065C56.8669 263.845 57.3349 264.919 57.3349 266.287C57.3349 267.655 56.8669 268.729 55.9309 269.509C54.9949 270.289 53.7109 270.679 52.0789 270.679H48.9649V274.495H47.1649V261.895H52.0789ZM52.0249 269.113C53.1649 269.113 54.0349 268.873 54.6349 268.393C55.2349 267.901 55.5349 267.199 55.5349 266.287C55.5349 265.375 55.2349 264.679 54.6349 264.199C54.0349 263.707 53.1649 263.461 52.0249 263.461H48.9649V269.113H52.0249ZM63.7782 274.603C62.8302 274.603 61.9782 274.393 61.2222 273.973C60.4662 273.553 59.8722 272.977 59.4402 272.245C59.0202 271.501 58.8102 270.661 58.8102 269.725C58.8102 268.789 59.0202 267.955 59.4402 267.223C59.8722 266.479 60.4662 265.903 61.2222 265.495C61.9782 265.075 62.8302 264.865 63.7782 264.865C64.7262 264.865 65.5722 265.075 66.3162 265.495C67.0722 265.903 67.6602 266.479 68.0802 267.223C68.5122 267.955 68.7282 268.789 68.7282 269.725C68.7282 270.661 68.5122 271.501 68.0802 272.245C67.6602 272.977 67.0722 273.553 66.3162 273.973C65.5722 274.393 64.7262 274.603 63.7782 274.603ZM63.7782 273.091C64.3902 273.091 64.9362 272.953 65.4162 272.677C65.9082 272.389 66.2922 271.993 66.5682 271.489C66.8442 270.973 66.9822 270.385 66.9822 269.725C66.9822 269.065 66.8442 268.483 66.5682 267.979C66.2922 267.463 65.9082 267.067 65.4162 266.791C64.9362 266.515 64.3902 266.377 63.7782 266.377C63.1662 266.377 62.6142 266.515 62.1222 266.791C61.6422 267.067 61.2582 267.463 60.9702 267.979C60.6942 268.483 60.5562 269.065 60.5562 269.725C60.5562 270.385 60.6942 270.973 60.9702 271.489C61.2582 271.993 61.6422 272.389 62.1222 272.677C62.6142 272.953 63.1662 273.091 63.7782 273.091ZM73.854 274.603C73.074 274.603 72.324 274.501 71.604 274.297C70.884 274.081 70.32 273.811 69.912 273.487L70.632 272.119C71.052 272.419 71.562 272.659 72.162 272.839C72.762 273.019 73.368 273.109 73.98 273.109C75.492 273.109 76.248 272.677 76.248 271.813C76.248 271.525 76.146 271.297 75.942 271.129C75.738 270.961 75.48 270.841 75.168 270.769C74.868 270.685 74.436 270.595 73.872 270.499C73.104 270.379 72.474 270.241 71.982 270.085C71.502 269.929 71.088 269.665 70.74 269.293C70.392 268.921 70.218 268.399 70.218 267.727C70.218 266.863 70.578 266.173 71.298 265.657C72.018 265.129 72.984 264.865 74.196 264.865C74.832 264.865 75.468 264.943 76.104 265.099C76.74 265.255 77.262 265.465 77.67 265.729L76.932 267.097C76.152 266.593 75.234 266.341 74.178 266.341C73.446 266.341 72.888 266.461 72.504 266.701C72.12 266.941 71.928 267.259 71.928 267.655C71.928 267.967 72.036 268.213 72.252 268.393C72.468 268.573 72.732 268.705 73.044 268.789C73.368 268.873 73.818 268.969 74.394 269.077C75.162 269.209 75.78 269.353 76.248 269.509C76.728 269.653 77.136 269.905 77.472 270.265C77.808 270.625 77.976 271.129 77.976 271.777C77.976 272.641 77.604 273.331 76.86 273.847C76.128 274.351 75.126 274.603 73.854 274.603ZM85.4996 273.937C85.2476 274.153 84.9356 274.321 84.5636 274.441C84.1916 274.549 83.8076 274.603 83.4116 274.603C82.4516 274.603 81.7076 274.345 81.1796 273.829C80.6516 273.313 80.3876 272.575 80.3876 271.615V266.377H78.7676V264.955H80.3876V262.867H82.1156V264.955H84.8516V266.377H82.1156V271.543C82.1156 272.059 82.2416 272.455 82.4936 272.731C82.7576 273.007 83.1296 273.145 83.6096 273.145C84.1376 273.145 84.5876 272.995 84.9596 272.695L85.4996 273.937ZM47.1649 283.895H48.9649V296.495H47.1649V283.895ZM57.5792 286.865C58.7912 286.865 59.7512 287.219 60.4592 287.927C61.1792 288.623 61.5392 289.649 61.5392 291.005V296.495H59.8112V291.203C59.8112 290.279 59.5892 289.583 59.1452 289.115C58.7012 288.647 58.0652 288.413 57.2372 288.413C56.3012 288.413 55.5632 288.689 55.0232 289.241C54.4832 289.781 54.2132 290.561 54.2132 291.581V296.495H52.4852V286.955H54.1412V288.395C54.4892 287.903 54.9572 287.525 55.5452 287.261C56.1452 286.997 56.8232 286.865 57.5792 286.865ZM67.4731 296.603C66.6931 296.603 65.9431 296.501 65.2231 296.297C64.5031 296.081 63.9391 295.811 63.5311 295.487L64.2511 294.119C64.6711 294.419 65.1811 294.659 65.7811 294.839C66.3811 295.019 66.9871 295.109 67.5991 295.109C69.1111 295.109 69.8671 294.677 69.8671 293.813C69.8671 293.525 69.7651 293.297 69.5611 293.129C69.3571 292.961 69.0991 292.841 68.7871 292.769C68.4871 292.685 68.0551 292.595 67.4911 292.499C66.7231 292.379 66.0931 292.241 65.6011 292.085C65.1211 291.929 64.7071 291.665 64.3591 291.293C64.0111 290.921 63.8371 290.399 63.8371 289.727C63.8371 288.863 64.1971 288.173 64.9171 287.657C65.6371 287.129 66.6031 286.865 67.8151 286.865C68.4511 286.865 69.0871 286.943 69.7231 287.099C70.3591 287.255 70.8811 287.465 71.2891 287.729L70.5511 289.097C69.7711 288.593 68.8531 288.341 67.7971 288.341C67.0651 288.341 66.5071 288.461 66.1231 288.701C65.7391 288.941 65.5471 289.259 65.5471 289.655C65.5471 289.967 65.6551 290.213 65.8711 290.393C66.0871 290.573 66.3511 290.705 66.6631 290.789C66.9871 290.873 67.4371 290.969 68.0131 291.077C68.7811 291.209 69.3991 291.353 69.8671 291.509C70.3471 291.653 70.7551 291.905 71.0911 292.265C71.4271 292.625 71.5951 293.129 71.5951 293.777C71.5951 294.641 71.2231 295.331 70.4791 295.847C69.7471 296.351 68.7451 296.603 67.4731 296.603ZM79.1187 295.937C78.8667 296.153 78.5547 296.321 78.1827 296.441C77.8107 296.549 77.4267 296.603 77.0307 296.603C76.0707 296.603 75.3267 296.345 74.7987 295.829C74.2707 295.313 74.0067 294.575 74.0067 293.615V288.377H72.3867V286.955H74.0067V284.867H75.7347V286.955H78.4707V288.377H75.7347V293.543C75.7347 294.059 75.8607 294.455 76.1127 294.731C76.3767 295.007 76.7487 295.145 77.2287 295.145C77.7567 295.145 78.2067 294.995 78.5787 294.695L79.1187 295.937ZM84.6818 286.865C86.0018 286.865 87.0098 287.189 87.7058 287.837C88.4138 288.485 88.7678 289.451 88.7678 290.735V296.495H87.1298V295.235C86.8418 295.679 86.4278 296.021 85.8878 296.261C85.3598 296.489 84.7298 296.603 83.9978 296.603C82.9298 296.603 82.0718 296.345 81.4238 295.829C80.7878 295.313 80.4698 294.635 80.4698 293.795C80.4698 292.955 80.7758 292.283 81.3878 291.779C81.9998 291.263 82.9718 291.005 84.3038 291.005H87.0398V290.663C87.0398 289.919 86.8238 289.349 86.3918 288.953C85.9598 288.557 85.3238 288.359 84.4838 288.359C83.9198 288.359 83.3678 288.455 82.8278 288.647C82.2878 288.827 81.8318 289.073 81.4598 289.385L80.7398 288.089C81.2318 287.693 81.8198 287.393 82.5038 287.189C83.1878 286.973 83.9138 286.865 84.6818 286.865ZM84.2858 295.271C84.9458 295.271 85.5158 295.127 85.9958 294.839C86.4758 294.539 86.8238 294.119 87.0398 293.579V292.247H84.3758C82.9118 292.247 82.1798 292.739 82.1798 293.723C82.1798 294.203 82.3658 294.581 82.7378 294.857C83.1098 295.133 83.6258 295.271 84.2858 295.271ZM91.9656 283.139H93.6936V296.495H91.9656V283.139ZM96.993 283.139H98.721V296.495H96.993V283.139ZM105.494 286.865C106.814 286.865 107.822 287.189 108.518 287.837C109.226 288.485 109.58 289.451 109.58 290.735V296.495H107.942V295.235C107.654 295.679 107.24 296.021 106.7 296.261C106.172 296.489 105.542 296.603 104.81 296.603C103.742 296.603 102.884 296.345 102.236 295.829C101.6 295.313 101.282 294.635 101.282 293.795C101.282 292.955 101.588 292.283 102.2 291.779C102.812 291.263 103.784 291.005 105.116 291.005H107.852V290.663C107.852 289.919 107.636 289.349 107.204 288.953C106.772 288.557 106.136 288.359 105.296 288.359C104.732 288.359 104.18 288.455 103.64 288.647C103.1 288.827 102.644 289.073 102.272 289.385L101.552 288.089C102.044 287.693 102.632 287.393 103.316 287.189C104 286.973 104.726 286.865 105.494 286.865ZM105.098 295.271C105.758 295.271 106.328 295.127 106.808 294.839C107.288 294.539 107.636 294.119 107.852 293.579V292.247H105.188C103.724 292.247 102.992 292.739 102.992 293.723C102.992 294.203 103.178 294.581 103.55 294.857C103.922 295.133 104.438 295.271 105.098 295.271ZM118.142 295.937C117.89 296.153 117.578 296.321 117.206 296.441C116.834 296.549 116.45 296.603 116.054 296.603C115.094 296.603 114.35 296.345 113.822 295.829C113.294 295.313 113.03 294.575 113.03 293.615V288.377H111.41V286.955H113.03V284.867H114.758V286.955H117.494V288.377H114.758V293.543C114.758 294.059 114.884 294.455 115.136 294.731C115.4 295.007 115.772 295.145 116.252 295.145C116.78 295.145 117.23 294.995 117.602 294.695L118.142 295.937ZM120.231 286.955H121.959V296.495H120.231V286.955ZM121.095 285.119C120.759 285.119 120.477 285.011 120.249 284.795C120.033 284.579 119.925 284.315 119.925 284.003C119.925 283.691 120.033 283.427 120.249 283.211C120.477 282.983 120.759 282.869 121.095 282.869C121.431 282.869 121.707 282.977 121.923 283.193C122.151 283.397 122.265 283.655 122.265 283.967C122.265 284.291 122.151 284.567 121.923 284.795C121.707 285.011 121.431 285.119 121.095 285.119ZM129.345 296.603C128.397 296.603 127.545 296.393 126.789 295.973C126.033 295.553 125.439 294.977 125.007 294.245C124.587 293.501 124.377 292.661 124.377 291.725C124.377 290.789 124.587 289.955 125.007 289.223C125.439 288.479 126.033 287.903 126.789 287.495C127.545 287.075 128.397 286.865 129.345 286.865C130.293 286.865 131.139 287.075 131.883 287.495C132.639 287.903 133.227 288.479 133.647 289.223C134.079 289.955 134.295 290.789 134.295 291.725C134.295 292.661 134.079 293.501 133.647 294.245C133.227 294.977 132.639 295.553 131.883 295.973C131.139 296.393 130.293 296.603 129.345 296.603ZM129.345 295.091C129.957 295.091 130.503 294.953 130.983 294.677C131.475 294.389 131.859 293.993 132.135 293.489C132.411 292.973 132.549 292.385 132.549 291.725C132.549 291.065 132.411 290.483 132.135 289.979C131.859 289.463 131.475 289.067 130.983 288.791C130.503 288.515 129.957 288.377 129.345 288.377C128.733 288.377 128.181 288.515 127.689 288.791C127.209 289.067 126.825 289.463 126.537 289.979C126.261 290.483 126.123 291.065 126.123 291.725C126.123 292.385 126.261 292.973 126.537 293.489C126.825 293.993 127.209 294.389 127.689 294.677C128.181 294.953 128.733 295.091 129.345 295.091ZM141.778 286.865C142.99 286.865 143.95 287.219 144.658 287.927C145.378 288.623 145.738 289.649 145.738 291.005V296.495H144.01V291.203C144.01 290.279 143.788 289.583 143.344 289.115C142.9 288.647 142.264 288.413 141.436 288.413C140.5 288.413 139.762 288.689 139.222 289.241C138.682 289.781 138.412 290.561 138.412 291.581V296.495H136.684V286.955H138.34V288.395C138.688 287.903 139.156 287.525 139.744 287.261C140.344 286.997 141.022 286.865 141.778 286.865ZM50.8369 318.639C49.8889 318.639 48.9709 318.495 48.0829 318.207C47.2069 317.907 46.5169 317.523 46.0129 317.055L46.6789 315.651C47.1589 316.083 47.7709 316.437 48.5149 316.713C49.2709 316.977 50.0449 317.109 50.8369 317.109C51.8809 317.109 52.6609 316.935 53.1769 316.587C53.6929 316.227 53.9509 315.753 53.9509 315.165C53.9509 314.733 53.8069 314.385 53.5189 314.121C53.2429 313.845 52.8949 313.635 52.4749 313.491C52.0669 313.347 51.4849 313.185 50.7289 313.005C49.7809 312.777 49.0129 312.549 48.4249 312.321C47.8489 312.093 47.3509 311.745 46.9309 311.277C46.5229 310.797 46.3189 310.155 46.3189 309.351C46.3189 308.679 46.4929 308.073 46.8409 307.533C47.2009 306.993 47.7409 306.561 48.4609 306.237C49.1809 305.913 50.0749 305.751 51.1429 305.751C51.8869 305.751 52.6189 305.847 53.3389 306.039C54.0589 306.231 54.6769 306.507 55.1929 306.867L54.5989 308.307C54.0709 307.971 53.5069 307.719 52.9069 307.551C52.3069 307.371 51.7189 307.281 51.1429 307.281C50.1229 307.281 49.3549 307.467 48.8389 307.839C48.3349 308.211 48.0829 308.691 48.0829 309.279C48.0829 309.711 48.2269 310.065 48.5149 310.341C48.8029 310.605 49.1569 310.815 49.5769 310.971C50.0089 311.115 50.5909 311.271 51.3229 311.439C52.2709 311.667 53.0329 311.895 53.6089 312.123C54.1849 312.351 54.6769 312.699 55.0849 313.167C55.5049 313.635 55.7149 314.265 55.7149 315.057C55.7149 315.717 55.5349 316.323 55.1749 316.875C54.8149 317.415 54.2689 317.847 53.5369 318.171C52.8049 318.483 51.9049 318.639 50.8369 318.639ZM66.7146 313.779C66.7146 313.911 66.7026 314.085 66.6786 314.301H58.9386C59.0466 315.141 59.4126 315.819 60.0366 316.335C60.6726 316.839 61.4586 317.091 62.3946 317.091C63.5346 317.091 64.4526 316.707 65.1486 315.939L66.1026 317.055C65.6706 317.559 65.1306 317.943 64.4826 318.207C63.8466 318.471 63.1326 318.603 62.3406 318.603C61.3326 318.603 60.4386 318.399 59.6586 317.991C58.8786 317.571 58.2726 316.989 57.8406 316.245C57.4206 315.501 57.2106 314.661 57.2106 313.725C57.2106 312.801 57.4146 311.967 57.8226 311.223C58.2426 310.479 58.8126 309.903 59.5326 309.495C60.2646 309.075 61.0866 308.865 61.9986 308.865C62.9106 308.865 63.7206 309.075 64.4286 309.495C65.1486 309.903 65.7066 310.479 66.1026 311.223C66.5106 311.967 66.7146 312.819 66.7146 313.779ZM61.9986 310.323C61.1706 310.323 60.4746 310.575 59.9106 311.079C59.3586 311.583 59.0346 312.243 58.9386 313.059H65.0586C64.9626 312.255 64.6326 311.601 64.0686 311.097C63.5166 310.581 62.8266 310.323 61.9986 310.323ZM70.7701 310.557C71.0701 310.005 71.5141 309.585 72.1021 309.297C72.6901 309.009 73.4041 308.865 74.2441 308.865V310.539C74.1481 310.527 74.0161 310.521 73.8481 310.521C72.9121 310.521 72.1741 310.803 71.6341 311.367C71.1061 311.919 70.8421 312.711 70.8421 313.743V318.495H69.1141V308.955H70.7701V310.557ZM85.2026 308.955L81.0266 318.495H79.2626L75.0866 308.955H76.8866L80.1626 316.605L83.5106 308.955H85.2026ZM86.8152 308.955H88.5432V318.495H86.8152V308.955ZM87.6792 307.119C87.3432 307.119 87.0612 307.011 86.8332 306.795C86.6172 306.579 86.5092 306.315 86.5092 306.003C86.5092 305.691 86.6172 305.427 86.8332 305.211C87.0612 304.983 87.3432 304.869 87.6792 304.869C88.0152 304.869 88.2912 304.977 88.5072 305.193C88.7352 305.397 88.8492 305.655 88.8492 305.967C88.8492 306.291 88.7352 306.567 88.5072 306.795C88.2912 307.011 88.0152 307.119 87.6792 307.119ZM96.0006 318.603C95.0286 318.603 94.1586 318.393 93.3906 317.973C92.6346 317.553 92.0406 316.977 91.6086 316.245C91.1766 315.501 90.9606 314.661 90.9606 313.725C90.9606 312.789 91.1766 311.955 91.6086 311.223C92.0406 310.479 92.6346 309.903 93.3906 309.495C94.1586 309.075 95.0286 308.865 96.0006 308.865C96.8646 308.865 97.6326 309.039 98.3046 309.387C98.9886 309.735 99.5166 310.239 99.8886 310.899L98.5746 311.745C98.2746 311.289 97.9026 310.947 97.4586 310.719C97.0146 310.491 96.5226 310.377 95.9826 310.377C95.3586 310.377 94.7946 310.515 94.2906 310.791C93.7986 311.067 93.4086 311.463 93.1206 311.979C92.8446 312.483 92.7066 313.065 92.7066 313.725C92.7066 314.397 92.8446 314.991 93.1206 315.507C93.4086 316.011 93.7986 316.401 94.2906 316.677C94.7946 316.953 95.3586 317.091 95.9826 317.091C96.5226 317.091 97.0146 316.977 97.4586 316.749C97.9026 316.521 98.2746 316.179 98.5746 315.723L99.8886 316.551C99.5166 317.211 98.9886 317.721 98.3046 318.081C97.6326 318.429 96.8646 318.603 96.0006 318.603ZM110.607 313.779C110.607 313.911 110.595 314.085 110.571 314.301H102.831C102.939 315.141 103.305 315.819 103.929 316.335C104.565 316.839 105.351 317.091 106.287 317.091C107.427 317.091 108.345 316.707 109.041 315.939L109.995 317.055C109.563 317.559 109.023 317.943 108.375 318.207C107.739 318.471 107.025 318.603 106.233 318.603C105.225 318.603 104.331 318.399 103.551 317.991C102.771 317.571 102.165 316.989 101.733 316.245C101.313 315.501 101.103 314.661 101.103 313.725C101.103 312.801 101.307 311.967 101.715 311.223C102.135 310.479 102.705 309.903 103.425 309.495C104.157 309.075 104.979 308.865 105.891 308.865C106.803 308.865 107.613 309.075 108.321 309.495C109.041 309.903 109.599 310.479 109.995 311.223C110.403 311.967 110.607 312.819 110.607 313.779ZM105.891 310.323C105.063 310.323 104.367 310.575 103.803 311.079C103.251 311.583 102.927 312.243 102.831 313.059H108.951C108.855 312.255 108.525 311.601 107.961 311.097C107.409 310.581 106.719 310.323 105.891 310.323ZM115.743 318.603C114.963 318.603 114.213 318.501 113.493 318.297C112.773 318.081 112.209 317.811 111.801 317.487L112.521 316.119C112.941 316.419 113.451 316.659 114.051 316.839C114.651 317.019 115.257 317.109 115.869 317.109C117.381 317.109 118.137 316.677 118.137 315.813C118.137 315.525 118.035 315.297 117.831 315.129C117.627 314.961 117.369 314.841 117.057 314.769C116.757 314.685 116.325 314.595 115.761 314.499C114.993 314.379 114.363 314.241 113.871 314.085C113.391 313.929 112.977 313.665 112.629 313.293C112.281 312.921 112.107 312.399 112.107 311.727C112.107 310.863 112.467 310.173 113.187 309.657C113.907 309.129 114.873 308.865 116.085 308.865C116.721 308.865 117.357 308.943 117.993 309.099C118.629 309.255 119.151 309.465 119.559 309.729L118.821 311.097C118.041 310.593 117.123 310.341 116.067 310.341C115.335 310.341 114.777 310.461 114.393 310.701C114.009 310.941 113.817 311.259 113.817 311.655C113.817 311.967 113.925 312.213 114.141 312.393C114.357 312.573 114.621 312.705 114.933 312.789C115.257 312.873 115.707 312.969 116.283 313.077C117.051 313.209 117.669 313.353 118.137 313.509C118.617 313.653 119.025 313.905 119.361 314.265C119.697 314.625 119.865 315.129 119.865 315.777C119.865 316.641 119.493 317.331 118.749 317.847C118.017 318.351 117.015 318.603 115.743 318.603Z" fill="white"/>
<path d="M64.3678 240.941H65.7524V245.095H47.7524V240.941H49.1371V243.71H64.3678V240.941ZM62.7777 235.197L56.7524 241.222L50.7272 235.197L51.7008 234.223L56.0601 238.572V224.326H57.4447V238.572L61.8041 234.223L62.7777 235.197Z" fill="white"/>
<defs>
<filter id="filter0_d_69_1772" x="197.003" y="0.846619" width="246.001" height="246.001" filterUnits="userSpaceOnUse" color-interpolation-filters="sRGB">
<feFlood flood-opacity="0" result="BackgroundImageFix"/>
<feColorMatrix in="SourceAlpha" type="matrix" values="0 0 0 0 0 0 0 0 0 0 0 0 0 0 0 0 0 0 127 0" result="hardAlpha"/>
<feOffset/>
<feGaussianBlur stdDeviation="4.5"/>
<feComposite in2="hardAlpha" operator="out"/>
<feColorMatrix type="matrix" values="0 0 0 0 1 0 0 0 0 1 0 0 0 0 1 0 0 0 0.25 0"/>
<feBlend mode="normal" in2="BackgroundImageFix" result="effect1_dropShadow_69_1772"/>
<feBlend mode="normal" in="SourceGraphic" in2="effect1_dropShadow_69_1772" result="shape"/>
</filter>
<filter id="filter1_d_69_1772" x="400.643" y="140.689" width="246.001" height="246.001" filterUnits="userSpaceOnUse" color-interpolation-filters="sRGB">
<feFlood flood-opacity="0" result="BackgroundImageFix"/>
<feColorMatrix in="SourceAlpha" type="matrix" values="0 0 0 0 0 0 0 0 0 0 0 0 0 0 0 0 0 0 127 0" result="hardAlpha"/>
<feOffset/>
<feGaussianBlur stdDeviation="4.5"/>
<feComposite in2="hardAlpha" operator="out"/>
<feColorMatrix type="matrix" values="0 0 0 0 1 0 0 0 0 1 0 0 0 0 1 0 0 0 0.25 0"/>
<feBlend mode="normal" in2="BackgroundImageFix" result="effect1_dropShadow_69_1772"/>
<feBlend mode="normal" in="SourceGraphic" in2="effect1_dropShadow_69_1772" result="shape"/>
</filter>
<filter id="filter2_d_69_1772" x="331.698" y="378.528" width="246.001" height="246.002" filterUnits="userSpaceOnUse" color-interpolation-filters="sRGB">
<feFlood flood-opacity="0" result="BackgroundImageFix"/>
<feColorMatrix in="SourceAlpha" type="matrix" values="0 0 0 0 0 0 0 0 0 0 0 0 0 0 0 0 0 0 127 0" result="hardAlpha"/>
<feOffset/>
<feGaussianBlur stdDeviation="4.5"/>
<feComposite in2="hardAlpha" operator="out"/>
<feColorMatrix type="matrix" values="0 0 0 0 1 0 0 0 0 1 0 0 0 0 1 0 0 0 0.25 0"/>
<feBlend mode="normal" in2="BackgroundImageFix" result="effect1_dropShadow_69_1772"/>
<feBlend mode="normal" in="SourceGraphic" in2="effect1_dropShadow_69_1772" result="shape"/>
</filter>
<filter id="filter3_d_69_1772" x="84.6255" y="378.841" width="246.001" height="246.002" filterUnits="userSpaceOnUse" color-interpolation-filters="sRGB">
<feFlood flood-opacity="0" result="BackgroundImageFix"/>
<feColorMatrix in="SourceAlpha" type="matrix" values="0 0 0 0 0 0 0 0 0 0 0 0 0 0 0 0 0 0 127 0" result="hardAlpha"/>
<feOffset/>
<feGaussianBlur stdDeviation="4.5"/>
<feComposite in2="hardAlpha" operator="out"/>
<feColorMatrix type="matrix" values="0 0 0 0 1 0 0 0 0 1 0 0 0 0 1 0 0 0 0.25 0"/>
<feBlend mode="normal" in2="BackgroundImageFix" result="effect1_dropShadow_69_1772"/>
<feBlend mode="normal" in="SourceGraphic" in2="effect1_dropShadow_69_1772" result="shape"/>
</filter>
<filter id="filter4_d_69_1772" x="0.773926" y="150.909" width="246.001" height="246.001" filterUnits="userSpaceOnUse" color-interpolation-filters="sRGB">
<feFlood flood-opacity="0" result="BackgroundImageFix"/>
<feColorMatrix in="SourceAlpha" type="matrix" values="0 0 0 0 0 0 0 0 0 0 0 0 0 0 0 0 0 0 127 0" result="hardAlpha"/>
<feOffset/>
<feGaussianBlur stdDeviation="4.5"/>
<feComposite in2="hardAlpha" operator="out"/>
<feColorMatrix type="matrix" values="0 0 0 0 1 0 0 0 0 1 0 0 0 0 1 0 0 0 0.25 0"/>
<feBlend mode="normal" in2="BackgroundImageFix" result="effect1_dropShadow_69_1772"/>
<feBlend mode="normal" in="SourceGraphic" in2="effect1_dropShadow_69_1772" result="shape"/>
</filter>
<filter id="filter5_d_69_1772" x="135.729" y="119" width="368" height="368" filterUnits="userSpaceOnUse" color-interpolation-filters="sRGB">
<feFlood flood-opacity="0" result="BackgroundImageFix"/>
<feColorMatrix in="SourceAlpha" type="matrix" values="0 0 0 0 0 0 0 0 0 0 0 0 0 0 0 0 0 0 127 0" result="hardAlpha"/>
<feMorphology radius="5" operator="dilate" in="SourceAlpha" result="effect1_dropShadow_69_1772"/>
<feOffset/>
<feGaussianBlur stdDeviation="8"/>
<feComposite in2="hardAlpha" operator="out"/>
<feColorMatrix type="matrix" values="0 0 0 0 0 0 0 0 0 0 0 0 0 0 0 0 0 0 0.16 0"/>
<feBlend mode="normal" in2="BackgroundImageFix" result="effect1_dropShadow_69_1772"/>
<feBlend mode="normal" in="SourceGraphic" in2="effect1_dropShadow_69_1772" result="shape"/>
</filter>
</defs>
</svg>
