<svg width="701" height="761" viewBox="0 0 701 761" fill="none" xmlns="http://www.w3.org/2000/svg">
<path d="M103.146 706.243C239.824 778.289 461.423 778.289 598.101 706.243C734.779 634.197 734.796 517.418 598.101 445.389C461.406 373.361 239.824 373.344 103.129 445.389C-33.566 517.435 -33.5491 634.164 103.146 706.243Z" fill="#F5F5F5"/>
<path d="M44.5358 616.08L50.8803 619.727C52.0187 620.304 53.2769 620.605 54.553 620.605C55.8291 620.605 57.0873 620.304 58.2257 619.727L351.396 450.479C351.841 450.333 352.229 450.05 352.504 449.671C352.779 449.292 352.927 448.835 352.927 448.367C352.927 447.898 352.779 447.442 352.504 447.062C352.229 446.683 351.841 446.4 351.396 446.255L345.102 442.658C343.964 442.082 342.705 441.781 341.429 441.781C340.153 441.781 338.895 442.082 337.757 442.658L44.5358 611.839C44.0927 611.99 43.7079 612.275 43.4353 612.655C43.1627 613.036 43.0161 613.492 43.0161 613.96C43.0161 614.428 43.1627 614.884 43.4353 615.264C43.7079 615.644 44.0927 615.93 44.5358 616.08Z" fill="#E0E0E0"/>
<path d="M467.767 677.048C517.179 677.048 557.235 655.091 557.235 628.006C557.235 600.92 517.179 578.963 467.767 578.963C418.356 578.963 378.3 600.92 378.3 628.006C378.3 655.091 418.356 677.048 467.767 677.048Z" fill="#E0E0E0"/>
<path d="M571.129 543.593C609.251 543.593 640.155 526.649 640.155 505.747C640.155 484.845 609.251 467.901 571.129 467.901C533.007 467.901 502.103 484.845 502.103 505.747C502.103 526.649 533.007 543.593 571.129 543.593Z" fill="#E0E0E0"/>
<path d="M604.887 467.714C604.785 459.045 610.841 441.03 619.696 429.664C628.552 418.298 642.581 409.901 652.674 413.226C662.072 416.313 661.156 428.595 649.943 436.857C638.73 445.118 621.766 455.517 616.931 469.665L606.668 487.036L604.887 467.714Z" fill="#1F8B5D"/>
<path opacity="0.1" d="M604.887 467.714C604.785 459.045 610.841 441.03 619.696 429.664C628.552 418.298 642.581 409.901 652.674 413.226C662.072 416.313 661.156 428.595 649.943 436.857C638.73 445.118 621.766 455.517 616.931 469.665L606.668 487.036L604.887 467.714Z" fill="black"/>
<path d="M604.395 479.589C604.532 479.573 604.661 479.513 604.762 479.418C604.862 479.324 604.93 479.199 604.955 479.063C610.4 449.41 634.048 425.084 648.297 419.604C648.457 419.544 648.586 419.422 648.656 419.266C648.726 419.11 648.731 418.933 648.671 418.773C648.641 418.696 648.596 418.626 648.539 418.566C648.481 418.507 648.413 418.459 648.337 418.426C648.262 418.393 648.18 418.375 648.098 418.374C648.015 418.372 647.933 418.387 647.856 418.417C633.318 423.998 609.23 448.731 603.75 478.842C603.736 478.924 603.737 479.007 603.755 479.088C603.772 479.169 603.806 479.245 603.853 479.313C603.9 479.381 603.961 479.438 604.03 479.483C604.1 479.527 604.178 479.558 604.259 479.572L604.395 479.589Z" fill="white"/>
<path d="M609.111 498.469C610.451 493.584 616.304 485.475 625.837 478.707C636.406 471.242 649.841 467.697 652.878 461.946C656.525 455.025 650.655 448.613 639.731 450.072C628.806 451.53 609.773 466.713 606.957 489.207L609.111 498.469Z" fill="#1F8B5D"/>
<path d="M606.855 493.38C606.976 493.368 607.091 493.322 607.188 493.247C607.284 493.172 607.356 493.071 607.398 492.956C616.151 467.51 635.388 458.384 644.328 457.112C644.493 457.086 644.642 456.998 644.743 456.865C644.845 456.732 644.89 456.565 644.871 456.399C644.86 456.316 644.834 456.237 644.792 456.164C644.75 456.092 644.695 456.029 644.628 455.978C644.562 455.928 644.486 455.891 644.406 455.87C644.325 455.849 644.241 455.844 644.158 455.856C634.268 457.264 615.15 466.56 606.193 492.549C606.166 492.627 606.155 492.71 606.16 492.792C606.166 492.874 606.187 492.955 606.223 493.029C606.259 493.103 606.31 493.169 606.372 493.223C606.433 493.278 606.505 493.32 606.583 493.346C606.669 493.382 606.763 493.394 606.855 493.38Z" fill="white"/>
<path d="M52.4412 611.805L51.152 611.059C50.0677 610.353 49.1648 609.401 48.5164 608.281C47.8681 607.161 47.4925 605.905 47.4199 604.613V169.896C47.4938 168.602 47.8699 167.343 48.518 166.221C49.1661 165.099 50.0682 164.144 51.152 163.433L331.26 1.73294C332.417 1.14716 333.695 0.841919 334.992 0.841919C336.288 0.841919 337.567 1.14716 338.724 1.73294L339.996 2.47935C341.084 3.18623 341.989 4.14021 342.637 5.26345C343.286 6.38669 343.66 7.64736 343.728 8.94259V443.642C343.66 444.937 343.286 446.198 342.637 447.321C341.989 448.445 341.084 449.399 339.996 450.105L59.9053 611.805C58.7485 612.391 57.47 612.696 56.1733 612.696C54.8766 612.696 53.5981 612.391 52.4412 611.805Z" fill="#1F8B5D"/>
<path opacity="0.4" d="M343.694 8.34886C343.439 6.41497 341.878 5.70249 340.012 6.77121L59.8878 168.488C58.7911 169.179 57.8867 170.136 57.2584 171.27L48.522 166.181C49.1586 165.048 50.0683 164.091 51.1683 163.399L331.259 1.73294C332.416 1.14716 333.694 0.841919 334.991 0.841919C336.288 0.841919 337.566 1.14716 338.723 1.73294L340.012 2.47935C341.005 3.14352 341.845 4.00965 342.48 5.0211C343.114 6.03255 343.528 7.16653 343.694 8.34886Z" fill="white"/>
<path opacity="0.1" d="M59.2776 612.094C58.1902 612.527 57.0234 612.725 55.8539 612.676C54.6844 612.626 53.5387 612.329 52.492 611.805L51.1858 611.059C50.1014 610.35 49.1998 609.395 48.5542 608.272C47.9086 607.149 47.5374 605.889 47.4707 604.596V169.896C47.51 168.601 47.8841 167.339 48.5564 166.232L57.2928 171.321C56.5997 172.408 56.1859 173.649 56.0884 174.934V609.651C56.0884 611.788 57.5133 612.789 59.2776 612.094Z" fill="black"/>
<path d="M89.2015 454.584L87.9122 453.838C86.8279 453.131 85.9251 452.18 85.2767 451.06C84.6284 449.94 84.2527 448.683 84.1802 447.391V369.256C84.2528 367.961 84.6283 366.702 85.2765 365.58C85.9248 364.457 86.8276 363.502 87.9122 362.792L342.218 215.834C343.372 215.249 344.647 214.943 345.941 214.943C347.235 214.943 348.511 215.249 349.665 215.834L350.954 216.581C352.042 217.288 352.947 218.242 353.595 219.365C354.244 220.488 354.618 221.749 354.686 223.044V301.18C354.618 302.472 354.244 303.731 353.595 304.851C352.946 305.972 352.041 306.923 350.954 307.626L96.6656 454.584C95.5087 455.17 94.2303 455.475 92.9335 455.475C91.6368 455.475 90.3583 455.17 89.2015 454.584Z" fill="#EBEBEB"/>
<path d="M354.652 222.45C354.398 220.516 352.837 219.804 350.954 220.872L96.6485 367.848C95.5519 368.539 94.6475 369.496 94.0191 370.63L85.2827 365.54C85.9117 364.397 86.8227 363.433 87.9291 362.741L342.218 215.783C343.372 215.198 344.647 214.892 345.941 214.892C347.235 214.892 348.511 215.198 349.665 215.783L350.954 216.53C351.961 217.192 352.812 218.064 353.45 219.086C354.089 220.107 354.499 221.255 354.652 222.45Z" fill="#FAFAFA"/>
<path d="M96.0212 454.889C94.9331 455.322 93.7655 455.519 92.5956 455.466C91.4258 455.414 90.2805 455.113 89.2357 454.584L87.9125 453.854C86.836 453.139 85.9412 452.182 85.2992 451.06C84.6572 449.938 84.2858 448.682 84.2144 447.391V369.256C84.2537 367.961 84.6277 366.698 85.3 365.591L94.0364 370.681C93.3711 371.792 92.9922 373.051 92.9338 374.345V452.497C92.9168 454.567 94.2739 455.568 96.0212 454.889Z" fill="#E0E0E0"/>
<path d="M132.612 362.606C147.116 354.226 158.872 360.74 158.872 377.161C158.872 393.582 147.099 413.531 132.578 421.725C118.057 429.918 106.301 423.421 106.301 407.17C106.301 390.919 118.108 370.986 132.612 362.606Z" fill="#1F8B5D"/>
<path d="M89.2015 560.472L87.9122 559.726C86.8279 559.02 85.9251 558.068 85.2767 556.948C84.6284 555.829 84.2527 554.572 84.1802 553.28V475.144C84.2528 473.85 84.6283 472.591 85.2765 471.468C85.9248 470.345 86.8276 469.391 87.9122 468.681L342.218 321.723C343.372 321.137 344.647 320.832 345.941 320.832C347.235 320.832 348.511 321.137 349.665 321.723L350.954 322.469C352.043 323.175 352.948 324.129 353.597 325.252C354.246 326.376 354.619 327.637 354.686 328.932V407.068C354.618 408.361 354.244 409.619 353.595 410.74C352.946 411.86 352.041 412.811 350.954 413.514L96.6656 560.472C95.5087 561.058 94.2303 561.363 92.9335 561.363C91.6368 561.363 90.3583 561.058 89.2015 560.472Z" fill="#EBEBEB"/>
<path d="M354.652 328.322C354.398 326.388 352.837 325.692 350.954 326.761L96.6485 473.736C95.5563 474.426 94.6527 475.376 94.0191 476.501L85.2827 471.412C85.9259 470.315 86.8363 469.399 87.9291 468.749L342.218 321.791C343.372 321.205 344.647 320.9 345.941 320.9C347.235 320.9 348.511 321.205 349.665 321.791L350.954 322.537C351.946 323.183 352.789 324.033 353.427 325.031C354.065 326.028 354.482 327.15 354.652 328.322Z" fill="#FAFAFA"/>
<path d="M96.0212 560.761C94.9343 561.196 93.7673 561.396 92.5974 561.346C91.4276 561.297 90.2817 560.999 89.2357 560.473L87.9125 559.726C86.8332 559.014 85.9362 558.057 85.2939 556.935C84.6516 555.812 84.2818 554.555 84.2144 553.263V475.144C84.2514 473.849 84.6256 472.586 85.3 471.48L94.0364 476.569C93.373 477.687 92.9944 478.951 92.9338 480.25V558.403C92.9168 560.456 94.2739 561.456 96.0212 560.761Z" fill="#E0E0E0"/>
<path d="M132.612 468.494C147.116 460.114 158.872 466.628 158.872 483.049C158.872 499.47 147.099 519.42 132.578 527.613C118.057 535.807 106.301 529.31 106.301 513.058C106.301 496.807 118.108 476.858 132.612 468.494Z" fill="#1F8B5D"/>
<path d="M89.2015 277.515L87.9122 276.768C86.8276 276.059 85.9248 275.104 85.2765 273.981C84.6283 272.859 84.2528 271.6 84.1802 270.305V192.237C84.2527 190.945 84.6284 189.689 85.2767 188.569C85.9251 187.449 86.8279 186.497 87.9122 185.791L342.218 38.7652C343.372 38.1795 344.647 37.8743 345.941 37.8743C347.235 37.8743 348.511 38.1795 349.665 38.7652L350.954 39.5116C352.041 40.2148 352.946 41.1656 353.595 42.2861C354.244 43.4066 354.618 44.6649 354.686 45.9578V124.094C354.618 125.389 354.244 126.649 353.595 127.773C352.947 128.896 352.042 129.85 350.954 130.557L96.6656 277.515C95.5087 278.101 94.2303 278.406 92.9335 278.406C91.6368 278.406 90.3583 278.101 89.2015 277.515Z" fill="#EBEBEB"/>
<path d="M354.652 45.364C354.398 43.4301 352.837 42.7346 350.954 43.8034L96.6485 190.778C95.5488 191.459 94.6431 192.411 94.0191 193.544L85.2827 188.454C85.9078 187.313 86.8199 186.354 87.9291 185.672L342.218 38.7142C343.372 38.1286 344.647 37.8234 345.941 37.8234C347.235 37.8234 348.511 38.1286 349.665 38.7142L350.954 39.4606C351.96 40.1193 352.812 40.9881 353.45 42.0071C354.088 43.0262 354.499 44.1714 354.652 45.364Z" fill="#FAFAFA"/>
<path d="M96.0211 277.803C94.9342 278.239 93.7672 278.438 92.5973 278.389C91.4275 278.339 90.2816 278.041 89.2355 277.515L87.9124 276.768C86.8254 276.054 85.9224 275.094 85.2769 273.965C84.6313 272.836 84.2614 271.57 84.1973 270.271V192.237C84.2337 190.937 84.6078 189.668 85.283 188.556L94.0194 193.645C93.3533 194.763 92.9745 196.027 92.9167 197.327V275.36C92.9167 277.498 94.2738 278.482 96.0211 277.803Z" fill="#E0E0E0"/>
<path d="M132.612 185.537C147.116 177.157 158.872 183.671 158.872 200.075C158.872 216.479 147.099 236.445 132.578 244.656C118.057 252.866 106.301 246.352 106.301 230.101C106.301 213.849 118.108 193.934 132.612 185.537Z" fill="#1F8B5D"/>
<path d="M107.082 376.72L105.793 375.973C104.705 375.266 103.8 374.312 103.152 373.189C102.503 372.066 102.129 370.805 102.061 369.51V291.374C102.132 290.08 102.507 288.82 103.155 287.697C103.803 286.574 104.707 285.62 105.793 284.911L360.081 137.953C361.238 137.367 362.517 137.062 363.813 137.062C365.11 137.062 366.389 137.367 367.545 137.953L368.835 138.682C369.918 139.393 370.82 140.348 371.469 141.471C372.117 142.593 372.493 143.852 372.567 145.146V223.281C372.494 224.576 372.119 225.835 371.47 226.957C370.822 228.08 369.919 229.035 368.835 229.745L114.529 376.72C113.375 377.305 112.099 377.61 110.805 377.61C109.511 377.61 108.236 377.305 107.082 376.72Z" fill="#37474F"/>
<path d="M372.532 144.569C372.278 142.635 370.717 141.922 368.834 143.008L114.528 289.983C113.428 290.668 112.517 291.619 111.882 292.748L103.163 287.659C103.786 286.517 104.691 285.553 105.792 284.86L360.081 137.953C361.238 137.367 362.516 137.062 363.813 137.062C365.109 137.062 366.388 137.367 367.545 137.953L368.834 138.682C369.837 139.341 370.686 140.207 371.324 141.223C371.962 142.239 372.374 143.38 372.532 144.569Z" fill="#455A64"/>
<path d="M113.901 377.008C112.814 377.441 111.647 377.64 110.477 377.59C109.308 377.54 108.162 377.244 107.116 376.72L105.809 375.973C104.727 375.262 103.827 374.307 103.181 373.185C102.536 372.062 102.164 370.803 102.094 369.51V291.374C102.139 290.078 102.519 288.816 103.197 287.71L111.916 292.799C111.256 293.912 110.883 295.171 110.831 296.464V374.616C110.797 376.686 112.069 377.687 113.901 377.008Z" fill="#263238"/>
<path d="M150.492 284.725C164.996 276.361 176.752 282.875 176.752 299.28C176.752 315.684 164.979 335.65 150.458 343.861C135.937 352.071 124.164 345.557 124.181 329.306C124.198 313.054 135.988 293.105 150.492 284.725Z" fill="#F5F5F5"/>
<path d="M151.086 331.935C150.627 332.283 150.073 332.484 149.498 332.511C148.922 332.539 148.352 332.391 147.862 332.088L136.327 323.368C134.783 322.198 134.97 318.992 136.751 316.176C138.532 313.36 141.23 312.036 142.756 313.207L150.797 319.297L173.139 271.306C174.53 268.303 177.193 266.217 179.093 266.811C180.993 267.404 181.4 270.203 179.992 273.155L154.478 327.948C153.773 329.525 152.638 330.871 151.204 331.833L151.086 331.935Z" fill="#1F8B5D"/>
<path d="M372.498 260.602L365.119 256.344C361.913 254.512 357.994 256.344 355.925 257.599L351.26 255.004C345.678 251.611 337.909 258.685 336.179 260.364L334.177 259.228C328.257 255.665 317.484 265.216 317.484 265.216V229.558L322.167 227.302L314.719 222.993C313.652 222.519 312.48 222.334 311.318 222.457C310.157 222.579 309.049 223.003 308.103 223.688C305.348 225.483 303.054 227.902 301.409 230.749C299.765 233.597 298.815 236.792 298.638 240.076V322.469C291.852 317.38 284.592 314.326 278.281 315.463C273.254 316.638 268.855 319.667 265.965 323.945C262.844 329.475 268.001 332.936 274.651 340.536C281.301 348.136 287.068 357.16 293.073 362.758C296.037 365.762 299.558 368.158 303.438 369.815V380.537L310.733 384.761L359.046 348.441V337.703C359.046 337.703 365.933 310.187 368.139 298.686C370.259 287.625 372.21 269.966 368.563 260.805L372.515 260.534L372.498 260.602Z" fill="#1F8B5D"/>
<path opacity="0.4" d="M372.498 260.602L365.119 256.344C361.913 254.512 357.994 256.344 355.925 257.599L351.26 255.004C345.678 251.611 337.909 258.685 336.179 260.364L334.177 259.228C328.257 255.665 317.484 265.216 317.484 265.216V229.558L322.167 227.302L314.719 222.993C313.652 222.519 312.48 222.334 311.318 222.457C310.157 222.579 309.049 223.003 308.103 223.688C305.348 225.483 303.054 227.902 301.409 230.749C299.765 233.597 298.815 236.792 298.638 240.076V322.469C291.852 317.38 284.592 314.326 278.281 315.463C273.254 316.638 268.855 319.667 265.965 323.945C262.844 329.475 268.001 332.936 274.651 340.536C281.301 348.136 287.068 357.16 293.073 362.758C296.037 365.762 299.558 368.158 303.438 369.815V380.537L310.733 384.761L359.046 348.441V337.703C359.046 337.703 365.933 310.187 368.139 298.686C370.259 287.625 372.21 269.966 368.563 260.805L372.515 260.534L372.498 260.602Z" fill="white"/>
<path d="M318.027 355.294L281.487 334.208L265.49 324.963C263.454 329.95 268.391 333.445 274.634 340.587C281.233 348.136 287.051 357.211 293.056 362.809C296.02 365.812 299.541 368.209 303.421 369.866V380.537L310.716 384.761L321.386 376.737C320.012 367.678 318.027 355.294 318.027 355.294Z" fill="#1F8B5D"/>
<path d="M305.949 244.334L298.655 240.11V326.541L305.949 326.727V244.334Z" fill="#1F8B5D"/>
<path d="M363.27 266.149L368.936 261.976C368.8 261.603 368.699 261.23 368.546 260.873L370.616 260.738L366.069 260.534L358.486 256.344C357.6 256.699 356.744 257.125 355.925 257.616L358.3 258.99L363.27 266.149Z" fill="#1F8B5D"/>
<path d="M343.202 264.911L348.511 260.873L341.183 256.429C339.414 257.565 337.761 258.872 336.247 260.331L341.336 263.282L343.202 264.911Z" fill="#1F8B5D"/>
<path d="M332.107 264.521L324.847 260.28L324.881 260.212V269.389L333.329 266.302L332.107 264.521Z" fill="#1F8B5D"/>
<g opacity="0.15">
<path d="M318.027 355.294L281.487 334.208L265.49 324.963C263.454 329.95 268.391 333.445 274.634 340.587C281.233 348.136 287.051 357.211 293.056 362.809C296.02 365.812 299.541 368.209 303.421 369.866V380.537L310.716 384.761L321.386 376.737C320.012 367.678 318.027 355.294 318.027 355.294Z" fill="black"/>
<path d="M305.949 244.334L298.655 240.109V326.541L305.949 326.727V244.334Z" fill="black"/>
<path d="M363.27 266.149L368.936 261.976C368.8 261.603 368.699 261.23 368.546 260.873L370.616 260.738L366.069 260.534L358.486 256.344C357.6 256.699 356.744 257.125 355.925 257.616L358.3 258.99L363.27 266.149Z" fill="black"/>
<path d="M343.202 264.911L348.511 260.873L341.183 256.429C339.414 257.565 337.761 258.872 336.247 260.33L341.336 263.282L343.202 264.911Z" fill="black"/>
<path d="M332.107 264.52L324.847 260.28L324.881 260.212V269.389L333.329 266.302L332.107 264.52Z" fill="black"/>
</g>
<path d="M310.716 384.828V374.09C306.837 372.41 303.322 369.99 300.368 366.965C294.363 361.367 288.493 352.275 281.945 344.743C275.397 337.211 270.07 333.665 273.26 328.152C276.15 323.874 280.548 320.845 285.575 319.67C291.92 318.534 299.147 321.638 305.932 326.676V244.334C306.108 241.052 307.055 237.857 308.696 235.01C310.338 232.162 312.628 229.743 315.381 227.946C320.606 224.927 324.847 227.37 324.847 233.409V269.389C324.847 269.389 337.892 257.82 343.151 264.911C343.151 264.911 355.976 251.492 361.811 262.824C361.811 262.824 371.209 255.241 375.382 264.046C379.555 272.85 377.588 291.476 375.382 302.978C373.177 314.479 366.273 341.995 366.273 341.995V352.733L310.716 384.828Z" fill="#1F8B5D"/>
<path d="M324.881 284.843C324.881 284.843 326.068 268.422 332.107 264.487H331.887C329.388 265.834 327.039 267.443 324.881 269.287V268.982C324.858 269.03 324.846 269.082 324.846 269.135C324.846 269.188 324.858 269.24 324.881 269.287V284.843Z" fill="#455A64"/>
<path d="M343.202 264.911V279.941C343.202 279.941 344.898 264.487 348.291 260.755C346.447 261.949 344.741 263.343 343.202 264.911Z" fill="#455A64"/>
<path d="M361.794 262.824V277.905C361.794 277.905 362.71 262.722 365.984 260.483C364.481 261.055 363.069 261.843 361.794 262.824Z" fill="#455A64"/>
<path d="M308.07 213.34C306.882 214.019 305.932 213.629 305.932 212.441V200.567C305.995 199.872 306.221 199.203 306.593 198.613C306.965 198.024 307.471 197.53 308.07 197.174C309.24 196.495 310.19 196.902 310.19 198.073V209.948C310.13 210.641 309.907 211.31 309.538 211.899C309.17 212.489 308.666 212.983 308.07 213.34Z" fill="#EBEBEB"/>
<path d="M290.19 232.154C289.358 233.578 288.018 234.359 287.187 233.85L280.283 229.863C279.451 229.388 279.451 227.828 280.283 226.471C281.114 225.029 282.454 224.248 283.285 224.774L290.19 228.761C291.089 229.151 291.089 230.712 290.19 232.154Z" fill="#EBEBEB"/>
<path d="M282.878 256.802V257.141C282.805 257.878 282.56 258.588 282.162 259.213C281.765 259.838 281.225 260.36 280.588 260.738L271.156 266.183C269.901 266.912 268.866 266.488 268.866 265.216V264.877C268.942 264.141 269.189 263.432 269.586 262.808C269.984 262.184 270.521 261.661 271.156 261.28L280.588 255.835C281.86 255.106 282.878 255.53 282.878 256.802Z" fill="#EBEBEB"/>
<path d="M333.244 228.065V227.726C333.314 226.986 333.557 226.273 333.955 225.645C334.353 225.017 334.894 224.492 335.534 224.113L344.966 218.667C346.221 217.938 347.256 218.379 347.256 219.634V219.973C347.179 220.71 346.933 221.418 346.535 222.042C346.138 222.666 345.6 223.189 344.966 223.57L335.534 229.015C334.295 229.745 333.244 229.321 333.244 228.065Z" fill="#EBEBEB"/>
<path d="M325.814 211.576C324.983 211.101 324.983 209.558 325.814 208.183L332.718 196.309C333.549 194.867 334.89 194.086 335.721 194.612C336.552 195.104 336.552 196.648 335.721 198.09L328.816 209.965C328.053 211.288 326.696 212.068 325.814 211.576Z" fill="#EBEBEB"/>
<path d="M594.217 491.175V489.241C593.453 491.497 589.925 501.252 584.581 506.205C580.323 510.09 574.505 514.568 573.029 518.894C571.553 523.22 581.121 524.916 585.09 524.221C589.721 523.39 595.693 520.828 598.95 516.774C601.24 513.958 602.699 510.633 604.327 508.41C605.956 506.188 609.722 503.745 610.621 501.184C611.096 499.776 610.519 496.688 609.84 494.093C609.162 491.497 608.534 489.089 607.72 489.309V490.802C605.785 492.314 603.39 493.117 600.934 493.075C598.933 493.075 594.2 492.668 594.217 491.175Z" fill="#263238"/>
<path d="M580.713 509.547C582.037 508.376 583.377 507.223 584.581 506.154C588.313 502.761 591.163 496.96 592.809 493.007C593.738 490.753 594.216 488.338 594.217 485.899V478.215H607.788V490.734V491.073C607.143 493.872 601.002 501.252 597.423 506.205C595.065 509.462 590.637 513.601 585.226 514.331C580.018 515.009 577.422 513.398 580.713 509.547Z" fill="#FFA8A7"/>
<path d="M541.577 477.858V475.925C540.814 478.198 537.269 487.952 531.925 492.888C527.667 496.773 521.848 501.269 520.373 505.594C518.897 509.92 528.464 511.617 532.434 510.904C537.065 510.09 543.036 507.511 546.293 503.474C548.583 500.658 550.042 497.316 551.671 495.111C553.299 492.905 557.082 490.429 557.965 487.867C558.44 486.459 557.863 483.389 557.184 480.793C556.506 478.198 555.878 475.704 555.064 475.992V477.468C553.133 478.991 550.736 479.799 548.278 479.758C546.344 479.758 541.56 479.368 541.577 477.858Z" fill="#263238"/>
<path d="M528.074 496.247C529.38 495.06 530.721 493.923 531.925 492.855C535.657 489.462 538.507 483.643 540.153 479.691C541.089 477.444 541.573 475.034 541.577 472.6V464.898H555.064V477.417V477.757C554.419 480.573 548.278 488.02 544.699 492.888C542.341 496.146 537.913 500.302 532.502 501.014C527.362 501.693 524.766 500.098 528.074 496.247Z" fill="#FFA8A7"/>
<path d="M605.04 281.383C615.506 304.233 604.649 384.761 604.649 384.761C604.972 388.459 609.213 395.77 610.79 412.089C612.656 431.377 607.856 479.809 607.856 479.809C605.807 480.994 603.501 481.662 601.137 481.756C598.773 481.851 596.421 481.369 594.285 480.352C594.285 480.352 581.426 407.407 579.017 388.238C576.88 371.495 572.774 334.734 572.774 334.734L561.256 388.17C562.936 393.565 564.156 399.093 564.903 404.693C566.006 415.974 555.064 468.494 555.064 468.494C555.064 468.494 550.416 470.191 541.578 468.902C541.578 468.902 537.71 399.197 536.692 385.609C534.996 362.792 541.035 291.578 545.174 278.075L605.04 281.383Z" fill="#37474F"/>
<path d="M572.774 334.734L569.381 313.495C569.381 313.495 554.996 310.527 548.482 304.386C552.972 309.661 558.848 313.574 565.446 315.684L569.263 332.037L562.596 381.52L572.774 334.734Z" fill="#263238"/>
<path d="M564.241 201.347C560.958 201.065 557.658 201.624 554.651 202.972C551.645 204.319 549.031 206.411 547.057 209.049C541.662 216.106 520.983 242.976 520.983 242.976C520.983 242.976 490.448 227.709 489.006 225.911C487.564 224.113 488.362 220.448 488.769 218.447C489.176 216.445 489.872 211.949 490.313 210.694C491.093 208.506 487.853 209.1 485.936 211.152C484.019 213.205 483.188 217.208 482.221 217.938C481.254 218.667 474.027 210.287 470.499 206.267C466.97 202.246 465.41 199.481 462.984 201.093C461.287 202.28 462.373 204.672 464.901 208.116C466.078 209.575 467.165 211.105 468.158 212.696C468.446 213.307 467.53 213.799 467.157 214.138C466.478 214.749 465.257 215.834 465.172 216.699C465.189 217.222 465.155 217.744 465.07 218.26C464.748 219.414 463.374 219.956 462.933 221.076C462.644 221.873 462.933 222.772 462.797 223.638C462.695 224.18 462.39 224.672 462.288 225.232C462.253 225.777 462.337 226.323 462.533 226.833C462.729 227.342 463.034 227.803 463.425 228.184C465.885 231.136 469.26 232.255 472.5 234.053C475.198 235.546 477.98 236.191 481.084 237.565C484.189 238.939 520.186 263.91 525.886 260.755C531.586 257.599 561.001 223.434 561.001 223.434C569.483 209.337 564.241 201.347 564.241 201.347Z" fill="#FFA8A7"/>
<path d="M586.583 201.975C599.984 202.908 600.934 209.388 604.293 216.462C606.752 221.927 606.977 228.136 604.921 233.765L595.54 260.805C595.54 260.805 599.917 271.391 605.006 281.383C581.545 294.479 552.248 287.591 545.191 277.99C544.886 275.954 546.701 260.11 547.82 249.762C543.681 239.397 542.596 232.798 544.343 226.012C547.583 213.29 560.136 200.906 565.7 201.347L586.583 201.975Z" fill="#F5F5F5"/>
<path d="M573.673 190.863H578.881C582.486 190.863 586.056 190.153 589.386 188.772C592.716 187.391 595.742 185.368 598.289 182.817C600.837 180.266 602.857 177.238 604.233 173.907C605.61 170.575 606.316 167.004 606.312 163.399C606.307 156.086 603.399 149.075 598.227 143.905C593.054 138.736 586.041 135.833 578.728 135.833H573.826C566.529 135.855 559.54 138.769 554.388 143.936C549.237 149.104 546.344 156.102 546.344 163.399C546.331 170.664 549.201 177.637 554.326 182.786C559.45 187.936 566.408 190.841 573.673 190.863Z" fill="#263238"/>
<path d="M620.985 205.317C616.69 205.312 612.572 203.604 609.535 200.567C606.497 197.529 604.789 193.411 604.785 189.116V154.408C606.914 154.408 609.022 154.828 610.988 155.643C612.955 156.458 614.742 157.653 616.246 159.159C617.751 160.665 618.944 162.453 619.757 164.421C620.57 166.388 620.987 168.497 620.985 170.625V205.317Z" fill="#263238"/>
<path d="M607.754 148.267L603.699 154.781C604.113 155.07 604.581 155.272 605.075 155.375C605.57 155.478 606.079 155.479 606.574 155.379C607.069 155.279 607.538 155.08 607.954 154.794C608.37 154.507 608.723 154.139 608.992 153.712C609.523 152.819 609.69 151.756 609.46 150.743C609.229 149.729 608.619 148.843 607.754 148.267Z" fill="#263238"/>
<path d="M556.116 148.013C552.944 149.879 549.025 157.852 549.415 174.578C549.737 188.76 554.335 192.254 556.642 193.238C558.949 194.222 563.427 193.628 567.719 192.899V201.381C567.719 201.381 561.748 208.319 562.121 212.221C562.494 216.123 570.756 217.039 576.354 213.239C579.976 210.622 583.087 207.361 585.531 203.62V183.128C585.984 183.686 586.544 184.148 587.177 184.487C587.811 184.826 588.505 185.036 589.221 185.104C589.936 185.172 590.658 185.096 591.344 184.882C592.03 184.668 592.666 184.32 593.216 183.857C598 180.685 598.186 172.831 595.404 170.015C592.622 167.199 586.634 168.098 585.531 171.983C585.531 171.983 578.627 172.237 569.45 167.199C565.875 165.274 562.805 162.534 560.488 159.2C558.172 155.867 556.674 152.034 556.116 148.013Z" fill="#FFA8A7"/>
<path d="M566.82 171.016C566.804 171.367 566.892 171.715 567.073 172.016C567.254 172.317 567.52 172.557 567.838 172.708C568.155 172.858 568.51 172.911 568.858 172.86C569.206 172.809 569.53 172.656 569.791 172.421C570.052 172.186 570.238 171.878 570.325 171.538C570.412 171.198 570.396 170.839 570.28 170.508C570.163 170.176 569.952 169.886 569.671 169.675C569.39 169.463 569.053 169.34 568.703 169.319C568.232 169.309 567.775 169.479 567.425 169.794C567.075 170.109 566.859 170.546 566.82 171.016Z" fill="#263238"/>
<path d="M564.768 183.043L560.628 184.349C560.703 184.626 560.831 184.884 561.007 185.11C561.183 185.335 561.403 185.523 561.653 185.663C561.903 185.802 562.178 185.889 562.463 185.92C562.747 185.951 563.035 185.925 563.309 185.842C563.867 185.655 564.331 185.259 564.603 184.737C564.875 184.215 564.934 183.608 564.768 183.043Z" fill="#F28F8F"/>
<path d="M552.214 165.553L555.81 163.043C555.659 162.801 555.461 162.593 555.226 162.43C554.992 162.267 554.728 162.154 554.448 162.097C554.169 162.04 553.881 162.04 553.602 162.098C553.323 162.155 553.059 162.269 552.825 162.432C552.342 162.774 552.009 163.289 551.895 163.87C551.782 164.451 551.896 165.054 552.214 165.553Z" fill="#263238"/>
<path d="M553.13 169.726C553.111 169.965 553.141 170.205 553.217 170.433C553.292 170.66 553.413 170.87 553.571 171.05C553.729 171.231 553.921 171.377 554.137 171.482C554.353 171.587 554.587 171.647 554.826 171.66C555.193 171.69 555.561 171.61 555.882 171.43C556.203 171.249 556.463 170.977 556.628 170.648C556.794 170.319 556.857 169.948 556.811 169.583C556.764 169.218 556.61 168.875 556.367 168.598C556.124 168.321 555.804 168.123 555.448 168.029C555.092 167.935 554.716 167.95 554.368 168.071C554.02 168.192 553.717 168.415 553.496 168.71C553.275 169.004 553.148 169.359 553.13 169.726Z" fill="#263238"/>
<path d="M561.748 168.708L561.46 179.447L555.811 177.699L561.748 168.708Z" fill="#F28F8F"/>
<path d="M567.719 192.933C572.283 192.339 581.664 189.642 583.122 185.944C582.532 187.819 581.384 189.47 579.831 190.677C577.032 193.069 567.719 195.766 567.719 195.766V192.933Z" fill="#F28F8F"/>
<path opacity="0.1" d="M580.578 283.927C582.416 283.504 584.151 282.718 585.682 281.615C587.212 280.512 588.507 279.114 589.49 277.504C590.472 275.893 591.124 274.103 591.405 272.238C591.687 270.372 591.593 268.47 591.129 266.641C590.858 265.526 590.217 264.536 589.312 263.83C588.407 263.125 587.289 262.747 586.142 262.756C587.648 261.759 588.941 260.473 589.949 258.974C590.956 257.475 591.657 255.791 592.011 254.02L594.861 237.056C595.206 234.293 594.957 231.488 594.132 228.829L603.564 217.921L605.26 219.125C606.693 223.916 606.556 229.04 604.87 233.748L595.54 260.805C595.54 260.805 599.917 271.391 605.006 281.383C597.378 285.497 588.957 287.929 580.309 288.514C571.662 289.1 562.99 287.825 554.877 284.775C563.421 286.115 572.141 285.827 580.578 283.927Z" fill="black"/>
<path d="M629.043 269.304C616.863 219.515 607.855 202.908 593.063 203.145C588.737 208.234 589.942 223.909 596.761 233.375C596.761 233.375 612.029 265.488 614.421 276.904C616.541 286.93 618.967 299.551 618.814 308.169C618.766 309.698 618.163 311.157 617.118 312.274C614.336 315.293 614.336 317.719 612.521 321.044C611.113 323.657 609.569 324.641 610.01 325.217C610.592 325.838 611.386 326.217 612.234 326.28C613.082 326.343 613.923 326.085 614.59 325.557C615.872 324.588 617.014 323.446 617.983 322.164C617.503 325.359 616.578 328.471 615.235 331.409C612.113 338.449 612.877 342.046 622.377 339.535C628.331 337.957 632.08 333.004 632.979 318.669C633.409 313.398 633.46 308.103 633.132 302.825C631.927 289.254 631.011 277.311 629.043 269.304Z" fill="#FFA8A7"/>
<path d="M508.193 411.648C509.499 363.183 505.614 351.579 492.722 342.707L487.718 370.782C487.718 370.782 493.587 403.862 492.959 414.889C492.417 424.575 491.467 436.687 489.176 444.507C488.774 445.917 487.86 447.127 486.615 447.9C483.324 449.953 482.001 452.056 479.524 454.686C477.59 456.721 475.945 457.213 476.131 457.858C476.506 458.569 477.134 459.114 477.891 459.385C478.648 459.655 479.479 459.631 480.219 459.317C481.861 458.655 483.42 457.807 484.868 456.789C483.73 459.759 482.121 462.526 480.101 464.983C475.487 470.632 475.283 474.109 484.596 474.194C490.415 474.194 495.063 470.649 499.457 457.807C501.16 453.098 502.527 448.274 503.545 443.371C505.852 430.563 507.989 419.452 508.193 411.648Z" fill="#B16668"/>
<path d="M481.882 339.026C488.04 338.127 496.403 339.416 501.814 349.086C507.226 358.755 508.6 375.397 509.16 391.936C509.16 391.936 498.422 400.91 485.529 396.5L481.882 339.026Z" fill="#1F8B5D"/>
<path opacity="0.1" d="M481.882 339.026C488.04 338.127 496.403 339.416 501.814 349.086C507.226 358.755 508.6 375.397 509.16 391.936C509.16 391.936 498.422 400.91 485.529 396.5L481.882 339.026Z" fill="black"/>
<path d="M499.982 605.546C500.949 605.919 501.204 607.785 501.356 611.483C501.458 614.282 502.069 619.185 498.778 620.152C495.487 621.118 490.686 620.627 488.599 617.997C485.97 614.604 484.206 611.788 480.457 607.819C477.2 604.324 473.671 601.033 472.382 596.182C471.194 591.754 472.178 589.837 475.198 588.548C479.337 586.851 485.868 592.568 489.108 593.467C491.89 594.282 498.998 605.172 499.982 605.546Z" fill="#263238"/>
<path d="M499.982 602.119V606.665C498.274 607.757 496.301 608.363 494.274 608.417C492.247 608.471 490.245 607.971 488.481 606.971C488.294 606.53 487.293 600.473 487.293 600.473L499.982 602.119Z" fill="#B16668"/>
<path d="M463.222 631.755C464.015 634.19 464.683 636.665 465.223 639.168C465.783 641.916 466.58 646.513 465.63 648.583C464.68 650.653 460.914 651.976 455.079 651.976C451.313 651.976 445.443 654.503 441.423 656.743C437.403 658.982 428.615 659.983 424.222 659.474C419.048 658.863 413.687 655.861 412.839 653.706C411.991 651.552 413.11 649.346 425.324 644.139C425.443 644.139 442.288 638.608 448.192 632.094L463.222 631.755Z" fill="#263238"/>
<path d="M463.222 626.835C463.222 626.835 463.222 630.228 463.222 632.145C463.222 634.062 460.965 636.946 455.062 636.725C450.923 636.59 448.039 635.47 448.276 632.06V627.141L463.222 626.835Z" fill="#B16668"/>
<path d="M502.934 541.778C501.928 533.706 500.132 525.751 497.573 518.029C497.573 518.029 499.185 497.672 499.965 478.232C500.814 457.298 499.965 431.004 500.322 425.779C500.322 425.779 432.805 412.208 431.601 436.297C430.396 460.386 434.264 522.066 434.994 532.686C435.723 543.305 437.623 552.72 439.828 570.006C442.034 587.292 448.056 627.141 448.056 627.141C450.393 628.329 452.987 628.924 455.609 628.87C458.231 628.817 460.799 628.118 463.086 626.835C463.086 626.835 467.836 578.471 467.344 566.206C466.961 557.125 465.398 548.132 462.696 539.454C462.696 539.454 463.968 519.505 465.105 502.134C466.241 484.763 467.429 476.45 467.683 468.918L469.142 468.189C469.142 468.189 470.618 498.113 471.415 508.75C472.212 519.386 473.909 529.564 476.979 549.293C479.66 566.427 487.599 602.645 487.599 602.645C495.3 606.818 499.914 602.102 499.914 602.102C499.914 602.102 505.021 556.639 502.934 541.778Z" fill="#37474F"/>
<path d="M467.751 468.935C467.751 468.935 484.138 460.861 492.332 453.583C492.332 453.583 484.715 464.304 474.723 469.054C474.723 469.054 471.178 506.239 471.195 505.493L469.142 468.868L467.751 468.935Z" fill="#263238"/>
<path d="M453.179 331.358L457.182 353.344L477.03 351.902L472.874 326.965L453.179 331.358Z" fill="#B16668"/>
<path d="M498.014 350.29C496.046 344.319 488.464 337.805 480.881 339.213C469.603 341.129 458.488 343.902 447.632 347.508C440.676 350.002 434.349 355.99 433.772 378.857C433.772 378.857 431.448 432.158 431.414 442.455C448.853 449.359 467.038 449.156 477.03 446.967C497.929 442.404 500.44 433.735 500.44 433.735C500.44 433.735 500.712 395.414 500.084 378.857C499.558 364.794 499.371 354.395 498.014 350.29Z" fill="#1F8B5D"/>
<path d="M437.86 304.606C437.86 304.606 432.771 312.647 433.433 313.411C434.094 314.174 437.894 314.785 437.894 314.785L437.86 304.606Z" fill="#B16668"/>
<path d="M451.839 282.401C441.338 284.86 438.403 289.559 437.776 306.354C437.131 323.894 439.048 329.357 441.406 331.664C442.984 333.224 451.584 333.36 455.961 332.02C461.372 330.324 473.603 325.743 479.168 316.752C485.716 306.235 487.191 292.155 479.795 286.54C469.379 278.753 456.114 281.383 451.839 282.401Z" fill="#B16668"/>
<path d="M453.399 332.563C456.962 329.696 456.64 327.847 456.64 327.847C454.095 330.239 444.629 332.274 441.372 331.664C442.712 333.038 448.87 333.241 453.399 332.563Z" fill="#9A4A4D"/>
<path d="M437.894 286.76C440.982 292.036 447.666 294.564 447.666 294.564C449.684 296.854 448.565 305.811 452.11 307.219C452.11 307.219 453.637 300.705 459.116 301.4C464.596 302.096 465.529 309.085 462.153 313.41C458.777 317.736 455.537 316.193 455.537 316.193C455.537 316.193 455.91 325.438 460.134 330.595C460.134 330.595 464.833 332.003 473.366 329.967C478.625 328.729 485.936 321.96 488.905 314.92C495.215 299.992 495.368 286.692 485.851 282.926C484.681 276.141 479.252 273.206 473.111 271.934C459.897 269.22 451.381 277.464 441.202 276.752C435.367 276.344 434.281 280.568 437.894 286.76Z" fill="#263238"/>
<path d="M486.072 285.2L492.298 281.332C491.785 280.506 490.965 279.918 490.018 279.697C489.072 279.476 488.076 279.64 487.251 280.153C486.425 280.666 485.837 281.486 485.616 282.432C485.395 283.379 485.559 284.374 486.072 285.2Z" fill="#263238"/>
<path d="M448.175 347.423C448.175 347.423 438.302 349.255 433.144 357.059C427.987 364.862 405.663 392.852 405.663 392.852C405.663 392.852 373.567 376.788 371.99 374.871C370.412 372.954 371.294 369.12 371.735 366.999C372.176 364.879 372.889 360.214 373.432 358.857C374.246 356.533 370.836 357.16 368.817 359.315C366.799 361.469 365.917 365.693 364.916 366.423C363.915 367.152 356.264 358.365 352.566 354.124C348.868 349.883 347.121 346.914 344.627 348.662C342.846 349.934 343.999 352.444 346.646 356.075C347.891 357.597 349.025 359.207 350.038 360.892C350.361 361.537 349.377 362.063 349.004 362.402C348.274 363.047 347.002 364.099 346.9 365.117C346.954 365.681 346.954 366.249 346.9 366.813C346.544 368.017 345.051 368.509 344.627 369.765C344.322 370.63 344.627 371.58 344.491 372.479C344.372 373.056 344.067 373.565 343.948 374.175C343.916 374.751 344.006 375.328 344.214 375.866C344.421 376.404 344.742 376.892 345.153 377.297C347.748 380.401 351.311 381.588 354.72 383.471C357.553 385.049 360.488 385.728 363.762 387.187C367.036 388.645 405.51 417.077 411.516 413.769C417.521 410.461 448.293 374.498 448.293 374.498C450.893 370.456 452.266 365.748 452.244 360.943C452.223 356.138 450.81 351.441 448.175 347.423Z" fill="#B16668"/>
<path d="M451.618 346.27C447.377 346.745 441.44 345.964 433.11 354.887C426.425 362.545 420.194 370.588 414.45 378.976C415.545 383.383 417.888 387.38 421.198 390.488C424.507 393.596 428.644 395.684 433.11 396.5C433.11 396.5 447.665 381.588 451.771 373.361C455.876 365.133 456.605 351.8 451.618 346.27Z" fill="#1F8B5D"/>
<path opacity="0.1" d="M451.618 346.27C447.377 346.745 441.44 345.964 433.11 354.887C426.425 362.545 420.194 370.588 414.45 378.976C415.545 383.383 417.888 387.38 421.198 390.488C424.507 393.596 428.644 395.684 433.11 396.5C433.11 396.5 447.665 381.588 451.771 373.361C455.876 365.133 456.605 351.8 451.618 346.27Z" fill="black"/>
</svg>
