<svg width="14" height="18" viewBox="0 0 14 18" fill="none" xmlns="http://www.w3.org/2000/svg">
<path fill-rule="evenodd" clip-rule="evenodd" d="M7 17.4677L7.631 16.7567C8.347 15.9367 8.991 15.1587 9.564 14.4187L10.037 13.7947C12.012 11.1337 13 9.02173 13 7.46073C13 4.12873 10.314 1.42773 7 1.42773C3.686 1.42773 1 4.12873 1 7.46073C1 9.02173 1.988 11.1337 3.963 13.7947L4.436 14.4187C5.25344 15.4661 6.10867 16.4825 7 17.4677Z" stroke="#FFF1F1" stroke-linecap="round" stroke-linejoin="round"/>
<path d="M7 9.92773C8.38071 9.92773 9.5 8.80845 9.5 7.42773C9.5 6.04702 8.38071 4.92773 7 4.92773C5.61929 4.92773 4.5 6.04702 4.5 7.42773C4.5 8.80845 5.61929 9.92773 7 9.92773Z" stroke="#FFF1F1" stroke-linecap="round" stroke-linejoin="round"/>
</svg>
