<svg width="16" height="13" viewBox="0 0 16 13" fill="none" xmlns="http://www.w3.org/2000/svg">
<path d="M13.5 0C14.163 0 14.7989 0.263392 15.2678 0.732233C15.7366 1.20107 16 1.83696 16 2.5V10.5C16 11.163 15.7366 11.7989 15.2678 12.2678C14.7989 12.7366 14.163 13 13.5 13H2.5C1.83696 13 1.20107 12.7366 0.732233 12.2678C0.263392 11.7989 0 11.163 0 10.5V2.5C0 1.83696 0.263392 1.20107 0.732233 0.732233C1.20107 0.263392 1.83696 0 2.5 0H13.5ZM15 3.961L8.254 7.931C8.19022 7.96845 8.11893 7.99128 8.04527 7.99785C7.9716 8.00442 7.8974 7.99457 7.828 7.969L7.746 7.931L1 3.963V10.5C1 10.8978 1.15804 11.2794 1.43934 11.5607C1.72064 11.842 2.10218 12 2.5 12H13.5C13.8978 12 14.2794 11.842 14.5607 11.5607C14.842 11.2794 15 10.8978 15 10.5V3.961ZM13.5 1H2.5C2.10218 1 1.72064 1.15804 1.43934 1.43934C1.15804 1.72064 1 2.10218 1 2.5V2.802L8 6.92L15 2.8V2.5C15 2.10218 14.842 1.72064 14.5607 1.43934C14.2794 1.15804 13.8978 1 13.5 1Z" fill="white"/>
</svg>
