<svg width="231" height="48" viewBox="0 0 231 48" fill="none" xmlns="http://www.w3.org/2000/svg">
<path d="M50.0459 47.0394V47.6158H44.0082V38.8633H49.8585V39.4397H44.6451V42.8981H49.3081V43.4744H44.6451V47.0625L50.0459 47.0394Z" fill="white"/>
<path d="M63.2481 38.8633V47.6129H62.7236L56.7608 40.0132V47.6129H56.1239V38.8633H56.66L62.5997 46.463V38.8633H63.2481Z" fill="white"/>
<path d="M76.0871 47.0394V47.6158H70.0494V38.8633H75.8998V39.4397H70.6863V42.8981H75.3522V43.4744H70.6863V47.0625L76.0871 47.0394Z" fill="white"/>
<path d="M88.2489 47.6129L86.1624 44.6877C85.876 44.7291 85.5871 44.7503 85.2978 44.7511H82.802V47.6129H82.1651V38.8633H85.3036C86.4016 38.8633 87.2662 39.1227 87.8973 39.6444C88.2089 39.9098 88.4553 40.2433 88.6177 40.619C88.7801 40.9947 88.8541 41.4027 88.8339 41.8116C88.8681 42.4366 88.6813 43.0538 88.3061 43.5549C87.9309 44.056 87.3914 44.4091 86.782 44.5523L88.9723 47.6129H88.2489ZM85.3036 44.1776C86.2344 44.1776 86.9491 43.9701 87.4391 43.558C87.6725 43.3289 87.858 43.0556 87.9845 42.754C88.1111 42.4524 88.1763 42.1286 88.1763 41.8015C88.1763 41.4744 88.1111 41.1506 87.9845 40.849C87.858 40.5474 87.6725 40.274 87.4391 40.0449C86.9491 39.6328 86.2344 39.4253 85.3036 39.4253H82.802V44.1776H85.3036Z" fill="white"/>
<path d="M101.169 43.2758H101.794V46.5526C101.395 46.9288 100.919 47.2139 100.399 47.3883C99.8435 47.5828 99.2586 47.6803 98.67 47.6765C97.8516 47.6882 97.0439 47.4898 96.3241 47.1001C95.6434 46.7306 95.0771 46.1814 94.6871 45.5122C94.2979 44.817 94.0935 44.0336 94.0935 43.2369C94.0935 42.4402 94.2979 41.6568 94.6871 40.9616C95.0763 40.2918 95.6427 39.7423 96.3241 39.3736C97.0477 38.9831 97.8593 38.7846 98.6815 38.7973C99.2849 38.7915 99.8844 38.895 100.451 39.1027C100.97 39.2972 101.441 39.602 101.831 39.9961L101.416 40.4313C101.071 40.0778 100.651 39.8069 100.186 39.6388C99.7015 39.4701 99.1915 39.3872 98.6786 39.3938C97.97 39.3843 97.2706 39.5559 96.6469 39.8924C96.0559 40.2142 95.5652 40.6929 95.2289 41.2757C94.8835 41.8736 94.7063 42.5537 94.716 43.2441C94.7079 43.9314 94.8873 44.6079 95.2347 45.2009C95.5743 45.782 96.064 46.2608 96.6526 46.5871C97.2692 46.9296 97.9647 47.1045 98.67 47.0944C99.5679 47.1283 100.449 46.8458 101.16 46.2961L101.169 43.2758Z" fill="white"/>
<path d="M111.016 44.6013V47.6129H110.382V44.6013L106.855 38.8633H107.558L110.728 44.0134L113.898 38.8633H114.561L111.016 44.6013Z" fill="white"/>
<path d="M127.314 47.3479C126.801 47.168 126.338 46.8721 125.959 46.4833L126.247 46.0078C126.598 46.3614 127.022 46.633 127.489 46.8032C128.014 47.0066 128.572 47.1102 129.135 47.1087C129.967 47.1087 130.596 46.9502 131.023 46.6332C131.222 46.4952 131.384 46.3102 131.496 46.0946C131.607 45.879 131.663 45.6394 131.66 45.3968C131.668 45.2258 131.643 45.0547 131.585 44.8934C131.527 44.7322 131.438 44.584 131.322 44.4573C131.087 44.2172 130.8 44.0339 130.484 43.9213C130.042 43.7646 129.592 43.6347 129.135 43.5322C128.611 43.4103 128.095 43.2563 127.59 43.0711C127.208 42.925 126.869 42.6864 126.602 42.3766C126.317 42.0217 126.172 41.5746 126.195 41.1201C126.192 40.7056 126.309 40.2991 126.533 39.95C126.787 39.574 127.145 39.2805 127.564 39.1056C128.113 38.8823 128.702 38.7763 129.293 38.7943C129.782 38.7932 130.267 38.8651 130.734 39.0076C131.166 39.1338 131.575 39.3284 131.945 39.584L131.709 40.097C131.355 39.8545 130.966 39.6687 130.556 39.5465C130.152 39.4246 129.733 39.3616 129.311 39.3592C128.504 39.3592 127.89 39.5235 127.472 39.8462C127.274 39.9918 127.114 40.1826 127.005 40.4028C126.897 40.6229 126.842 40.8659 126.847 41.1114C126.839 41.2823 126.865 41.453 126.923 41.6138C126.981 41.7745 127.071 41.9221 127.187 42.048C127.421 42.2875 127.707 42.4707 128.023 42.5841C128.469 42.7436 128.924 42.8774 129.386 42.9847C129.908 43.1069 130.422 43.2618 130.925 43.4487C131.301 43.5942 131.637 43.8274 131.904 44.1288C132.19 44.4746 132.335 44.9147 132.311 45.3623C132.312 45.7718 132.193 46.1726 131.968 46.515C131.704 46.8911 131.337 47.1825 130.91 47.3537C130.355 47.5762 129.759 47.6821 129.161 47.6649C128.531 47.6748 127.904 47.5673 127.314 47.3479Z" fill="white"/>
<path d="M139.599 47.0944C138.921 46.7202 138.356 46.1695 137.965 45.5007C137.576 44.8101 137.372 44.0309 137.372 43.2383C137.372 42.4458 137.576 41.6666 137.965 40.976C138.356 40.3072 138.921 39.7565 139.599 39.3823C140.311 38.9907 141.113 38.7921 141.925 38.8059C142.736 38.7951 143.536 38.9936 144.248 39.3823C144.927 39.7519 145.491 40.3013 145.879 40.9703C146.27 41.6648 146.476 42.4485 146.476 43.2456C146.476 44.0427 146.27 44.8263 145.879 45.5208C145.49 46.1891 144.926 46.7383 144.248 47.1088C143.536 47.4976 142.736 47.6962 141.925 47.6852C141.112 47.6946 140.31 47.4909 139.599 47.0944ZM143.922 46.59C144.506 46.2643 144.99 45.7862 145.323 45.2067C145.659 44.6051 145.836 43.9275 145.836 43.2383C145.836 42.5492 145.659 41.8715 145.323 41.27C144.99 40.6905 144.506 40.2124 143.922 39.8866C143.31 39.5594 142.626 39.3883 141.932 39.3883C141.238 39.3883 140.555 39.5594 139.942 39.8866C139.356 40.2105 138.869 40.6889 138.536 41.27C138.2 41.8715 138.023 42.5492 138.023 43.2383C138.023 43.9275 138.2 44.6051 138.536 45.2067C138.869 45.7878 139.356 46.2662 139.942 46.59C140.555 46.9172 141.238 47.0884 141.932 47.0884C142.626 47.0884 143.31 46.9172 143.922 46.59Z" fill="white"/>
<path d="M152.424 38.8633H153.064V47.0394H158.101V47.6158H152.424V38.8633Z" fill="white"/>
<path d="M164.159 46.7137C163.544 46.072 163.238 45.1344 163.24 43.901V38.8633H163.877V43.8894C163.877 44.9634 164.123 45.7685 164.615 46.3045C165.106 46.8406 165.819 47.1067 166.753 47.1028C167.679 47.1028 168.387 46.8367 168.877 46.3045C169.367 45.7723 169.613 44.9673 169.615 43.8894V38.8633H170.254V43.8894C170.254 45.1229 169.945 46.0605 169.327 46.7022C168.708 47.3439 167.843 47.6648 166.733 47.6648C165.63 47.6725 164.772 47.3555 164.159 46.7137Z" fill="white"/>
<path d="M178.48 39.4369H175.33V38.8605H182.266V39.4369H179.116V47.6129H178.48V39.4369Z" fill="white"/>
<path d="M187.592 38.8633H188.232V47.6129H187.592V38.8633Z" fill="white"/>
<path d="M196.42 47.0944C195.741 46.7209 195.178 46.17 194.788 45.5007C194.4 44.8101 194.195 44.0309 194.195 43.2383C194.195 42.4458 194.4 41.6666 194.788 40.976C195.178 40.3067 195.741 39.7558 196.42 39.3823C197.131 38.9907 197.933 38.7921 198.745 38.8059C199.557 38.7947 200.358 38.9932 201.071 39.3823C201.75 39.7528 202.314 40.3019 202.702 40.9703C203.091 41.6654 203.296 42.4488 203.296 43.2456C203.296 44.0423 203.091 44.8257 202.702 45.5208C202.313 46.1885 201.749 46.7375 201.071 47.1088C200.358 47.498 199.557 47.6965 198.745 47.6852C197.932 47.6946 197.13 47.491 196.42 47.0944ZM200.743 46.59C201.325 46.2635 201.809 45.7856 202.143 45.2067C202.478 44.6046 202.653 43.9272 202.653 43.2383C202.653 42.5495 202.478 41.8721 202.143 41.27C201.809 40.6911 201.325 40.2132 200.743 39.8866C200.13 39.5594 199.446 39.3883 198.751 39.3883C198.056 39.3883 197.372 39.5594 196.76 39.8866C196.173 40.2105 195.687 40.6889 195.353 41.27C195.017 41.8715 194.841 42.5492 194.841 43.2383C194.841 43.9275 195.017 44.6051 195.353 45.2067C195.687 45.7878 196.173 46.2662 196.76 46.59C197.372 46.9173 198.056 47.0884 198.751 47.0884C199.446 47.0884 200.13 46.9173 200.743 46.59Z" fill="white"/>
<path d="M216.374 38.8633V47.6129H215.847L209.884 40.0132V47.6129H209.247V38.8633H209.783L215.734 46.463V38.8633H216.374Z" fill="white"/>
<path d="M223.631 47.3477C223.118 47.1678 222.653 46.8719 222.273 46.4831L222.562 46.0076C222.913 46.3612 223.338 46.6328 223.807 46.803C224.33 47.0067 224.888 47.1103 225.449 47.1085C226.282 47.1085 226.913 46.95 227.337 46.633C227.537 46.4955 227.7 46.3107 227.811 46.0949C227.922 45.8792 227.978 45.6393 227.974 45.3966C227.982 45.2255 227.957 45.0545 227.899 44.8932C227.841 44.732 227.752 44.5838 227.637 44.4571C227.402 44.217 227.115 44.0337 226.798 43.9211C226.357 43.7636 225.907 43.6337 225.449 43.532C224.926 43.4097 224.41 43.2557 223.905 43.0709C223.524 42.9247 223.185 42.686 222.919 42.3764C222.634 42.0215 222.49 41.5743 222.513 41.1199C222.509 40.7054 222.626 40.2989 222.85 39.9498C223.103 39.5729 223.462 39.2791 223.882 39.1054C224.43 38.8814 225.019 38.7753 225.611 38.7941C226.099 38.793 226.585 38.8649 227.052 39.0074C227.484 39.1342 227.894 39.3287 228.265 39.5838L228.026 40.0968C227.673 39.8537 227.284 39.668 226.873 39.5463C226.469 39.4244 226.05 39.3614 225.628 39.359C224.821 39.359 224.207 39.5232 223.792 39.846C223.594 39.9912 223.434 40.182 223.325 40.4022C223.216 40.6224 223.162 40.8656 223.167 41.1112C223.158 41.2819 223.184 41.4525 223.242 41.6133C223.299 41.7741 223.389 41.9218 223.504 42.0478C223.739 42.2879 224.026 42.4713 224.343 42.5839C224.788 42.7439 225.242 42.8776 225.703 42.9845C226.225 43.1066 226.739 43.2616 227.242 43.4484C227.619 43.594 227.956 43.8272 228.225 44.1286C228.509 44.4747 228.653 44.9149 228.628 45.3621C228.631 45.7718 228.511 46.173 228.285 46.5148C228.022 46.8908 227.656 47.1822 227.23 47.3535C226.674 47.576 226.077 47.6819 225.478 47.6647C224.848 47.6747 224.222 47.5672 223.631 47.3477Z" fill="white"/>
<path d="M60.196 4.36658C61.7677 5.03787 63.109 6.15376 64.055 7.57706C64.9414 9.06859 65.4093 10.7716 65.4093 12.5066C65.4093 14.2417 64.9414 15.9446 64.055 17.4362C63.1168 18.8678 61.7733 19.9875 60.196 20.6524C58.5245 21.3998 56.5552 21.7725 54.2881 21.7706H49.1323V28.8285H43.2041V3.2311H54.2881C56.3158 3.18461 58.33 3.57173 60.196 4.36658ZM58.0202 15.7963C58.9443 15.0278 59.4074 13.9365 59.4093 12.5225C59.4112 11.1084 58.9482 10.0056 58.0202 9.214C57.0922 8.44548 55.7386 8.06122 53.9595 8.06122H49.1323V16.9491H53.9538C55.7386 16.9491 57.0941 16.5649 58.0202 15.7963Z" fill="white"/>
<path d="M85.1969 23.3498H73.3089L71.0408 28.8255H64.9715L76.3839 3.21942H82.2343L93.6842 28.8255H87.465L85.1969 23.3498ZM83.3323 18.8511L79.2716 9.05247L75.211 18.8511H83.3323Z" fill="white"/>
<path d="M96.3558 3.23126H102.281V24.0043H115.12V28.8315H96.3558V3.23126Z" fill="white"/>
<path d="M141.749 28.8373L141.712 13.4737L134.178 26.1312H131.507L124.014 13.8051V28.8373H118.449V3.23126H123.348L132.93 19.1453L142.369 3.23126H147.234L147.306 28.8373H141.749Z" fill="white"/>
<path d="M165.672 19.7646V28.837H159.744V19.6811L149.833 3.21942H156.124L162.963 14.5973L169.808 3.23095H175.624L165.672 19.7646Z" fill="white"/>
<path d="M194.166 28.8371L189.229 21.6986H183.777V28.8314H177.851V3.2311H188.935C190.963 3.18461 192.977 3.57173 194.843 4.36657C196.005 4.91965 197.036 5.71145 197.871 6.69029C198.705 7.66912 199.324 8.81298 199.687 10.0472C200.049 11.2814 200.147 12.5782 199.975 13.8529C199.802 15.1276 199.363 16.3515 198.685 17.4448C197.727 18.8622 196.371 19.965 194.788 20.615L200.532 28.8458L194.166 28.8371ZM192.667 9.214C191.739 8.44548 190.386 8.06122 188.607 8.06122H183.777V16.9952H188.607C190.384 16.9952 191.737 16.6052 192.667 15.8252C193.597 15.0451 194.06 13.9471 194.056 12.5311C194.056 11.0882 193.593 9.98252 192.667 9.214Z" fill="white"/>
<path d="M221.599 23.3498H209.711L207.443 28.8255H201.371L212.783 3.21942H218.636L230.086 28.8255H223.867L221.599 23.3498ZM219.735 18.8511L215.674 9.05247L211.613 18.8511H219.735Z" fill="white"/>
<path d="M26.9097 27.1168L17.9757 18.4364L9.04164 27.1168C9.11369 22.1598 13.0764 18.6006 16.2868 18.0646H5.09338C8.92348 15.4564 12.2492 14.5515 15.3444 15.6639L8.66699 8.62335C14.2983 8.7588 17.9728 13.5803 17.9728 16.615C17.9728 13.5803 21.6501 8.7588 27.2786 8.62335L20.6011 15.6639C23.6992 14.5515 27.0249 15.4564 30.8522 18.0646H19.6587C22.8663 18.6006 26.8347 22.1598 26.9068 27.1168" fill="white"/>
<path fill-rule="evenodd" clip-rule="evenodd" d="M18.0131 0.331866C22.2301 0.330958 26.3124 1.81628 29.5428 4.52683C32.7733 7.23739 34.945 10.9997 35.6766 15.1528C36.4081 19.3058 35.6525 23.5837 33.5426 27.2349C31.4328 30.8861 28.1036 33.6769 24.1401 35.1169C24.2982 35.2016 24.4323 35.3249 24.5299 35.4754C24.6275 35.6259 24.6855 35.7986 24.6985 35.9775C24.7114 36.1564 24.6789 36.3356 24.6039 36.4986C24.529 36.6615 24.414 36.8029 24.2698 36.9095L23.4542 36.2668C22.7309 35.6998 22.0392 35.0937 21.3821 34.4512C25.3367 33.6297 28.8536 31.3887 31.2687 28.1513C33.6838 24.9138 34.8298 20.9041 34.4903 16.8794C34.1508 12.8547 32.3493 9.09362 29.4261 6.30647C26.5028 3.51933 22.6602 1.89907 18.6239 1.75171C14.5876 1.60435 10.637 2.94007 7.51828 5.50662C4.39958 8.07318 2.32862 11.6929 1.69655 15.6821C1.06448 19.6714 1.91504 23.754 4.08759 27.1589C6.26014 30.5638 9.6043 33.0554 13.4885 34.163C14.2154 35.1964 15.0066 36.183 15.8574 37.1169H12.3991C12.1575 37.1221 11.9213 37.045 11.7292 36.8983C11.5372 36.7515 11.4007 36.5439 11.342 36.3095C11.2834 36.075 11.3062 35.8276 11.4066 35.6078C11.507 35.388 11.6792 35.2088 11.8948 35.0996C7.93151 33.6597 4.60249 30.8692 2.4926 27.2183C0.382707 23.5674 -0.37307 19.2897 0.358063 15.1369C1.0892 10.984 3.26046 7.22171 6.49037 4.51093C9.72027 1.80015 13.8022 0.314345 18.0189 0.314575" fill="white"/>
<path d="M12.3933 38.2063H23.6329C23.9157 38.2063 24.1869 38.3186 24.3869 38.5186C24.5869 38.7186 24.6992 38.9898 24.6992 39.2726C24.6992 39.5554 24.5869 39.8266 24.3869 40.0266C24.1869 40.2266 23.9157 40.3389 23.6329 40.3389H12.3933C12.2533 40.3389 12.1147 40.3114 11.9853 40.2578C11.8559 40.2042 11.7384 40.1256 11.6393 40.0266C11.5403 39.9276 11.4618 39.81 11.4082 39.6807C11.3546 39.5513 11.327 39.4126 11.327 39.2726C11.327 39.1326 11.3546 38.9939 11.4082 38.8646C11.4618 38.7352 11.5403 38.6176 11.6393 38.5186C11.7384 38.4196 11.8559 38.341 11.9853 38.2875C12.1147 38.2339 12.2533 38.2063 12.3933 38.2063Z" fill="white"/>
<path d="M12.3933 41.4254H23.6329C23.9157 41.4254 24.1869 41.5377 24.3869 41.7377C24.5869 41.9376 24.6992 42.2089 24.6992 42.4917C24.6992 42.7745 24.5869 43.0457 24.3869 43.2457C24.1869 43.4456 23.9157 43.558 23.6329 43.558H12.3933C12.1105 43.558 11.8393 43.4456 11.6393 43.2457C11.4394 43.0457 11.327 42.7745 11.327 42.4917C11.327 42.2089 11.4394 41.9376 11.6393 41.7377C11.8393 41.5377 12.1105 41.4254 12.3933 41.4254Z" fill="white"/>
<path d="M15.4943 44.6416H20.5233C20.8061 44.6416 21.0773 44.754 21.2773 44.9539C21.4773 45.1539 21.5896 45.4251 21.5896 45.7079C21.5896 45.9907 21.4773 46.2619 21.2773 46.4619C21.0773 46.6619 20.8061 46.7742 20.5233 46.7742H15.4943C15.2115 46.7742 14.9403 46.6619 14.7403 46.4619C14.5404 46.2619 14.428 45.9907 14.428 45.7079C14.428 45.4251 14.5404 45.1539 14.7403 44.9539C14.9403 44.754 15.2115 44.6416 15.4943 44.6416Z" fill="white"/>
</svg>
