<svg width="705" height="501" viewBox="0 0 705 501" fill="none" xmlns="http://www.w3.org/2000/svg">
<rect y="0.25" width="705" height="500" fill="#174344"/>
<rect x="14" y="9.88831" width="677" height="480.723" stroke="white" stroke-width="2"/>
<path d="M57.9511 412.067V413.972H37.9961V385.045H57.332V386.95H40.1012V398.38H55.5127V400.285H40.1012V412.144L57.9511 412.067Z" fill="white"/>
<path d="M101.582 385.045V413.963H99.8485L80.1412 388.845V413.963H78.0361V385.045H79.8078L99.439 410.162V385.045H101.582Z" fill="white"/>
<path d="M144.018 412.067V413.972H124.062V385.045H143.398V386.95H126.168V398.38H141.589V400.285H126.168V412.144L144.018 412.067Z" fill="white"/>
<path d="M184.214 413.963L177.318 404.295C176.371 404.432 175.416 404.502 174.46 404.504H166.211V413.963H164.106V385.045H174.479C178.108 385.045 180.966 385.902 183.052 387.626C184.082 388.503 184.896 389.606 185.433 390.847C185.97 392.089 186.214 393.438 186.147 394.789C186.261 396.855 185.643 398.895 184.403 400.551C183.163 402.207 181.38 403.374 179.366 403.847L186.605 413.963H184.214ZM174.479 402.609C177.556 402.609 179.918 401.923 181.537 400.561C182.309 399.804 182.922 398.9 183.34 397.904C183.759 396.907 183.974 395.837 183.974 394.756C183.974 393.675 183.759 392.604 183.34 391.607C182.922 390.611 182.309 389.707 181.537 388.95C179.918 387.588 177.556 386.902 174.479 386.902H166.211V402.609H174.479Z" fill="white"/>
<path d="M226.913 399.628H228.98V410.458C227.661 411.702 226.088 412.644 224.37 413.221C222.534 413.863 220.6 414.185 218.655 414.173C215.95 414.212 213.281 413.556 210.902 412.268C208.652 411.047 206.78 409.231 205.491 407.02C204.205 404.722 203.529 402.133 203.529 399.5C203.529 396.866 204.205 394.277 205.491 391.98C206.778 389.766 208.65 387.95 210.902 386.731C213.293 385.44 215.976 384.785 218.693 384.826C220.687 384.807 222.669 385.149 224.541 385.836C226.258 386.479 227.815 387.486 229.104 388.789L227.732 390.227C226.591 389.059 225.201 388.163 223.665 387.608C222.064 387.05 220.379 386.776 218.684 386.798C216.341 386.767 214.03 387.334 211.968 388.446C210.015 389.509 208.393 391.091 207.282 393.018C206.14 394.994 205.555 397.242 205.587 399.524C205.56 401.795 206.153 404.031 207.301 405.991C208.423 407.911 210.042 409.494 211.987 410.573C214.025 411.705 216.324 412.283 218.655 412.249C221.623 412.361 224.535 411.427 226.885 409.611L226.913 399.628Z" fill="white"/>
<path d="M259.462 404.009V413.963H257.367V404.009L245.708 385.045H248.032L258.51 402.066L268.987 385.045H271.178L259.462 404.009Z" fill="white"/>
<path d="M313.326 413.087C311.634 412.492 310.102 411.514 308.85 410.23L309.802 408.658C310.96 409.826 312.362 410.724 313.907 411.287C315.642 411.959 317.486 412.301 319.346 412.296C322.096 412.296 324.175 411.773 325.585 410.725C326.244 410.269 326.781 409.657 327.148 408.945C327.515 408.232 327.701 407.44 327.69 406.639C327.718 406.073 327.634 405.508 327.443 404.975C327.252 404.442 326.957 403.952 326.576 403.533C325.799 402.74 324.851 402.134 323.804 401.762C322.345 401.244 320.857 400.815 319.346 400.476C317.615 400.073 315.91 399.564 314.241 398.952C312.979 398.469 311.856 397.68 310.974 396.656C310.032 395.483 309.554 394.006 309.631 392.503C309.62 391.134 310.007 389.79 310.745 388.636C311.586 387.393 312.771 386.423 314.155 385.845C315.967 385.107 317.914 384.757 319.87 384.817C321.484 384.813 323.089 385.051 324.633 385.521C326.059 385.939 327.41 386.582 328.633 387.427L327.852 389.122C326.685 388.321 325.399 387.707 324.042 387.303C322.707 386.9 321.321 386.691 319.927 386.684C317.26 386.684 315.231 387.226 313.85 388.293C313.197 388.774 312.668 389.405 312.308 390.133C311.949 390.86 311.769 391.663 311.783 392.475C311.757 393.039 311.843 393.604 312.035 394.135C312.228 394.667 312.525 395.154 312.907 395.57C313.683 396.362 314.627 396.967 315.67 397.342C317.145 397.869 318.649 398.311 320.175 398.666C321.901 399.07 323.6 399.582 325.261 400.2C326.504 400.681 327.614 401.451 328.5 402.448C329.442 403.59 329.921 405.045 329.843 406.524C329.846 407.878 329.452 409.203 328.709 410.334C327.837 411.577 326.623 412.54 325.214 413.106C323.377 413.841 321.409 414.192 319.432 414.135C317.349 414.167 315.279 413.812 313.326 413.087Z" fill="white"/>
<path d="M353.929 412.249C351.687 411.012 349.821 409.192 348.529 406.982C347.244 404.699 346.568 402.124 346.568 399.505C346.568 396.885 347.244 394.31 348.529 392.027C349.821 389.817 351.687 387.997 353.929 386.76C356.282 385.466 358.932 384.809 361.616 384.855C364.296 384.819 366.941 385.475 369.293 386.76C371.538 387.982 373.403 389.797 374.685 392.008C375.977 394.304 376.656 396.894 376.656 399.528C376.656 402.163 375.977 404.753 374.685 407.048C373.4 409.257 371.536 411.072 369.293 412.297C366.941 413.582 364.297 414.238 361.616 414.202C358.927 414.233 356.277 413.56 353.929 412.249ZM368.217 410.582C370.146 409.506 371.746 407.925 372.846 406.01C373.957 404.022 374.541 401.782 374.541 399.505C374.541 397.227 373.957 394.987 372.846 392.999C371.746 391.084 370.146 389.503 368.217 388.427C366.193 387.345 363.934 386.78 361.64 386.78C359.346 386.78 357.086 387.345 355.063 388.427C353.125 389.497 351.517 391.078 350.415 392.999C349.303 394.987 348.72 397.227 348.72 399.505C348.72 401.782 349.303 404.022 350.415 406.01C351.517 407.931 353.125 409.512 355.063 410.582C357.086 411.664 359.346 412.229 361.64 412.229C363.934 412.229 366.193 411.664 368.217 410.582Z" fill="white"/>
<path d="M396.317 385.045H398.432V412.067H415.082V413.972H396.317V385.045Z" fill="white"/>
<path d="M435.103 410.991C433.071 408.87 432.058 405.771 432.064 401.695V385.045H434.169V401.656C434.169 405.206 434.982 407.867 436.608 409.638C438.234 411.41 440.589 412.29 443.676 412.277C446.736 412.277 449.076 411.397 450.696 409.638C452.315 407.88 453.128 405.219 453.134 401.656V385.045H455.248V401.656C455.248 405.733 454.226 408.832 452.181 410.953C450.137 413.074 447.279 414.134 443.609 414.134C439.964 414.16 437.129 413.112 435.103 410.991Z" fill="white"/>
<path d="M482.432 386.94H472.021V385.035H494.948V386.94H484.537V413.963H482.432V386.94Z" fill="white"/>
<path d="M512.55 385.045H514.664V413.963H512.55V385.045Z" fill="white"/>
<path d="M541.727 412.249C539.485 411.015 537.621 409.194 536.335 406.982C535.05 404.699 534.375 402.124 534.375 399.505C534.375 396.885 535.05 394.31 536.335 392.027C537.621 389.815 539.485 387.994 541.727 386.76C544.079 385.466 546.729 384.809 549.413 384.855C552.097 384.818 554.744 385.474 557.1 386.76C559.342 387.984 561.207 389.799 562.491 392.008C563.778 394.306 564.453 396.895 564.453 399.528C564.453 402.162 563.778 404.751 562.491 407.048C561.204 409.255 559.34 411.07 557.1 412.297C554.745 413.583 552.097 414.239 549.413 414.202C546.724 414.233 544.074 413.56 541.727 412.249ZM556.014 410.582C557.941 409.503 559.54 407.923 560.643 406.01C561.749 404.02 562.33 401.781 562.33 399.505C562.33 397.228 561.749 394.989 560.643 392.999C559.54 391.086 557.941 389.506 556.014 388.427C553.989 387.345 551.728 386.78 549.432 386.78C547.136 386.78 544.876 387.345 542.85 388.427C540.912 389.497 539.304 391.078 538.202 392.999C537.091 394.987 536.508 397.227 536.508 399.505C536.508 401.782 537.091 404.022 538.202 406.01C539.304 407.931 540.912 409.512 542.85 410.582C544.876 411.664 547.136 412.229 549.432 412.229C551.728 412.229 553.989 411.664 556.014 410.582Z" fill="white"/>
<path d="M607.679 385.045V413.963H605.935L586.228 388.845V413.963H584.123V385.045H585.895L605.564 410.162V385.045H607.679Z" fill="white"/>
<path d="M631.661 413.086C629.966 412.492 628.431 411.514 627.175 410.229L628.127 408.657C629.289 409.826 630.694 410.723 632.242 411.286C633.973 411.959 635.814 412.302 637.671 412.296C640.424 412.296 642.51 411.772 643.91 410.724C644.571 410.27 645.109 409.659 645.477 408.946C645.844 408.233 646.029 407.44 646.015 406.638C646.043 406.072 645.959 405.507 645.768 404.974C645.577 404.441 645.282 403.951 644.901 403.533C644.124 402.739 643.176 402.133 642.129 401.761C640.671 401.241 639.183 400.811 637.671 400.475C635.94 400.071 634.236 399.562 632.566 398.951C631.307 398.468 630.187 397.679 629.308 396.656C628.367 395.483 627.889 394.005 627.965 392.503C627.954 391.133 628.341 389.789 629.08 388.635C629.917 387.39 631.103 386.419 632.49 385.845C634.301 385.104 636.249 384.754 638.205 384.816C639.819 384.812 641.424 385.05 642.967 385.521C644.396 385.94 645.75 386.583 646.977 387.426L646.187 389.121C645.021 388.318 643.735 387.704 642.377 387.302C641.042 386.899 639.656 386.691 638.262 386.683C635.595 386.683 633.566 387.226 632.195 388.292C631.54 388.772 631.01 389.403 630.65 390.131C630.29 390.859 630.111 391.662 630.128 392.474C630.099 393.038 630.183 393.602 630.374 394.134C630.566 394.665 630.861 395.153 631.242 395.57C632.019 396.363 632.967 396.969 634.014 397.341C635.485 397.87 636.986 398.312 638.51 398.665C640.236 399.069 641.934 399.581 643.596 400.199C644.842 400.68 645.955 401.451 646.844 402.447C647.784 403.591 648.26 405.045 648.178 406.524C648.185 407.878 647.791 409.204 647.044 410.334C646.176 411.576 644.964 412.539 643.558 413.105C641.718 413.841 639.747 414.191 637.767 414.134C635.684 414.167 633.614 413.812 631.661 413.086Z" fill="white"/>
<path d="M91.4977 271.031C96.6922 273.25 101.125 276.938 104.252 281.642C107.182 286.571 108.728 292.2 108.728 297.934C108.728 303.669 107.182 309.297 104.252 314.227C101.151 318.959 96.7108 322.66 91.4977 324.857C85.9732 327.327 79.4644 328.559 71.9713 328.553H54.9309V351.88H35.3379V267.278H71.9713C78.6731 267.124 85.3304 268.404 91.4977 271.031ZM84.3063 308.807C87.3606 306.267 88.891 302.66 88.8974 297.987C88.9037 293.313 87.3733 289.668 84.3063 287.052C81.2392 284.512 76.7656 283.242 70.8854 283.242H54.9309V312.617H70.8664C76.7656 312.617 81.2455 311.347 84.3063 308.807Z" fill="white"/>
<path d="M174.125 333.772H134.834L127.338 351.869H107.278L144.998 267.239H164.334L202.177 351.869H181.622L174.125 333.772ZM167.963 318.903L154.542 286.518L141.121 318.903H167.963Z" fill="white"/>
<path d="M211.006 267.278H230.589V335.935H273.024V351.89H211.006V267.278Z" fill="white"/>
<path d="M361.037 351.909L360.913 301.13L336.014 342.965H327.184L302.419 302.226V351.909H284.026V267.278H300.219L331.89 319.876L363.084 267.278H379.163L379.401 351.909H361.037Z" fill="white"/>
<path d="M440.104 321.922V351.907H420.511V321.646L387.754 267.239H408.547L431.15 304.844L453.772 267.277H472.994L440.104 321.922Z" fill="white"/>
<path d="M534.277 351.908L517.96 328.314H499.939V351.889H480.355V267.278H516.989C523.691 267.124 530.348 268.404 536.515 271.031C540.354 272.859 543.764 275.476 546.522 278.711C549.28 281.946 551.325 285.726 552.524 289.806C553.722 293.885 554.046 298.171 553.476 302.384C552.905 306.597 551.452 310.642 549.212 314.255C546.045 318.94 541.565 322.585 536.334 324.733L555.318 351.937L534.277 351.908ZM529.324 287.052C526.257 284.512 521.783 283.242 515.903 283.242H499.939V312.769H515.903C521.777 312.769 526.25 311.48 529.324 308.902C532.397 306.324 533.928 302.695 533.915 298.015C533.915 293.246 532.385 289.592 529.324 287.052Z" fill="white"/>
<path d="M624.945 333.772H585.654L578.158 351.869H558.089L595.808 267.239H615.154L652.997 351.869H632.442L624.945 333.772ZM618.783 318.903L605.362 286.518L591.941 318.903H618.783Z" fill="white"/>
<path d="M373.556 165.787L344.028 137.098L314.501 165.787C314.739 149.404 327.836 137.641 338.447 135.869H301.451C314.11 127.249 325.102 124.258 335.332 127.934L313.262 104.665C331.874 105.112 344.019 121.048 344.019 131.078C344.019 121.048 356.173 105.112 374.775 104.665L352.706 127.934C362.945 124.258 373.937 127.249 386.586 135.869H349.591C360.192 137.641 373.308 149.404 373.546 165.787" fill="white"/>
<path fill-rule="evenodd" clip-rule="evenodd" d="M344.153 77.2608C358.09 77.2578 371.583 82.1669 382.259 91.1255C392.936 100.084 400.114 112.519 402.532 126.245C404.95 139.971 402.452 154.11 395.479 166.178C388.506 178.245 377.503 187.469 364.403 192.228C364.925 192.508 365.369 192.916 365.691 193.413C366.014 193.911 366.206 194.481 366.248 195.073C366.291 195.664 366.184 196.256 365.936 196.795C365.688 197.334 365.308 197.801 364.832 198.153L362.136 196.029C359.745 194.155 357.459 192.152 355.287 190.028C368.358 187.313 379.982 179.906 387.964 169.206C395.946 158.506 399.733 145.254 398.611 131.952C397.489 118.65 391.535 106.219 381.874 97.0074C372.212 87.7956 359.512 82.4405 346.171 81.9535C332.831 81.4664 319.774 85.8811 309.466 94.3638C299.159 102.846 292.314 114.81 290.225 127.995C288.136 141.18 290.947 154.673 298.128 165.927C305.308 177.18 316.361 185.415 329.198 189.076C331.601 192.491 334.216 195.752 337.028 198.839H325.598C324.799 198.856 324.019 198.601 323.384 198.116C322.749 197.631 322.298 196.945 322.104 196.17C321.91 195.395 321.986 194.577 322.318 193.851C322.649 193.124 323.218 192.532 323.931 192.171C310.832 187.412 299.829 178.189 292.856 166.123C285.883 154.056 283.385 139.918 285.801 126.193C288.218 112.467 295.394 100.032 306.069 91.073C316.744 82.1136 330.235 77.2029 344.172 77.2036" fill="white"/>
<path d="M325.578 202.438H362.726C363.66 202.438 364.557 202.81 365.218 203.471C365.879 204.132 366.25 205.028 366.25 205.963C366.25 206.897 365.879 207.794 365.218 208.455C364.557 209.116 363.66 209.487 362.726 209.487H325.578C325.115 209.487 324.657 209.396 324.229 209.219C323.802 209.042 323.413 208.782 323.086 208.455C322.759 208.127 322.499 207.739 322.322 207.311C322.145 206.884 322.054 206.425 322.054 205.963C322.054 205.5 322.145 205.042 322.322 204.614C322.499 204.186 322.759 203.798 323.086 203.471C323.413 203.143 323.802 202.884 324.229 202.707C324.657 202.53 325.115 202.438 325.578 202.438Z" fill="white"/>
<path d="M325.578 213.078H362.726C363.66 213.078 364.557 213.449 365.218 214.11C365.879 214.771 366.25 215.667 366.25 216.602C366.25 217.537 365.879 218.433 365.218 219.094C364.557 219.755 363.66 220.126 362.726 220.126H325.578C324.643 220.126 323.747 219.755 323.086 219.094C322.425 218.433 322.054 217.537 322.054 216.602C322.054 215.667 322.425 214.771 323.086 214.11C323.747 213.449 324.643 213.078 325.578 213.078Z" fill="white"/>
<path d="M335.828 223.708H352.449C353.384 223.708 354.28 224.079 354.941 224.74C355.602 225.401 355.974 226.297 355.974 227.232C355.974 228.167 355.602 229.063 354.941 229.724C354.28 230.385 353.384 230.756 352.449 230.756H335.828C334.893 230.756 333.997 230.385 333.336 229.724C332.675 229.063 332.304 228.167 332.304 227.232C332.304 226.297 332.675 225.401 333.336 224.74C333.997 224.079 334.893 223.708 335.828 223.708Z" fill="white"/>
</svg>
