<svg width="10" height="17" viewBox="0 0 10 17" fill="none" xmlns="http://www.w3.org/2000/svg">
<path d="M2.50002 0.234375C2.01379 0.234375 1.54747 0.427529 1.20366 0.771346C0.859841 1.11516 0.666687 1.58148 0.666687 2.06771V14.401C0.666687 14.8873 0.859841 15.3536 1.20366 15.6974C1.54747 16.0412 2.01379 16.2344 2.50002 16.2344H8.16669C8.65292 16.2344 9.11923 16.0412 9.46305 15.6974C9.80687 15.3536 10 14.8873 10 14.401V2.06771C10 1.58148 9.80687 1.11516 9.46305 0.771346C9.11923 0.427529 8.65292 0.234375 8.16669 0.234375H2.50002ZM1.66669 2.06771C1.66669 1.60771 2.04002 1.23438 2.50002 1.23438H8.16669C8.62669 1.23438 9.00002 1.60771 9.00002 2.06771V14.401C9.00002 14.861 8.62669 15.2344 8.16669 15.2344H2.50002C2.04002 15.2344 1.66669 14.861 1.66669 14.401V2.06771ZM4.16669 12.901C4.03408 12.901 3.9069 12.9537 3.81313 13.0475C3.71937 13.1413 3.66669 13.2684 3.66669 13.401C3.66669 13.5337 3.71937 13.6608 3.81313 13.7546C3.9069 13.8484 4.03408 13.901 4.16669 13.901H6.50002C6.63263 13.901 6.75981 13.8484 6.85357 13.7546C6.94734 13.6608 7.00002 13.5337 7.00002 13.401C7.00002 13.2684 6.94734 13.1413 6.85357 13.0475C6.75981 12.9537 6.63263 12.901 6.50002 12.901H4.16669Z" fill="white"/>
</svg>
