<svg width="88" height="107" viewBox="0 0 88 107" fill="none" xmlns="http://www.w3.org/2000/svg">
<path d="M87.9364 107V92.6344L68.9364 80.8276L49.9364 92.6344L49.9364 107L68.9364 95.1932L87.9364 107Z" fill="#F1F8F0"/>
<path d="M87.9364 71.2206V85.5862L68.9364 73.7794L49.9364 85.5862L49.9364 71.2206L68.9364 59.4138L87.9364 71.2206Z" fill="#F1F8F0"/>
<path d="M87.9364 49.8068V64.1724L68.9364 52.3656L49.9364 64.1724L49.9364 49.8068L68.9364 38L87.9364 49.8068Z" fill="#F1F8F0"/>
<path d="M3.46421 3.15063L1.9364 2.20124V4V18.3656V18.9216L2.4086 19.215L21.4086 31.0218L21.9364 31.3498L22.4642 31.0218L41.4642 19.215L41.9364 18.9216V18.3656L41.9364 4L41.9364 2.20124L40.4086 3.15063L21.9364 14.6294L3.46421 3.15063ZM1.9364 39.7794V40.3354L2.4086 40.6288L21.4086 52.4356L21.9364 52.7636L22.4642 52.4356L41.4642 40.6288L41.9364 40.3354V39.7794L41.9364 25.4138L41.9364 23.615L40.4086 24.5644L21.9364 36.0432L3.46421 24.5644L1.9364 23.615V25.4138V39.7794ZM1.9364 61.1932V61.7492L2.4086 62.0426L21.4086 73.8494L21.9364 74.1773L22.4642 73.8494L41.4642 62.0426L41.9364 61.7492L41.9364 61.1932L41.9364 46.8276L41.9364 45.0288L40.4086 45.9782L21.9364 57.457L3.46421 45.9782L1.9364 45.0288V46.8276V61.1932Z" fill="white" stroke="#1F8B5D" stroke-width="2"/>
</svg>
