<svg width="18" height="22" viewBox="0 0 18 22" fill="none" xmlns="http://www.w3.org/2000/svg">
<path d="M9.06206 9.06099H9.06218C10.1422 9.05989 11.1777 8.63029 11.9413 7.8665C12.7049 7.10271 13.1342 6.06713 13.135 4.9871V4.98699C13.135 4.18118 12.8961 3.39348 12.4484 2.72349C12.0007 2.0535 11.3643 1.53133 10.6198 1.22301C9.87535 0.914685 9.05615 0.834066 8.26584 0.991347C7.47554 1.14863 6.74962 1.53674 6.1799 2.1066C5.61019 2.67647 5.22226 3.40248 5.06518 4.19283C4.9081 4.98318 4.98893 5.80235 5.29744 6.54676C5.60595 7.29117 6.12828 7.92737 6.79839 8.3749C7.46849 8.82243 8.25626 9.0612 9.06206 9.06099ZM3.62402 21.087H14.5C15.2028 21.087 15.8769 20.8078 16.3739 20.3108C16.8708 19.8139 17.15 19.1398 17.15 18.437V17.61C17.15 13.5427 13.5077 10.26 9.06202 10.26C4.61627 10.26 0.974023 13.5447 0.974023 17.61V18.437C0.974023 19.1398 1.25322 19.8139 1.75019 20.3108C2.24716 20.8078 2.9212 21.087 3.62402 21.087ZM2.27402 17.612C2.27402 14.2903 5.30254 11.562 9.06202 11.562C12.8215 11.562 15.85 14.2903 15.85 17.61V18.439C15.85 18.797 15.7078 19.1404 15.4546 19.3936C15.2014 19.6468 14.8581 19.789 14.5 19.789H3.62402C3.26598 19.789 2.9226 19.6468 2.66943 19.3936C2.41626 19.1404 2.27402 18.797 2.27402 18.439V17.612ZM7.52046 2.6811C7.97676 2.37638 8.51318 2.21382 9.06187 2.21399C9.79712 2.21474 10.502 2.50716 11.022 3.02706C11.5419 3.54696 11.8343 4.25189 11.835 4.98714C11.8352 5.53583 11.6726 6.07225 11.3679 6.52855C11.0632 6.98488 10.6299 7.34057 10.123 7.55065C9.61611 7.76073 9.05827 7.81574 8.52008 7.70873C7.98188 7.60173 7.48752 7.33751 7.09951 6.9495C6.7115 6.5615 6.44728 6.06713 6.34028 5.52894C6.23327 4.99075 6.28829 4.43291 6.49836 3.92599C6.70844 3.41907 7.06414 2.98584 7.52046 2.6811Z" fill="white" stroke="white" stroke-width="0.3"/>
</svg>
