<svg width="667" height="625" viewBox="0 0 667 625" fill="none" xmlns="http://www.w3.org/2000/svg">
<g filter="url(#filter0_d_65_66)">
<circle cx="329.696" cy="123.943" r="110" transform="rotate(-1.46414 329.696 123.943)" fill="#034C45"/>
<circle cx="329.696" cy="123.943" r="112" transform="rotate(-1.46414 329.696 123.943)" stroke="white" stroke-width="4"/>
</g>
<g filter="url(#filter1_d_65_66)">
<circle cx="543.335" cy="273.785" r="110" transform="rotate(-1.46414 543.335 273.785)" fill="#1F8B5D"/>
<circle cx="543.335" cy="273.785" r="112" transform="rotate(-1.46414 543.335 273.785)" stroke="white" stroke-width="4"/>
</g>
<g filter="url(#filter2_d_65_66)">
<circle cx="464.39" cy="501.625" r="110" transform="rotate(-1.46414 464.39 501.625)" fill="#1B3333"/>
<circle cx="464.39" cy="501.625" r="112" transform="rotate(-1.46414 464.39 501.625)" stroke="white" stroke-width="4"/>
</g>
<g filter="url(#filter3_d_65_66)">
<circle cx="217.317" cy="501.938" r="110" transform="rotate(-1.46414 217.317 501.938)" fill="#36534A"/>
<circle cx="217.317" cy="501.938" r="112" transform="rotate(-1.46414 217.317 501.938)" stroke="white" stroke-width="4"/>
</g>
<g filter="url(#filter4_d_65_66)">
<circle cx="123.466" cy="284.006" r="110" transform="rotate(-1.46414 123.466 284.006)" fill="#52704C"/>
<circle cx="123.466" cy="284.006" r="112" transform="rotate(-1.46414 123.466 284.006)" stroke="white" stroke-width="4"/>
</g>
<g filter="url(#filter5_d_65_66)">
<circle cx="329.421" cy="313.095" r="159" stroke="white" stroke-width="8" shape-rendering="crispEdges"/>
</g>
<path d="M242.22 115.291C240.96 115.291 239.82 115.015 238.8 114.463C237.792 113.899 237 113.131 236.424 112.159C235.848 111.175 235.56 110.071 235.56 108.847C235.56 107.623 235.848 106.525 236.424 105.553C237 104.569 237.798 103.801 238.818 103.249C239.838 102.685 240.978 102.403 242.238 102.403C243.222 102.403 244.122 102.571 244.938 102.907C245.754 103.231 246.45 103.717 247.026 104.365L245.856 105.499C244.908 104.503 243.726 104.005 242.31 104.005C241.374 104.005 240.528 104.215 239.772 104.635C239.016 105.055 238.422 105.637 237.99 106.381C237.57 107.113 237.36 107.935 237.36 108.847C237.36 109.759 237.57 110.587 237.99 111.331C238.422 112.063 239.016 112.639 239.772 113.059C240.528 113.479 241.374 113.689 242.31 113.689C243.714 113.689 244.896 113.185 245.856 112.177L247.026 113.311C246.45 113.959 245.748 114.451 244.92 114.787C244.104 115.123 243.204 115.291 242.22 115.291ZM253.023 115.255C252.075 115.255 251.223 115.045 250.467 114.625C249.711 114.205 249.117 113.629 248.685 112.897C248.265 112.153 248.055 111.313 248.055 110.377C248.055 109.441 248.265 108.607 248.685 107.875C249.117 107.131 249.711 106.555 250.467 106.147C251.223 105.727 252.075 105.517 253.023 105.517C253.971 105.517 254.817 105.727 255.561 106.147C256.317 106.555 256.905 107.131 257.325 107.875C257.757 108.607 257.973 109.441 257.973 110.377C257.973 111.313 257.757 112.153 257.325 112.897C256.905 113.629 256.317 114.205 255.561 114.625C254.817 115.045 253.971 115.255 253.023 115.255ZM253.023 113.743C253.635 113.743 254.181 113.605 254.661 113.329C255.153 113.041 255.537 112.645 255.813 112.141C256.089 111.625 256.227 111.037 256.227 110.377C256.227 109.717 256.089 109.135 255.813 108.631C255.537 108.115 255.153 107.719 254.661 107.443C254.181 107.167 253.635 107.029 253.023 107.029C252.411 107.029 251.859 107.167 251.367 107.443C250.887 107.719 250.503 108.115 250.215 108.631C249.939 109.135 249.801 109.717 249.801 110.377C249.801 111.037 249.939 111.625 250.215 112.141C250.503 112.645 250.887 113.041 251.367 113.329C251.859 113.605 252.411 113.743 253.023 113.743ZM265.457 105.517C266.669 105.517 267.629 105.871 268.337 106.579C269.057 107.275 269.417 108.301 269.417 109.657V115.147H267.689V109.855C267.689 108.931 267.467 108.235 267.023 107.767C266.579 107.299 265.943 107.065 265.115 107.065C264.179 107.065 263.441 107.341 262.901 107.893C262.361 108.433 262.091 109.213 262.091 110.233V115.147H260.363V105.607H262.019V107.047C262.367 106.555 262.835 106.177 263.423 105.913C264.023 105.649 264.701 105.517 265.457 105.517ZM275.351 115.255C274.571 115.255 273.821 115.153 273.101 114.949C272.381 114.733 271.817 114.463 271.409 114.139L272.129 112.771C272.549 113.071 273.059 113.311 273.659 113.491C274.259 113.671 274.865 113.761 275.477 113.761C276.989 113.761 277.745 113.329 277.745 112.465C277.745 112.177 277.643 111.949 277.439 111.781C277.235 111.613 276.977 111.493 276.665 111.421C276.365 111.337 275.933 111.247 275.369 111.151C274.601 111.031 273.971 110.893 273.479 110.737C272.999 110.581 272.585 110.317 272.237 109.945C271.889 109.573 271.715 109.051 271.715 108.379C271.715 107.515 272.075 106.825 272.795 106.309C273.515 105.781 274.481 105.517 275.693 105.517C276.329 105.517 276.965 105.595 277.601 105.751C278.237 105.907 278.759 106.117 279.167 106.381L278.429 107.749C277.649 107.245 276.731 106.993 275.675 106.993C274.943 106.993 274.385 107.113 274.001 107.353C273.617 107.593 273.425 107.911 273.425 108.307C273.425 108.619 273.533 108.865 273.749 109.045C273.965 109.225 274.229 109.357 274.541 109.441C274.865 109.525 275.315 109.621 275.891 109.729C276.659 109.861 277.277 110.005 277.745 110.161C278.225 110.305 278.633 110.557 278.969 110.917C279.305 111.277 279.473 111.781 279.473 112.429C279.473 113.293 279.101 113.983 278.357 114.499C277.625 115.003 276.623 115.255 275.351 115.255ZM290.525 105.607V115.147H288.887V113.707C288.539 114.199 288.077 114.583 287.501 114.859C286.937 115.123 286.319 115.255 285.647 115.255C284.375 115.255 283.373 114.907 282.641 114.211C281.909 113.503 281.543 112.465 281.543 111.097V105.607H283.271V110.899C283.271 111.823 283.493 112.525 283.937 113.005C284.381 113.473 285.017 113.707 285.845 113.707C286.757 113.707 287.477 113.431 288.005 112.879C288.533 112.327 288.797 111.547 288.797 110.539V105.607H290.525ZM293.814 101.791H295.542V115.147H293.814V101.791ZM304.434 114.589C304.182 114.805 303.87 114.973 303.498 115.093C303.126 115.201 302.742 115.255 302.346 115.255C301.386 115.255 300.642 114.997 300.114 114.481C299.586 113.965 299.322 113.227 299.322 112.267V107.029H297.702V105.607H299.322V103.519H301.05V105.607H303.786V107.029H301.05V112.195C301.05 112.711 301.176 113.107 301.428 113.383C301.692 113.659 302.064 113.797 302.544 113.797C303.072 113.797 303.522 113.647 303.894 113.347L304.434 114.589ZM309.997 105.517C311.317 105.517 312.325 105.841 313.021 106.489C313.729 107.137 314.083 108.103 314.083 109.387V115.147H312.445V113.887C312.157 114.331 311.743 114.673 311.203 114.913C310.675 115.141 310.045 115.255 309.313 115.255C308.245 115.255 307.387 114.997 306.739 114.481C306.103 113.965 305.785 113.287 305.785 112.447C305.785 111.607 306.091 110.935 306.703 110.431C307.315 109.915 308.287 109.657 309.619 109.657H312.355V109.315C312.355 108.571 312.139 108.001 311.707 107.605C311.275 107.209 310.639 107.011 309.799 107.011C309.235 107.011 308.683 107.107 308.143 107.299C307.603 107.479 307.147 107.725 306.775 108.037L306.055 106.741C306.547 106.345 307.135 106.045 307.819 105.841C308.503 105.625 309.229 105.517 309.997 105.517ZM309.601 113.923C310.261 113.923 310.831 113.779 311.311 113.491C311.791 113.191 312.139 112.771 312.355 112.231V110.899H309.691C308.227 110.899 307.495 111.391 307.495 112.375C307.495 112.855 307.681 113.233 308.053 113.509C308.425 113.785 308.941 113.923 309.601 113.923ZM322.645 114.589C322.393 114.805 322.081 114.973 321.709 115.093C321.337 115.201 320.953 115.255 320.557 115.255C319.597 115.255 318.853 114.997 318.325 114.481C317.797 113.965 317.533 113.227 317.533 112.267V107.029H315.913V105.607H317.533V103.519H319.261V105.607H321.997V107.029H319.261V112.195C319.261 112.711 319.387 113.107 319.639 113.383C319.903 113.659 320.275 113.797 320.755 113.797C321.283 113.797 321.733 113.647 322.105 113.347L322.645 114.589ZM324.734 105.607H326.462V115.147H324.734V105.607ZM325.598 103.771C325.262 103.771 324.98 103.663 324.752 103.447C324.536 103.231 324.428 102.967 324.428 102.655C324.428 102.343 324.536 102.079 324.752 101.863C324.98 101.635 325.262 101.521 325.598 101.521C325.934 101.521 326.21 101.629 326.426 101.845C326.654 102.049 326.768 102.307 326.768 102.619C326.768 102.943 326.654 103.219 326.426 103.447C326.21 103.663 325.934 103.771 325.598 103.771ZM333.847 115.255C332.899 115.255 332.047 115.045 331.291 114.625C330.535 114.205 329.941 113.629 329.509 112.897C329.089 112.153 328.879 111.313 328.879 110.377C328.879 109.441 329.089 108.607 329.509 107.875C329.941 107.131 330.535 106.555 331.291 106.147C332.047 105.727 332.899 105.517 333.847 105.517C334.795 105.517 335.641 105.727 336.385 106.147C337.141 106.555 337.729 107.131 338.149 107.875C338.581 108.607 338.797 109.441 338.797 110.377C338.797 111.313 338.581 112.153 338.149 112.897C337.729 113.629 337.141 114.205 336.385 114.625C335.641 115.045 334.795 115.255 333.847 115.255ZM333.847 113.743C334.459 113.743 335.005 113.605 335.485 113.329C335.977 113.041 336.361 112.645 336.637 112.141C336.913 111.625 337.051 111.037 337.051 110.377C337.051 109.717 336.913 109.135 336.637 108.631C336.361 108.115 335.977 107.719 335.485 107.443C335.005 107.167 334.459 107.029 333.847 107.029C333.235 107.029 332.683 107.167 332.191 107.443C331.711 107.719 331.327 108.115 331.039 108.631C330.763 109.135 330.625 109.717 330.625 110.377C330.625 111.037 330.763 111.625 331.039 112.141C331.327 112.645 331.711 113.041 332.191 113.329C332.683 113.605 333.235 113.743 333.847 113.743ZM346.281 105.517C347.493 105.517 348.453 105.871 349.161 106.579C349.881 107.275 350.241 108.301 350.241 109.657V115.147H348.513V109.855C348.513 108.931 348.291 108.235 347.847 107.767C347.403 107.299 346.767 107.065 345.939 107.065C345.003 107.065 344.265 107.341 343.725 107.893C343.185 108.433 342.915 109.213 342.915 110.233V115.147H341.187V105.607H342.843V107.047C343.191 106.555 343.659 106.177 344.247 105.913C344.847 105.649 345.525 105.517 346.281 105.517ZM362.197 115.291C361.249 115.291 360.331 115.147 359.443 114.859C358.567 114.559 357.877 114.175 357.373 113.707L358.039 112.303C358.519 112.735 359.131 113.089 359.875 113.365C360.631 113.629 361.405 113.761 362.197 113.761C363.241 113.761 364.021 113.587 364.537 113.239C365.053 112.879 365.311 112.405 365.311 111.817C365.311 111.385 365.167 111.037 364.879 110.773C364.603 110.497 364.255 110.287 363.835 110.143C363.427 109.999 362.845 109.837 362.089 109.657C361.141 109.429 360.373 109.201 359.785 108.973C359.209 108.745 358.711 108.397 358.291 107.929C357.883 107.449 357.679 106.807 357.679 106.003C357.679 105.331 357.853 104.725 358.201 104.185C358.561 103.645 359.101 103.213 359.821 102.889C360.541 102.565 361.435 102.403 362.503 102.403C363.247 102.403 363.979 102.499 364.699 102.691C365.419 102.883 366.037 103.159 366.553 103.519L365.959 104.959C365.431 104.623 364.867 104.371 364.267 104.203C363.667 104.023 363.079 103.933 362.503 103.933C361.483 103.933 360.715 104.119 360.199 104.491C359.695 104.863 359.443 105.343 359.443 105.931C359.443 106.363 359.587 106.717 359.875 106.993C360.163 107.257 360.517 107.467 360.937 107.623C361.369 107.767 361.951 107.923 362.683 108.091C363.631 108.319 364.393 108.547 364.969 108.775C365.545 109.003 366.037 109.351 366.445 109.819C366.865 110.287 367.075 110.917 367.075 111.709C367.075 112.369 366.895 112.975 366.535 113.527C366.175 114.067 365.629 114.499 364.897 114.823C364.165 115.135 363.265 115.291 362.197 115.291ZM378.075 110.431C378.075 110.563 378.063 110.737 378.039 110.953H370.299C370.407 111.793 370.773 112.471 371.397 112.987C372.033 113.491 372.819 113.743 373.755 113.743C374.895 113.743 375.813 113.359 376.509 112.591L377.463 113.707C377.031 114.211 376.491 114.595 375.843 114.859C375.207 115.123 374.493 115.255 373.701 115.255C372.693 115.255 371.799 115.051 371.019 114.643C370.239 114.223 369.633 113.641 369.201 112.897C368.781 112.153 368.571 111.313 368.571 110.377C368.571 109.453 368.775 108.619 369.183 107.875C369.603 107.131 370.173 106.555 370.893 106.147C371.625 105.727 372.447 105.517 373.359 105.517C374.271 105.517 375.081 105.727 375.789 106.147C376.509 106.555 377.067 107.131 377.463 107.875C377.871 108.619 378.075 109.471 378.075 110.431ZM373.359 106.975C372.531 106.975 371.835 107.227 371.271 107.731C370.719 108.235 370.395 108.895 370.299 109.711H376.419C376.323 108.907 375.993 108.253 375.429 107.749C374.877 107.233 374.187 106.975 373.359 106.975ZM382.13 107.209C382.43 106.657 382.874 106.237 383.462 105.949C384.05 105.661 384.764 105.517 385.604 105.517V107.191C385.508 107.179 385.376 107.173 385.208 107.173C384.272 107.173 383.534 107.455 382.994 108.019C382.466 108.571 382.202 109.363 382.202 110.395V115.147H380.474V105.607H382.13V107.209ZM396.563 105.607L392.387 115.147H390.623L386.447 105.607H388.247L391.523 113.257L394.871 105.607H396.563ZM398.176 105.607H399.904V115.147H398.176V105.607ZM399.04 103.771C398.704 103.771 398.422 103.663 398.194 103.447C397.978 103.231 397.87 102.967 397.87 102.655C397.87 102.343 397.978 102.079 398.194 101.863C398.422 101.635 398.704 101.521 399.04 101.521C399.376 101.521 399.652 101.629 399.868 101.845C400.096 102.049 400.21 102.307 400.21 102.619C400.21 102.943 400.096 103.219 399.868 103.447C399.652 103.663 399.376 103.771 399.04 103.771ZM407.361 115.255C406.389 115.255 405.519 115.045 404.751 114.625C403.995 114.205 403.401 113.629 402.969 112.897C402.537 112.153 402.321 111.313 402.321 110.377C402.321 109.441 402.537 108.607 402.969 107.875C403.401 107.131 403.995 106.555 404.751 106.147C405.519 105.727 406.389 105.517 407.361 105.517C408.225 105.517 408.993 105.691 409.665 106.039C410.349 106.387 410.877 106.891 411.249 107.551L409.935 108.397C409.635 107.941 409.263 107.599 408.819 107.371C408.375 107.143 407.883 107.029 407.343 107.029C406.719 107.029 406.155 107.167 405.651 107.443C405.159 107.719 404.769 108.115 404.481 108.631C404.205 109.135 404.067 109.717 404.067 110.377C404.067 111.049 404.205 111.643 404.481 112.159C404.769 112.663 405.159 113.053 405.651 113.329C406.155 113.605 406.719 113.743 407.343 113.743C407.883 113.743 408.375 113.629 408.819 113.401C409.263 113.173 409.635 112.831 409.935 112.375L411.249 113.203C410.877 113.863 410.349 114.373 409.665 114.733C408.993 115.081 408.225 115.255 407.361 115.255ZM421.967 110.431C421.967 110.563 421.955 110.737 421.931 110.953H414.191C414.299 111.793 414.665 112.471 415.289 112.987C415.925 113.491 416.711 113.743 417.647 113.743C418.787 113.743 419.705 113.359 420.401 112.591L421.355 113.707C420.923 114.211 420.383 114.595 419.735 114.859C419.099 115.123 418.385 115.255 417.593 115.255C416.585 115.255 415.691 115.051 414.911 114.643C414.131 114.223 413.525 113.641 413.093 112.897C412.673 112.153 412.463 111.313 412.463 110.377C412.463 109.453 412.667 108.619 413.075 107.875C413.495 107.131 414.065 106.555 414.785 106.147C415.517 105.727 416.339 105.517 417.251 105.517C418.163 105.517 418.973 105.727 419.681 106.147C420.401 106.555 420.959 107.131 421.355 107.875C421.763 108.619 421.967 109.471 421.967 110.431ZM417.251 106.975C416.423 106.975 415.727 107.227 415.163 107.731C414.611 108.235 414.287 108.895 414.191 109.711H420.311C420.215 108.907 419.885 108.253 419.321 107.749C418.769 107.233 418.079 106.975 417.251 106.975ZM427.103 115.255C426.323 115.255 425.573 115.153 424.853 114.949C424.133 114.733 423.569 114.463 423.161 114.139L423.881 112.771C424.301 113.071 424.811 113.311 425.411 113.491C426.011 113.671 426.617 113.761 427.229 113.761C428.741 113.761 429.497 113.329 429.497 112.465C429.497 112.177 429.395 111.949 429.191 111.781C428.987 111.613 428.729 111.493 428.417 111.421C428.117 111.337 427.685 111.247 427.121 111.151C426.353 111.031 425.723 110.893 425.231 110.737C424.751 110.581 424.337 110.317 423.989 109.945C423.641 109.573 423.467 109.051 423.467 108.379C423.467 107.515 423.827 106.825 424.547 106.309C425.267 105.781 426.233 105.517 427.445 105.517C428.081 105.517 428.717 105.595 429.353 105.751C429.989 105.907 430.511 106.117 430.919 106.381L430.181 107.749C429.401 107.245 428.483 106.993 427.427 106.993C426.695 106.993 426.137 107.113 425.753 107.353C425.369 107.593 425.177 107.911 425.177 108.307C425.177 108.619 425.285 108.865 425.501 109.045C425.717 109.225 425.981 109.357 426.293 109.441C426.617 109.525 427.067 109.621 427.643 109.729C428.411 109.861 429.029 110.005 429.497 110.161C429.977 110.305 430.385 110.557 430.721 110.917C431.057 111.277 431.225 111.781 431.225 112.429C431.225 113.293 430.853 113.983 430.109 114.499C429.377 115.003 428.375 115.255 427.103 115.255Z" fill="white"/>
<path d="M513.03 284.76L513.012 275.58L508.458 283.23H507.63L503.076 275.634V284.76H501.348V272.16H502.824L508.08 281.016L513.264 272.16H514.74L514.758 284.76H513.03ZM521.761 275.13C523.081 275.13 524.089 275.454 524.785 276.102C525.493 276.75 525.847 277.716 525.847 279V284.76H524.209V283.5C523.921 283.944 523.507 284.286 522.967 284.526C522.439 284.754 521.809 284.868 521.077 284.868C520.009 284.868 519.151 284.61 518.503 284.094C517.867 283.578 517.549 282.9 517.549 282.06C517.549 281.22 517.855 280.548 518.467 280.044C519.079 279.528 520.051 279.27 521.383 279.27H524.119V278.928C524.119 278.184 523.903 277.614 523.471 277.218C523.039 276.822 522.403 276.624 521.563 276.624C520.999 276.624 520.447 276.72 519.907 276.912C519.367 277.092 518.911 277.338 518.539 277.65L517.819 276.354C518.311 275.958 518.899 275.658 519.583 275.454C520.267 275.238 520.993 275.13 521.761 275.13ZM521.365 283.536C522.025 283.536 522.595 283.392 523.075 283.104C523.555 282.804 523.903 282.384 524.119 281.844V280.512H521.455C519.991 280.512 519.259 281.004 519.259 281.988C519.259 282.468 519.445 282.846 519.817 283.122C520.189 283.398 520.705 283.536 521.365 283.536ZM529.045 275.22H530.773V284.76H529.045V275.22ZM529.909 273.384C529.573 273.384 529.291 273.276 529.063 273.06C528.847 272.844 528.739 272.58 528.739 272.268C528.739 271.956 528.847 271.692 529.063 271.476C529.291 271.248 529.573 271.134 529.909 271.134C530.245 271.134 530.521 271.242 530.737 271.458C530.965 271.662 531.079 271.92 531.079 272.232C531.079 272.556 530.965 272.832 530.737 273.06C530.521 273.276 530.245 273.384 529.909 273.384ZM539.167 275.13C540.379 275.13 541.339 275.484 542.047 276.192C542.767 276.888 543.127 277.914 543.127 279.27V284.76H541.399V279.468C541.399 278.544 541.177 277.848 540.733 277.38C540.289 276.912 539.653 276.678 538.825 276.678C537.889 276.678 537.151 276.954 536.611 277.506C536.071 278.046 535.801 278.826 535.801 279.846V284.76H534.073V275.22H535.729V276.66C536.077 276.168 536.545 275.79 537.133 275.526C537.733 275.262 538.411 275.13 539.167 275.13ZM551.688 284.202C551.436 284.418 551.124 284.586 550.752 284.706C550.38 284.814 549.996 284.868 549.6 284.868C548.64 284.868 547.896 284.61 547.368 284.094C546.84 283.578 546.576 282.84 546.576 281.88V276.642H544.956V275.22H546.576V273.132H548.304V275.22H551.04V276.642H548.304V281.808C548.304 282.324 548.43 282.72 548.682 282.996C548.946 283.272 549.318 283.41 549.798 283.41C550.326 283.41 550.776 283.26 551.148 282.96L551.688 284.202ZM562.083 280.044C562.083 280.176 562.071 280.35 562.047 280.566H554.307C554.415 281.406 554.781 282.084 555.405 282.6C556.041 283.104 556.827 283.356 557.763 283.356C558.903 283.356 559.821 282.972 560.517 282.204L561.471 283.32C561.039 283.824 560.499 284.208 559.851 284.472C559.215 284.736 558.501 284.868 557.709 284.868C556.701 284.868 555.807 284.664 555.027 284.256C554.247 283.836 553.641 283.254 553.209 282.51C552.789 281.766 552.579 280.926 552.579 279.99C552.579 279.066 552.783 278.232 553.191 277.488C553.611 276.744 554.181 276.168 554.901 275.76C555.633 275.34 556.455 275.13 557.367 275.13C558.279 275.13 559.089 275.34 559.797 275.76C560.517 276.168 561.075 276.744 561.471 277.488C561.879 278.232 562.083 279.084 562.083 280.044ZM557.367 276.588C556.539 276.588 555.843 276.84 555.279 277.344C554.727 277.848 554.403 278.508 554.307 279.324H560.427C560.331 278.52 560.001 277.866 559.437 277.362C558.885 276.846 558.195 276.588 557.367 276.588ZM569.577 275.13C570.789 275.13 571.749 275.484 572.457 276.192C573.177 276.888 573.537 277.914 573.537 279.27V284.76H571.809V279.468C571.809 278.544 571.587 277.848 571.143 277.38C570.699 276.912 570.063 276.678 569.235 276.678C568.299 276.678 567.561 276.954 567.021 277.506C566.481 278.046 566.211 278.826 566.211 279.846V284.76H564.483V275.22H566.139V276.66C566.487 276.168 566.955 275.79 567.543 275.526C568.143 275.262 568.821 275.13 569.577 275.13ZM580.209 275.13C581.529 275.13 582.537 275.454 583.233 276.102C583.941 276.75 584.295 277.716 584.295 279V284.76H582.657V283.5C582.369 283.944 581.955 284.286 581.415 284.526C580.887 284.754 580.257 284.868 579.525 284.868C578.457 284.868 577.599 284.61 576.951 284.094C576.315 283.578 575.997 282.9 575.997 282.06C575.997 281.22 576.303 280.548 576.915 280.044C577.527 279.528 578.499 279.27 579.831 279.27H582.567V278.928C582.567 278.184 582.351 277.614 581.919 277.218C581.487 276.822 580.851 276.624 580.011 276.624C579.447 276.624 578.895 276.72 578.355 276.912C577.815 277.092 577.359 277.338 576.987 277.65L576.267 276.354C576.759 275.958 577.347 275.658 578.031 275.454C578.715 275.238 579.441 275.13 580.209 275.13ZM579.813 283.536C580.473 283.536 581.043 283.392 581.523 283.104C582.003 282.804 582.351 282.384 582.567 281.844V280.512H579.903C578.439 280.512 577.707 281.004 577.707 281.988C577.707 282.468 577.893 282.846 578.265 283.122C578.637 283.398 579.153 283.536 579.813 283.536ZM592.586 275.13C593.798 275.13 594.758 275.484 595.466 276.192C596.186 276.888 596.546 277.914 596.546 279.27V284.76H594.818V279.468C594.818 278.544 594.596 277.848 594.152 277.38C593.708 276.912 593.072 276.678 592.244 276.678C591.308 276.678 590.57 276.954 590.03 277.506C589.49 278.046 589.22 278.826 589.22 279.846V284.76H587.492V275.22H589.148V276.66C589.496 276.168 589.964 275.79 590.552 275.526C591.152 275.262 591.83 275.13 592.586 275.13ZM603.955 284.868C602.983 284.868 602.113 284.658 601.345 284.238C600.589 283.818 599.995 283.242 599.563 282.51C599.131 281.766 598.915 280.926 598.915 279.99C598.915 279.054 599.131 278.22 599.563 277.488C599.995 276.744 600.589 276.168 601.345 275.76C602.113 275.34 602.983 275.13 603.955 275.13C604.819 275.13 605.587 275.304 606.259 275.652C606.943 276 607.471 276.504 607.843 277.164L606.529 278.01C606.229 277.554 605.857 277.212 605.413 276.984C604.969 276.756 604.477 276.642 603.937 276.642C603.313 276.642 602.749 276.78 602.245 277.056C601.753 277.332 601.363 277.728 601.075 278.244C600.799 278.748 600.661 279.33 600.661 279.99C600.661 280.662 600.799 281.256 601.075 281.772C601.363 282.276 601.753 282.666 602.245 282.942C602.749 283.218 603.313 283.356 603.937 283.356C604.477 283.356 604.969 283.242 605.413 283.014C605.857 282.786 606.229 282.444 606.529 281.988L607.843 282.816C607.471 283.476 606.943 283.986 606.259 284.346C605.587 284.694 604.819 284.868 603.955 284.868ZM618.562 280.044C618.562 280.176 618.55 280.35 618.526 280.566H610.786C610.894 281.406 611.26 282.084 611.884 282.6C612.52 283.104 613.306 283.356 614.242 283.356C615.382 283.356 616.3 282.972 616.996 282.204L617.95 283.32C617.518 283.824 616.978 284.208 616.33 284.472C615.694 284.736 614.98 284.868 614.188 284.868C613.18 284.868 612.286 284.664 611.506 284.256C610.726 283.836 610.12 283.254 609.688 282.51C609.268 281.766 609.058 280.926 609.058 279.99C609.058 279.066 609.262 278.232 609.67 277.488C610.09 276.744 610.66 276.168 611.38 275.76C612.112 275.34 612.934 275.13 613.846 275.13C614.758 275.13 615.568 275.34 616.276 275.76C616.996 276.168 617.554 276.744 617.95 277.488C618.358 278.232 618.562 279.084 618.562 280.044ZM613.846 276.588C613.018 276.588 612.322 276.84 611.758 277.344C611.206 277.848 610.882 278.508 610.786 279.324H616.906C616.81 278.52 616.48 277.866 615.916 277.362C615.364 276.846 614.674 276.588 613.846 276.588ZM635.263 284.958L633.589 283.284C632.473 284.364 631.069 284.904 629.377 284.904C628.537 284.904 627.781 284.766 627.109 284.49C626.437 284.214 625.909 283.83 625.525 283.338C625.153 282.834 624.967 282.264 624.967 281.628C624.967 280.86 625.201 280.182 625.669 279.594C626.149 278.994 626.935 278.382 628.027 277.758C627.475 277.206 627.085 276.708 626.857 276.264C626.629 275.82 626.515 275.358 626.515 274.878C626.515 274.026 626.821 273.342 627.433 272.826C628.057 272.31 628.885 272.052 629.917 272.052C630.877 272.052 631.639 272.286 632.203 272.754C632.767 273.222 633.049 273.864 633.049 274.68C633.049 275.316 632.839 275.886 632.419 276.39C632.011 276.894 631.327 277.422 630.367 277.974L633.481 281.07C633.841 280.386 634.099 279.624 634.255 278.784L635.641 279.234C635.425 280.338 635.059 281.298 634.543 282.114L636.235 283.806L635.263 284.958ZM629.917 273.312C629.353 273.312 628.909 273.456 628.585 273.744C628.273 274.02 628.117 274.386 628.117 274.842C628.117 275.166 628.201 275.478 628.369 275.778C628.549 276.078 628.891 276.486 629.395 277.002C630.223 276.534 630.793 276.132 631.105 275.796C631.429 275.46 631.591 275.094 631.591 274.698C631.591 274.278 631.441 273.942 631.141 273.69C630.853 273.438 630.445 273.312 629.917 273.312ZM629.485 283.464C630.733 283.464 631.759 283.068 632.563 282.276L628.981 278.712C628.117 279.192 627.511 279.642 627.163 280.062C626.827 280.47 626.659 280.932 626.659 281.448C626.659 282.048 626.917 282.534 627.433 282.906C627.961 283.278 628.645 283.464 629.485 283.464ZM571.55 303.61H564.854L563.468 306.76H561.614L567.32 294.16H569.102L574.826 306.76H572.936L571.55 303.61ZM570.92 302.17L568.202 295.996L565.484 302.17H570.92ZM585.17 297.22V306.76H583.532V305.32C583.184 305.812 582.722 306.196 582.146 306.472C581.582 306.736 580.964 306.868 580.292 306.868C579.02 306.868 578.018 306.52 577.286 305.824C576.554 305.116 576.188 304.078 576.188 302.71V297.22H577.916V302.512C577.916 303.436 578.138 304.138 578.582 304.618C579.026 305.086 579.662 305.32 580.49 305.32C581.402 305.32 582.122 305.044 582.65 304.492C583.178 303.94 583.442 303.16 583.442 302.152V297.22H585.17ZM597.459 293.404V306.76H595.803V305.248C595.419 305.776 594.933 306.178 594.345 306.454C593.757 306.73 593.109 306.868 592.401 306.868C591.477 306.868 590.649 306.664 589.917 306.256C589.185 305.848 588.609 305.278 588.189 304.546C587.781 303.802 587.577 302.95 587.577 301.99C587.577 301.03 587.781 300.184 588.189 299.452C588.609 298.72 589.185 298.15 589.917 297.742C590.649 297.334 591.477 297.13 592.401 297.13C593.085 297.13 593.715 297.262 594.291 297.526C594.867 297.778 595.347 298.156 595.731 298.66V293.404H597.459ZM592.545 305.356C593.145 305.356 593.691 305.218 594.183 304.942C594.675 304.654 595.059 304.258 595.335 303.754C595.611 303.238 595.749 302.65 595.749 301.99C595.749 301.33 595.611 300.748 595.335 300.244C595.059 299.728 594.675 299.332 594.183 299.056C593.691 298.78 593.145 298.642 592.545 298.642C591.933 298.642 591.381 298.78 590.889 299.056C590.409 299.332 590.025 299.728 589.737 300.244C589.461 300.748 589.323 301.33 589.323 301.99C589.323 302.65 589.461 303.238 589.737 303.754C590.025 304.258 590.409 304.654 590.889 304.942C591.381 305.218 591.933 305.356 592.545 305.356ZM600.729 297.22H602.457V306.76H600.729V297.22ZM601.593 295.384C601.257 295.384 600.975 295.276 600.747 295.06C600.531 294.844 600.423 294.58 600.423 294.268C600.423 293.956 600.531 293.692 600.747 293.476C600.975 293.248 601.257 293.134 601.593 293.134C601.929 293.134 602.205 293.242 602.421 293.458C602.649 293.662 602.763 293.92 602.763 294.232C602.763 294.556 602.649 294.832 602.421 295.06C602.205 295.276 601.929 295.384 601.593 295.384ZM611.12 306.202C610.868 306.418 610.556 306.586 610.184 306.706C609.812 306.814 609.428 306.868 609.032 306.868C608.072 306.868 607.328 306.61 606.8 306.094C606.272 305.578 606.008 304.84 606.008 303.88V298.642H604.388V297.22H606.008V295.132H607.736V297.22H610.472V298.642H607.736V303.808C607.736 304.324 607.862 304.72 608.114 304.996C608.378 305.272 608.75 305.41 609.23 305.41C609.758 305.41 610.208 305.26 610.58 304.96L611.12 306.202ZM613.209 297.22H614.937V306.76H613.209V297.22ZM614.073 295.384C613.737 295.384 613.455 295.276 613.227 295.06C613.011 294.844 612.903 294.58 612.903 294.268C612.903 293.956 613.011 293.692 613.227 293.476C613.455 293.248 613.737 293.134 614.073 293.134C614.409 293.134 614.685 293.242 614.901 293.458C615.129 293.662 615.243 293.92 615.243 294.232C615.243 294.556 615.129 294.832 614.901 295.06C614.685 295.276 614.409 295.384 614.073 295.384ZM623.331 297.13C624.543 297.13 625.503 297.484 626.211 298.192C626.931 298.888 627.291 299.914 627.291 301.27V306.76H625.563V301.468C625.563 300.544 625.341 299.848 624.897 299.38C624.453 298.912 623.817 298.678 622.989 298.678C622.053 298.678 621.315 298.954 620.775 299.506C620.235 300.046 619.965 300.826 619.965 301.846V306.76H618.237V297.22H619.893V298.66C620.241 298.168 620.709 297.79 621.297 297.526C621.897 297.262 622.575 297.13 623.331 297.13ZM639.667 297.22V305.464C639.667 307.132 639.253 308.362 638.425 309.154C637.597 309.958 636.361 310.36 634.717 310.36C633.817 310.36 632.959 310.234 632.143 309.982C631.327 309.742 630.667 309.394 630.163 308.938L630.991 307.606C631.435 307.99 631.981 308.29 632.629 308.506C633.289 308.734 633.967 308.848 634.663 308.848C635.779 308.848 636.601 308.584 637.129 308.056C637.669 307.528 637.939 306.724 637.939 305.644V304.888C637.531 305.38 637.027 305.752 636.427 306.004C635.839 306.244 635.197 306.364 634.501 306.364C633.589 306.364 632.761 306.172 632.017 305.788C631.285 305.392 630.709 304.846 630.289 304.15C629.869 303.442 629.659 302.638 629.659 301.738C629.659 300.838 629.869 300.04 630.289 299.344C630.709 298.636 631.285 298.09 632.017 297.706C632.761 297.322 633.589 297.13 634.501 297.13C635.221 297.13 635.887 297.262 636.499 297.526C637.123 297.79 637.633 298.18 638.029 298.696V297.22H639.667ZM634.699 304.852C635.323 304.852 635.881 304.72 636.373 304.456C636.877 304.192 637.267 303.826 637.543 303.358C637.831 302.878 637.975 302.338 637.975 301.738C637.975 300.814 637.669 300.07 637.057 299.506C636.445 298.93 635.659 298.642 634.699 298.642C633.727 298.642 632.935 298.93 632.323 299.506C631.711 300.07 631.405 300.814 631.405 301.738C631.405 302.338 631.543 302.878 631.819 303.358C632.107 303.826 632.497 304.192 632.989 304.456C633.493 304.72 634.063 304.852 634.699 304.852Z" fill="white"/>
<path d="M376.392 512.985V517.377H382.71V518.925H376.392V524.019H374.592V511.419H383.484V512.985H376.392ZM385.59 514.479H387.318V524.019H385.59V514.479ZM386.454 512.643C386.118 512.643 385.836 512.535 385.608 512.319C385.392 512.103 385.284 511.839 385.284 511.527C385.284 511.215 385.392 510.951 385.608 510.735C385.836 510.507 386.118 510.393 386.454 510.393C386.79 510.393 387.066 510.501 387.282 510.717C387.51 510.921 387.624 511.179 387.624 511.491C387.624 511.815 387.51 512.091 387.282 512.319C387.066 512.535 386.79 512.643 386.454 512.643ZM395.711 514.389C396.923 514.389 397.883 514.743 398.591 515.451C399.311 516.147 399.671 517.173 399.671 518.529V524.019H397.943V518.727C397.943 517.803 397.721 517.107 397.277 516.639C396.833 516.171 396.197 515.937 395.369 515.937C394.433 515.937 393.695 516.213 393.155 516.765C392.615 517.305 392.345 518.085 392.345 519.105V524.019H390.617V514.479H392.273V515.919C392.621 515.427 393.089 515.049 393.677 514.785C394.277 514.521 394.955 514.389 395.711 514.389ZM406.343 514.389C407.663 514.389 408.671 514.713 409.367 515.361C410.075 516.009 410.429 516.975 410.429 518.259V524.019H408.791V522.759C408.503 523.203 408.089 523.545 407.549 523.785C407.021 524.013 406.391 524.127 405.659 524.127C404.591 524.127 403.733 523.869 403.085 523.353C402.449 522.837 402.131 522.159 402.131 521.319C402.131 520.479 402.437 519.807 403.049 519.303C403.661 518.787 404.633 518.529 405.965 518.529H408.701V518.187C408.701 517.443 408.485 516.873 408.053 516.477C407.621 516.081 406.985 515.883 406.145 515.883C405.581 515.883 405.029 515.979 404.489 516.171C403.949 516.351 403.493 516.597 403.121 516.909L402.401 515.613C402.893 515.217 403.481 514.917 404.165 514.713C404.849 514.497 405.575 514.389 406.343 514.389ZM405.947 522.795C406.607 522.795 407.177 522.651 407.657 522.363C408.137 522.063 408.485 521.643 408.701 521.103V519.771H406.037C404.573 519.771 403.841 520.263 403.841 521.247C403.841 521.727 404.027 522.105 404.399 522.381C404.771 522.657 405.287 522.795 405.947 522.795ZM418.721 514.389C419.933 514.389 420.893 514.743 421.601 515.451C422.321 516.147 422.681 517.173 422.681 518.529V524.019H420.953V518.727C420.953 517.803 420.731 517.107 420.287 516.639C419.843 516.171 419.207 515.937 418.379 515.937C417.443 515.937 416.705 516.213 416.165 516.765C415.625 517.305 415.355 518.085 415.355 519.105V524.019H413.627V514.479H415.283V515.919C415.631 515.427 416.099 515.049 416.687 514.785C417.287 514.521 417.965 514.389 418.721 514.389ZM430.089 524.127C429.117 524.127 428.247 523.917 427.479 523.497C426.723 523.077 426.129 522.501 425.697 521.769C425.265 521.025 425.049 520.185 425.049 519.249C425.049 518.313 425.265 517.479 425.697 516.747C426.129 516.003 426.723 515.427 427.479 515.019C428.247 514.599 429.117 514.389 430.089 514.389C430.953 514.389 431.721 514.563 432.393 514.911C433.077 515.259 433.605 515.763 433.977 516.423L432.663 517.269C432.363 516.813 431.991 516.471 431.547 516.243C431.103 516.015 430.611 515.901 430.071 515.901C429.447 515.901 428.883 516.039 428.379 516.315C427.887 516.591 427.497 516.987 427.209 517.503C426.933 518.007 426.795 518.589 426.795 519.249C426.795 519.921 426.933 520.515 427.209 521.031C427.497 521.535 427.887 521.925 428.379 522.201C428.883 522.477 429.447 522.615 430.071 522.615C430.611 522.615 431.103 522.501 431.547 522.273C431.991 522.045 432.363 521.703 432.663 521.247L433.977 522.075C433.605 522.735 433.077 523.245 432.393 523.605C431.721 523.953 430.953 524.127 430.089 524.127ZM436.215 514.479H437.943V524.019H436.215V514.479ZM437.079 512.643C436.743 512.643 436.461 512.535 436.233 512.319C436.017 512.103 435.909 511.839 435.909 511.527C435.909 511.215 436.017 510.951 436.233 510.735C436.461 510.507 436.743 510.393 437.079 510.393C437.415 510.393 437.691 510.501 437.907 510.717C438.135 510.921 438.249 511.179 438.249 511.491C438.249 511.815 438.135 512.091 437.907 512.319C437.691 512.535 437.415 512.643 437.079 512.643ZM444.716 514.389C446.036 514.389 447.044 514.713 447.74 515.361C448.448 516.009 448.802 516.975 448.802 518.259V524.019H447.164V522.759C446.876 523.203 446.462 523.545 445.922 523.785C445.394 524.013 444.764 524.127 444.032 524.127C442.964 524.127 442.106 523.869 441.458 523.353C440.822 522.837 440.504 522.159 440.504 521.319C440.504 520.479 440.81 519.807 441.422 519.303C442.034 518.787 443.006 518.529 444.338 518.529H447.074V518.187C447.074 517.443 446.858 516.873 446.426 516.477C445.994 516.081 445.358 515.883 444.518 515.883C443.954 515.883 443.402 515.979 442.862 516.171C442.322 516.351 441.866 516.597 441.494 516.909L440.774 515.613C441.266 515.217 441.854 514.917 442.538 514.713C443.222 514.497 443.948 514.389 444.716 514.389ZM444.32 522.795C444.98 522.795 445.55 522.651 446.03 522.363C446.51 522.063 446.858 521.643 447.074 521.103V519.771H444.41C442.946 519.771 442.214 520.263 442.214 521.247C442.214 521.727 442.4 522.105 442.772 522.381C443.144 522.657 443.66 522.795 444.32 522.795ZM452 510.663H453.728V524.019H452V510.663ZM470.141 520.869H463.445L462.059 524.019H460.205L465.911 511.419H467.693L473.417 524.019H471.527L470.141 520.869ZM469.511 519.429L466.793 513.255L464.075 519.429H469.511ZM477.693 524.127C476.913 524.127 476.163 524.025 475.443 523.821C474.723 523.605 474.159 523.335 473.751 523.011L474.471 521.643C474.891 521.943 475.401 522.183 476.001 522.363C476.601 522.543 477.207 522.633 477.819 522.633C479.331 522.633 480.087 522.201 480.087 521.337C480.087 521.049 479.985 520.821 479.781 520.653C479.577 520.485 479.319 520.365 479.007 520.293C478.707 520.209 478.275 520.119 477.711 520.023C476.943 519.903 476.313 519.765 475.821 519.609C475.341 519.453 474.927 519.189 474.579 518.817C474.231 518.445 474.057 517.923 474.057 517.251C474.057 516.387 474.417 515.697 475.137 515.181C475.857 514.653 476.823 514.389 478.035 514.389C478.671 514.389 479.307 514.467 479.943 514.623C480.579 514.779 481.101 514.989 481.509 515.253L480.771 516.621C479.991 516.117 479.073 515.865 478.017 515.865C477.285 515.865 476.727 515.985 476.343 516.225C475.959 516.465 475.767 516.783 475.767 517.179C475.767 517.491 475.875 517.737 476.091 517.917C476.307 518.097 476.571 518.229 476.883 518.313C477.207 518.397 477.657 518.493 478.233 518.601C479.001 518.733 479.619 518.877 480.087 519.033C480.567 519.177 480.975 519.429 481.311 519.789C481.647 520.149 481.815 520.653 481.815 521.301C481.815 522.165 481.443 522.855 480.699 523.371C479.967 523.875 478.965 524.127 477.693 524.127ZM486.71 524.127C485.93 524.127 485.18 524.025 484.46 523.821C483.74 523.605 483.176 523.335 482.768 523.011L483.488 521.643C483.908 521.943 484.418 522.183 485.018 522.363C485.618 522.543 486.224 522.633 486.836 522.633C488.348 522.633 489.104 522.201 489.104 521.337C489.104 521.049 489.002 520.821 488.798 520.653C488.594 520.485 488.336 520.365 488.024 520.293C487.724 520.209 487.292 520.119 486.728 520.023C485.96 519.903 485.33 519.765 484.838 519.609C484.358 519.453 483.944 519.189 483.596 518.817C483.248 518.445 483.074 517.923 483.074 517.251C483.074 516.387 483.434 515.697 484.154 515.181C484.874 514.653 485.84 514.389 487.052 514.389C487.688 514.389 488.324 514.467 488.96 514.623C489.596 514.779 490.118 514.989 490.526 515.253L489.788 516.621C489.008 516.117 488.09 515.865 487.034 515.865C486.302 515.865 485.744 515.985 485.36 516.225C484.976 516.465 484.784 516.783 484.784 517.179C484.784 517.491 484.892 517.737 485.108 517.917C485.324 518.097 485.588 518.229 485.9 518.313C486.224 518.397 486.674 518.493 487.25 518.601C488.018 518.733 488.636 518.877 489.104 519.033C489.584 519.177 489.992 519.429 490.328 519.789C490.664 520.149 490.832 520.653 490.832 521.301C490.832 522.165 490.46 522.855 489.716 523.371C488.984 523.875 487.982 524.127 486.71 524.127ZM492.992 514.479H494.72V524.019H492.992V514.479ZM493.856 512.643C493.52 512.643 493.238 512.535 493.01 512.319C492.794 512.103 492.686 511.839 492.686 511.527C492.686 511.215 492.794 510.951 493.01 510.735C493.238 510.507 493.52 510.393 493.856 510.393C494.192 510.393 494.468 510.501 494.684 510.717C494.912 510.921 495.026 511.179 495.026 511.491C495.026 511.815 494.912 512.091 494.684 512.319C494.468 512.535 494.192 512.643 493.856 512.643ZM500.755 524.127C499.975 524.127 499.225 524.025 498.505 523.821C497.785 523.605 497.221 523.335 496.813 523.011L497.533 521.643C497.953 521.943 498.463 522.183 499.063 522.363C499.663 522.543 500.269 522.633 500.881 522.633C502.393 522.633 503.149 522.201 503.149 521.337C503.149 521.049 503.047 520.821 502.843 520.653C502.639 520.485 502.381 520.365 502.069 520.293C501.769 520.209 501.337 520.119 500.773 520.023C500.005 519.903 499.375 519.765 498.883 519.609C498.403 519.453 497.989 519.189 497.641 518.817C497.293 518.445 497.119 517.923 497.119 517.251C497.119 516.387 497.479 515.697 498.199 515.181C498.919 514.653 499.885 514.389 501.097 514.389C501.733 514.389 502.369 514.467 503.005 514.623C503.641 514.779 504.163 514.989 504.571 515.253L503.833 516.621C503.053 516.117 502.135 515.865 501.079 515.865C500.347 515.865 499.789 515.985 499.405 516.225C499.021 516.465 498.829 516.783 498.829 517.179C498.829 517.491 498.937 517.737 499.153 517.917C499.369 518.097 499.633 518.229 499.945 518.313C500.269 518.397 500.719 518.493 501.295 518.601C502.063 518.733 502.681 518.877 503.149 519.033C503.629 519.177 504.037 519.429 504.373 519.789C504.709 520.149 504.877 520.653 504.877 521.301C504.877 522.165 504.505 522.855 503.761 523.371C503.029 523.875 502.027 524.127 500.755 524.127ZM512.401 523.461C512.149 523.677 511.837 523.845 511.465 523.965C511.093 524.073 510.709 524.127 510.313 524.127C509.353 524.127 508.609 523.869 508.081 523.353C507.553 522.837 507.289 522.099 507.289 521.139V515.901H505.669V514.479H507.289V512.391H509.017V514.479H511.753V515.901H509.017V521.067C509.017 521.583 509.143 521.979 509.395 522.255C509.659 522.531 510.031 522.669 510.511 522.669C511.039 522.669 511.489 522.519 511.861 522.219L512.401 523.461ZM517.964 514.389C519.284 514.389 520.292 514.713 520.988 515.361C521.696 516.009 522.05 516.975 522.05 518.259V524.019H520.412V522.759C520.124 523.203 519.71 523.545 519.17 523.785C518.642 524.013 518.012 524.127 517.28 524.127C516.212 524.127 515.354 523.869 514.706 523.353C514.07 522.837 513.752 522.159 513.752 521.319C513.752 520.479 514.058 519.807 514.67 519.303C515.282 518.787 516.254 518.529 517.586 518.529H520.322V518.187C520.322 517.443 520.106 516.873 519.674 516.477C519.242 516.081 518.606 515.883 517.766 515.883C517.202 515.883 516.65 515.979 516.11 516.171C515.57 516.351 515.114 516.597 514.742 516.909L514.022 515.613C514.514 515.217 515.102 514.917 515.786 514.713C516.47 514.497 517.196 514.389 517.964 514.389ZM517.568 522.795C518.228 522.795 518.798 522.651 519.278 522.363C519.758 522.063 520.106 521.643 520.322 521.103V519.771H517.658C516.194 519.771 515.462 520.263 515.462 521.247C515.462 521.727 515.648 522.105 516.02 522.381C516.392 522.657 516.908 522.795 517.568 522.795ZM530.342 514.389C531.554 514.389 532.514 514.743 533.222 515.451C533.942 516.147 534.302 517.173 534.302 518.529V524.019H532.574V518.727C532.574 517.803 532.352 517.107 531.908 516.639C531.464 516.171 530.828 515.937 530 515.937C529.064 515.937 528.326 516.213 527.786 516.765C527.246 517.305 526.976 518.085 526.976 519.105V524.019H525.248V514.479H526.904V515.919C527.252 515.427 527.72 515.049 528.308 514.785C528.908 514.521 529.586 514.389 530.342 514.389ZM541.711 524.127C540.739 524.127 539.869 523.917 539.101 523.497C538.345 523.077 537.751 522.501 537.319 521.769C536.887 521.025 536.671 520.185 536.671 519.249C536.671 518.313 536.887 517.479 537.319 516.747C537.751 516.003 538.345 515.427 539.101 515.019C539.869 514.599 540.739 514.389 541.711 514.389C542.575 514.389 543.343 514.563 544.015 514.911C544.699 515.259 545.227 515.763 545.599 516.423L544.285 517.269C543.985 516.813 543.613 516.471 543.169 516.243C542.725 516.015 542.233 515.901 541.693 515.901C541.069 515.901 540.505 516.039 540.001 516.315C539.509 516.591 539.119 516.987 538.831 517.503C538.555 518.007 538.417 518.589 538.417 519.249C538.417 519.921 538.555 520.515 538.831 521.031C539.119 521.535 539.509 521.925 540.001 522.201C540.505 522.477 541.069 522.615 541.693 522.615C542.233 522.615 542.725 522.501 543.169 522.273C543.613 522.045 543.985 521.703 544.285 521.247L545.599 522.075C545.227 522.735 544.699 523.245 544.015 523.605C543.343 523.953 542.575 524.127 541.711 524.127ZM556.317 519.303C556.317 519.435 556.305 519.609 556.281 519.825H548.541C548.649 520.665 549.015 521.343 549.639 521.859C550.275 522.363 551.061 522.615 551.997 522.615C553.137 522.615 554.055 522.231 554.751 521.463L555.705 522.579C555.273 523.083 554.733 523.467 554.085 523.731C553.449 523.995 552.735 524.127 551.943 524.127C550.935 524.127 550.041 523.923 549.261 523.515C548.481 523.095 547.875 522.513 547.443 521.769C547.023 521.025 546.813 520.185 546.813 519.249C546.813 518.325 547.017 517.491 547.425 516.747C547.845 516.003 548.415 515.427 549.135 515.019C549.867 514.599 550.689 514.389 551.601 514.389C552.513 514.389 553.323 514.599 554.031 515.019C554.751 515.427 555.309 516.003 555.705 516.747C556.113 517.491 556.317 518.343 556.317 519.303ZM551.601 515.847C550.773 515.847 550.077 516.099 549.513 516.603C548.961 517.107 548.637 517.767 548.541 518.583H554.661C554.565 517.779 554.235 517.125 553.671 516.621C553.119 516.105 552.429 515.847 551.601 515.847Z" fill="white"/>
<path d="M473.39 481.731H474.89V495.231H473.39V481.731ZM458.39 486.981L459.89 485.481V495.231H458.39V486.981ZM455.39 489.981L456.89 488.481V495.231H455.39V489.981ZM461.39 483.981L462.89 482.481V495.231H461.39V483.981ZM464.39 482.481L465.89 483.981V495.219H464.39V482.481ZM468.14 486.231L468.89 485.481V495.231H467.39V485.481L468.14 486.231ZM470.39 483.981L471.89 482.481V495.231H470.39V483.981ZM452.39 492.981L453.89 491.481V495.231H452.39V492.981ZM476.39 474.231V480.231H474.89V476.797L468.14 483.535L463.64 479.035L452.39 490.297V488.164L463.64 476.926L468.14 481.426L473.824 475.731H470.39V474.231H476.39Z" fill="white"/>
<path d="M151.744 512.638C153.376 512.638 154.66 513.028 155.596 513.808C156.532 514.588 157 515.662 157 517.03C157 518.398 156.532 519.472 155.596 520.252C154.66 521.032 153.376 521.422 151.744 521.422H148.63V525.238H146.83V512.638H151.744ZM151.69 519.856C152.83 519.856 153.7 519.616 154.3 519.136C154.9 518.644 155.2 517.942 155.2 517.03C155.2 516.118 154.9 515.422 154.3 514.942C153.7 514.45 152.83 514.204 151.69 514.204H148.63V519.856H151.69ZM167.98 520.522C167.98 520.654 167.968 520.828 167.944 521.044H160.204C160.312 521.884 160.678 522.562 161.302 523.078C161.938 523.582 162.724 523.834 163.66 523.834C164.8 523.834 165.718 523.45 166.414 522.682L167.368 523.798C166.936 524.302 166.396 524.686 165.748 524.95C165.112 525.214 164.398 525.346 163.606 525.346C162.598 525.346 161.704 525.142 160.924 524.734C160.144 524.314 159.538 523.732 159.106 522.988C158.686 522.244 158.476 521.404 158.476 520.468C158.476 519.544 158.68 518.71 159.088 517.966C159.508 517.222 160.078 516.646 160.798 516.238C161.53 515.818 162.352 515.608 163.264 515.608C164.176 515.608 164.986 515.818 165.694 516.238C166.414 516.646 166.972 517.222 167.368 517.966C167.776 518.71 167.98 519.562 167.98 520.522ZM163.264 517.066C162.436 517.066 161.74 517.318 161.176 517.822C160.624 518.326 160.3 518.986 160.204 519.802H166.324C166.228 518.998 165.898 518.344 165.334 517.84C164.782 517.324 164.092 517.066 163.264 517.066ZM174.465 525.346C173.517 525.346 172.665 525.136 171.909 524.716C171.153 524.296 170.559 523.72 170.127 522.988C169.707 522.244 169.497 521.404 169.497 520.468C169.497 519.532 169.707 518.698 170.127 517.966C170.559 517.222 171.153 516.646 171.909 516.238C172.665 515.818 173.517 515.608 174.465 515.608C175.413 515.608 176.259 515.818 177.003 516.238C177.759 516.646 178.347 517.222 178.767 517.966C179.199 518.698 179.415 519.532 179.415 520.468C179.415 521.404 179.199 522.244 178.767 522.988C178.347 523.72 177.759 524.296 177.003 524.716C176.259 525.136 175.413 525.346 174.465 525.346ZM174.465 523.834C175.077 523.834 175.623 523.696 176.103 523.42C176.595 523.132 176.979 522.736 177.255 522.232C177.531 521.716 177.669 521.128 177.669 520.468C177.669 519.808 177.531 519.226 177.255 518.722C176.979 518.206 176.595 517.81 176.103 517.534C175.623 517.258 175.077 517.12 174.465 517.12C173.853 517.12 173.301 517.258 172.809 517.534C172.329 517.81 171.945 518.206 171.657 518.722C171.381 519.226 171.243 519.808 171.243 520.468C171.243 521.128 171.381 521.716 171.657 522.232C171.945 522.736 172.329 523.132 172.809 523.42C173.301 523.696 173.853 523.834 174.465 523.834ZM186.863 515.608C187.787 515.608 188.615 515.812 189.347 516.22C190.079 516.628 190.649 517.198 191.057 517.93C191.477 518.662 191.687 519.508 191.687 520.468C191.687 521.428 191.477 522.28 191.057 523.024C190.649 523.756 190.079 524.326 189.347 524.734C188.615 525.142 187.787 525.346 186.863 525.346C186.179 525.346 185.549 525.214 184.973 524.95C184.409 524.686 183.929 524.302 183.533 523.798V528.73H181.805V515.698H183.461V517.21C183.845 516.682 184.331 516.286 184.919 516.022C185.507 515.746 186.155 515.608 186.863 515.608ZM186.719 523.834C187.331 523.834 187.877 523.696 188.357 523.42C188.849 523.132 189.233 522.736 189.509 522.232C189.797 521.716 189.941 521.128 189.941 520.468C189.941 519.808 189.797 519.226 189.509 518.722C189.233 518.206 188.849 517.81 188.357 517.534C187.877 517.258 187.331 517.12 186.719 517.12C186.119 517.12 185.573 517.264 185.081 517.552C184.601 517.828 184.217 518.218 183.929 518.722C183.653 519.226 183.515 519.808 183.515 520.468C183.515 521.128 183.653 521.716 183.929 522.232C184.205 522.736 184.589 523.132 185.081 523.42C185.573 523.696 186.119 523.834 186.719 523.834ZM194.074 511.882H195.802V525.238H194.074V511.882ZM207.724 520.522C207.724 520.654 207.712 520.828 207.688 521.044H199.948C200.056 521.884 200.422 522.562 201.046 523.078C201.682 523.582 202.468 523.834 203.404 523.834C204.544 523.834 205.462 523.45 206.158 522.682L207.112 523.798C206.68 524.302 206.14 524.686 205.492 524.95C204.856 525.214 204.142 525.346 203.35 525.346C202.342 525.346 201.448 525.142 200.668 524.734C199.888 524.314 199.282 523.732 198.85 522.988C198.43 522.244 198.22 521.404 198.22 520.468C198.22 519.544 198.424 518.71 198.832 517.966C199.252 517.222 199.822 516.646 200.542 516.238C201.274 515.818 202.096 515.608 203.008 515.608C203.92 515.608 204.73 515.818 205.438 516.238C206.158 516.646 206.716 517.222 207.112 517.966C207.52 518.71 207.724 519.562 207.724 520.522ZM203.008 517.066C202.18 517.066 201.484 517.318 200.92 517.822C200.368 518.326 200.044 518.986 199.948 519.802H206.068C205.972 518.998 205.642 518.344 205.078 517.84C204.526 517.324 203.836 517.066 203.008 517.066ZM217.711 514.204H213.391V512.638H223.813V514.204H219.493V525.238H217.711V514.204ZM226.949 517.3C227.249 516.748 227.693 516.328 228.281 516.04C228.869 515.752 229.583 515.608 230.423 515.608V517.282C230.327 517.27 230.195 517.264 230.027 517.264C229.091 517.264 228.353 517.546 227.813 518.11C227.285 518.662 227.021 519.454 227.021 520.486V525.238H225.293V515.698H226.949V517.3ZM236.009 515.608C237.329 515.608 238.337 515.932 239.033 516.58C239.741 517.228 240.095 518.194 240.095 519.478V525.238H238.457V523.978C238.169 524.422 237.755 524.764 237.215 525.004C236.687 525.232 236.057 525.346 235.325 525.346C234.257 525.346 233.399 525.088 232.751 524.572C232.115 524.056 231.797 523.378 231.797 522.538C231.797 521.698 232.103 521.026 232.715 520.522C233.327 520.006 234.299 519.748 235.631 519.748H238.367V519.406C238.367 518.662 238.151 518.092 237.719 517.696C237.287 517.3 236.651 517.102 235.811 517.102C235.247 517.102 234.695 517.198 234.155 517.39C233.615 517.57 233.159 517.816 232.787 518.128L232.067 516.832C232.559 516.436 233.147 516.136 233.831 515.932C234.515 515.716 235.241 515.608 236.009 515.608ZM235.613 524.014C236.273 524.014 236.843 523.87 237.323 523.582C237.803 523.282 238.151 522.862 238.367 522.322V520.99H235.703C234.239 520.99 233.507 521.482 233.507 522.466C233.507 522.946 233.693 523.324 234.065 523.6C234.437 523.876 234.953 524.014 235.613 524.014ZM243.293 515.698H245.021V525.238H243.293V515.698ZM244.157 513.862C243.821 513.862 243.539 513.754 243.311 513.538C243.095 513.322 242.987 513.058 242.987 512.746C242.987 512.434 243.095 512.17 243.311 511.954C243.539 511.726 243.821 511.612 244.157 511.612C244.493 511.612 244.769 511.72 244.985 511.936C245.213 512.14 245.327 512.398 245.327 512.71C245.327 513.034 245.213 513.31 244.985 513.538C244.769 513.754 244.493 513.862 244.157 513.862ZM253.415 515.608C254.627 515.608 255.587 515.962 256.295 516.67C257.015 517.366 257.375 518.392 257.375 519.748V525.238H255.647V519.946C255.647 519.022 255.425 518.326 254.981 517.858C254.537 517.39 253.901 517.156 253.073 517.156C252.137 517.156 251.399 517.432 250.859 517.984C250.319 518.524 250.049 519.304 250.049 520.324V525.238H248.321V515.698H249.977V517.138C250.325 516.646 250.793 516.268 251.381 516.004C251.981 515.74 252.659 515.608 253.415 515.608ZM260.573 515.698H262.301V525.238H260.573V515.698ZM261.437 513.862C261.101 513.862 260.819 513.754 260.591 513.538C260.375 513.322 260.267 513.058 260.267 512.746C260.267 512.434 260.375 512.17 260.591 511.954C260.819 511.726 261.101 511.612 261.437 511.612C261.773 511.612 262.049 511.72 262.265 511.936C262.493 512.14 262.607 512.398 262.607 512.71C262.607 513.034 262.493 513.31 262.265 513.538C262.049 513.754 261.773 513.862 261.437 513.862ZM270.694 515.608C271.906 515.608 272.866 515.962 273.574 516.67C274.294 517.366 274.654 518.392 274.654 519.748V525.238H272.926V519.946C272.926 519.022 272.704 518.326 272.26 517.858C271.816 517.39 271.18 517.156 270.352 517.156C269.416 517.156 268.678 517.432 268.138 517.984C267.598 518.524 267.328 519.304 267.328 520.324V525.238H265.6V515.698H267.256V517.138C267.604 516.646 268.072 516.268 268.66 516.004C269.26 515.74 269.938 515.608 270.694 515.608ZM287.031 515.698V523.942C287.031 525.61 286.617 526.84 285.789 527.632C284.961 528.436 283.725 528.838 282.081 528.838C281.181 528.838 280.323 528.712 279.507 528.46C278.691 528.22 278.031 527.872 277.527 527.416L278.355 526.084C278.799 526.468 279.345 526.768 279.993 526.984C280.653 527.212 281.331 527.326 282.027 527.326C283.143 527.326 283.965 527.062 284.493 526.534C285.033 526.006 285.303 525.202 285.303 524.122V523.366C284.895 523.858 284.391 524.23 283.791 524.482C283.203 524.722 282.561 524.842 281.865 524.842C280.953 524.842 280.125 524.65 279.381 524.266C278.649 523.87 278.073 523.324 277.653 522.628C277.233 521.92 277.023 521.116 277.023 520.216C277.023 519.316 277.233 518.518 277.653 517.822C278.073 517.114 278.649 516.568 279.381 516.184C280.125 515.8 280.953 515.608 281.865 515.608C282.585 515.608 283.251 515.74 283.863 516.004C284.487 516.268 284.997 516.658 285.393 517.174V515.698H287.031ZM282.063 523.33C282.687 523.33 283.245 523.198 283.737 522.934C284.241 522.67 284.631 522.304 284.907 521.836C285.195 521.356 285.339 520.816 285.339 520.216C285.339 519.292 285.033 518.548 284.421 517.984C283.809 517.408 283.023 517.12 282.063 517.12C281.091 517.12 280.299 517.408 279.687 517.984C279.075 518.548 278.769 519.292 278.769 520.216C278.769 520.816 278.907 521.356 279.183 521.836C279.471 522.304 279.861 522.67 280.353 522.934C280.857 523.198 281.427 523.33 282.063 523.33Z" fill="white"/>
<path d="M50.528 284.734C49.58 284.734 48.662 284.59 47.774 284.302C46.898 284.002 46.208 283.618 45.704 283.15L46.37 281.746C46.85 282.178 47.462 282.532 48.206 282.808C48.962 283.072 49.736 283.204 50.528 283.204C51.572 283.204 52.352 283.03 52.868 282.682C53.384 282.322 53.642 281.848 53.642 281.26C53.642 280.828 53.498 280.48 53.21 280.216C52.934 279.94 52.586 279.73 52.166 279.586C51.758 279.442 51.176 279.28 50.42 279.1C49.472 278.872 48.704 278.644 48.116 278.416C47.54 278.188 47.042 277.84 46.622 277.372C46.214 276.892 46.01 276.25 46.01 275.446C46.01 274.774 46.184 274.168 46.532 273.628C46.892 273.088 47.432 272.656 48.152 272.332C48.872 272.008 49.766 271.846 50.834 271.846C51.578 271.846 52.31 271.942 53.03 272.134C53.75 272.326 54.368 272.602 54.884 272.962L54.29 274.402C53.762 274.066 53.198 273.814 52.598 273.646C51.998 273.466 51.41 273.376 50.834 273.376C49.814 273.376 49.046 273.562 48.53 273.934C48.026 274.306 47.774 274.786 47.774 275.374C47.774 275.806 47.918 276.16 48.206 276.436C48.494 276.7 48.848 276.91 49.268 277.066C49.7 277.21 50.282 277.366 51.014 277.534C51.962 277.762 52.724 277.99 53.3 278.218C53.876 278.446 54.368 278.794 54.776 279.262C55.196 279.73 55.406 280.36 55.406 281.152C55.406 281.812 55.226 282.418 54.866 282.97C54.506 283.51 53.96 283.942 53.228 284.266C52.496 284.578 51.596 284.734 50.528 284.734ZM61.8697 284.698C60.9217 284.698 60.0697 284.488 59.3137 284.068C58.5577 283.648 57.9637 283.072 57.5317 282.34C57.1117 281.596 56.9017 280.756 56.9017 279.82C56.9017 278.884 57.1117 278.05 57.5317 277.318C57.9637 276.574 58.5577 275.998 59.3137 275.59C60.0697 275.17 60.9217 274.96 61.8697 274.96C62.8177 274.96 63.6637 275.17 64.4077 275.59C65.1637 275.998 65.7517 276.574 66.1717 277.318C66.6037 278.05 66.8197 278.884 66.8197 279.82C66.8197 280.756 66.6037 281.596 66.1717 282.34C65.7517 283.072 65.1637 283.648 64.4077 284.068C63.6637 284.488 62.8177 284.698 61.8697 284.698ZM61.8697 283.186C62.4817 283.186 63.0277 283.048 63.5077 282.772C63.9997 282.484 64.3837 282.088 64.6597 281.584C64.9357 281.068 65.0737 280.48 65.0737 279.82C65.0737 279.16 64.9357 278.578 64.6597 278.074C64.3837 277.558 63.9997 277.162 63.5077 276.886C63.0277 276.61 62.4817 276.472 61.8697 276.472C61.2577 276.472 60.7057 276.61 60.2137 276.886C59.7337 277.162 59.3497 277.558 59.0617 278.074C58.7857 278.578 58.6477 279.16 58.6477 279.82C58.6477 280.48 58.7857 281.068 59.0617 281.584C59.3497 282.088 59.7337 282.484 60.2137 282.772C60.7057 283.048 61.2577 283.186 61.8697 283.186ZM69.2095 271.234H70.9375V284.59H69.2095V271.234ZM77.7108 274.96C79.0308 274.96 80.0388 275.284 80.7348 275.932C81.4428 276.58 81.7968 277.546 81.7968 278.83V284.59H80.1588V283.33C79.8708 283.774 79.4568 284.116 78.9168 284.356C78.3888 284.584 77.7588 284.698 77.0268 284.698C75.9588 284.698 75.1008 284.44 74.4528 283.924C73.8168 283.408 73.4988 282.73 73.4988 281.89C73.4988 281.05 73.8048 280.378 74.4168 279.874C75.0288 279.358 76.0008 279.1 77.3328 279.1H80.0688V278.758C80.0688 278.014 79.8528 277.444 79.4208 277.048C78.9888 276.652 78.3528 276.454 77.5128 276.454C76.9488 276.454 76.3968 276.55 75.8568 276.742C75.3168 276.922 74.8608 277.168 74.4888 277.48L73.7688 276.184C74.2608 275.788 74.8488 275.488 75.5328 275.284C76.2168 275.068 76.9428 274.96 77.7108 274.96ZM77.3148 283.366C77.9748 283.366 78.5448 283.222 79.0248 282.934C79.5048 282.634 79.8528 282.214 80.0688 281.674V280.342H77.4048C75.9408 280.342 75.2088 280.834 75.2088 281.818C75.2088 282.298 75.3948 282.676 75.7668 282.952C76.1388 283.228 76.6548 283.366 77.3148 283.366ZM86.6506 276.652C86.9506 276.1 87.3946 275.68 87.9826 275.392C88.5706 275.104 89.2846 274.96 90.1246 274.96V276.634C90.0286 276.622 89.8966 276.616 89.7286 276.616C88.7926 276.616 88.0546 276.898 87.5146 277.462C86.9866 278.014 86.7226 278.806 86.7226 279.838V284.59H84.9946V275.05H86.6506V276.652ZM51.77 293.99C53.402 293.99 54.686 294.38 55.622 295.16C56.558 295.94 57.026 297.014 57.026 298.382C57.026 299.75 56.558 300.824 55.622 301.604C54.686 302.384 53.402 302.774 51.77 302.774H48.656V306.59H46.856V293.99H51.77ZM51.716 301.208C52.856 301.208 53.726 300.968 54.326 300.488C54.926 299.996 55.226 299.294 55.226 298.382C55.226 297.47 54.926 296.774 54.326 296.294C53.726 295.802 52.856 295.556 51.716 295.556H48.656V301.208H51.716ZM60.9163 298.652C61.2163 298.1 61.6603 297.68 62.2483 297.392C62.8363 297.104 63.5503 296.96 64.3903 296.96V298.634C64.2943 298.622 64.1623 298.616 63.9943 298.616C63.0583 298.616 62.3203 298.898 61.7803 299.462C61.2523 300.014 60.9883 300.806 60.9883 301.838V306.59H59.2603V297.05H60.9163V298.652ZM70.5181 306.698C69.5701 306.698 68.7181 306.488 67.9621 306.068C67.2061 305.648 66.6121 305.072 66.1801 304.34C65.7601 303.596 65.5501 302.756 65.5501 301.82C65.5501 300.884 65.7601 300.05 66.1801 299.318C66.6121 298.574 67.2061 297.998 67.9621 297.59C68.7181 297.17 69.5701 296.96 70.5181 296.96C71.4661 296.96 72.3121 297.17 73.0561 297.59C73.8121 297.998 74.4001 298.574 74.8201 299.318C75.2521 300.05 75.4681 300.884 75.4681 301.82C75.4681 302.756 75.2521 303.596 74.8201 304.34C74.4001 305.072 73.8121 305.648 73.0561 306.068C72.3121 306.488 71.4661 306.698 70.5181 306.698ZM70.5181 305.186C71.1301 305.186 71.6761 305.048 72.1561 304.772C72.6481 304.484 73.0321 304.088 73.3081 303.584C73.5841 303.068 73.7221 302.48 73.7221 301.82C73.7221 301.16 73.5841 300.578 73.3081 300.074C73.0321 299.558 72.6481 299.162 72.1561 298.886C71.6761 298.61 71.1301 298.472 70.5181 298.472C69.9061 298.472 69.3541 298.61 68.8621 298.886C68.3821 299.162 67.9981 299.558 67.7101 300.074C67.4341 300.578 67.2961 301.16 67.2961 301.82C67.2961 302.48 67.4341 303.068 67.7101 303.584C67.9981 304.088 68.3821 304.484 68.8621 304.772C69.3541 305.048 69.9061 305.186 70.5181 305.186ZM86.8579 293.234V306.59H85.2019V305.078C84.8179 305.606 84.3319 306.008 83.7439 306.284C83.1559 306.56 82.5079 306.698 81.7999 306.698C80.8759 306.698 80.0479 306.494 79.3159 306.086C78.5839 305.678 78.0079 305.108 77.5879 304.376C77.1799 303.632 76.9759 302.78 76.9759 301.82C76.9759 300.86 77.1799 300.014 77.5879 299.282C78.0079 298.55 78.5839 297.98 79.3159 297.572C80.0479 297.164 80.8759 296.96 81.7999 296.96C82.4839 296.96 83.1139 297.092 83.6899 297.356C84.2659 297.608 84.7459 297.986 85.1299 298.49V293.234H86.8579ZM81.9439 305.186C82.5439 305.186 83.0899 305.048 83.5819 304.772C84.0739 304.484 84.4579 304.088 84.7339 303.584C85.0099 303.068 85.1479 302.48 85.1479 301.82C85.1479 301.16 85.0099 300.578 84.7339 300.074C84.4579 299.558 84.0739 299.162 83.5819 298.886C83.0899 298.61 82.5439 298.472 81.9439 298.472C81.3319 298.472 80.7799 298.61 80.2879 298.886C79.8079 299.162 79.4239 299.558 79.1359 300.074C78.8599 300.578 78.7219 301.16 78.7219 301.82C78.7219 302.48 78.8599 303.068 79.1359 303.584C79.4239 304.088 79.8079 304.484 80.2879 304.772C80.7799 305.048 81.3319 305.186 81.9439 305.186ZM99.0195 297.05V306.59H97.3815V305.15C97.0335 305.642 96.5715 306.026 95.9955 306.302C95.4315 306.566 94.8135 306.698 94.1415 306.698C92.8695 306.698 91.8675 306.35 91.1355 305.654C90.4035 304.946 90.0375 303.908 90.0375 302.54V297.05H91.7655V302.342C91.7655 303.266 91.9875 303.968 92.4315 304.448C92.8755 304.916 93.5115 305.15 94.3395 305.15C95.2515 305.15 95.9715 304.874 96.4995 304.322C97.0275 303.77 97.2915 302.99 97.2915 301.982V297.05H99.0195ZM106.467 306.698C105.495 306.698 104.625 306.488 103.857 306.068C103.101 305.648 102.507 305.072 102.075 304.34C101.643 303.596 101.427 302.756 101.427 301.82C101.427 300.884 101.643 300.05 102.075 299.318C102.507 298.574 103.101 297.998 103.857 297.59C104.625 297.17 105.495 296.96 106.467 296.96C107.331 296.96 108.099 297.134 108.771 297.482C109.455 297.83 109.983 298.334 110.355 298.994L109.041 299.84C108.741 299.384 108.369 299.042 107.925 298.814C107.481 298.586 106.989 298.472 106.449 298.472C105.825 298.472 105.261 298.61 104.757 298.886C104.265 299.162 103.875 299.558 103.587 300.074C103.311 300.578 103.173 301.16 103.173 301.82C103.173 302.492 103.311 303.086 103.587 303.602C103.875 304.106 104.265 304.496 104.757 304.772C105.261 305.048 105.825 305.186 106.449 305.186C106.989 305.186 107.481 305.072 107.925 304.844C108.369 304.616 108.741 304.274 109.041 303.818L110.355 304.646C109.983 305.306 109.455 305.816 108.771 306.176C108.099 306.524 107.331 306.698 106.467 306.698ZM118.079 306.032C117.827 306.248 117.515 306.416 117.143 306.536C116.771 306.644 116.387 306.698 115.991 306.698C115.031 306.698 114.287 306.44 113.759 305.924C113.231 305.408 112.967 304.67 112.967 303.71V298.472H111.347V297.05H112.967V294.962H114.695V297.05H117.431V298.472H114.695V303.638C114.695 304.154 114.821 304.55 115.073 304.826C115.337 305.102 115.709 305.24 116.189 305.24C116.717 305.24 117.167 305.09 117.539 304.79L118.079 306.032ZM122.904 306.698C122.124 306.698 121.374 306.596 120.654 306.392C119.934 306.176 119.37 305.906 118.962 305.582L119.682 304.214C120.102 304.514 120.612 304.754 121.212 304.934C121.812 305.114 122.418 305.204 123.03 305.204C124.542 305.204 125.298 304.772 125.298 303.908C125.298 303.62 125.196 303.392 124.992 303.224C124.788 303.056 124.53 302.936 124.218 302.864C123.918 302.78 123.486 302.69 122.922 302.594C122.154 302.474 121.524 302.336 121.032 302.18C120.552 302.024 120.138 301.76 119.79 301.388C119.442 301.016 119.268 300.494 119.268 299.822C119.268 298.958 119.628 298.268 120.348 297.752C121.068 297.224 122.034 296.96 123.246 296.96C123.882 296.96 124.518 297.038 125.154 297.194C125.79 297.35 126.312 297.56 126.72 297.824L125.982 299.192C125.202 298.688 124.284 298.436 123.228 298.436C122.496 298.436 121.938 298.556 121.554 298.796C121.17 299.036 120.978 299.354 120.978 299.75C120.978 300.062 121.086 300.308 121.302 300.488C121.518 300.668 121.782 300.8 122.094 300.884C122.418 300.968 122.868 301.064 123.444 301.172C124.212 301.304 124.83 301.448 125.298 301.604C125.778 301.748 126.186 302 126.522 302.36C126.858 302.72 127.026 303.224 127.026 303.872C127.026 304.736 126.654 305.426 125.91 305.942C125.178 306.446 124.176 306.698 122.904 306.698Z" fill="white"/>
<path d="M596.267 259.811H594.995C590.205 259.811 587.808 259.811 586.319 258.404C584.831 256.999 584.831 254.736 584.831 250.211V245.411C584.831 240.886 584.831 238.622 586.319 237.217C587.808 235.811 590.205 235.811 594.995 235.811H596.267C601.059 235.811 603.454 235.811 604.943 237.217C606.431 238.622 606.431 240.886 606.431 245.411V246.011M590.831 241.811H600.431M590.831 247.811H596.831" stroke="white" stroke-width="1.5" stroke-linecap="round" stroke-linejoin="round"/>
<path d="M604.031 259.811V258.268C603.379 258.272 602.735 258.118 602.155 257.82C601.575 257.521 601.077 257.086 600.702 256.552M604.031 258.266C604.683 258.271 605.327 258.117 605.907 257.818C606.487 257.52 606.985 257.084 607.36 256.55M604.031 250.553C605.419 250.553 606.642 251.234 607.36 252.269C607.797 252.897 608.031 253.645 608.031 254.41C608.031 255.175 607.797 255.921 607.36 256.549L608.831 257.495M600.702 252.271C601.077 251.737 601.575 251.302 602.155 251.003C602.735 250.704 603.379 250.551 604.031 250.555V249.011M608.831 251.326L607.36 252.271M599.231 257.495L600.702 256.549C600.265 255.921 600.031 255.175 600.031 254.41C600.031 253.645 600.265 252.898 600.702 252.27M599.231 251.327L600.702 252.272" stroke="white" stroke-width="1.5" stroke-linecap="round" stroke-linejoin="round"/>
<path d="M338.303 61.7408V63.0404C337.545 63.1705 336.825 63.4666 336.195 63.9074L335.241 63.0108L333.97 64.3696L334.895 65.2356C334.472 65.8519 334.186 66.5516 334.056 67.2876H332.757V69.1363H334.056C334.191 69.9035 334.494 70.6023 334.923 71.216L333.941 72.1681L335.272 73.4991L336.224 72.5156C336.838 72.9445 337.536 73.2477 338.304 73.3826V74.6813H340.152V73.3817C340.888 73.2524 341.588 72.9668 342.204 72.5442L343.069 73.4686L344.428 72.1967L343.531 71.2447C343.966 70.6254 344.262 69.909 344.399 69.1354H345.697V67.2867H344.398C344.265 66.5383 343.969 65.8283 343.531 65.207L344.398 64.34L343.097 63.0404L342.231 63.9074C341.61 63.4694 340.9 63.1734 340.151 63.0404V61.7408H338.303ZM339.227 64.8031C339.675 64.8001 340.12 64.8862 340.535 65.0565C340.95 65.2267 341.327 65.4776 341.644 65.7946C341.961 66.1116 342.212 66.4885 342.382 66.9033C342.552 67.3181 342.639 67.7626 342.636 68.211C342.636 70.1105 341.126 71.6199 339.227 71.6199C337.327 71.6199 335.818 70.1105 335.818 68.211C335.818 66.3116 337.327 64.8021 339.227 64.8021V64.8031ZM327.238 70.2612L325.536 70.9544L326.2 72.6274C325.316 73.1561 324.573 73.8898 324.033 74.7663L322.388 74.1008L321.694 75.8062L323.34 76.4698C323.21 76.9698 323.142 77.4839 323.138 78.0005C323.138 78.5274 323.217 79.0413 323.34 79.5312L321.694 80.1967L322.388 81.9002L324.033 81.2347C324.568 82.1227 325.312 82.8668 326.2 83.4023L325.534 85.0475L327.239 85.7408L327.905 84.0955C328.405 84.2257 328.919 84.2934 329.436 84.297C329.962 84.297 330.478 84.2184 330.966 84.0955L331.632 85.7408L333.335 85.0475L332.67 83.4023C333.547 82.863 334.281 82.1197 334.809 81.2356L336.482 81.8993L337.175 80.1958L335.502 79.5303C335.622 79.0404 335.703 78.5255 335.703 77.9996C335.703 77.4727 335.623 76.957 335.5 76.468L337.176 75.8043L336.483 74.099L334.81 74.7645C334.279 73.8902 333.545 73.1565 332.671 72.6256L333.336 70.9526L331.631 70.2593L330.968 71.9323C330.468 71.8033 329.953 71.736 329.437 71.7318C328.91 71.7318 328.396 71.8113 327.906 71.9333L327.24 70.2603L327.238 70.2612ZM329.435 73.5813C331.896 73.5813 333.853 75.5409 333.853 78.0014C333.855 80.4629 331.896 82.4493 329.435 82.4493C328.85 82.45 328.272 82.3355 327.732 82.1122C327.192 81.8889 326.701 81.5613 326.288 81.1482C325.875 80.735 325.547 80.2444 325.324 79.7044C325.101 79.1645 324.986 78.5857 324.987 78.0014C324.987 75.54 326.974 73.5813 329.435 73.5813Z" fill="white"/>
<path d="M49.2255 242.478C49.2255 242.242 49.3192 242.016 49.4859 241.849C49.6526 241.682 49.8786 241.589 50.1144 241.589H51.8922C52.1279 241.589 52.354 241.682 52.5207 241.849C52.6874 242.016 52.7811 242.242 52.7811 242.478C52.7811 242.713 52.6874 242.939 52.5207 243.106C52.354 243.273 52.1279 243.366 51.8922 243.366H50.1144C49.8786 243.366 49.6526 243.273 49.4859 243.106C49.3192 242.939 49.2255 242.713 49.2255 242.478ZM53.6066 237.45C53.7734 237.617 53.9996 237.71 54.2355 237.71C54.4714 237.71 54.6976 237.617 54.8644 237.45C55.0312 237.283 55.1249 237.057 55.1249 236.821C55.1249 236.585 55.0312 236.359 54.8644 236.192L53.6066 234.935C53.4386 234.776 53.2148 234.688 52.983 234.691C52.7512 234.694 52.5297 234.787 52.3658 234.951C52.2019 235.115 52.1085 235.337 52.1056 235.568C52.1026 235.8 52.1903 236.024 52.3499 236.192L53.6066 237.45ZM59.8922 235.366C60.1279 235.366 60.354 235.273 60.5207 235.106C60.6874 234.939 60.7811 234.713 60.7811 234.478V232.7C60.7811 232.464 60.6874 232.238 60.5207 232.071C60.354 231.905 60.1279 231.811 59.8922 231.811C59.6564 231.811 59.4303 231.905 59.2636 232.071C59.0969 232.238 59.0033 232.464 59.0033 232.7V234.478C59.0033 234.713 59.0969 234.939 59.2636 235.106C59.4303 235.273 59.6564 235.366 59.8922 235.366ZM65.5488 237.71C65.6656 237.71 65.7812 237.687 65.8891 237.642C65.997 237.598 66.0951 237.532 66.1777 237.45L67.4344 236.192C67.594 236.024 67.6817 235.8 67.6788 235.568C67.6758 235.337 67.5824 235.115 67.4185 234.951C67.2546 234.787 67.0331 234.694 66.8013 234.691C66.5696 234.688 66.3458 234.776 66.1777 234.935L64.9199 236.192C64.7955 236.316 64.7107 236.475 64.6764 236.647C64.642 236.82 64.6596 236.999 64.7269 237.161C64.7943 237.324 64.9083 237.462 65.0546 237.56C65.2009 237.658 65.3729 237.71 65.5488 237.71ZM67.0033 242.478C67.0033 242.713 67.0969 242.939 67.2636 243.106C67.4303 243.273 67.6564 243.366 67.8922 243.366H69.6699C69.9057 243.366 70.1318 243.273 70.2985 243.106C70.4652 242.939 70.5588 242.713 70.5588 242.478C70.5588 242.242 70.4652 242.016 70.2985 241.849C70.1318 241.682 69.9057 241.589 69.6699 241.589H67.8922C67.6564 241.589 67.4303 241.682 67.2636 241.849C67.0969 242.016 67.0033 242.242 67.0033 242.478ZM55.4477 243.366C55.6835 243.366 55.9096 243.273 56.0763 243.106C56.243 242.939 56.3366 242.713 56.3366 242.478C56.3366 241.535 56.7112 240.63 57.378 239.963C58.0448 239.297 58.9492 238.922 59.8922 238.922C60.8352 238.922 61.7395 239.297 62.4063 239.963C63.0731 240.63 63.4477 241.535 63.4477 242.478C63.4477 242.713 63.5414 242.939 63.7081 243.106C63.8748 243.273 64.1009 243.366 64.3366 243.366C64.5724 243.366 64.7985 243.273 64.9652 243.106C65.1318 242.939 65.2255 242.713 65.2255 242.478C65.2255 241.063 64.6636 239.706 63.6634 238.706C62.6632 237.706 61.3067 237.144 59.8922 237.144C58.4777 237.144 57.1211 237.706 56.1209 238.706C55.1207 239.706 54.5588 241.063 54.5588 242.478C54.5588 242.713 54.6525 242.939 54.8192 243.106C54.9859 243.273 55.212 243.366 55.4477 243.366ZM72.2155 255.366C72.1377 255.501 72.0258 255.613 71.891 255.691C71.7563 255.769 71.6034 255.81 71.4477 255.811H48.3366C48.1809 255.812 48.0277 255.771 47.8924 255.694C47.7571 255.617 47.6444 255.506 47.5656 255.372C47.4869 255.237 47.4448 255.084 47.4436 254.929C47.4424 254.773 47.4821 254.62 47.5588 254.484L52.08 246.484C52.1578 246.347 52.2709 246.232 52.4076 246.153C52.5443 246.074 52.6997 246.032 52.8577 246.033H66.9255C67.0835 246.032 67.2389 246.074 67.3756 246.153C67.5123 246.232 67.6254 246.347 67.7033 246.484L72.2244 254.484C72.2998 254.619 72.3387 254.772 72.3371 254.926C72.3356 255.081 72.2936 255.233 72.2155 255.366ZM66.4077 247.811H63.6999L64.0866 249.589H67.4122L66.4077 247.811ZM62.2677 249.589L61.8811 247.811H57.9033L57.5166 249.589H62.2677ZM57.1299 251.366L56.5511 254.033H63.2333L62.6544 251.366H57.1299ZM52.3722 249.589H55.6977L56.0844 247.811H53.3766L52.3722 249.589ZM49.86 254.033H54.7311L55.3111 251.366H51.3677L49.86 254.033ZM69.9244 254.033L68.4166 251.366H64.4733L65.0533 254.033H69.9244Z" fill="white"/>
<path fill-rule="evenodd" clip-rule="evenodd" d="M204.817 478.231V496.897H219.742V495.564H206.151V479.564H224.151V480.977H225.484V478.231H204.817ZM225.484 484.897C225.484 485.251 225.344 485.59 225.093 485.84C224.843 486.09 224.504 486.231 224.151 486.231C223.797 486.231 223.458 486.09 223.208 485.84C222.958 485.59 222.817 485.251 222.817 484.897C222.817 484.544 222.958 484.204 223.208 483.954C223.458 483.704 223.797 483.564 224.151 483.564C224.504 483.564 224.843 483.704 225.093 483.954C225.344 484.204 225.484 484.544 225.484 484.897ZM226.817 484.897C226.817 485.605 226.536 486.283 226.036 486.783C225.536 487.283 224.858 487.564 224.151 487.564C223.443 487.564 222.765 487.283 222.265 486.783C221.765 486.283 221.484 485.605 221.484 484.897C221.484 484.19 221.765 483.512 222.265 483.012C222.765 482.512 223.443 482.231 224.151 482.231C224.858 482.231 225.536 482.512 226.036 483.012C226.536 483.512 226.817 484.19 226.817 484.897Z" fill="white"/>
<path fill-rule="evenodd" clip-rule="evenodd" d="M220.879 488.784C221.251 488.429 221.745 488.231 222.259 488.231H224.981C225.957 488.231 226.865 488.563 227.565 489.224C228.239 489.86 228.589 490.675 228.733 491.448C228.958 492.663 228.725 493.99 228.151 495.167V500.564C228.151 500.982 227.993 501.385 227.71 501.693C227.427 502.001 227.038 502.19 226.621 502.225C226.205 502.259 225.79 502.136 225.46 501.879C225.13 501.622 224.909 501.25 224.84 500.838L224.484 498.702L224.128 500.838C224.059 501.25 223.838 501.622 223.508 501.879C223.178 502.136 222.763 502.259 222.346 502.225C221.93 502.19 221.541 502.001 221.258 501.693C220.974 501.385 220.817 500.982 220.817 500.564V494.293C220.513 494.468 220.168 494.561 219.817 494.561H216.416C215.885 494.561 215.377 494.35 215.002 493.975C214.627 493.6 214.416 493.091 214.416 492.561C214.416 492.03 214.627 491.521 215.002 491.146C215.377 490.771 215.885 490.561 216.416 490.561H219.016L220.879 488.784ZM222.151 496.547V500.564C222.151 500.647 222.182 500.728 222.239 500.789C222.296 500.85 222.373 500.888 222.456 500.895C222.54 500.902 222.622 500.877 222.688 500.826C222.754 500.775 222.799 500.701 222.813 500.619L223.508 496.448C223.534 496.292 223.614 496.151 223.734 496.049C223.855 495.947 224.007 495.891 224.165 495.891H224.803C224.96 495.891 225.113 495.947 225.233 496.049C225.354 496.151 225.434 496.292 225.46 496.448L226.155 500.619C226.169 500.701 226.213 500.775 226.279 500.826C226.345 500.877 226.428 500.902 226.511 500.895C226.595 500.888 226.672 500.85 226.729 500.789C226.785 500.728 226.817 500.647 226.817 500.564V495.009C226.817 494.902 226.843 494.797 226.892 494.702C227.407 493.708 227.594 492.619 227.422 491.691C227.317 491.127 227.073 490.593 226.65 490.193C226.219 489.786 225.647 489.564 224.981 489.564H222.26C222.089 489.564 221.923 489.63 221.799 489.748L219.743 491.709C219.619 491.828 219.455 491.894 219.283 491.894H216.416C216.239 491.894 216.07 491.964 215.944 492.089C215.819 492.214 215.749 492.384 215.749 492.561C215.749 492.737 215.819 492.907 215.944 493.032C216.07 493.157 216.239 493.227 216.416 493.227H219.817C219.989 493.227 220.153 493.161 220.277 493.043L221.024 492.331C221.118 492.241 221.237 492.18 221.366 492.157C221.494 492.134 221.626 492.149 221.746 492.2C221.866 492.252 221.969 492.337 222.04 492.446C222.112 492.555 222.151 492.683 222.151 492.813V496.547Z" fill="white"/>
<defs>
<filter id="filter0_d_65_66" x="206.695" y="0.941956" width="246.001" height="246.001" filterUnits="userSpaceOnUse" color-interpolation-filters="sRGB">
<feFlood flood-opacity="0" result="BackgroundImageFix"/>
<feColorMatrix in="SourceAlpha" type="matrix" values="0 0 0 0 0 0 0 0 0 0 0 0 0 0 0 0 0 0 127 0" result="hardAlpha"/>
<feOffset/>
<feGaussianBlur stdDeviation="4.5"/>
<feComposite in2="hardAlpha" operator="out"/>
<feColorMatrix type="matrix" values="0 0 0 0 1 0 0 0 0 1 0 0 0 0 1 0 0 0 0.25 0"/>
<feBlend mode="normal" in2="BackgroundImageFix" result="effect1_dropShadow_65_66"/>
<feBlend mode="normal" in="SourceGraphic" in2="effect1_dropShadow_65_66" result="shape"/>
</filter>
<filter id="filter1_d_65_66" x="420.335" y="150.784" width="246.001" height="246.001" filterUnits="userSpaceOnUse" color-interpolation-filters="sRGB">
<feFlood flood-opacity="0" result="BackgroundImageFix"/>
<feColorMatrix in="SourceAlpha" type="matrix" values="0 0 0 0 0 0 0 0 0 0 0 0 0 0 0 0 0 0 127 0" result="hardAlpha"/>
<feOffset/>
<feGaussianBlur stdDeviation="4.5"/>
<feComposite in2="hardAlpha" operator="out"/>
<feColorMatrix type="matrix" values="0 0 0 0 1 0 0 0 0 1 0 0 0 0 1 0 0 0 0.25 0"/>
<feBlend mode="normal" in2="BackgroundImageFix" result="effect1_dropShadow_65_66"/>
<feBlend mode="normal" in="SourceGraphic" in2="effect1_dropShadow_65_66" result="shape"/>
</filter>
<filter id="filter2_d_65_66" x="341.389" y="378.624" width="246.001" height="246.001" filterUnits="userSpaceOnUse" color-interpolation-filters="sRGB">
<feFlood flood-opacity="0" result="BackgroundImageFix"/>
<feColorMatrix in="SourceAlpha" type="matrix" values="0 0 0 0 0 0 0 0 0 0 0 0 0 0 0 0 0 0 127 0" result="hardAlpha"/>
<feOffset/>
<feGaussianBlur stdDeviation="4.5"/>
<feComposite in2="hardAlpha" operator="out"/>
<feColorMatrix type="matrix" values="0 0 0 0 1 0 0 0 0 1 0 0 0 0 1 0 0 0 0.25 0"/>
<feBlend mode="normal" in2="BackgroundImageFix" result="effect1_dropShadow_65_66"/>
<feBlend mode="normal" in="SourceGraphic" in2="effect1_dropShadow_65_66" result="shape"/>
</filter>
<filter id="filter3_d_65_66" x="94.3167" y="378.937" width="246.001" height="246.001" filterUnits="userSpaceOnUse" color-interpolation-filters="sRGB">
<feFlood flood-opacity="0" result="BackgroundImageFix"/>
<feColorMatrix in="SourceAlpha" type="matrix" values="0 0 0 0 0 0 0 0 0 0 0 0 0 0 0 0 0 0 127 0" result="hardAlpha"/>
<feOffset/>
<feGaussianBlur stdDeviation="4.5"/>
<feComposite in2="hardAlpha" operator="out"/>
<feColorMatrix type="matrix" values="0 0 0 0 1 0 0 0 0 1 0 0 0 0 1 0 0 0 0.25 0"/>
<feBlend mode="normal" in2="BackgroundImageFix" result="effect1_dropShadow_65_66"/>
<feBlend mode="normal" in="SourceGraphic" in2="effect1_dropShadow_65_66" result="shape"/>
</filter>
<filter id="filter4_d_65_66" x="0.465347" y="161.005" width="246.001" height="246.001" filterUnits="userSpaceOnUse" color-interpolation-filters="sRGB">
<feFlood flood-opacity="0" result="BackgroundImageFix"/>
<feColorMatrix in="SourceAlpha" type="matrix" values="0 0 0 0 0 0 0 0 0 0 0 0 0 0 0 0 0 0 127 0" result="hardAlpha"/>
<feOffset/>
<feGaussianBlur stdDeviation="4.5"/>
<feComposite in2="hardAlpha" operator="out"/>
<feColorMatrix type="matrix" values="0 0 0 0 1 0 0 0 0 1 0 0 0 0 1 0 0 0 0.25 0"/>
<feBlend mode="normal" in2="BackgroundImageFix" result="effect1_dropShadow_65_66"/>
<feBlend mode="normal" in="SourceGraphic" in2="effect1_dropShadow_65_66" result="shape"/>
</filter>
<filter id="filter5_d_65_66" x="145.421" y="129.095" width="368" height="368" filterUnits="userSpaceOnUse" color-interpolation-filters="sRGB">
<feFlood flood-opacity="0" result="BackgroundImageFix"/>
<feColorMatrix in="SourceAlpha" type="matrix" values="0 0 0 0 0 0 0 0 0 0 0 0 0 0 0 0 0 0 127 0" result="hardAlpha"/>
<feMorphology radius="5" operator="dilate" in="SourceAlpha" result="effect1_dropShadow_65_66"/>
<feOffset/>
<feGaussianBlur stdDeviation="8"/>
<feComposite in2="hardAlpha" operator="out"/>
<feColorMatrix type="matrix" values="0 0 0 0 0 0 0 0 0 0 0 0 0 0 0 0 0 0 0.16 0"/>
<feBlend mode="normal" in2="BackgroundImageFix" result="effect1_dropShadow_65_66"/>
<feBlend mode="normal" in="SourceGraphic" in2="effect1_dropShadow_65_66" result="shape"/>
</filter>
</defs>
</svg>
