<svg width="700" height="597" viewBox="0 0 700 597" fill="none" xmlns="http://www.w3.org/2000/svg">
<path d="M621.486 385.674H368.436C366.261 385.671 364.177 384.805 362.639 383.267C361.101 381.729 360.236 379.645 360.232 377.47V8.89211C360.232 6.71628 361.096 4.62956 362.635 3.09101C364.174 1.55246 366.26 0.68811 368.436 0.68811H621.486C623.662 0.68811 625.749 1.55246 627.287 3.09101C628.826 4.62956 629.69 6.71628 629.69 8.89211V377.47C629.686 379.645 628.821 381.729 627.283 383.267C625.745 384.805 623.661 385.671 621.486 385.674ZM368.436 1.03811C366.353 1.03811 364.355 1.86558 362.882 3.33849C361.41 4.81141 360.582 6.8091 360.582 8.89211V377.47C360.582 379.553 361.41 381.551 362.882 383.024C364.355 384.497 366.353 385.324 368.436 385.324H621.486C623.569 385.324 625.567 384.497 627.04 383.024C628.513 381.551 629.34 379.553 629.34 377.47V8.89211C629.34 6.8091 628.513 4.81141 627.04 3.33849C625.567 1.86558 623.569 1.03811 621.486 1.03811H368.436Z" fill="#E0E0E0"/>
<path d="M329.687 385.674H76.6505C74.4734 385.674 72.3852 384.81 70.8444 383.272C69.3037 381.734 68.4362 379.647 68.4325 377.47V8.89212C68.4325 7.81358 68.6452 6.74562 69.0583 5.74935C69.4715 4.75308 70.077 3.84806 70.8403 3.08606C71.6036 2.32407 72.5097 1.72006 73.5067 1.30859C74.5036 0.897125 75.572 0.686282 76.6505 0.688122H329.687C331.862 0.688122 333.949 1.55247 335.488 3.09102C337.026 4.62957 337.891 6.71629 337.891 8.89212V377.47C337.891 379.646 337.026 381.733 335.488 383.271C333.949 384.81 331.862 385.674 329.687 385.674ZM76.6505 1.03812C74.5662 1.03812 72.5671 1.86514 71.0919 3.33765C69.6168 4.81016 68.7862 6.80783 68.7825 8.89212V377.47C68.7899 379.552 69.6221 381.546 71.0969 383.016C72.5716 384.485 74.5686 385.31 76.6505 385.31H329.687C330.718 385.31 331.739 385.107 332.692 384.712C333.645 384.318 334.511 383.739 335.24 383.01C335.969 382.28 336.548 381.415 336.943 380.462C337.337 379.509 337.541 378.488 337.541 377.456V8.89212C337.541 7.86072 337.337 6.83942 336.943 5.88653C336.548 4.93364 335.969 4.06782 335.24 3.33851C334.511 2.6092 333.645 2.03067 332.692 1.63597C331.739 1.24127 330.718 1.03812 329.687 1.03812H76.6505Z" fill="#E0E0E0"/>
<path d="M700 471.172H-0.000488281V471.522H700V471.172Z" fill="#E0E0E0"/>
<path d="M94.821 491.15H72.337V491.5H94.821V491.15Z" fill="#E0E0E0"/>
<path d="M313.43 487.356H238.488V487.706H313.43V487.356Z" fill="#E0E0E0"/>
<path d="M146.97 504.155H96.2201V504.505H146.97V504.155Z" fill="#E0E0E0"/>
<path d="M590.156 487.175H529.69V487.525H590.156V487.175Z" fill="#E0E0E0"/>
<path d="M611.492 487.175H602.63V487.525H611.492V487.175Z" fill="#E0E0E0"/>
<path d="M518.141 495.894H442.695V496.244H518.141V495.894Z" fill="#E0E0E0"/>
<path d="M198.925 19.7528H108.233V190.721H198.925V19.7528Z" fill="#E6E6E6"/>
<path d="M194.474 19.7528H87.9481V190.721H194.474V19.7528Z" fill="#F0F0F0"/>
<path d="M178.219 34.9456H104.131V175.534H178.219V34.9456Z" fill="#F1F8F0"/>
<path d="M137.816 67.5079C134.076 72.2222 131.156 77.5324 129.178 83.2159C127.204 88.9699 125.93 95.4239 126.896 101.5C127.722 106.666 130.788 111.678 135.758 113.75C141.092 115.99 146.692 113.862 150.976 110.446C154.952 107.282 160.076 101.752 158.746 96.2079C157.346 90.4259 150.458 89.2779 145.698 91.2239C134.75 95.6759 129.556 108.248 128.73 119.224C127.848 130.858 129.738 150.024 144.13 152.614C146.762 153.09 147.896 149.044 145.236 148.568C134.988 146.72 133.21 134.204 132.86 125.692C132.454 116.214 134.386 106.092 141.386 99.1619C144.102 96.4739 149.016 92.7779 152.964 95.0739C157.528 97.7479 152.306 103.474 149.94 105.756C146.93 108.668 142.632 111.356 138.278 110.18C134.19 109.046 131.782 104.916 131.068 100.968C130.088 95.5779 131.432 89.7679 133.154 84.5879C134.888 79.4778 137.472 74.6972 140.798 70.4479C142.436 68.3479 139.496 65.3519 137.83 67.4799L137.816 67.5079Z" fill="#F0F0F0"/>
<path d="M607.265 35.0031H529.887V134.291H607.265V35.0031Z" fill="#E6E6E6"/>
<path d="M603.485 35.0031H512.583V134.291H603.485V35.0031Z" fill="#F0F0F0"/>
<path d="M594.691 43.8228H520.953V125.471H594.691V43.8228Z" fill="#F1F8F0"/>
<path d="M571.801 69.9026H545.187V99.3726H571.801V69.9026Z" fill="#F0F0F0"/>
<path d="M607.265 173.46H529.887V272.748H607.265V173.46Z" fill="#E6E6E6"/>
<path d="M603.485 173.46H512.583V272.748H603.485V173.46Z" fill="#F0F0F0"/>
<path d="M594.691 182.283H520.953V263.931H594.691V182.283Z" fill="#F1F8F0"/>
<path d="M571.801 208.364H545.187V237.834H571.801V208.364Z" fill="#F0F0F0"/>
<path d="M253.681 366.395H68.4325V453.405H253.681V366.395Z" fill="#EBEBEB"/>
<path d="M83.5805 449.279L68.4325 588.495H78.1905L107.339 449.503L83.5805 449.279Z" fill="#EBEBEB"/>
<path d="M242.802 449.279L257.95 588.495H248.192L219.044 449.503L242.802 449.279Z" fill="#EBEBEB"/>
<path d="M115.22 342.245L123.354 366.395H108.318L115.22 342.245Z" fill="#E0E0E0"/>
<path d="M86.8539 366.395H115.218L123.352 326.943H95.0019L86.8539 366.395Z" fill="#E6E6E6"/>
<path d="M112.252 362.618L118.832 330.726H97.9582L91.3922 362.618H112.252Z" fill="#F1F8F0"/>
<path d="M166.781 340.511C165.306 336.922 164.609 333.061 164.737 329.183C164.865 325.305 165.815 321.498 167.523 318.013C173.459 306.953 175.195 304.223 171.205 301.927C167.215 299.631 165.717 310.859 165.717 310.859C163.827 305.795 163.63 300.253 165.157 295.067C167.775 286.989 169.441 273.829 165.829 272.415C162.217 271.001 165.157 288.837 162.133 294.927C160.547 290.649 159.521 286.183 159.081 281.641C158.675 275.145 159.333 264.841 156.491 262.167C153.649 259.493 151.843 261.313 154.615 275.635C156.303 284.142 157.24 292.781 157.415 301.451C157.415 301.451 151.255 282.677 147.125 282.117C142.995 281.557 142.925 287.717 146.537 292.925C150.149 298.133 156.911 307.681 158.045 312.525C158.045 312.525 151.255 298.399 145.207 302.725C139.159 307.051 150.485 315.563 155.539 318.671C160.593 321.779 164.135 341.071 164.135 341.071L166.781 340.511Z" fill="#E0E0E0"/>
<path d="M162.693 344.979C164.117 341.386 164.765 337.533 164.594 333.672C164.422 329.812 163.436 326.031 161.699 322.579C155.609 311.505 153.873 308.887 157.639 306.563C161.405 304.239 163.239 315.411 163.239 315.411C165.06 310.315 165.193 304.768 163.617 299.591C160.817 291.555 159.081 278.423 162.651 276.981C166.221 275.539 163.533 293.361 166.711 299.381C168.25 295.086 169.229 290.611 169.623 286.067C169.959 279.571 169.189 269.267 171.989 266.551C174.789 263.835 176.637 265.627 174.019 280.019C172.452 288.537 171.623 297.174 171.541 305.835C171.541 305.835 177.477 286.991 181.621 286.361C185.765 285.731 185.821 291.849 182.321 297.169C178.821 302.489 172.129 311.925 171.247 316.937C171.247 316.937 177.813 302.699 183.945 306.941C190.077 311.183 178.807 319.891 173.795 323.027C168.783 326.163 165.395 345.595 165.395 345.595L162.693 344.979Z" fill="#EBEBEB"/>
<path d="M186.005 336.855H144.243L147.645 366.745H182.645L186.005 336.855Z" fill="#E0E0E0"/>
<path d="M240.043 360.01V365.806H240.981V366.744H197.665C196.648 366.744 195.672 366.339 194.953 365.62C194.233 364.901 193.829 363.925 193.829 362.908C193.829 361.89 194.233 360.915 194.953 360.195C195.672 359.476 196.648 359.072 197.665 359.072H240.981V360.01H240.043Z" fill="#E0E0E0"/>
<path opacity="0.3" d="M240.043 360.01V365.806H240.981V366.744H219.099C218.081 366.744 217.106 366.339 216.386 365.62C215.667 364.901 215.263 363.925 215.263 362.908C215.263 361.89 215.667 360.915 216.386 360.195C217.106 359.476 218.081 359.072 219.099 359.072H240.981V360.01H240.043Z" fill="#F1F8F0"/>
<path d="M240.043 360.012V365.808H219.043C218.28 365.823 217.541 365.538 216.986 365.014C216.431 364.491 216.104 363.77 216.075 363.008C216.071 362.255 216.361 361.53 216.884 360.988C217.408 360.447 218.122 360.132 218.875 360.11H239.874L240.043 360.012Z" fill="#F1F8F0"/>
<path d="M244.689 352.354V358.15H245.627V359.074H202.311C201.336 359.015 200.42 358.586 199.75 357.874C199.08 357.162 198.707 356.222 198.707 355.245C198.707 354.267 199.08 353.327 199.75 352.615C200.42 351.904 201.336 351.475 202.311 351.416H245.627V352.354H244.689Z" fill="#E0E0E0"/>
<path d="M244.692 352.352V358.148H245.63V359.072H223.762C223.24 359.104 222.716 359.028 222.224 358.85C221.732 358.672 221.282 358.395 220.901 358.036C220.52 357.678 220.216 357.245 220.009 356.765C219.801 356.284 219.694 355.767 219.694 355.243C219.694 354.72 219.801 354.202 220.009 353.722C220.216 353.242 220.52 352.809 220.901 352.45C221.282 352.092 221.732 351.815 222.224 351.636C222.716 351.458 223.24 351.383 223.762 351.414H245.63V352.352H244.692Z" fill="#E6E6E6"/>
<path d="M244.689 352.354V358.15H223.759C222.993 358.143 222.26 357.835 221.718 357.294C221.176 356.752 220.869 356.019 220.861 355.252C220.848 354.877 220.911 354.502 221.046 354.151C221.18 353.8 221.385 353.479 221.646 353.209C221.907 352.938 222.22 352.723 222.567 352.576C222.913 352.43 223.285 352.354 223.661 352.354H244.661H244.689Z" fill="#F1F8F0"/>
<path d="M238.841 344.709V350.505H239.779V351.443H196.463C195.487 351.384 194.571 350.954 193.901 350.243C193.231 349.531 192.858 348.591 192.858 347.614C192.858 346.636 193.231 345.696 193.901 344.984C194.571 344.273 195.487 343.844 196.463 343.785H239.779V344.709H238.841Z" fill="#E0E0E0"/>
<path d="M238.838 344.707V350.503H239.776V351.441H218.006C217.484 351.473 216.96 351.397 216.468 351.219C215.976 351.041 215.526 350.764 215.145 350.405C214.764 350.047 214.46 349.614 214.253 349.134C214.045 348.653 213.938 348.136 213.938 347.612C213.938 347.089 214.045 346.571 214.253 346.091C214.46 345.611 214.764 345.178 215.145 344.819C215.526 344.46 215.976 344.184 216.468 344.005C216.96 343.827 217.484 343.752 218.006 343.783H239.874V344.707H238.838Z" fill="#E6E6E6"/>
<path d="M238.839 344.708V350.504H218.007C217.241 350.523 216.497 350.24 215.937 349.717C215.377 349.193 215.044 348.47 215.011 347.704C215 346.946 215.287 346.214 215.811 345.667C216.335 345.119 217.054 344.8 217.811 344.778H238.811L238.839 344.708Z" fill="#F1F8F0"/>
<path d="M243.614 377.835H79.2537V422.355H243.614V377.835Z" stroke="#E0E0E0" stroke-miterlimit="10"/>
<path d="M169.905 400.094C169.905 401.038 169.625 401.961 169.1 402.746C168.576 403.531 167.83 404.143 166.958 404.504C166.085 404.866 165.126 404.96 164.199 404.776C163.273 404.592 162.423 404.137 161.755 403.47C161.087 402.802 160.633 401.951 160.449 401.025C160.264 400.099 160.359 399.139 160.72 398.267C161.082 397.395 161.693 396.649 162.479 396.124C163.264 395.6 164.187 395.32 165.131 395.32C166.397 395.32 167.611 395.823 168.507 396.718C169.402 397.613 169.905 398.828 169.905 400.094Z" fill="#E0E0E0"/>
<path d="M640.221 588.489C640.221 593.193 510.287 597.001 350.001 597.001C189.715 597.001 59.7808 593.193 59.7808 588.489C59.7808 583.785 189.715 579.907 350.001 579.907C510.287 579.907 640.221 583.785 640.221 588.489Z" fill="#E6E6E6"/>
<path d="M194.602 526.85C184.784 526.963 175.299 523.294 168.114 516.602C160.573 509.77 156.802 500.213 156.802 487.93C156.684 482.846 157.592 477.791 159.473 473.066C161.354 468.342 164.17 464.045 167.75 460.434C171.206 456.81 175.378 453.942 180 452.015C184.622 450.087 189.595 449.14 194.602 449.234C199.537 449.142 204.435 450.091 208.978 452.021C213.521 453.951 217.605 456.818 220.964 460.434C224.48 464.08 227.236 468.388 229.072 473.108C230.908 477.829 231.788 482.867 231.66 487.93C231.66 500.063 227.927 509.574 220.46 516.462C213.528 523.168 204.247 526.897 194.602 526.85Z" fill="#1F8B5D"/>
<path d="M78.1904 252.563C78.1904 236.556 83.1138 220.344 92.9604 203.927C102.807 187.509 117.176 173.911 136.066 163.131C154.966 152.351 177.007 146.961 202.188 146.961C225.596 146.961 246.265 151.464 264.195 160.471C282.124 169.477 295.965 181.732 305.718 197.235C315.371 212.312 320.461 229.858 320.376 247.761C320.376 262.069 317.576 274.617 311.976 285.407C306.785 295.648 300.094 305.057 292.124 313.323C284.452 321.153 270.686 334.332 250.824 352.859C246.178 357.204 241.771 361.798 237.622 366.621C234.748 369.942 232.272 373.588 230.244 377.485C228.676 380.621 227.419 383.903 226.492 387.285C225.596 390.561 224.266 396.343 222.488 404.589C219.427 422.098 209.818 430.857 193.662 430.867C189.732 430.956 185.825 430.239 182.182 428.76C178.539 427.282 175.237 425.073 172.48 422.271C166.74 416.549 163.875 408.047 163.884 396.763C163.884 382.604 165.98 370.349 170.17 359.999C174.138 350.013 179.793 340.783 186.886 332.713C195.777 322.94 205.155 313.623 214.984 304.797C225.316 295.361 232.783 288.244 237.384 283.447C241.984 278.665 245.895 273.265 249.004 267.403C252.159 261.5 253.786 254.901 253.736 248.209C253.862 241.846 252.651 235.528 250.182 229.663C247.713 223.798 244.039 218.517 239.4 214.161C229.796 204.893 217.406 200.259 202.23 200.259C184.497 200.259 171.43 204.925 163.03 214.259C154.63 223.592 147.528 237.359 141.722 255.559C136.234 274.599 125.818 284.114 110.474 284.105C106.169 284.176 101.898 283.322 97.9514 281.6C94.0046 279.878 90.4739 277.328 87.5984 274.123C81.3264 267.496 78.1904 260.309 78.1904 252.563Z" fill="#1F8B5D"/>
<g opacity="0.3">
<path d="M194.6 526.85C184.782 526.963 175.297 523.294 168.112 516.602C160.57 509.77 156.8 500.213 156.8 487.93C156.681 482.846 157.59 477.791 159.471 473.066C161.352 468.342 164.167 464.045 167.748 460.434C171.204 456.81 175.375 453.942 179.998 452.015C184.62 450.087 189.592 449.14 194.6 449.234C199.535 449.142 204.433 450.091 208.976 452.021C213.518 453.951 217.603 456.818 220.962 460.434C224.478 464.08 227.234 468.388 229.07 473.108C230.906 477.829 231.786 482.867 231.658 487.93C231.658 500.063 227.924 509.574 220.458 516.462C213.526 523.168 204.245 526.897 194.6 526.85Z" fill="black"/>
<path d="M78.1904 252.563C78.1904 236.556 83.1138 220.344 92.9604 203.927C102.807 187.509 117.176 173.911 136.066 163.131C154.966 152.351 177.007 146.961 202.188 146.961C225.596 146.961 246.265 151.464 264.195 160.471C282.124 169.477 295.965 181.732 305.718 197.235C315.371 212.312 320.461 229.858 320.376 247.761C320.376 262.069 317.576 274.617 311.976 285.407C306.785 295.648 300.094 305.057 292.124 313.323C284.452 321.153 270.686 334.332 250.824 352.859C246.178 357.204 241.771 361.798 237.622 366.621C234.748 369.942 232.272 373.588 230.244 377.485C228.676 380.621 227.419 383.903 226.492 387.285C225.596 390.561 224.266 396.343 222.488 404.589C219.427 422.098 209.818 430.857 193.662 430.867C189.732 430.956 185.825 430.239 182.182 428.76C178.539 427.282 175.237 425.073 172.48 422.271C166.74 416.549 163.875 408.047 163.884 396.763C163.884 382.604 165.98 370.349 170.17 359.999C174.138 350.013 179.793 340.783 186.886 332.713C195.777 322.94 205.155 313.623 214.984 304.797C225.316 295.361 232.783 288.244 237.384 283.447C241.984 278.665 245.895 273.265 249.004 267.403C252.159 261.5 253.786 254.901 253.736 248.209C253.862 241.846 252.651 235.528 250.182 229.663C247.713 223.798 244.039 218.517 239.4 214.161C229.796 204.893 217.406 200.259 202.23 200.259C184.497 200.259 171.43 204.925 163.03 214.259C154.63 223.592 147.528 237.359 141.722 255.559C136.234 274.599 125.818 284.114 110.474 284.105C106.169 284.176 101.898 283.322 97.9514 281.6C94.0046 279.878 90.4739 277.328 87.5984 274.123C81.3264 267.496 78.1904 260.309 78.1904 252.563Z" fill="black"/>
</g>
<path d="M194.602 516.659C184.784 516.772 175.299 513.102 168.114 506.411C160.573 499.579 156.802 490.012 156.802 477.711C156.684 472.627 157.592 467.571 159.473 462.847C161.354 458.122 164.17 453.826 167.75 450.215C171.206 446.59 175.377 443.722 180 441.794C184.622 439.866 189.595 438.92 194.602 439.015C199.537 438.921 204.436 439.871 208.979 441.801C213.521 443.731 217.606 446.598 220.964 450.215C224.49 453.856 227.256 458.162 229.102 462.883C230.948 467.603 231.837 472.644 231.716 477.711C231.716 489.844 227.983 499.359 220.516 506.257C213.57 512.978 204.268 516.712 194.602 516.659Z" fill="#1F8B5D"/>
<path d="M78.1903 242.37C78.1903 226.363 83.1136 210.151 92.9603 193.734C102.807 177.317 117.176 163.709 136.066 152.91C154.966 142.13 177.007 136.74 202.188 136.74C225.596 136.74 246.265 141.243 264.194 150.25C282.124 159.257 295.965 171.511 305.718 187.014C315.369 202.092 320.459 219.638 320.376 237.54C320.376 251.848 317.576 264.397 311.976 275.186C306.788 285.429 300.097 294.839 292.124 303.102C284.452 310.923 270.686 324.102 250.824 342.638C246.178 346.983 241.771 351.577 237.622 356.4C234.748 359.721 232.272 363.367 230.244 367.264C228.676 370.4 227.419 373.682 226.492 377.064C225.559 380.349 224.224 386.117 222.488 394.368C219.427 411.896 209.818 420.655 193.662 420.646C189.732 420.735 185.825 420.018 182.182 418.54C178.539 417.061 175.237 414.853 172.48 412.05C166.74 406.338 163.875 397.835 163.884 386.542C163.884 372.383 165.98 360.129 170.17 349.778C174.142 339.794 179.796 330.565 186.886 322.492C195.777 312.72 205.154 303.402 214.984 294.576C225.316 285.14 232.783 278.023 237.384 273.226C241.984 268.444 245.895 263.044 249.004 257.182C252.161 251.28 253.787 244.681 253.736 237.988C253.856 231.63 252.642 225.319 250.172 219.459C247.703 213.6 244.034 208.322 239.4 203.968C229.796 194.7 217.406 190.066 202.23 190.066C184.497 190.066 171.43 194.733 163.03 204.066C154.63 213.399 147.528 227.166 141.722 245.366C136.234 264.406 125.818 273.921 110.474 273.912C106.17 273.983 101.901 273.13 97.9547 271.41C94.0084 269.691 90.4768 267.145 87.5983 263.944C81.3263 257.299 78.1903 250.107 78.1903 242.37Z" fill="#1F8B5D"/>
<path d="M536.269 58.8142C529.832 54.0481 521.926 51.6906 513.929 52.1523C505.933 52.6139 498.351 55.8654 492.504 61.3407C486.658 66.8159 482.916 74.1682 481.932 82.1176C480.947 90.0669 482.781 98.1099 487.115 104.846L484.315 114.758L495.123 113.582C495.277 113.694 495.403 113.834 495.557 113.946C502.868 119.341 512.023 121.611 521.008 120.256C529.992 118.902 538.07 114.033 543.465 106.722C548.86 99.4112 551.13 90.2565 549.775 81.2721C548.421 72.2876 543.552 64.2092 536.241 58.8142H536.269Z" fill="#1F8B5D"/>
<path opacity="0.7" d="M536.269 58.8142C529.832 54.0481 521.926 51.6906 513.929 52.1523C505.933 52.6139 498.351 55.8654 492.504 61.3407C486.658 66.8159 482.916 74.1682 481.932 82.1176C480.947 90.0669 482.781 98.1099 487.115 104.846L484.315 114.758L495.123 113.582C495.277 113.694 495.403 113.834 495.557 113.946C502.868 119.341 512.023 121.611 521.008 120.256C529.992 118.902 538.07 114.033 543.465 106.722C548.86 99.4112 551.13 90.2565 549.775 81.2721C548.421 72.2876 543.552 64.2092 536.241 58.8142H536.269Z" fill="#F1F8F0"/>
<path d="M539.948 56.5891C544.536 59.7825 548.265 64.0585 550.805 69.0379C553.345 74.0173 554.617 79.5464 554.508 85.1351" stroke="#1F8B5D" stroke-width="0.5" stroke-linecap="round" stroke-linejoin="round"/>
<path d="M554.176 90.2312C554.257 91.9356 553.98 93.6382 553.364 95.2292" stroke="#1F8B5D" stroke-width="0.5" stroke-linecap="round" stroke-linejoin="round"/>
<path d="M513.7 88.0595C514.431 86.8931 515.28 85.8048 516.234 84.8115C516.884 84.1356 517.474 83.4049 517.998 82.6275C518.382 82.0259 518.582 81.3251 518.572 80.6115C518.594 80.136 518.507 79.6617 518.318 79.2249C518.129 78.7882 517.842 78.4005 517.48 78.0915C516.669 77.4305 515.64 77.096 514.596 77.1535C513.508 77.1329 512.438 77.4296 511.516 78.0075C510.59 78.6033 509.818 79.4091 509.262 80.3595L504.824 77.3075C505.798 75.5167 507.253 74.0331 509.024 73.0235C510.913 71.9832 513.042 71.457 515.198 71.4975C517.64 71.3752 520.047 72.1244 521.988 73.6115C522.837 74.3288 523.509 75.2328 523.951 76.2528C524.393 77.2728 524.593 78.3813 524.536 79.4915C524.562 80.5486 524.396 81.6017 524.046 82.5995C523.752 83.4149 523.342 84.1835 522.828 84.8815C522.352 85.4975 521.736 86.2815 520.966 87.0235C520.238 87.765 519.573 88.5658 518.978 89.4175C518.553 90.1271 518.34 90.9429 518.362 91.7695H512.762C512.736 90.471 513.06 89.1896 513.7 88.0595ZM513.112 101.163C512.784 100.838 512.526 100.449 512.352 100.021C512.179 99.5925 512.095 99.1334 512.104 98.6715C512.093 98.2148 512.176 97.7607 512.347 97.337C512.518 96.9134 512.773 96.529 513.098 96.2075C513.793 95.5759 514.699 95.226 515.639 95.226C516.578 95.226 517.484 95.5759 518.18 96.2075C518.504 96.529 518.76 96.9134 518.931 97.337C519.102 97.7607 519.184 98.2148 519.174 98.6715C519.161 99.3682 518.945 100.046 518.552 100.621C518.159 101.197 517.606 101.645 516.962 101.91C516.317 102.175 515.609 102.245 514.925 102.112C514.241 101.98 513.611 101.65 513.112 101.163Z" fill="#1F8B5D"/>
<path d="M214.201 52.8812C209.938 59.676 208.196 67.7515 209.279 75.6992C210.361 83.647 214.199 90.9626 220.123 96.3701C226.048 101.778 233.682 104.934 241.695 105.289C249.708 105.644 257.592 103.174 263.971 98.3112L274.065 100.299L272.049 89.6172C272.147 89.4492 272.273 89.3092 272.371 89.1412C274.752 85.3217 276.357 81.0706 277.095 76.6308C277.833 72.1909 277.689 67.6491 276.672 63.2648C275.655 58.8805 273.784 54.7395 271.166 51.0782C268.548 47.4169 265.235 44.307 261.416 41.9262C257.596 39.5453 253.345 37.94 248.905 37.2021C244.465 36.4641 239.924 36.6078 235.539 37.6251C226.685 39.6796 219.009 45.1673 214.201 52.8812Z" fill="#1F8B5D"/>
<path opacity="0.7" d="M214.201 52.8812C209.938 59.676 208.196 67.7515 209.279 75.6992C210.361 83.647 214.199 90.9626 220.123 96.3701C226.048 101.778 233.682 104.934 241.695 105.289C249.708 105.644 257.592 103.174 263.971 98.3112L274.065 100.299L272.049 89.6172C272.147 89.4492 272.273 89.3092 272.371 89.1412C274.752 85.3217 276.357 81.0706 277.095 76.6308C277.833 72.1909 277.689 67.6491 276.672 63.2648C275.655 58.8805 273.784 54.7395 271.166 51.0782C268.548 47.4169 265.235 44.307 261.416 41.9262C257.596 39.5453 253.345 37.94 248.905 37.2021C244.465 36.4641 239.924 36.6078 235.539 37.6251C226.685 39.6796 219.009 45.1673 214.201 52.8812Z" fill="#F1F8F0"/>
<path d="M211.721 49.3779C214.537 44.5466 218.502 40.4853 223.265 37.5546C228.027 34.6239 233.439 32.9144 239.021 32.5779" stroke="#1F8B5D" stroke-width="0.5" stroke-linecap="round" stroke-linejoin="round"/>
<path d="M244.133 32.5072C245.824 32.3024 247.539 32.4453 249.173 32.9272" stroke="#1F8B5D" stroke-width="0.5" stroke-linecap="round" stroke-linejoin="round"/>
<path d="M242.299 72.2003C243.02 71.0307 243.865 69.9418 244.819 68.9523C245.477 68.2766 246.077 67.546 246.611 66.7683C246.995 66.1668 247.194 65.466 247.185 64.7523C247.207 64.2768 247.12 63.8026 246.931 63.3658C246.742 62.929 246.455 62.5413 246.093 62.2323C245.282 61.5714 244.253 61.2369 243.209 61.2943C242.121 61.2738 241.051 61.5705 240.129 62.1483C239.198 62.7425 238.421 63.5484 237.861 64.5003L233.409 61.4343C234.385 59.6449 235.839 58.1618 237.609 57.1503C239.515 56.1041 241.665 55.5824 243.839 55.6383C246.267 55.5059 248.664 56.2403 250.601 57.7103C251.453 58.4263 252.127 59.3297 252.572 60.3498C253.016 61.3699 253.218 62.479 253.163 63.5903C253.222 65.5288 252.62 67.4297 251.455 68.9803C250.979 69.5963 250.349 70.3803 249.593 71.1223C248.861 71.8602 248.196 72.6613 247.605 73.5163C247.167 74.2209 246.948 75.0393 246.975 75.8683H241.375C241.352 74.5854 241.671 73.3195 242.299 72.2003ZM241.711 85.3043C241.383 84.9787 241.125 84.59 240.951 84.1617C240.778 83.7333 240.694 83.2743 240.703 82.8123C240.692 82.3556 240.775 81.9016 240.946 81.4779C241.117 81.0543 241.372 80.6699 241.697 80.3483C242.392 79.7168 243.298 79.3669 244.238 79.3669C245.177 79.3669 246.083 79.7168 246.779 80.3483C247.436 81.0204 247.799 81.926 247.789 82.8659C247.778 83.8059 247.395 84.7031 246.723 85.3603C246.051 86.0176 245.145 86.3809 244.205 86.3704C243.265 86.3599 242.368 85.9764 241.711 85.3043Z" fill="#1F8B5D"/>
<path d="M561.583 531.945C561.583 531.161 558.937 453.769 546.351 441.519C534.115 429.619 520.059 441.085 519.471 441.519L518.197 440.007C518.365 439.867 534.227 426.931 547.723 440.007C560.883 452.789 563.459 528.543 563.557 531.763L561.583 531.945Z" fill="#263238"/>
<path d="M562.673 547.148C562.575 546.224 554.063 454.244 587.663 415.688L589.147 416.976C556.107 454.888 564.535 546.042 564.633 546.952L562.673 547.148Z" fill="#263238"/>
<path d="M561.399 537.42L559.425 537.294C559.495 536.244 566.005 432.714 541.365 410.048L542.765 408.648C568.063 431.902 561.707 533.122 561.399 537.42Z" fill="#263238"/>
<path d="M564.635 537.365H562.661C562.661 534.565 563.473 467.365 582.527 456.515C584.336 455.34 586.401 454.618 588.547 454.408C590.694 454.199 592.859 454.508 594.861 455.311C606.383 460.071 612.095 480.581 612.333 481.449L610.401 481.911C610.401 481.715 604.703 461.471 594.077 457.075C592.352 456.397 590.489 456.143 588.646 456.333C586.802 456.523 585.03 457.152 583.479 458.167C565.433 468.569 564.635 536.679 564.635 537.365Z" fill="#263238"/>
<path d="M557.202 537.405L555.242 537.293C555.242 536.775 558.112 484.289 543.944 465.795C540.514 461.315 536.79 459.187 532.856 459.453C523.574 460.111 515.79 473.691 515.72 473.831L513.998 472.851C514.334 472.263 522.398 458.221 532.716 457.451C537.336 457.129 541.648 459.523 545.512 464.563C560.128 483.673 557.342 535.221 557.202 537.405Z" fill="#263238"/>
<path d="M560.323 544.546C559.931 539.464 551.069 419.624 566.679 398.512L568.261 399.688C553.071 420.212 562.199 543.16 562.283 544.406L560.323 544.546Z" fill="#263238"/>
<path d="M601.999 461.901C601.999 461.901 592.045 465.583 595.419 473.507C604.953 495.837 627.619 498.217 627.619 498.217C627.619 498.217 638.273 481.333 629.537 468.229C617.469 450.169 602.181 456.077 601.999 461.901Z" fill="#1F8B5D"/>
<path d="M558.39 451.923C558.39 451.923 568.358 451.503 568.932 460.099C569.506 468.695 547.4 492.481 547.4 492.481C547.4 492.481 531.566 486.755 534.968 465.307C538.37 443.859 555.912 446.631 558.39 451.923Z" fill="#1F8B5D"/>
<path d="M563.22 401.83C561.984 401.642 560.812 401.153 559.808 400.406C558.805 399.659 558.001 398.677 557.466 397.546C552.762 386.346 568.904 374.18 590.506 380.578C590.506 380.578 591.066 399.576 579.46 407.08C567.854 414.584 563.22 401.83 563.22 401.83Z" fill="#1F8B5D"/>
<path d="M526.232 460.758C526.232 460.758 529.704 455.983 524.454 455.521C519.204 455.059 496.454 465.237 502.446 488.561C502.446 488.561 531.678 479.027 532.7 469.255C533.722 459.483 526.232 460.758 526.232 460.758Z" fill="#1F8B5D"/>
<path d="M588.575 410.173C589.105 408.755 589.941 407.471 591.022 406.411C592.103 405.351 593.405 404.542 594.833 404.041C599.789 402.221 618.185 403.369 618.437 427.435C618.437 427.435 590.143 432.139 586.629 422.969C583.115 413.799 588.575 410.173 588.575 410.173Z" fill="#1F8B5D"/>
<path d="M573.284 430.182C573.839 429.253 574.732 428.575 575.775 428.288C576.818 428.001 577.932 428.128 578.884 428.642C582.524 430.406 593.248 441.438 583.014 454.752C583.014 454.752 564.03 443.328 565.57 435.32C566.998 427.928 573.284 430.182 573.284 430.182Z" fill="#1F8B5D"/>
<path d="M526.75 435.975C526.75 435.975 529.55 432.391 525.476 431.943C521.402 431.495 503.454 436.298 507.654 454.274C507.654 454.274 529.578 452.622 530.53 445.159C531.482 437.697 526.75 435.975 526.75 435.975Z" fill="#1F8B5D"/>
<path d="M589.469 585.441H535.863L530.067 529.959H595.251L589.469 585.441Z" fill="#263238"/>
<path d="M604.268 522.37H521.052V537.575H604.268V522.37Z" fill="#263238"/>
<path opacity="0.3" d="M545.369 484.554C543.717 472.864 549.639 459.844 558.389 451.92" stroke="black" stroke-width="0.5" stroke-linecap="round" stroke-linejoin="round"/>
<path opacity="0.3" d="M573.285 430.838C577.846 435.381 580.959 441.173 582.231 447.484" stroke="black" stroke-width="0.5" stroke-linecap="round" stroke-linejoin="round"/>
<path opacity="0.3" d="M602.001 461.901C611.439 466.433 619.113 473.959 623.827 483.307" stroke="black" stroke-width="0.5" stroke-linecap="round" stroke-linejoin="round"/>
<path opacity="0.3" d="M588.574 410.175C593.25 408.775 597.478 410.259 602.042 412.009C606.628 413.77 610.526 416.961 613.158 421.109" stroke="black" stroke-width="0.5" stroke-linecap="round" stroke-linejoin="round"/>
<path d="M548.869 414.233C548.869 414.233 555.505 415.017 555.869 410.957C556.233 406.897 533.917 391.063 515.591 404.139C515.591 404.139 521.191 422.339 534.659 425.601C548.127 428.863 548.869 414.233 548.869 414.233Z" fill="#1F8B5D"/>
<path opacity="0.3" d="M548.658 414.555C541.658 405.175 524.536 402.122 518.698 404.236" stroke="black" stroke-width="0.5" stroke-linecap="round" stroke-linejoin="round"/>
<path opacity="0.3" d="M526.958 436.309C521.246 438.423 515.17 442.077 512.006 447.271" stroke="black" stroke-width="0.5" stroke-linecap="round" stroke-linejoin="round"/>
<path opacity="0.3" d="M505.567 479.71C510.093 471.094 517.45 464.301 526.399 460.474" stroke="black" stroke-width="0.5" stroke-linecap="round" stroke-linejoin="round"/>
<path opacity="0.3" d="M564.102 401.382C565.909 397.591 568.471 394.21 571.632 391.447C574.793 388.683 578.486 386.594 582.484 385.31" stroke="black" stroke-width="0.5" stroke-linecap="round" stroke-linejoin="round"/>
<path opacity="0.3" d="M530.865 537.558L531.901 547.526H593.417L594.467 537.558H530.865Z" fill="black"/>
<path d="M351.903 532.925L357.363 572.979L370.411 573.637L374.639 535.025L351.903 532.925Z" fill="#263238"/>
<path d="M381.527 591.573H352.337C352.337 591.573 351.693 590.341 352.421 587.079C352.533 586.575 352.687 586.015 352.869 585.399V585.315C353.149 584.405 353.457 583.299 353.793 582.095C355.193 577.209 356.705 570.825 356.705 570.825C356.705 570.825 361.563 560.423 367.233 563.027C372.217 565.295 371.041 571.819 371.041 571.819C371.62 574.628 373.123 577.161 375.311 579.015C377.649 581.101 379.973 582.711 381.093 585.315C381.306 585.816 381.47 586.336 381.583 586.869C381.59 586.939 381.59 587.009 381.583 587.079C381.847 588.567 381.828 590.092 381.527 591.573Z" fill="#263238"/>
<path opacity="0.3" d="M352.421 587.075C351.693 590.337 352.337 591.569 352.337 591.569H381.527C381.846 590.091 381.885 588.567 381.639 587.075H352.421Z" fill="#F1F8F0"/>
<path d="M369.893 573.457C369.131 572.845 368.168 572.539 367.192 572.599C366.217 572.658 365.298 573.079 364.615 573.779C364.223 574.171 363.607 573.555 364.013 573.177C364.857 572.316 365.993 571.804 367.196 571.742C368.399 571.679 369.582 572.072 370.509 572.841C370.943 573.191 370.327 573.793 369.893 573.457Z" fill="#1F8B5D"/>
<path d="M370.719 576.185C369.958 575.57 368.994 575.262 368.017 575.322C367.041 575.381 366.122 575.804 365.441 576.507C365.357 576.571 365.252 576.602 365.146 576.594C365.041 576.586 364.942 576.54 364.868 576.464C364.794 576.389 364.75 576.289 364.745 576.183C364.74 576.077 364.773 575.973 364.839 575.891C365.683 575.036 366.817 574.528 368.017 574.469C369.217 574.409 370.396 574.802 371.321 575.569C371.769 575.905 371.153 576.521 370.719 576.185Z" fill="#1F8B5D"/>
<path d="M371.547 578.689C370.786 578.074 369.822 577.766 368.846 577.826C367.869 577.886 366.95 578.308 366.269 579.011C366.185 579.075 366.08 579.106 365.975 579.098C365.869 579.09 365.77 579.044 365.696 578.969C365.622 578.893 365.579 578.793 365.573 578.687C365.568 578.582 365.601 578.478 365.667 578.395C366.514 577.539 367.65 577.031 368.853 576.972C370.055 576.912 371.236 577.305 372.163 578.073C372.597 578.409 371.981 579.025 371.547 578.689Z" fill="#1F8B5D"/>
<path d="M297.12 530.42L291.66 570.474L278.612 571.132L274.384 532.52L297.12 530.42Z" fill="#263238"/>
<path d="M267.495 589.062H296.685C296.685 589.062 297.329 587.83 296.601 584.568C296.489 584.064 296.335 583.504 296.153 582.888C296.153 582.888 296.153 582.888 296.153 582.804C295.887 581.894 295.565 580.788 295.229 579.584C293.829 574.698 292.331 568.384 292.331 568.384C292.331 568.384 287.473 557.982 281.789 560.586C276.805 562.854 277.981 569.378 277.981 569.378C277.421 572.178 275.943 574.71 273.781 576.574C271.443 578.66 269.119 580.27 268.013 582.874C267.795 583.375 267.626 583.895 267.509 584.428C267.502 584.498 267.502 584.569 267.509 584.638C267.231 586.099 267.226 587.6 267.495 589.062Z" fill="#263238"/>
<path opacity="0.3" d="M296.603 584.571C297.331 587.833 296.687 589.065 296.687 589.065H267.497C267.178 587.587 267.14 586.063 267.385 584.571H296.603Z" fill="#F1F8F0"/>
<path d="M279.13 570.951C279.891 570.337 280.855 570.029 281.831 570.088C282.808 570.148 283.727 570.571 284.408 571.273C284.8 571.665 285.416 571.049 285.01 570.671C284.169 569.812 283.035 569.3 281.834 569.237C280.633 569.175 279.453 569.567 278.528 570.335C278.08 570.685 278.696 571.287 279.13 570.951Z" fill="#1F8B5D"/>
<path d="M278.303 573.679C279.064 573.065 280.028 572.757 281.004 572.816C281.981 572.876 282.9 573.299 283.581 574.001C283.665 574.065 283.77 574.096 283.875 574.089C283.981 574.081 284.08 574.035 284.154 573.959C284.228 573.883 284.271 573.783 284.277 573.678C284.282 573.572 284.249 573.468 284.183 573.385C283.338 572.53 282.204 572.023 281.004 571.964C279.804 571.904 278.626 572.296 277.701 573.063C277.267 573.399 277.869 574.015 278.303 573.679Z" fill="#1F8B5D"/>
<path d="M277.48 576.185C278.241 575.57 279.205 575.262 280.182 575.322C281.158 575.381 282.077 575.804 282.758 576.507C282.842 576.571 282.947 576.602 283.053 576.594C283.158 576.586 283.257 576.54 283.331 576.464C283.405 576.389 283.449 576.289 283.454 576.183C283.46 576.077 283.426 575.973 283.36 575.891C282.516 575.036 281.382 574.528 280.182 574.469C278.982 574.409 277.803 574.802 276.878 575.569C276.43 575.905 277.046 576.521 277.48 576.185Z" fill="#1F8B5D"/>
<path d="M380.491 270.062L319.787 273.674L282.645 267.262C282.645 267.262 280.125 309.71 276.961 410.51C276.261 432.476 270.451 563.11 270.451 563.11L303.099 566.428C303.099 566.428 319.311 430.936 321.789 419.106C323.287 411.994 328.789 358.556 333.269 333.006C335.411 354.314 337.189 405.722 338.799 419.554C338.799 419.554 346.905 530.756 348.053 562.354L378.489 560.842C382.241 517.54 383.515 359.802 383.515 359.802C385.615 326.664 380.491 270.062 380.491 270.062Z" fill="#263238"/>
<path opacity="0.4" d="M380.491 270.062L319.787 273.674L282.645 267.262C282.645 267.262 280.125 309.71 276.961 410.51C276.261 432.476 270.451 563.11 270.451 563.11L303.099 566.428C303.099 566.428 319.311 430.936 321.789 419.106C323.287 411.994 328.789 358.556 333.269 333.006C335.411 354.314 337.189 405.722 338.799 419.554C338.799 419.554 346.905 530.756 348.053 562.354L378.489 560.842C382.241 517.54 383.515 359.802 383.515 359.802C385.615 326.664 380.491 270.062 380.491 270.062Z" fill="#F1F8F0"/>
<path d="M306.935 127.346C312.535 126.996 327.067 124.028 347.899 126.24C358.735 127.402 367.597 127.15 378.699 132.26L384.201 265.764C384.285 276.796 382.521 278.364 382.521 278.364C382.521 278.364 382.829 284.622 382.857 284.818C346.247 298.972 304.093 298.048 280.769 283.516C281.315 283.6 280.769 278.994 280.769 278.994C280.769 278.994 277.255 275.424 278.459 264.084C282.477 226.284 291.283 165.286 297.513 131.266C297.695 130.398 306.081 127.402 306.935 127.346Z" fill="#1F8B5D"/>
<path opacity="0.3" d="M306.935 127.346C312.535 126.996 327.067 124.028 347.899 126.24C358.735 127.402 367.597 127.15 378.699 132.26L384.201 265.764C384.285 276.796 382.521 278.364 382.521 278.364C382.521 278.364 382.829 284.622 382.857 284.818C346.247 298.972 304.093 298.048 280.769 283.516C281.315 283.6 280.769 278.994 280.769 278.994C280.769 278.994 277.255 275.424 278.459 264.084C282.477 226.284 291.283 165.286 297.513 131.266C297.695 130.398 306.081 127.402 306.935 127.346Z" fill="black"/>
<path opacity="0.3" d="M374.722 139.551C373.322 139.551 367.4 153.187 363.634 169.721C359.868 186.255 350.222 217.321 350.222 217.321L292.542 226.421L289.224 253.917C289.224 253.917 366.224 260.917 375.156 251.327C384.088 241.737 381.666 239.833 384.956 222.683C387.854 207.395 389.394 169.007 388.932 158.815C388.246 144.325 376.71 139.593 374.722 139.551Z" fill="black"/>
<path d="M266.671 226.463C266.671 226.463 259.265 237.663 264.207 240.463C269.149 243.263 287.629 248.247 287.629 248.247V227.247L266.671 226.463Z" fill="#EBB373"/>
<path d="M378.238 132.033C376.838 132.033 368.788 146.873 365.036 163.407C361.284 179.941 353.486 219.337 353.486 219.337L287.686 227.331V251.019C287.686 251.019 367.108 256.535 376.068 246.819C385.028 237.103 385.238 232.273 388.486 215.137C391.384 199.849 392.924 161.447 392.462 151.269C391.762 136.793 380.226 132.075 378.238 132.033Z" fill="#1F8B5D"/>
<path opacity="0.3" d="M378.238 132.033C376.838 132.033 368.788 146.873 365.036 163.407C361.284 179.941 353.486 219.337 353.486 219.337L287.686 227.331V251.019C287.686 251.019 367.108 256.535 376.068 246.819C385.028 237.103 385.238 232.273 388.486 215.137C391.384 199.849 392.924 161.447 392.462 151.269C391.762 136.793 380.226 132.075 378.238 132.033Z" fill="black"/>
<g opacity="0.3">
<path d="M365.399 150.445C366.559 146.596 368.836 143.178 371.942 140.626C375.048 138.073 378.842 136.501 382.843 136.109C383.515 136.109 383.515 135.003 382.843 135.059C378.611 135.447 374.59 137.085 371.292 139.765C367.993 142.445 365.567 146.046 364.321 150.109C364.297 150.24 364.324 150.374 364.395 150.487C364.465 150.599 364.576 150.681 364.704 150.716C364.832 150.751 364.968 150.737 365.087 150.676C365.205 150.616 365.296 150.513 365.343 150.389L365.399 150.445Z" fill="black"/>
</g>
<path d="M311.402 123.385C311.402 123.385 312.452 126.591 311.696 127.585C311.288 128.179 310.699 128.626 310.016 128.859C310.016 128.859 311.626 131.253 310.996 132.779C310.996 132.779 313.418 135.495 311.962 137.343C311.783 137.654 311.525 137.912 311.214 138.092C310.903 138.272 310.55 138.366 310.191 138.366C309.832 138.366 309.479 138.272 309.168 138.092C308.858 137.912 308.599 137.654 308.42 137.343C307.916 136.545 305.732 142.187 302.974 140.969C300.216 139.751 302.89 136.461 303.73 135.257L301.042 135.663C301.042 135.663 297.108 144.455 294.168 144.861C291.228 145.267 283.192 144.427 282.478 140.969C282.478 140.969 295.078 118.023 295.89 117.533C296.534 117.169 303.968 115.531 307.846 114.733C308.54 114.577 309.266 114.64 309.922 114.914C310.579 115.187 311.135 115.657 311.514 116.259C312.76 118.275 314.314 121.201 313.138 122.041L311.402 123.371" fill="#EBB373"/>
<path opacity="0.3" d="M281.541 142.917C280.855 143.883 260.415 207.149 263.817 218.825C267.219 230.501 272.315 234.715 280.813 233.091C289.31 231.467 293.734 228.891 294.812 218.167C295.89 207.443 303.044 148.082 298.06 144.988C295.61 143.504 281.541 142.917 281.541 142.917Z" fill="black"/>
<path d="M278.22 140.438C277.548 141.404 257.108 204.656 260.51 216.332C263.912 228.008 269.008 232.222 277.506 230.598C286.004 228.974 290.414 226.398 291.436 215.688C292.458 204.978 301.124 145.464 298.506 144.4C295.888 143.336 278.22 140.438 278.22 140.438Z" fill="#1F8B5D"/>
<path opacity="0.3" d="M278.22 140.438C277.548 141.404 257.108 204.656 260.51 216.332C263.912 228.008 269.008 232.222 277.506 230.598C286.004 228.974 290.414 226.398 291.436 215.688C292.458 204.978 301.124 145.464 298.506 144.4C295.888 143.336 278.22 140.438 278.22 140.438Z" fill="black"/>
<path d="M348.6 130.829C348.6 130.829 339.094 138.893 336.616 139.509C333.284 140.335 322.938 129.191 322.938 129.191C327.04 123.857 325.052 119.769 324.142 113.637L350.294 88.4373C350.294 88.4373 347.564 88.4373 347.494 88.4373C346.822 90.6353 346.668 103.935 347.144 120.763L348.6 130.829Z" fill="#EBB373"/>
<g opacity="0.2">
<path d="M337.398 112.394C335.2 116.678 330.398 119.996 325.484 121.326C325.484 120.864 325.274 120.22 325.218 119.772C325.12 119.072 324.854 118.022 324.714 117.294C324.574 116.566 324.308 115.446 324.042 114.494C323.902 114.144 323.776 114.228 323.65 113.878L323.37 113.15L336.95 104.414C338.322 105.044 339.106 108.922 337.398 112.394Z" fill="black"/>
</g>
<path d="M348.348 70.9829C348.296 67.0709 347.245 63.237 345.294 59.8457C343.343 56.4543 340.558 53.6181 337.202 51.6064C333.847 49.5948 330.033 48.4745 326.122 48.3521C322.212 48.2296 318.335 49.1091 314.86 50.9069C299.068 58.9709 298.928 84.0029 303.828 98.7169C309.26 115.069 330.568 120.949 342.16 106.935C349.86 97.6109 348.768 87.7969 348.348 70.9829Z" fill="#EBB373"/>
<path d="M324.882 81.2585C325.148 82.9525 324.462 84.4645 323.356 84.6185C322.25 84.7725 321.13 83.5405 320.85 81.8185C320.57 80.0965 321.27 78.6125 322.39 78.4445C323.51 78.2765 324.616 79.5505 324.882 81.2585Z" fill="#263238"/>
<path d="M307.62 82.9956C307.9 84.6896 307.214 86.2016 306.094 86.3696C304.974 86.5376 303.868 85.2916 303.602 83.5696C303.336 81.8476 304.008 80.3636 305.128 80.2096C306.248 80.0556 307.354 81.3016 307.62 82.9956Z" fill="#263238"/>
<path d="M314.09 79.9944C314.09 79.9944 310.044 89.2765 308.868 92.9725C311.57 94.7365 315.476 93.1124 315.476 93.1124L314.09 79.9944Z" fill="#C15854"/>
<path d="M326.675 72.3393C326.56 72.4257 326.425 72.4814 326.283 72.501C326.141 72.5206 325.996 72.5035 325.863 72.4513C324.936 72.0359 323.923 71.8496 322.91 71.9081C321.896 71.9666 320.911 72.2681 320.039 72.7873C319.864 72.9077 319.648 72.9547 319.439 72.918C319.229 72.8814 319.043 72.764 318.919 72.5913C318.857 72.5051 318.814 72.4076 318.79 72.3045C318.767 72.2013 318.764 72.0945 318.782 71.9902C318.801 71.886 318.839 71.7865 318.896 71.6974C318.953 71.6083 319.028 71.5314 319.115 71.4713C320.212 70.8094 321.451 70.4185 322.729 70.3308C324.007 70.2432 325.288 70.4614 326.465 70.9673C326.564 71.0058 326.654 71.0637 326.731 71.1377C326.807 71.2116 326.868 71.3001 326.91 71.398C326.951 71.4958 326.973 71.601 326.974 71.7073C326.974 71.8137 326.953 71.9191 326.913 72.0173C326.858 72.1407 326.777 72.2506 326.675 72.3393Z" fill="#263238"/>
<path d="M302.523 79.0166C302.377 78.9517 302.258 78.8378 302.187 78.6946C302.133 78.6042 302.097 78.5036 302.082 78.399C302.067 78.2945 302.074 78.188 302.101 78.086C302.129 77.984 302.177 77.8886 302.242 77.8055C302.307 77.7225 302.388 77.6535 302.481 77.6026C303.566 76.9425 304.795 76.5545 306.063 76.4716C307.33 76.3888 308.599 76.6135 309.761 77.1266C309.855 77.1741 309.939 77.2397 310.007 77.3197C310.076 77.3997 310.128 77.4925 310.161 77.5927C310.193 77.6929 310.206 77.7986 310.197 77.9036C310.189 78.0086 310.159 78.1109 310.111 78.2046C310.066 78.2994 310.003 78.3843 309.925 78.4541C309.847 78.524 309.755 78.5775 309.656 78.6115C309.557 78.6454 309.452 78.6591 309.347 78.6517C309.243 78.6444 309.141 78.6161 309.047 78.5686C308.124 78.162 307.115 77.9889 306.109 78.0646C305.103 78.1403 304.131 78.4625 303.279 79.0026C303.165 79.0698 303.035 79.1064 302.903 79.1088C302.77 79.1113 302.64 79.0795 302.523 79.0166Z" fill="#263238"/>
<path d="M343.374 81.1455C343.374 81.1455 340.84 52.6695 331.95 51.5915C323.06 50.5135 321.688 58.8015 315.864 59.0115C310.04 59.2215 310.124 54.9235 310.124 54.9235C306.722 57.3455 304.44 64.2895 302.074 69.6515C302.074 69.6515 303.278 54.0135 309.466 49.2395C321.492 39.9575 338.39 41.6515 346.034 48.7215C353.678 55.7915 353.636 70.7295 353.636 70.7295C352.88 82.2795 352.026 88.7615 347.546 96.1815L343.374 81.1455Z" fill="#263238"/>
<path d="M355.684 81.5077C355.348 83.646 354.592 85.6968 353.46 87.542C352.329 89.3872 350.844 90.9905 349.09 92.2597C344.358 95.6197 341.558 90.3137 341.194 84.8117C340.858 79.8697 341.348 73.7097 346.906 72.5337C352.464 71.3577 356.454 76.1317 355.684 81.5077Z" fill="#EBB373"/>
<path opacity="0.2" d="M351.007 77.3091C350.548 76.8802 349.972 76.5957 349.353 76.4912C348.733 76.3866 348.096 76.4666 347.521 76.7211C346.381 77.2685 345.466 78.1935 344.931 79.3391C344.23 80.6846 343.897 82.1914 343.965 83.7071" stroke="black" stroke-width="0.5" stroke-linecap="round" stroke-linejoin="round"/>
<path d="M339.177 57.7792C338.618 55.8118 337.655 53.982 336.352 52.4059C335.048 50.8298 333.431 49.5417 331.603 48.6232C329.814 47.918 327.923 47.5067 326.003 47.4052C320.907 46.9852 324.281 45.2632 319.171 45.6832L314.411 46.8732C309.68 48.939 305.183 51.5063 300.999 54.5312C296.081 58.3296 290.497 61.1782 284.535 62.9312C283.527 63.2252 282.323 63.6872 282.141 64.7092C281.959 65.7312 282.967 66.6132 283.905 67.1172C286.925 68.7308 290.318 69.5184 293.74 69.4004C297.161 69.2824 300.492 68.263 303.393 66.4452C302.091 70.2532 294.657 72.0452 297.401 72.3812C301.624 73.2523 306.004 72.9755 310.084 71.5794C314.164 70.1833 317.795 67.719 320.599 64.4432C320.51 65.5536 320.658 66.6703 321.033 67.7192C321.231 68.2393 321.578 68.6888 322.032 69.0104C322.486 69.3321 323.025 69.5113 323.581 69.5252C324.024 69.4502 324.448 69.2878 324.828 69.0475C325.208 68.8071 325.536 68.4936 325.793 68.1252C327.809 65.6892 328.593 62.5252 329.223 59.3752C332.807 63.1692 338.169 77.3652 342.299 80.5572C349.327 71.1072 340.451 61.6432 339.177 57.7792Z" fill="#263238"/>
<path d="M318.541 98.8022C319.426 98.3058 320.414 98.0221 321.427 97.9735C322.441 97.9249 323.451 98.1127 324.379 98.5222C324.5 98.5865 324.64 98.6035 324.772 98.5698C324.904 98.5361 325.019 98.4542 325.093 98.3402C325.161 98.2169 325.178 98.0725 325.141 97.9369C325.105 97.8013 325.017 97.6851 324.897 97.6122C323.807 97.116 322.615 96.8841 321.418 96.9352C320.221 96.9862 319.054 97.3189 318.009 97.9062C317.951 97.9411 317.899 97.9873 317.858 98.0421C317.817 98.0969 317.787 98.1592 317.771 98.2255C317.754 98.2918 317.75 98.3608 317.76 98.4285C317.769 98.4962 317.792 98.5613 317.827 98.6202C317.862 98.679 317.909 98.7304 317.963 98.7714C318.018 98.8124 318.08 98.8422 318.147 98.8591C318.213 98.876 318.282 98.8796 318.35 98.8699C318.417 98.8601 318.483 98.8371 318.541 98.8022Z" fill="#263238"/>
<path d="M339.275 44.7194C338.865 42.9638 338.175 41.2857 337.231 39.7494C337.012 39.402 336.667 39.1532 336.268 39.0556C335.869 38.958 335.448 39.0193 335.094 39.2265C334.739 39.4337 334.479 39.7707 334.369 40.1661C334.258 40.5615 334.305 40.9844 334.501 41.3454C334.92 42.0155 335.285 42.7177 335.593 43.4454L335.439 43.0674C335.774 43.8744 336.041 44.7079 336.237 45.5594C336.292 45.7581 336.386 45.944 336.513 46.1064C336.639 46.2688 336.797 46.4046 336.977 46.506C337.156 46.6075 337.354 46.6725 337.558 46.6975C337.763 46.7224 337.97 46.7068 338.169 46.6514C338.567 46.5338 338.904 46.2673 339.11 45.9074C339.316 45.5475 339.375 45.1219 339.275 44.7194Z" fill="#263238"/>
<path d="M340.872 48.3456C340.872 48.1776 340.872 48.0096 340.872 47.8556C340.872 47.7016 340.872 47.4216 340.872 47.3656C340.872 47.3096 340.872 47.7156 340.872 47.4636C340.872 47.2116 340.872 47.3236 340.872 47.2536C340.872 47.1836 340.942 46.9316 340.984 46.7776C341.056 46.459 341.15 46.1456 341.264 45.8396C341.264 45.8396 341.264 45.7136 341.334 45.6436C341.404 45.5736 341.418 45.5596 341.334 45.6436C341.424 45.5043 341.494 45.3536 341.544 45.1956C341.684 44.9343 341.838 44.6683 342.006 44.3976L342.286 44.0056C342.132 44.1876 342.286 44.0056 342.356 43.9076C342.551 43.6703 342.762 43.4459 342.986 43.2356L343.35 42.8996L343.56 42.7316C343.252 42.9556 343.714 42.5916 343.56 42.7316C343.921 42.521 344.184 42.176 344.292 41.772C344.399 41.3681 344.343 40.9379 344.134 40.5756C343.919 40.2197 343.573 39.9619 343.17 39.8573C342.767 39.7527 342.339 39.8095 341.978 40.0156C340.647 40.9781 339.561 42.2397 338.808 43.6987C338.054 45.1577 337.653 46.7734 337.638 48.4156C337.675 48.8077 337.857 49.1719 338.148 49.437C338.439 49.7021 338.819 49.849 339.213 49.849C339.607 49.849 339.987 49.7021 340.278 49.437C340.569 49.1719 340.751 48.8077 340.788 48.4156L340.872 48.3456Z" fill="#263238"/>
<path d="M463.664 160.57C463.664 160.57 472.302 161.326 478.042 171.224C483.782 181.122 489.41 189.228 489.41 189.228L470.846 201.604L463.664 160.57Z" fill="#263238"/>
<path opacity="0.7" d="M463.664 160.57C463.664 160.57 472.302 161.326 478.042 171.224C483.782 181.122 489.41 189.228 489.41 189.228L470.846 201.604L463.664 160.57Z" fill="#F1F8F0"/>
<path d="M474.445 246.024C472.244 244.832 469.745 244.302 467.249 244.498C448.605 244.314 429.99 246.04 411.697 249.65L408.491 251.232C405.957 249.832 402.583 250.742 400.455 252.758C398.473 254.924 396.975 257.486 396.059 260.276C386.595 283.754 377.579 307.47 371.167 331.956C369.683 337.556 368.367 343.94 371.167 349.092C374.429 355.098 381.905 357.212 388.625 358.416C410.619 362.322 433.061 362.616 455.391 362.616C460.823 362.616 466.591 362.518 471.099 359.438C477.357 355.126 478.841 346.656 479.569 339.096C482.258 311.43 481.977 283.556 478.729 255.95C478.309 252.31 477.553 248.11 474.445 246.024Z" fill="#263238"/>
<path d="M453.376 574.436L468.818 575.948L480.228 536.832L456.736 534.284L453.376 574.436Z" fill="#B97964"/>
<path d="M471.057 569.13H465.541C464.926 569.135 464.321 569.287 463.776 569.572C463.231 569.856 462.761 570.266 462.405 570.768C459.213 575.108 456.805 573.456 453.375 569.368C451.177 569.116 450.575 571.636 450.407 572.308L446.207 587.302C446.122 587.6 446.096 587.913 446.131 588.222C446.166 588.53 446.262 588.829 446.413 589.101C446.564 589.373 446.767 589.612 447.01 589.805C447.253 589.999 447.532 590.142 447.831 590.228C448.055 590.284 448.286 590.312 448.517 590.312H492.211C499.211 590.312 500.611 583.312 497.727 582.668C484.861 579.868 475.747 576.032 471.771 572.28C471.099 571.65 471.799 571.16 471.057 569.13Z" fill="#263238"/>
<path d="M482.997 573.387C483.282 573.183 483.513 572.914 483.674 572.602C483.835 572.291 483.919 571.946 483.921 571.595C483.947 571.406 483.919 571.214 483.839 571.041C483.76 570.867 483.633 570.72 483.473 570.615C481.751 569.397 474.849 572.617 474.079 572.995C474.037 573.01 473.999 573.034 473.967 573.066C473.936 573.097 473.912 573.135 473.897 573.177C473.87 573.254 473.874 573.337 473.908 573.411C473.942 573.484 474.004 573.541 474.079 573.569C475.773 573.974 477.505 574.2 479.245 574.242C480.555 574.355 481.866 574.056 482.997 573.387ZM482.997 571.134C483.068 571.176 483.123 571.239 483.156 571.314C483.189 571.39 483.197 571.473 483.179 571.553C483.165 571.809 483.096 572.058 482.978 572.285C482.86 572.512 482.695 572.711 482.493 572.869C480.939 574.031 477.159 573.528 475.115 573.15C478.055 571.89 482.115 570.476 483.067 571.134H482.997Z" fill="#1F8B5D"/>
<path d="M474.349 573.636C476.421 572.768 480.761 569.436 480.523 567.574C480.523 567.196 480.215 566.748 479.277 566.622C475.497 566.188 473.873 572.978 473.873 573.258C473.858 573.315 473.86 573.376 473.877 573.432C473.894 573.489 473.927 573.54 473.971 573.58C474.004 573.594 474.04 573.601 474.076 573.601C474.112 573.601 474.148 573.594 474.181 573.58L474.349 573.636ZM479.151 567.168C479.851 567.252 479.851 567.504 479.851 567.588C480.047 568.68 476.897 571.508 474.657 572.698C475.119 571.116 476.505 567.098 478.857 567.098L479.151 567.168Z" fill="#1F8B5D"/>
<path d="M474.881 573.369C473.931 573.51 473.022 573.853 472.215 574.374C471.409 574.896 470.723 575.584 470.205 576.393" stroke="#1F8B5D" stroke-width="0.5" stroke-linecap="round" stroke-linejoin="round"/>
<path d="M478.309 575.959C477.358 576.092 476.447 576.43 475.639 576.949C474.832 577.469 474.147 578.158 473.633 578.969" stroke="#1F8B5D" stroke-width="0.5" stroke-linecap="round" stroke-linejoin="round"/>
<path d="M482.581 578.128C481.628 578.261 480.715 578.599 479.905 579.118C479.096 579.638 478.408 580.327 477.891 581.138" stroke="#1F8B5D" stroke-width="0.5" stroke-linecap="round" stroke-linejoin="round"/>
<path opacity="0.3" d="M474.192 557.511L472.792 562.299L454.62 559.513L454.942 555.579L474.192 557.511Z" fill="black"/>
<path d="M399.838 575.667L415.294 577.179L426.704 538.077L403.212 535.515L399.838 575.667Z" fill="#B97964"/>
<path d="M417.537 570.361H412.021C411.404 570.367 410.797 570.519 410.25 570.803C409.702 571.088 409.23 571.498 408.871 571.999C405.693 576.339 403.271 574.701 399.841 570.599C397.643 570.347 397.041 572.867 396.873 573.553L392.757 588.547C392.671 588.844 392.645 589.155 392.68 589.462C392.714 589.769 392.809 590.067 392.958 590.337C393.108 590.608 393.309 590.846 393.551 591.038C393.793 591.231 394.07 591.374 394.367 591.459C394.589 591.526 394.821 591.559 395.053 591.557H438.747C445.747 591.557 447.147 584.557 444.277 583.899C431.411 581.099 422.297 577.263 418.307 573.525C417.579 572.909 418.335 572.391 417.537 570.361Z" fill="#263238"/>
<path d="M429.492 574.633C429.781 574.428 430.017 574.157 430.18 573.843C430.343 573.529 430.429 573.181 430.43 572.827C430.455 572.64 430.426 572.45 430.347 572.279C430.267 572.108 430.141 571.963 429.982 571.861C428.26 570.629 421.358 573.849 420.588 574.227C420.546 574.244 420.507 574.271 420.476 574.305C420.445 574.339 420.421 574.379 420.406 574.423C420.379 574.499 420.383 574.583 420.417 574.656C420.451 574.729 420.513 574.786 420.588 574.815C422.284 575.208 424.014 575.429 425.754 575.473C427.058 575.599 428.368 575.305 429.492 574.633ZM429.492 572.379C429.56 572.42 429.614 572.481 429.646 572.553C429.679 572.626 429.689 572.707 429.674 572.785C429.661 573.041 429.594 573.291 429.475 573.518C429.357 573.745 429.191 573.944 428.988 574.101C427.42 575.277 423.64 574.773 421.61 574.395C424.522 573.135 428.596 571.707 429.548 572.379H429.492Z" fill="#1F8B5D"/>
<path d="M420.826 574.887C422.884 574.019 427.224 570.617 427 568.811C427 568.433 426.692 567.985 425.754 567.859C421.974 567.425 420.35 574.215 420.35 574.509C420.332 574.566 420.331 574.628 420.349 574.685C420.366 574.743 420.401 574.794 420.448 574.831H420.658L420.826 574.887ZM425.628 568.419C426.328 568.419 426.328 568.741 426.328 568.839C426.524 569.931 423.374 572.759 421.12 573.949C421.596 572.367 422.982 568.349 425.32 568.349L425.628 568.419Z" fill="#1F8B5D"/>
<path d="M421.399 574.616C420.446 574.755 419.535 575.097 418.725 575.618C417.916 576.14 417.229 576.829 416.709 577.64" stroke="#1F8B5D" stroke-width="0.5" stroke-linecap="round" stroke-linejoin="round"/>
<path d="M424.789 577.196C423.836 577.334 422.924 577.676 422.115 578.198C421.306 578.719 420.618 579.409 420.099 580.22" stroke="#1F8B5D" stroke-width="0.5" stroke-linecap="round" stroke-linejoin="round"/>
<path d="M429.042 579.365C428.092 579.506 427.183 579.848 426.376 580.37C425.57 580.892 424.884 581.58 424.366 582.389" stroke="#1F8B5D" stroke-width="0.5" stroke-linecap="round" stroke-linejoin="round"/>
<path opacity="0.3" d="M401.098 560.742L401.42 556.808L420.67 558.74L419.27 563.542" fill="black"/>
<path opacity="0.2" d="M482.79 277.58C482.79 277.58 471.45 289.564 449.19 289.76C426.93 289.956 402.024 277.02 402.024 277.02L404.824 272.246L468.846 279.246L481.096 272.246L482.79 277.58Z" fill="black"/>
<path d="M484.737 284.508C484.737 284.508 498.247 339.85 504.337 389.088C506.199 404.096 506.549 424.172 503.273 438.956L478.605 561.568L447.553 558.46C452.439 505.554 459.229 440.3 461.175 412.538L425.489 301.448L484.737 284.508Z" fill="#1F8B5D"/>
<path opacity="0.2" d="M444.625 361.161C444.527 361.679 460.025 298.399 460.025 298.399C460.025 298.399 464.225 350.045 448.629 374.699L444.625 361.161Z" fill="black"/>
<path d="M399.349 427.996C399.643 424.86 399.937 418.56 400.217 410.244H400.077C399.657 399.366 394.869 349.274 394.029 317.032C393.945 296.438 397.291 282.032 401.617 274.64C401.841 274.262 402.037 273.912 402.233 273.604C402.947 272.414 403.395 271.742 403.395 271.742C404.417 271.868 405.439 271.966 406.447 272.05L407.567 272.134C445.367 274.934 473.129 260.01 473.129 260.01C477.623 267.934 479.807 266.282 484.735 284.454C481.445 289.186 471.365 316.99 452.535 323.192L450.281 348.91C449.427 364.786 447.719 380.48 446.375 394.592L445.059 409.992C445.059 411 444.919 411.994 444.863 412.974C444.331 421.864 422.799 565.994 422.799 565.994L394.029 565.574C394.029 565.574 395.387 470.318 399.349 427.996Z" fill="#1F8B5D"/>
<path opacity="0.2" d="M480.214 553.587L478.604 561.567L447.552 558.459L448.364 549.793L480.214 553.587Z" fill="black"/>
<path opacity="0.2" d="M422.797 565.99L424.015 557.842L394.027 557.492V565.57L422.797 565.99Z" fill="black"/>
<path d="M395.835 201.73L386.175 168.802C392.293 159.674 422.575 152.674 422.575 152.674L442.497 153.766C442.497 153.766 450.141 155.474 456.693 157.602C465.443 160.402 470.175 162.754 472.261 167.612C472.261 167.612 475.915 178.364 473.661 200.526C473.059 206.616 471.673 238.774 473.381 249.246L485.799 273.452C449.399 301.788 402.835 273.452 402.835 273.452C404.459 268.44 408.057 257.366 408.799 252.452C408.267 246.222 406.517 242.12 403.871 231.2C403.311 229.114 396.717 203.774 395.835 201.73Z" fill="#263238"/>
<path opacity="0.7" d="M395.835 201.73L386.175 168.802C392.293 159.674 422.575 152.674 422.575 152.674L442.497 153.766C442.497 153.766 450.141 155.474 456.693 157.602C465.443 160.402 470.175 162.754 472.261 167.612C472.261 167.612 475.915 178.364 473.661 200.526C473.059 206.616 471.673 238.774 473.381 249.246L485.799 273.452C449.399 301.788 402.835 273.452 402.835 273.452C404.459 268.44 408.057 257.366 408.799 252.452C408.267 246.222 406.517 242.12 403.871 231.2C403.311 229.114 396.717 203.774 395.835 201.73Z" fill="#F1F8F0"/>
<path opacity="0.2" d="M399.616 213.517H401.394L406.728 197.725L404.376 233.495L399.448 214.777L399.616 213.517Z" fill="black"/>
<path d="M437.82 258.511C428.699 252.298 417.703 249.447 406.712 250.447L401.392 264.447C416.288 277.873 434.502 279.679 454.592 279.049C457.378 268.661 446.822 264.699 437.82 258.511Z" fill="#263238"/>
<path d="M479.737 249.51C478.267 246.71 475.271 244.568 472.191 245.044C469.921 245.621 467.91 246.942 466.479 248.796C460.162 255.564 455.343 263.588 452.339 272.344L453.515 279.036L459.731 276.488C465.611 274.08 471.673 271.532 476.069 266.94C480.465 262.348 482.733 255.11 479.737 249.51Z" fill="#263238"/>
<path d="M463.4 273.476C463.4 275.138 462.907 276.762 461.984 278.143C461.061 279.524 459.749 280.601 458.214 281.237C456.68 281.873 454.991 282.039 453.361 281.715C451.732 281.391 450.235 280.591 449.06 279.416C447.885 278.241 447.085 276.745 446.761 275.115C446.437 273.486 446.603 271.797 447.239 270.262C447.875 268.727 448.952 267.415 450.333 266.492C451.714 265.569 453.338 265.076 455 265.076C457.228 265.076 459.364 265.961 460.94 267.537C462.515 269.112 463.4 271.248 463.4 273.476Z" fill="#263238"/>
<path d="M458.682 306.562L456.582 276.56L452.676 279.108C440.352 297.256 435.094 319.286 437.892 341.044C443.123 341.944 448.436 342.286 453.74 342.066C452.242 338.902 450.744 335.752 449.26 332.588C453.88 330.796 456.932 326.176 458.15 321.388C459.368 316.6 459.018 311.504 458.682 306.562Z" fill="#263238"/>
<path d="M475.692 317.1C477.918 314.048 478.338 310.1 478.1 306.264C477.668 300.249 475.811 294.423 472.683 289.267C469.555 284.111 465.245 279.774 460.11 276.612L458.444 275.296C464.422 293.328 463.26 312.844 462.028 331.8L474.082 329.364C472.836 326.872 471.576 324.016 472.556 321.426C473.398 319.847 474.453 318.391 475.692 317.1Z" fill="#263238"/>
<path d="M444.106 95.0747C444.106 95.0747 447.41 131.671 449.23 142.185C454.97 149.059 477.692 144.089 468.83 119.897C464.126 107.143 463.734 91.0007 454.83 84.4347C442.398 75.1947 444.106 95.0747 444.106 95.0747Z" fill="#263238"/>
<path d="M441 155.555C439.983 154.665 439.208 153.532 438.748 152.261C438.287 150.99 438.157 149.624 438.368 148.289C438.722 145.855 439.366 143.472 440.286 141.191L437.178 137.817L421.022 122.641C421.792 133.127 423.654 149.969 415.66 155.961L441 176.443V155.555Z" fill="#B97964"/>
<path opacity="0.2" d="M438.325 148.989C433.943 146.595 429.071 142.353 429.463 137.285C429.584 135.431 429.927 133.598 430.485 131.825L439.599 143.109C438.967 145.019 438.54 146.99 438.325 148.989Z" fill="black"/>
<path d="M416.821 105.911C418.865 121.885 419.397 128.675 428.021 136.711C440.915 148.905 459.899 143.949 462.615 127.961C465.065 113.555 461.299 89.8674 445.325 83.6934C429.533 77.6874 414.763 89.9094 416.821 105.911Z" fill="#B97964"/>
<path opacity="0.2" d="M451.85 142.02C439.25 136.266 434.252 137.82 435.176 141.012C435.596 142.412 441.294 143.378 441.294 143.378L443.184 143.546C443.344 143.543 443.503 143.574 443.65 143.637C443.797 143.699 443.93 143.792 444.038 143.91C443.604 144.358 451.416 142.58 451.85 142.02Z" fill="black"/>
<path opacity="0.3" d="M459.733 135.398C459.535 135.169 459.273 135.007 458.98 134.931C458.687 134.856 458.378 134.872 458.095 134.978C457.048 135.489 456.168 136.286 455.556 137.277C454.944 138.268 454.625 139.413 454.637 140.578C455.63 139.929 456.567 139.199 457.437 138.394C458.276 137.453 459.043 136.452 459.733 135.398Z" fill="black"/>
<path d="M438.551 111.541C438.551 113.053 439.419 114.341 440.483 114.341C441.547 114.341 442.373 113.249 442.359 111.751C442.345 110.253 441.477 108.951 440.427 108.951C439.377 108.951 438.537 110.043 438.551 111.541Z" fill="#263238"/>
<path d="M454.845 110.142C454.748 110.754 454.872 111.381 455.195 111.909C455.518 112.438 456.02 112.834 456.609 113.026C457.645 113.152 458.555 112.088 458.625 110.632C458.695 109.176 457.911 107.832 456.861 107.832C455.811 107.832 454.915 108.686 454.845 110.142Z" fill="#263238"/>
<path d="M436.142 109.077C436.245 109.087 436.349 109.073 436.446 109.037C436.543 109 436.63 108.942 436.702 108.867C437.362 108.172 438.185 107.652 439.097 107.353C440.009 107.055 440.98 106.989 441.924 107.159C442.022 107.184 442.123 107.188 442.223 107.171C442.322 107.154 442.417 107.117 442.501 107.062C442.585 107.007 442.657 106.935 442.712 106.85C442.767 106.766 442.804 106.671 442.82 106.571C442.851 106.363 442.804 106.15 442.687 105.975C442.571 105.799 442.394 105.672 442.19 105.619C441 105.384 439.77 105.452 438.612 105.817C437.455 106.181 436.408 106.831 435.568 107.705C435.427 107.858 435.349 108.058 435.349 108.265C435.349 108.473 435.427 108.673 435.568 108.825C435.72 108.979 435.925 109.069 436.142 109.077Z" fill="#263238"/>
<path d="M461.369 101.305C461.463 101.275 461.55 101.226 461.625 101.161C461.699 101.096 461.76 101.017 461.803 100.927C461.884 100.74 461.888 100.528 461.815 100.337C461.741 100.146 461.596 99.991 461.411 99.9054C460.284 99.3129 459.036 98.9882 457.764 98.9566C456.492 98.9251 455.229 99.1875 454.075 99.7234C453.987 99.772 453.91 99.8385 453.85 99.9185C453.79 99.9986 453.747 100.091 453.724 100.188C453.702 100.286 453.7 100.387 453.72 100.486C453.739 100.584 453.779 100.677 453.837 100.759C453.954 100.934 454.131 101.06 454.334 101.114C454.538 101.169 454.754 101.147 454.943 101.053C455.861 100.644 456.86 100.451 457.865 100.487C458.87 100.523 459.853 100.789 460.739 101.263C460.937 101.353 461.161 101.368 461.369 101.305Z" fill="#263238"/>
<path d="M429.434 79.8141C423.932 80.7101 420.474 81.5081 416.134 84.2101C411.794 86.9121 407.16 93.5341 404.64 98.5601C401.042 105.742 400.776 114.562 400.608 122.948C400.496 128.464 400.524 134.456 403.324 138.81C405.143 141.559 407.934 143.519 411.136 144.298C414.148 144.97 417.242 145.196 420.32 144.97C422.854 144.886 425.92 144.354 426.872 141.512C428.356 137.046 422.784 132.902 423.526 128.184" fill="#263238"/>
<path d="M412.439 119.158C414.242 122.062 417.121 124.135 420.447 124.926C424.731 125.836 426.677 118.934 425.067 114.748C424.316 112.86 422.917 111.301 421.121 110.352C419.325 109.402 417.249 109.124 415.267 109.568C411.235 110.534 410.199 115.476 412.439 119.158Z" fill="#B97964"/>
<path d="M449.232 109.131C450.8 112.498 452.704 115.697 454.916 118.679C455.034 118.83 455.116 119.005 455.155 119.192C455.194 119.379 455.188 119.573 455.14 119.757C455.091 119.942 454.999 120.113 454.873 120.256C454.747 120.4 454.589 120.512 454.412 120.583C453.027 121.051 451.54 121.129 450.114 120.807L449.232 109.131Z" fill="#A24E3F"/>
<path d="M440.103 108.908L443.827 108.208C443.827 108.208 441.685 110.91 440.103 108.908Z" fill="#263238"/>
<path d="M456.483 107.747L460.235 107.285C460.235 107.285 457.939 109.791 456.483 107.747Z" fill="#263238"/>
<path d="M412.495 97.1609C410.325 100.311 414.651 109.425 414.651 109.425C414.651 109.425 422.323 107.143 422.743 118.721C425.543 119.183 428.763 108.375 428.343 97.5109C427.741 91.3789 416.331 91.6169 412.495 97.1609Z" fill="#263238"/>
<path opacity="0.2" d="M418.333 113.553C417.708 113.346 417.028 113.386 416.432 113.665C415.836 113.943 415.369 114.439 415.127 115.051C414.581 116.451 415.323 119.559 419.495 120.553" stroke="black" stroke-width="0.5" stroke-linecap="round" stroke-linejoin="round"/>
<path d="M457.8 88.2568C454.398 81.2568 440.594 74.6628 424.718 81.4668C410.382 87.5988 404.278 108.641 414.652 109.467C425.026 110.293 441.714 97.7068 441.714 97.7068L457.8 88.2568Z" fill="#263238"/>
<path d="M478.592 213.584L494.748 213.948L498.346 222.166L490.002 232.708C490.002 232.708 488.014 232.596 488.672 229.824C489.01 228.462 489.573 227.165 490.338 225.988L479.306 229.306C478.818 229.454 478.302 229.489 477.799 229.406C477.295 229.324 476.818 229.127 476.403 228.83C475.987 228.534 475.646 228.147 475.404 227.698C475.162 227.248 475.027 226.75 475.008 226.24L474.504 213.542L478.592 213.584Z" fill="#B97964"/>
<path d="M384.09 184.088C383.914 190.186 384.82 196.267 386.764 202.05C390.026 212.06 398.118 238.786 407.764 246.136C417.41 253.486 441.658 242.496 456.246 236.14C470.834 229.784 478.38 226.802 478.646 226.76L474.6 213.516L421.61 221.244L398.888 172.86C398.888 172.86 382.508 172.72 384.09 184.088Z" fill="#B97964"/>
<path opacity="0.2" d="M469.223 212.523C469.223 212.523 473.003 222.323 477.749 224.017C482.495 225.711 494.549 226.103 495.599 214.763L469.223 212.523Z" fill="black"/>
<path d="M386.175 168.8C376.235 178.404 387.351 215.616 387.351 215.616L419.117 207.216C419.117 207.216 411.571 179.216 403.983 172.132C397.599 166.196 391.635 163.354 386.175 168.8Z" fill="#263238"/>
<g opacity="0.7">
<path d="M386.175 168.8C376.235 178.404 387.351 215.616 387.351 215.616L419.117 207.216C419.117 207.216 411.571 179.216 403.983 172.132C397.599 166.196 391.635 163.354 386.175 168.8Z" fill="#F1F8F0"/>
</g>
<path d="M447.483 126.145C448.712 126.114 449.941 126.161 451.165 126.285C451.767 126.355 452.368 126.439 452.97 126.551C453.32 126.551 454.049 126.551 454.259 126.957C454.623 127.531 455.533 126.957 455.169 126.425C455.019 126.211 454.825 126.032 454.601 125.899C454.376 125.766 454.126 125.683 453.867 125.655C453.167 125.501 452.467 125.389 451.725 125.305C450.332 125.125 448.928 125.055 447.525 125.095C446.853 125.095 446.839 126.173 447.525 126.145H447.483Z" fill="#263238"/>
<path opacity="0.2" d="M438.326 149.832C437.859 149.995 437.47 150.327 437.234 150.762C436.998 151.197 436.933 151.704 437.052 152.184C437.458 153.99 438.088 154.214 438.088 154.214C437.821 154.502 437.616 154.841 437.483 155.211C437.351 155.58 437.294 155.973 437.316 156.364C437.338 156.756 437.439 157.14 437.613 157.492C437.786 157.844 438.029 158.157 438.326 158.414C438.793 158.811 439.345 159.098 439.938 159.253C440.532 159.408 441.153 159.428 441.756 159.31C441.756 159.31 446.614 167.458 450.562 167.78L451.766 168.004L463.092 191.804L451.094 149.104L438.326 149.832Z" fill="black"/>
<path d="M462.741 157.11C462.741 157.11 462.461 145.532 461.565 143.614C460.669 141.696 459.577 141.122 459.577 139.022C459.577 136.922 459.969 135.256 458.751 135.508C457.533 135.76 456.385 138 456.077 139.708C455.982 141.741 456.109 143.779 456.456 145.784C456.456 145.784 447.328 140.282 443.688 139.456C440.65 138.77 437.037 138.252 435.889 139.652C435.782 139.803 435.708 139.975 435.673 140.157C435.637 140.338 435.64 140.526 435.683 140.706C435.725 140.886 435.805 141.055 435.918 141.202C436.031 141.348 436.174 141.469 436.338 141.556C437.267 142.031 438.256 142.379 439.277 142.592C441.591 143.045 443.843 143.774 445.983 144.762C445.983 144.762 441.125 144.496 439.851 145.392C438.577 146.288 438.634 146.918 438.956 147.94C439.186 148.606 439.581 149.203 440.103 149.676C440.103 149.676 438.507 149.158 437.933 151.202C437.714 151.711 437.698 152.285 437.888 152.806C438.078 153.326 438.46 153.754 438.956 154.002C438.526 154.429 438.236 154.976 438.124 155.571C438.011 156.165 438.082 156.78 438.325 157.334C439.207 159.182 441.825 158.538 441.825 158.538C441.825 158.538 448.657 166.84 451.275 167.036C453.311 167.025 455.303 166.448 457.03 165.37C456.778 165.37 463.091 158.034 463.091 158.034L462.741 157.11Z" fill="#B97964"/>
<path d="M452.202 166.375C452.202 166.375 464.998 205.113 469.842 213.513C474.686 221.913 482.848 224.713 490.744 221.101C492.845 219.845 494.456 217.909 495.308 215.613C498.878 207.941 496.358 203.013 492.368 195.509L489.106 189.433L482.484 193.773L462.394 156.351L452.202 166.375Z" fill="#B97964"/>
</svg>
